<svg xmlns="http://www.w3.org/2000/svg" width="80.687" height="100.598" viewBox="0 0 80.687 100.598">
  <g id="Group_402" data-name="Group 402" transform="translate(-1037.381 -388.117)">
    <path id="Path_3309" data-name="Path 3309" d="M1040.962,451.518c-6.9-15.977-2.494-37.454,10.495-48.489,2.639-2.49,7.1-5.1,11.918-7.586,4.775-2.469,9.505-4.626,14.312-7.017,4.825,2.4,9.558,4.548,14.351,7.017,4.842,2.493,9.331,5.1,11.969,7.6,12.978,11.036,17.381,32.5,10.484,48.478-7.067,16.362-21.872,28.362-36.8,36.879C1062.745,479.874,1048.028,467.88,1040.962,451.518Z" fill="#fff" stroke="#231f20" stroke-miterlimit="3.864" stroke-width="0.553"/>
    <path id="Path_3310" data-name="Path 3310" d="M1040.962,451.488c-6.9-15.976-2.494-37.455,10.495-48.487,2.639-2.492,7.1-5.1,11.918-7.587,4.775-2.468,9.505-4.626,14.312-7.016,4.825,2.4,9.558,4.548,14.351,7.016,4.842,2.494,9.331,5.1,11.969,7.6,12.978,11.035,17.381,32.5,10.484,48.476-7.067,16.363-21.872,28.364-36.8,36.882-14.942-8.524-29.659-20.519-36.725-36.882" fill="#fff"/>
    <path id="Path_3311" data-name="Path 3311" d="M1055.547,415.824l.073-.1c.094.112.2.224.309.338a2.2,2.2,0,0,1-.376-.061Zm1.425,1.2.167.144-.119.234c-.012-.134-.028-.261-.048-.378m.078,1.461c.164.091.324.174.478.246a5.05,5.05,0,0,0-.532.588c.03-.284.048-.563.054-.834m.639.1a6.871,6.871,0,0,1-.634-.326c0-.163,0-.319-.01-.471l.251-.488.449.382a2.138,2.138,0,0,0,.792.316,4.343,4.343,0,0,0-.848.587m-1.953-3.039.455-.678a4.767,4.767,0,0,0,.444.813l-.213.37c-.067.007-.136.011-.2.013a6.249,6.249,0,0,1-.481-.518m.59-.872.407-.589a3.075,3.075,0,0,0,.4.77c-.137.227-.265.443-.383.636a5.285,5.285,0,0,1-.42-.817m.548-.792c.132-.185.265-.372.4-.56.134.262.259.485.38.683-.144.227-.281.451-.411.66a3.105,3.105,0,0,1-.37-.783m.531-.739c.153-.208.307-.418.462-.622a6.839,6.839,0,0,0,.279.716c-.126.2-.252.389-.372.579-.115-.192-.235-.416-.369-.673m.608-.81c.14-.184.282-.361.423-.538l.025.112a2.277,2.277,0,0,0,.209.551c-.133.194-.265.391-.393.585-.095-.209-.172-.444-.264-.71m.584-.734c.13-.159.26-.314.387-.463a2.96,2.96,0,0,0,.257.52c-.151.2-.3.413-.445.622a3.062,3.062,0,0,1-.2-.679m.544-.637c.166-.192.338-.375.506-.549a4.307,4.307,0,0,0,.191.467c-.156.192-.313.395-.467.6a2.438,2.438,0,0,1-.23-.521m.663-.707c.136-.132.267-.257.4-.371a2.594,2.594,0,0,0,.166.368c-.131.144-.263.3-.39.455a4.794,4.794,0,0,1-.176-.452m.562-.509a4.68,4.68,0,0,1,.471-.35,2.04,2.04,0,0,0,.129.248c-.148.135-.3.288-.454.453a2.867,2.867,0,0,1-.146-.351m.639-.455a1.723,1.723,0,0,1,.884-.278,2.739,2.739,0,0,0-.774.5c-.037-.063-.072-.136-.11-.219m1.892,1.257c.011.172.012.356.007.551a1.921,1.921,0,0,1-.454.091q.053-.321.082-.619a.994.994,0,0,0,.365-.023m0,.762c-.014.248-.044.508-.078.775a1.645,1.645,0,0,1-.56.043c.059-.253.114-.5.157-.736a2,2,0,0,0,.481-.082m-.111.987c-.026.175-.058.35-.093.531a2.54,2.54,0,0,1-.65.114c.061-.207.116-.415.166-.617a1.889,1.889,0,0,0,.577-.028m-.138.753c-.049.23-.1.463-.161.7a3.381,3.381,0,0,1-.728.132c.079-.243.155-.488.226-.732a2.949,2.949,0,0,0,.663-.1m-.218.918c-.063.234-.13.467-.2.7a2.787,2.787,0,0,1-.757.064c.076-.213.153-.431.221-.652a3.049,3.049,0,0,0,.738-.109m-.268.915c-.075.234-.152.463-.235.693a2.3,2.3,0,0,1-.781.044c.087-.224.17-.456.255-.694a2.939,2.939,0,0,0,.761-.043m-.317.915c-.074.2-.15.4-.228.591a2.284,2.284,0,0,1-.8.079c.083-.2.169-.424.257-.654a2.594,2.594,0,0,0,.772-.016m-.326.821c-.078.181-.155.354-.234.521a3.018,3.018,0,0,1-.792.109c.075-.176.155-.371.244-.586a2.566,2.566,0,0,0,.782-.044m.513-7.593a.81.81,0,0,1,.238.082.721.721,0,0,1,.163.113,1.837,1.837,0,0,1,.45,1.125.91.91,0,0,1-.332.025,3.188,3.188,0,0,0-.087-1.121c-.023.111-.05.3-.1.527a3.855,3.855,0,0,1,0,.546,1.243,1.243,0,0,1-.128-.053c.054-.177.1-.345.132-.493a1.9,1.9,0,0,0-.093-.5,4.09,4.09,0,0,1-.216.906c-.091-.047-.189-.1-.3-.141a1.467,1.467,0,0,1-.262-.124c.322-.46.563-.744.713-.783a.946.946,0,0,1,.063.142c0-.084-.009-.132-.042-.145a.056.056,0,0,0-.046,0,.943.943,0,0,0-.393.11,5.337,5.337,0,0,0-.451.559.9.9,0,0,1-.129-.148,2.829,2.829,0,0,1,.58-.411,1.506,1.506,0,0,1,.241-.216m.311,1.5q-.031.314-.093.662a1.508,1.508,0,0,1-.307-.052c.089-.239.166-.465.234-.677a1.42,1.42,0,0,0,.166.067m-.349-.156c-.069.215-.152.449-.244.7a3.815,3.815,0,0,1-.465-.208,1.727,1.727,0,0,1-.3-.184c.136-.22.27-.421.392-.6a1.912,1.912,0,0,0,.3.144c.114.047.219.1.31.144m-.771-.408c-.125.178-.254.375-.39.584a1.5,1.5,0,0,1-.225-.289c.156-.173.308-.331.455-.472a1.122,1.122,0,0,0,.16.177m.992,1.424c-.046.228-.1.466-.157.711a2.931,2.931,0,0,1-.434-.115c.087-.225.172-.443.25-.657a1.74,1.74,0,0,0,.341.061m-.535-.123c-.077.206-.161.424-.25.647-.162-.064-.325-.14-.487-.22a2.379,2.379,0,0,1-.418-.261c.121-.2.241-.4.357-.576a2.476,2.476,0,0,0,.313.192c.165.081.321.156.485.218m-.955-.545c-.117.183-.234.377-.354.573a1.766,1.766,0,0,1-.3-.4c.136-.17.268-.328.4-.479a1.591,1.591,0,0,0,.258.307m1.287,1.574q-.084.319-.175.65a2.793,2.793,0,0,1-.576-.078c.1-.234.2-.466.286-.7a3.026,3.026,0,0,0,.465.125m-.652-.2c-.094.23-.19.47-.294.714a3.1,3.1,0,0,1-1.029-.555c.131-.225.26-.445.385-.653a2.762,2.762,0,0,0,.429.266c.164.078.333.16.509.228m-1.1-.628c-.126.212-.253.428-.381.651a2.943,2.943,0,0,1-.4-.463q.231-.311.453-.6a1.986,1.986,0,0,0,.328.411m1.514,1.671a4.819,4.819,0,0,1-.26.723,2.869,2.869,0,0,1-.616-.159l.061-.14.22-.511a3.21,3.21,0,0,0,.595.087m-.79-.143-.207.49-.064.145c-.189-.078-.408-.177-.667-.3a5.148,5.148,0,0,1-.481-.26l.035-.064.331-.579a3.3,3.3,0,0,0,1.053.567m-1.208-.7-.347.615-.03.05a1.943,1.943,0,0,1-.495-.488c.15-.219.3-.435.453-.645a3.085,3.085,0,0,0,.419.468m1.715,1.766c-.071.215-.146.433-.221.648a4.382,4.382,0,0,1-.739-.166l.288-.659a3.02,3.02,0,0,0,.672.177m-.857-.249-.294.67c-.215-.069-.451-.157-.713-.263a3.816,3.816,0,0,1-.55-.269l.389-.7a4.911,4.911,0,0,0,.492.262c.257.124.481.222.676.3m-1.336-.673-.391.7a1.814,1.814,0,0,1-.526-.588c.132-.2.269-.406.4-.609a2.072,2.072,0,0,0,.512.5m1.9,1.762c-.083.233-.168.464-.254.69a5.543,5.543,0,0,1-.8-.209l.3-.654a4.8,4.8,0,0,0,.755.173m-.945-.235-.3.65c-.258-.092-.509-.191-.742-.277a2.749,2.749,0,0,1-.586-.274l.349-.637a4.507,4.507,0,0,0,.575.276c.258.1.491.189.7.262m-1.445-.649-.346.634a2.536,2.536,0,0,1-.57-.645l.363-.569a1.964,1.964,0,0,0,.553.58m2.065,1.763c-.089.23-.176.451-.264.666a4.738,4.738,0,0,1-.868-.2l.32-.683a5.353,5.353,0,0,0,.812.218m-1-.283-.322.683c-.231-.084-.48-.189-.742-.312a6.547,6.547,0,0,1-.6-.322l.325-.6a3.117,3.117,0,0,0,.61.288c.235.083.479.178.729.267m-1.506-.669-.326.61a3.15,3.15,0,0,1-.668-.6c.128-.209.264-.427.4-.652a2.668,2.668,0,0,0,.592.638m2.164,1.81c-.086.209-.17.409-.254.6a4.232,4.232,0,0,1-.937-.166c.1-.2.205-.416.315-.647a4.889,4.889,0,0,0,.876.211m-1.065-.278c-.112.235-.219.453-.322.656a6.608,6.608,0,0,1-.815-.328c-.216-.1-.4-.2-.57-.293l.358-.672a6.444,6.444,0,0,0,.607.324c.258.124.506.227.742.313m-1.519-.746-.36.681a2.768,2.768,0,0,1-.714-.624l.39-.648a3.29,3.29,0,0,0,.684.591m1.107,1.582c-.12.243-.232.459-.329.638a2.333,2.333,0,0,1-.854-.3l-.485-.414.282-.543c.17.1.36.2.574.3a7.151,7.151,0,0,0,.812.327m-1.56-.725-.264.51-.327-.283a1.274,1.274,0,0,0-.282-.6l.145-.249a2.923,2.923,0,0,0,.728.619m3.67.9c-.135.269-.271.517-.408.735l-.146-.01c-.1-.2-.183-.389-.258-.541a.685.685,0,0,0-.206-.016,3.732,3.732,0,0,0-1.172.253c.084-.158.176-.336.274-.534a4.724,4.724,0,0,0,.943.177l-.045.1c.063,0,.129,0,.195,0l.06-.092a3.21,3.21,0,0,0,.763-.072" fill="#231f20"/>
    <path id="Path_3312" data-name="Path 3312" d="M1069.669,408.97c1.232,0,2.33,3.838,2.33,7.815s-.752,8.292-2.262,8.292-2.4-4.044-2.4-7.675S1068.3,408.97,1069.669,408.97Zm-6.992,4.18c.6-1.312,5.143.07,7.815,1.716s6.92,4.591,6.236,6.1-5.618-.275-8.293-1.988S1061.991,414.661,1062.677,413.15Zm0,7.883c.507,1.119,5.346,0,8.433-2.124s6.511-4.523,5.618-5.895-5.688.686-7.745,1.852S1061.991,419.526,1062.677,421.033Z" fill="none" stroke="#231f20" stroke-miterlimit="3.864" stroke-width="0.553"/>
    <path id="Path_3313" data-name="Path 3313" d="M1041.487,451.294c6.8,15.739,20.926,27.714,36.2,36.445,15.277-8.735,29.482-20.706,36.28-36.445,6.807-15.765,2.435-36.975-10.347-47.835-2.572-2.43-7-5.013-11.843-7.508-4.792-2.469-9.961-4.839-14.09-6.886-4.126,2.047-9.277,4.417-14.05,6.886-4.822,2.5-9.234,5.078-11.8,7.508C1039.052,414.319,1034.678,435.529,1041.487,451.294Z" fill="none" stroke="#231f20" stroke-miterlimit="3.864" stroke-width="0.318"/>
    <path id="Path_3314" data-name="Path 3314" d="M1049.188,419.273c5.084-11.238,17.9-17.375,28.5-21.253,10.6,3.879,23.494,10,28.578,21.253,6.969,15.409,2.2,30.889-8,42.443a108,108,0,0,1-14.025,13.239,78.353,78.353,0,0,1-6.556,4.7,78.644,78.644,0,0,1-6.516-4.7,109.3,109.3,0,0,1-13.984-13.239C1046.99,450.162,1042.222,434.682,1049.188,419.273Z" fill="none" stroke="#231f20" stroke-miterlimit="3.864" stroke-width="0.553"/>
    <path id="Path_3315" data-name="Path 3315" d="M1046.712,438.291c1,8.459,5.034,16.4,10.9,23.048a104.313,104.313,0,0,0,20.073,17.635,102.865,102.865,0,0,0,20.152-17.635c5.867-6.648,9.9-14.589,10.9-23.048Zm62.137-1.053a35.107,35.107,0,0,0-3.1-17.731c-5.355-11.838-19.8-17.852-28.057-20.878-8.254,3.026-22.623,9.04-27.978,20.878a34.942,34.942,0,0,0-3.089,17.731Z" fill="none" stroke="#231f20" stroke-miterlimit="3.864" stroke-width="0.318"/>
    <path id="Path_3316" data-name="Path 3316" d="M1068.807,417.073a.927.927,0,1,1,.928.926.929.929,0,0,1-.928-.926" fill="#231f20"/>
    <path id="Path_3317" data-name="Path 3317" d="M1054.5,417.293c.275.548-.394,1.273-1.009,2.78s-.483,3.086.341,3.632a1.394,1.394,0,0,1-.137,1.3c-.2.345-.411.687-.137.894.353.261.685,0,.891-.549a1.3,1.3,0,0,1,1.37-.823c.479.137,1.862-.127,2.879-2.125a16.18,16.18,0,0,1,1.131-2.069c-.684,1.573-.515,2.549.584,3.369a2.212,2.212,0,0,1,.2-1.641c.275-.481.823-1.646,1.371-2.674a3.034,3.034,0,0,1-1.646-1.851,4.294,4.294,0,0,0-3.347,1.782c.158-1.6-.022-3.117-.481-3.282a2.02,2.02,0,0,1-2.134-.9c-1.713.958-2.66,2.435-2.391,5.207a15.454,15.454,0,0,1,2.511-3.055" fill="#fff"/>
    <path id="Path_3318" data-name="Path 3318" d="M1054.5,417.293c.275.548-.394,1.273-1.009,2.78s-.483,3.086.341,3.632a1.394,1.394,0,0,1-.137,1.3c-.2.345-.411.687-.137.894.353.261.685,0,.891-.549a1.3,1.3,0,0,1,1.37-.823c.479.137,1.862-.127,2.879-2.125a16.18,16.18,0,0,1,1.131-2.069c-.684,1.573-.515,2.549.584,3.369a2.212,2.212,0,0,1,.2-1.641c.275-.481.823-1.646,1.371-2.674a3.034,3.034,0,0,1-1.646-1.851,4.294,4.294,0,0,0-3.347,1.782c.158-1.6-.022-3.117-.481-3.282a2.02,2.02,0,0,1-2.134-.9c-1.713.958-2.66,2.435-2.391,5.207A15.454,15.454,0,0,1,1054.5,417.293Z" fill="none" stroke="#231f20" stroke-miterlimit="3.864" stroke-width="0.553"/>
    <path id="Path_3319" data-name="Path 3319" d="M1057,419.246c-.175,1.746-.755,3.678-1.794,4.323m6.789-4.112a1.916,1.916,0,0,0-2.167.879m-5.325-3.043c.854-.837,1.573-1.412,2.014-1.254" fill="none" stroke="#231f20" stroke-miterlimit="3.864" stroke-width="0.553"/>
    <path id="Path_3320" data-name="Path 3320" d="M1063.806,426.208l-.319-1.2-.135,1.237-.207-.892-.136.479-.205-.824-.208.617-.41-.617.069.824-.411-.342v.821a2.181,2.181,0,0,1-2.538-1.577,2.346,2.346,0,0,1,.756-2.532c.138-.209-.069-.347-.207-.414a3.117,3.117,0,0,0-1.987,2.535c-.137,1.3.344,2.878,2.057,3.015a3.24,3.24,0,0,0-2.467,2.333,1.179,1.179,0,0,0,1.577.136,2.5,2.5,0,0,0,1.094-1.577c.345.684.138.96-.136,1.783s.069,1.3.549,1.3.89.617.961,1.029a3.942,3.942,0,0,1,0,1.781c-.207.548-.62.822-.55,1.645.059.7.891.413,1.233.343a13.783,13.783,0,0,1,1.864.275,15.015,15.015,0,0,1,1.987-.275c.34.07,1.174.355,1.233-.343.07-.823-.342-1.1-.55-1.645a3.927,3.927,0,0,1,0-1.781c.07-.412.482-1.029.96-1.029s.825-.479.551-1.3-.482-1.1-.138-1.783a2.5,2.5,0,0,0,1.1,1.577,1.177,1.177,0,0,0,1.576-.136,3.246,3.246,0,0,0-2.467-2.333c1.713-.137,2.192-1.713,2.056-3.015a3.114,3.114,0,0,0-1.988-2.535c-.135.067-.343.205-.2.414a2.342,2.342,0,0,1,.754,2.532,2.181,2.181,0,0,1-2.538,1.577v-.821l-.41.342.07-.824-.412.617-.206-.617-.2.824-.137-.479-.207.892-.134-1.237-.345,1.1-.314-.606Z" fill="#fff"/>
    <path id="Path_3321" data-name="Path 3321" d="M1063.806,426.208l-.319-1.2-.135,1.237-.207-.892-.136.479-.205-.824-.208.617-.41-.617.069.824-.411-.342v.821a2.181,2.181,0,0,1-2.538-1.577,2.346,2.346,0,0,1,.756-2.532c.138-.209-.069-.347-.207-.414a3.117,3.117,0,0,0-1.987,2.535c-.137,1.3.344,2.878,2.057,3.015a3.24,3.24,0,0,0-2.467,2.333,1.179,1.179,0,0,0,1.577.136,2.5,2.5,0,0,0,1.094-1.577c.345.684.138.96-.136,1.783s.069,1.3.549,1.3.89.617.961,1.029a3.942,3.942,0,0,1,0,1.781c-.207.548-.62.822-.55,1.645.059.7.891.413,1.233.343a13.783,13.783,0,0,1,1.864.275,15.015,15.015,0,0,1,1.987-.275c.34.07,1.174.355,1.233-.343.07-.823-.342-1.1-.55-1.645a3.927,3.927,0,0,1,0-1.781c.07-.412.482-1.029.96-1.029s.825-.479.551-1.3-.482-1.1-.138-1.783a2.5,2.5,0,0,0,1.1,1.577,1.177,1.177,0,0,0,1.576-.136,3.246,3.246,0,0,0-2.467-2.333c1.713-.137,2.192-1.713,2.056-3.015a3.114,3.114,0,0,0-1.988-2.535c-.135.067-.343.205-.2.414a2.342,2.342,0,0,1,.754,2.532,2.181,2.181,0,0,1-2.538,1.577v-.821l-.41.342.07-.824-.412.617-.206-.617-.2.824-.137-.479-.207.892-.134-1.237-.345,1.1-.314-.606Z" fill="none" stroke="#231f20" stroke-miterlimit="3.864" stroke-width="0.553"/>
    <path id="Path_3322" data-name="Path 3322" d="M1061.547,468.622l-1.462,1.515-1.067-1.032-.311.323,1.068,1.03-1.015,1.052-1.149-1.111-.311.319,1.506,1.456,3.1-3.208Z" fill="#231f20"/>
    <path id="Path_3323" data-name="Path 3323" d="M1056.94,466.4l.815.848-2.112,1.223-.01-.009Zm2.749.36-.381-.4-1.146.659-.982-1.015.68-1.143-.38-.393-2.334,4,.455.469Z" fill="#231f20"/>
    <path id="Path_3324" data-name="Path 3324" d="M1052.378,463.348a1.245,1.245,0,0,0-.283,1.88c.814.969,1.875.276,2.645-.371.815-.683,1.8-1.571.915-2.622a1.118,1.118,0,0,0-1-.422,1.68,1.68,0,0,0-.892.408c-.076.047-.146.107-.225.156l.318.379c.085-.057.164-.116.251-.174.41-.265.859-.48,1.238-.03.58.692-.459,1.55-.94,1.923-.45.377-1.392,1.15-1.941.5-.4-.475-.162-.9.235-1.247Z" fill="#231f20"/>
    <path id="Path_3325" data-name="Path 3325" d="M1052.7,460.512a1.347,1.347,0,0,0-1.57-2.165l-2.735,1.989.289.4,2.591-1.885a.846.846,0,1,1,.991,1.365l-2.59,1.884.289.4Z" fill="#231f20"/>
    <path id="Path_3326" data-name="Path 3326" d="M1049.712,453.973l-.386.222.908,1.576-3.474,2.008.249.428,3.86-2.229Z" fill="#231f20"/>
    <path id="Path_3327" data-name="Path 3327" d="M1045.689,455.009l-.523-1.031,3.573-1.819-.225-.44-3.573,1.82-.524-1.026-.4.2,1.269,2.493Z" fill="#231f20"/>
    <path id="Path_3328" data-name="Path 3328" d="M1045.208,448.481l.441,1.091-2.419.343,0-.011Zm2.418,1.364-.2-.507-1.312.177-.53-1.305,1.061-.807-.206-.507-3.663,2.834.243.606Z" fill="#231f20"/>
    <path id="Path_3329" data-name="Path 3329" d="M1041.971,445.94l-.219-.76c-.22-.767.393-1.089,1.362-1.4,1.264-.412,1.867-.275,2.067.422l.217.76Zm3.63-1.894c-.333-1.161-1.489-1.053-2.546-.786s-2.1.763-1.714,2.1l.338,1.177,4.282-1.231Z" fill="#231f20"/>
    <path id="Path_3330" data-name="Path 3330" d="M1040.456,438l-.07-.788c-.07-.791.594-.992,1.6-1.117,1.321-.162,1.886.084,1.95.8l.068.791Zm3.924-1.167c-.106-1.2-1.262-1.315-2.349-1.256s-2.207.349-2.083,1.734l.108,1.219,4.438-.388Z" fill="#231f20"/>
    <path id="Path_3331" data-name="Path 3331" d="M1044.374,431.214l-.445-.016-.062,1.746-1.642-.057.057-1.629-.445-.014-.059,1.629-1.473-.054.061-1.733-.444-.016-.078,2.228,4.453.156Z" fill="#231f20"/>
    <path id="Path_3332" data-name="Path 3332" d="M1042.607,423.6a1.247,1.247,0,0,0-1.689.875c-.3,1.23.879,1.678,1.856,1.921,1.032.256,2.328.534,2.662-.8a1.125,1.125,0,0,0-.252-1.061,1.7,1.7,0,0,0-.851-.481c-.086-.033-.177-.056-.26-.091l-.119.48c.095.038.189.067.285.1.46.177.9.413.754.985-.219.874-1.524.538-2.108.367-.572-.142-1.75-.448-1.544-1.281.152-.6.631-.654,1.148-.537Z" fill="#231f20"/>
    <rect id="Rectangle_128" data-name="Rectangle 128" width="0.493" height="4.457" transform="translate(1041.973 421.158) rotate(-73.026)" fill="#231f20"/>
    <path id="Path_3333" data-name="Path 3333" d="M1047.992,417.941l-.415-.165-.655,1.618-1.524-.617.608-1.508-.411-.169-.611,1.511-1.367-.55.65-1.611-.412-.166-.836,2.067,4.135,1.668Z" fill="#231f20"/>
    <path id="Path_3334" data-name="Path 3334" d="M1049.4,413.955c.138.09.285.178.424.26l-.008.011c-.206-.064-.347-.107-.491-.138l-3.75-.923-.438.673,3.739,2.426.27-.411-2.981-1.937c-.19-.124-.386-.244-.58-.363l.007-.011a3.647,3.647,0,0,0,.655.228l3.667.892.441-.675-3.737-2.428-.269.414Z" fill="#231f20"/>
    <path id="Path_3335" data-name="Path 3335" d="M1050.917,408.427a1.244,1.244,0,0,0-1.9.016c-.83.954.022,1.893.782,2.551.8.7,1.833,1.532,2.734.5a1.13,1.13,0,0,0,.26-1.057,1.734,1.734,0,0,0-.544-.818c-.06-.068-.131-.129-.189-.2l-.323.373c.066.075.139.146.207.221.331.364.611.772.225,1.218-.594.682-1.6-.212-2.045-.628-.445-.385-1.355-1.194-.8-1.838.407-.468.861-.3,1.269.036Z" fill="#231f20"/>
    <path id="Path_3336" data-name="Path 3336" d="M1055.087,408.739l-2.924-3.363-.372.323,2.925,3.365Z" fill="#231f20"/>
    <path id="Path_3337" data-name="Path 3337" d="M1057.018,404.885l-.927.724-1-2.229.011-.007Zm-.644,2.7.43-.337-.533-1.213,1.112-.867,1.066.8.43-.335-3.733-2.74-.514.4Z" fill="#231f20"/>
    <path id="Path_3338" data-name="Path 3338" d="M1060.526,400.645a1.11,1.11,0,0,0-1.742-.4,1.17,1.17,0,0,0-.407,1.692,1,1,0,0,0,.984.576,9.252,9.252,0,0,0,.922-.171c.475-.093.711-.232,1.07.342a.746.746,0,0,1-.31,1.109c-.628.4-.957.108-1.286-.464l-.418.261a2.57,2.57,0,0,0,.514.641,1.214,1.214,0,0,0,1.405-.046,1.251,1.251,0,0,0,.467-1.867c-.309-.5-.6-.669-1.481-.489-.251.05-.493.1-.743.147a.585.585,0,0,1-.678-.289.693.693,0,0,1,.253-1.1.681.681,0,0,1,1.03.315Z" fill="#231f20"/>
    <path id="Path_3339" data-name="Path 3339" d="M1067.064,398.853l-1.059.514-.507-2.388.008,0Zm-1.192,2.5.492-.237-.269-1.3,1.268-.618.876,1,.492-.241-3.083-3.455-.586.287Z" fill="#231f20"/>
    <path id="Path_3340" data-name="Path 3340" d="M1071.78,396.125l-1.369.579.175.411.915-.387c.281.647.532,1.451-.327,1.772-.826.3-1.255-.8-1.519-1.424-.3-.7-.723-1.732.18-2.094.526-.21.887.049,1.1.551l.46-.195a1.245,1.245,0,0,0-1.761-.758c-1.187.5-.868,1.725-.461,2.682s1.016,2.138,2.236,1.619a.992.992,0,0,0,.642-1.1l.011-.005.269.639.353-.148Z" fill="#231f20"/>
    <path id="Path_3341" data-name="Path 3341" d="M1074.355,395.48l.8-.308a.709.709,0,0,1,1.006.5,3.962,3.962,0,0,0,.551,1l.539-.207-.037-.093c-.109.042-.215-.13-.262-.2-.162-.293-.306-.587-.443-.893-.281-.53-.479-.649-1.035-.492l-.006-.011a.956.956,0,0,0,.452-1.212c-.341-.97-.984-.986-1.853-.651l-1.071.411,1.6,4.162.46-.178Zm-.735-1.914.649-.25c.312-.119.877-.315,1.162.393a.765.765,0,0,1-.51,1.076l-.727.28Z" fill="#231f20"/>
    <path id="Path_3342" data-name="Path 3342" d="M1081.194,395.172c-.467,1.2-.833,1.793-1.6,1.5s-.644-.98-.188-2.185c.349-.928.815-1.6,1.525-1.331.732.281.622,1.091.262,2.018m-2.258-.883c-.433,1.16-.715,2.33.5,2.8s1.792-.591,2.244-1.743c.371-.952.65-2.132-.567-2.6-1.236-.473-1.811.591-2.176,1.544" fill="#231f20"/>
    <path id="Path_3343" data-name="Path 3343" d="M1084.961,398.31c-.063.154-.125.313-.182.463l-.011,0c.026-.214.044-.364.047-.509l.26-3.853-.738-.314-1.739,4.1.453.194,1.387-3.272c.089-.208.173-.422.259-.632l.009,0a3.414,3.414,0,0,0-.109.683l-.245,3.77.744.316,1.741-4.1-.454-.191Z" fill="#231f20"/>
    <path id="Path_3344" data-name="Path 3344" d="M1089.911,396.148l.36.174,1.066-.412-.584-.284Zm.1,2.884c-.568,1.156-.989,1.714-1.725,1.355s-.554-1.031.006-2.193c.429-.893.949-1.527,1.633-1.194.7.346.527,1.143.086,2.032m-2.174-1.073c-.532,1.117-.914,2.258.253,2.828s1.84-.431,2.387-1.542c.452-.913.835-2.064-.335-2.634-1.192-.582-1.858.428-2.3,1.348" fill="#231f20"/>
    <path id="Path_3345" data-name="Path 3345" d="M1093.311,402.37a6.177,6.177,0,0,0-.429.522l-.012-.005a4,4,0,0,0,.249-.619l.982-3.448-.759-.437-2.227,3.86.427.247,1.83-3.172c.1-.164.181-.339.279-.5l.011.006c-.077.238-.118.383-.16.538l-1.04,3.662.512.293,2.626-2.682c.122-.129.241-.251.419-.451l.009.006c-.084.17-.187.323-.283.489l-1.836,3.181.425.246,2.231-3.86-.752-.433Z" fill="#231f20"/>
    <rect id="Rectangle_129" data-name="Rectangle 129" width="4.456" height="0.493" transform="translate(1096.078 405.34) rotate(-55.003)" fill="#231f20"/>
    <path id="Path_3346" data-name="Path 3346" d="M1102.154,406.116a1.246,1.246,0,0,0-.049-1.9c-.969-.813-1.891.054-2.539.826-.684.814-1.5,1.86-.447,2.74a1.113,1.113,0,0,0,1.062.242,1.693,1.693,0,0,0,.808-.555c.067-.061.127-.134.193-.194l-.377-.318c-.074.072-.143.145-.218.214-.357.334-.764.622-1.214.245-.69-.581.185-1.607.593-2.055.378-.451,1.17-1.378,1.824-.827.475.4.317.855-.014,1.267Z" fill="#231f20"/>
    <path id="Path_3347" data-name="Path 3347" d="M1104.011,409.958l-.787-.874,2.155-1.15.01.008Zm-2.737-.454.366.4,1.173-.616.944,1.047-.719,1.121.364.4,2.475-3.915-.439-.484Z" fill="#231f20"/>
    <path id="Path_3348" data-name="Path 3348" d="M1108.485,413.081a1.112,1.112,0,0,0,.243-1.77,1.17,1.17,0,0,0-1.72-.257.991.991,0,0,0-.49,1.028c.044.267.179.655.251.906.137.465.295.687-.246,1.1a.75.75,0,0,1-1.133-.212c-.447-.6-.192-.942.351-1.322l-.3-.394a2.481,2.481,0,0,0-.593.567,1.217,1.217,0,0,0,.168,1.4,1.251,1.251,0,0,0,1.9.3c.47-.354.615-.656.36-1.518-.073-.245-.142-.482-.213-.726a.589.589,0,0,1,.23-.7.694.694,0,0,1,1.115.158.681.681,0,0,1-.224,1.054Z" fill="#231f20"/>
    <path id="Path_3349" data-name="Path 3349" d="M1112.226,417.7l-.2-.509-2.069,2.225-1.613.618.175.462,1.614-.62,3.031.283-.2-.511-2.462-.18Z" fill="#231f20"/>
    <path id="Path_3350" data-name="Path 3350" d="M1110.771,426.894l0-.013,3.829-1.791-.1-.538-4.131,2.105.118.6,4.619.408-.1-.536Z" fill="#231f20"/>
    <path id="Path_3351" data-name="Path 3351" d="M1111.106,432.355l.445-.031-.122-1.744,1.643-.115.111,1.627.446-.033-.114-1.625,1.471-.1.121,1.729.443-.03-.153-2.225-4.448.313Z" fill="#231f20"/>
    <path id="Path_3352" data-name="Path 3352" d="M1115.214,434.061l-.059,1.15-4.006-.209-.026.493,4,.209-.059,1.151.445.025.145-2.8Z" fill="#231f20"/>
    <path id="Path_3353" data-name="Path 3353" d="M1110.664,440.482l.442.052.214-1.733,1.632.2-.2,1.617.446.054.2-1.616,1.463.179-.212,1.724.442.051.273-2.21-4.426-.546Z" fill="#231f20"/>
    <path id="Path_3354" data-name="Path 3354" d="M1112.062,443.275l-.192.839a.714.714,0,0,1-.977.556,4.031,4.031,0,0,0-1.139-.107l-.131.562.1.023c.026-.114.228-.105.311-.105.336.029.66.075.989.131.595.065.806-.034.988-.582l.013,0a.95.95,0,0,0,.751,1.051c.995.26,1.366-.263,1.576-1.172l.257-1.119-4.342-1-.111.479Zm2,.459-.157.678c-.076.326-.228.906-.978.747a.766.766,0,0,1-.6-1.027l.176-.759Z" fill="#231f20"/>
    <path id="Path_3355" data-name="Path 3355" d="M1108.757,447.437l4.186,1.524.17-.464-4.188-1.524Z" fill="#231f20"/>
    <path id="Path_3356" data-name="Path 3356" d="M1107.8,451.814c-.152-.072-.309-.143-.455-.208l0-.01c.215.039.362.062.508.075l3.835.461.351-.722-4.006-1.953-.216.445,3.194,1.558c.2.1.413.194.618.287l-.005.009a3.561,3.561,0,0,0-.675-.143l-3.753-.442-.352.727,4,1.953.218-.443Z" fill="#231f20"/>
    <path id="Path_3357" data-name="Path 3357" d="M1106.5,456.108l.607-1.006,1.728,1.724-.007.011Zm-.366-2.748-.281.47.934.94-.727,1.207-1.281-.36-.28.469,4.465,1.22.335-.562Z" fill="#231f20"/>
    <path id="Path_3358" data-name="Path 3358" d="M1104.9,459.047l-.508.7a.71.71,0,0,1-1.115.129,4.155,4.155,0,0,0-1.009-.541l-.338.466.083.061c.067-.1.246-.011.325.023.3.158.579.326.86.508.523.292.754.282,1.139-.151l.009.007a.951.951,0,0,0,.28,1.263c.815.629,1.361.288,1.908-.465l.675-.929-3.605-2.619-.291.4Zm1.657,1.2-.407.562c-.2.269-.564.747-1.191.305a.764.764,0,0,1-.155-1.182l.456-.626Z" fill="#231f20"/>
    <path id="Path_3359" data-name="Path 3359" d="M1100.382,461.69l3.418,2.863.314-.38-3.412-2.862Z" fill="#231f20"/>
    <path id="Path_3360" data-name="Path 3360" d="M1099.1,465.774l.789-.876,1.366,2.026-.008.007Zm.166-2.771-.366.408.736,1.1-.943,1.049-1.187-.6-.367.407,4.152,2.05.438-.486Z" fill="#231f20"/>
    <path id="Path_3361" data-name="Path 3361" d="M1096.7,470.516a1.108,1.108,0,0,0,1.784-.033,1.169,1.169,0,0,0-.011-1.74,1,1,0,0,0-1.094-.322,8.961,8.961,0,0,0-.856.391c-.437.2-.631.394-1.117-.075a.746.746,0,0,1,.03-1.153c.515-.535.9-.334,1.357.142l.344-.357a2.585,2.585,0,0,0-.653-.5,1.223,1.223,0,0,0-1.354.387,1.254,1.254,0,0,0,0,1.926c.424.409.744.5,1.558.113l.683-.322a.588.588,0,0,1,.73.118.694.694,0,0,1,.02,1.126.685.685,0,0,1-1.079-.058Z" fill="#231f20"/>
    <path id="Path_3362" data-name="Path 3362" d="M1065.663,475.291a.9.9,0,1,0-1.278.094.913.913,0,0,0,1.278-.094" fill="#231f20"/>
    <path id="Path_3363" data-name="Path 3363" d="M1067.773,478.554a1.346,1.346,0,0,0,2.107,1.645l2.082-2.664-.39-.3-1.971,2.525a.848.848,0,1,1-1.331-1.041l1.972-2.523-.389-.3Z" fill="#231f20"/>
    <path id="Path_3364" data-name="Path 3364" d="M1075.167,483.062l-.986-.639,1.785-1.667.011,0Zm-2.759.272.458.3.975-.9,1.179.769-.4,1.268.459.3,1.376-4.42-.55-.358Z" fill="#231f20"/>
    <path id="Path_3365" data-name="Path 3365" d="M1080.91,480.761a1.113,1.113,0,0,0-1.751-.367,1.169,1.169,0,0,0-.377,1.7,1,1,0,0,0,.994.559c.267-.026.663-.133.92-.188.471-.1.7-.243,1.074.323a.75.75,0,0,1-.289,1.118c-.623.4-.955.122-1.295-.443l-.412.268a2.475,2.475,0,0,0,.521.63,1.216,1.216,0,0,0,1.409-.069,1.255,1.255,0,0,0,.434-1.877c-.321-.493-.613-.658-1.494-.46-.244.052-.489.1-.737.159a.585.585,0,0,1-.683-.279.692.692,0,0,1,.234-1.1.681.681,0,0,1,1.036.3Z" fill="#231f20"/>
    <path id="Path_3366" data-name="Path 3366" d="M1084.112,477.544l.625-.486c.628-.492,1.158-.044,1.811.734.857,1.019.955,1.627.385,2.075l-.623.487Zm3.118,2.655c.952-.742.417-1.771-.225-2.651s-1.494-1.66-2.59-.806l-.963.754,2.742,3.513Z" fill="#231f20"/>
    <path id="Path_3367" data-name="Path 3367" d="M1091.122,474.106a.9.9,0,1,0-.085,1.279.917.917,0,0,0,.085-1.279" fill="#231f20"/>
    <path id="Path_3368" data-name="Path 3368" d="M1108.862,437.179a35.128,35.128,0,0,0-3.118-17.67c-5.355-11.84-19.8-17.854-28.054-20.879v38.545Z" fill="#00a651"/>
    <path id="Path_3369" data-name="Path 3369" d="M1079.726,465.479h-5.571v6.4c-1.33-1.044-2.658-2.147-3.961-3.289V446.043c0-2.726,2.969-6.562,7.055-6.562a6.456,6.456,0,0,1,6.439,6.435v24.005c-1.354,1.133-2.6,2.216-3.962,3.227Z" fill="#00a651"/>
    <path id="Path_3370" data-name="Path 3370" d="M1067.842,440.6v3.714h-8.668c-.975.009-1.159,1.114-.688,2.012a38.439,38.439,0,0,0,6,8.953c1.076,1.219,2.247,2.473,3.482,3.733v7.583a107.441,107.441,0,0,1-7.564-7.709,44.461,44.461,0,0,1-6.837-10.16c-2.146-4.477,1.22-8.126,5.86-8.126Z" fill="#00a651"/>
    <path id="Path_3371" data-name="Path 3371" d="M1104.632,440.6a39.716,39.716,0,0,1-9.579,18.286,108.039,108.039,0,0,1-9.138,9.12V440.6h3.961v15.97c.377-.41.741-.888,1.093-1.291a34.617,34.617,0,0,0,8.085-14.679Z" fill="#00a651"/>
    <path id="Path_3372" data-name="Path 3372" d="M1074.155,461.517V447.034c0-1.736,1.236-3.715,2.847-3.715s2.722,1.607,2.722,3.589v14.609Z" fill="#fff"/>
  </g>
</svg>
