<svg xmlns="http://www.w3.org/2000/svg" xmlns:xlink="http://www.w3.org/1999/xlink" width="80.867" height="100.802" viewBox="0 0 80.867 100.802">
  <defs>
    <linearGradient id="linear-gradient" x1="0.5" y1="0.011" x2="0.5" y2="0.987" gradientUnits="objectBoundingBox">
      <stop offset="0" stop-color="#00aeef"/>
      <stop offset="1" stop-color="#fff"/>
    </linearGradient>
  </defs>
  <g id="Group_335" data-name="Group 335" transform="translate(-194.739 -373.939)">
    <path id="Path_2981" data-name="Path 2981" d="M220.818,381.354c-4.816,2.489-9.283,5.1-11.92,7.59-12.994,11.035-17.4,32.519-10.5,48.5,7.067,16.366,21.789,28.364,36.734,36.889,14.937-8.518,29.748-20.522,36.815-36.889,6.9-15.978,2.5-37.454-10.485-48.494-2.64-2.493-7.132-5.105-11.974-7.6-4.8-2.473-9.527-4.619-14.356-7.019-4.809,2.39-9.539,4.546-14.314,7.019" transform="translate(0)" fill="url(#linear-gradient)"/>
    <g id="Group_334" data-name="Group 334" transform="translate(195.157 374.335)">
      <path id="Path_2982" data-name="Path 2982" d="M268.526,425.741a36.528,36.528,0,0,0-3.161-17.073c-5.328-12.053-19.7-18.178-27.926-21.259-8.215,3.081-22.517,9.206-27.845,21.259a36.379,36.379,0,0,0-3.15,17.073Z" transform="translate(-197.464 -377.023)" fill="#fff"/>
      <path id="Path_2983" data-name="Path 2983" d="M268.526,425.741a36.528,36.528,0,0,0-3.161-17.073c-5.328-12.053-19.7-18.178-27.926-21.259-8.215,3.081-22.517,9.206-27.845,21.259a36.379,36.379,0,0,0-3.15,17.073Z" transform="translate(-197.464 -377.023)" fill="none" stroke="#231f20" stroke-miterlimit="3.864" stroke-width="0.408"/>
      <path id="Path_2984" data-name="Path 2984" d="M199.081,437.383c6.8,15.742,20.929,27.714,36.2,36.449,15.276-8.735,29.485-20.709,36.281-36.449,6.808-15.766,2.437-36.977-10.347-47.835-2.571-2.431-7-5.014-11.842-7.512-4.793-2.467-9.962-4.836-14.092-6.885-4.125,2.048-9.276,4.418-14.049,6.885-4.824,2.5-9.233,5.081-11.806,7.512C196.648,400.407,192.275,421.617,199.081,437.383Z" transform="translate(-195.308 -374.503)" fill="none" stroke="#231f20" stroke-miterlimit="3.864" stroke-width="0.408"/>
      <path id="Path_2985" data-name="Path 2985" d="M198.4,437.446c-6.9-15.983-2.494-37.468,10.5-48.5,2.64-2.494,7.106-5.1,11.923-7.592,4.775-2.469,9.5-4.625,14.314-7.017,4.83,2.4,9.56,4.546,14.356,7.017,4.841,2.494,9.333,5.105,11.971,7.6,12.981,11.037,17.389,32.514,10.487,48.491-7.067,16.368-21.877,28.371-36.815,36.888C220.187,465.81,205.465,453.812,198.4,437.446Z" transform="translate(-195.157 -374.335)" fill="none" stroke="#231f20" stroke-miterlimit="3.864" stroke-width="0.708"/>
      <path id="Path_2986" data-name="Path 2986" d="M208.91,407.8c5.062-11.195,17.822-17.31,28.378-21.175,10.556,3.864,23.391,9.97,28.454,21.175,6.936,15.351,2.19,30.775-7.963,42.286a107.655,107.655,0,0,1-13.964,13.187,77.182,77.182,0,0,1-6.527,4.677,76.991,76.991,0,0,1-6.489-4.677,109.14,109.14,0,0,1-13.925-13.187c-10.154-11.511-14.9-26.935-7.964-42.286" transform="translate(-197.311 -376.862)" fill="#fff"/>
      <path id="Path_2987" data-name="Path 2987" d="M208.91,407.8c5.062-11.195,17.822-17.31,28.378-21.175,10.556,3.864,23.391,9.97,28.454,21.175,6.936,15.351,2.19,30.775-7.963,42.286a107.655,107.655,0,0,1-13.964,13.187,77.182,77.182,0,0,1-6.527,4.677,76.991,76.991,0,0,1-6.489-4.677,109.14,109.14,0,0,1-13.925-13.187C206.721,438.578,201.972,423.154,208.91,407.8Z" transform="translate(-197.311 -376.862)" fill="none" stroke="#231f20" stroke-miterlimit="3.864" stroke-width="0.708"/>
      <path id="Path_2988" data-name="Path 2988" d="M202.465,434.536l-2.134.187-.129-1.5-.454.038.131,1.508-1.482.129-.142-1.62-.453.039.187,2.119,4.522-.394Z" transform="translate(-195.701 -387.278)" fill="#231f20"/>
      <path id="Path_2989" data-name="Path 2989" d="M200.9,426.85l-.082,1.2-2.368-.769v-.01Zm1.6,2.324.039-.555-1.282-.422.1-1.43,1.328-.268.041-.552-4.615.955-.048.663Z" transform="translate(-195.755 -385.688)" fill="#231f20"/>
      <path id="Path_2990" data-name="Path 2990" d="M201.259,418.177a1.268,1.268,0,0,0-1.718.893c-.315,1.25.894,1.71,1.887,1.957,1.05.262,2.371.542,2.712-.816a1.15,1.15,0,0,0-.257-1.079,1.743,1.743,0,0,0-.869-.493c-.085-.033-.177-.053-.264-.092l-.122.489c.1.037.2.068.293.1.466.18.91.422.767,1-.223.892-1.552.549-2.145.376-.581-.143-1.783-.456-1.575-1.3.156-.611.644-.67,1.169-.55Z" transform="translate(-196.048 -383.962)" fill="#231f20"/>
      <path id="Path_2991" data-name="Path 2991" d="M205.218,412.888a1.372,1.372,0,0,0,1.195-2.447l-3.094-1.507-.222.45,2.933,1.43a.861.861,0,1,1-.752,1.543l-2.931-1.429-.22.454Z" transform="translate(-196.59 -381.95)" fill="#231f20"/>
      <path id="Path_2992" data-name="Path 2992" d="M211.93,404.345l-.359-.279-1.139,1.459-3.217-2.516-.311.4,3.576,2.793Z" transform="translate(-197.572 -380.642)" fill="#231f20"/>
      <path id="Path_2993" data-name="Path 2993" d="M212.024,397.7l.846-.816,2.836,2.938.361-.348-2.834-2.938.843-.816-.317-.328-2.049,1.983Z" transform="translate(-198.803 -378.971)" fill="#231f20"/>
      <path id="Path_2994" data-name="Path 2994" d="M221.523,393.267l-.98.687-.9-2.322.01-.008Zm-.8,2.707.458-.317-.477-1.262,1.175-.825,1.041.868.458-.32-3.65-2.985-.547.382Z" transform="translate(-200.448 -377.788)" fill="#231f20"/>
      <path id="Path_2995" data-name="Path 2995" d="M226.309,387.388l.712-.38c.715-.381,1.166.16,1.685,1.057.678,1.175.673,1.8.019,2.148l-.711.379Zm2.655,3.212c1.084-.575.732-1.7.242-2.7s-1.2-1.928-2.452-1.268l-1.1.587,2.131,4.007Z" transform="translate(-201.873 -376.818)" fill="#231f20"/>
      <path id="Path_2996" data-name="Path 2996" d="M239.78,381.175l.755-.288c.755-.289,1.138.3,1.542,1.255.533,1.247.446,1.87-.242,2.135l-.752.288Zm2.246,3.515c1.146-.439.933-1.6.57-2.649s-.961-2.063-2.282-1.556l-1.163.447,1.624,4.237Z" transform="translate(-204.844 -375.571)" fill="#231f20"/>
      <path id="Path_2997" data-name="Path 2997" d="M249.735,384.614l.161-.424-1.658-.636.6-1.567,1.548.594.162-.424L249,381.563l.536-1.4,1.652.633.162-.422-2.119-.812L247.6,383.8Z" transform="translate(-206.705 -375.41)" fill="#231f20"/>
      <path id="Path_2998" data-name="Path 2998" d="M263.809,387.574a1.265,1.265,0,0,0-.448-1.884c-1.138-.608-1.874.457-2.354,1.358-.51.956-1.1,2.172.133,2.827a1.151,1.151,0,0,0,1.11.015,1.725,1.725,0,0,0,.687-.725c.052-.074.1-.162.151-.234l-.443-.236c-.057.087-.112.173-.171.259-.287.409-.628.783-1.157.5-.813-.435-.157-1.641.154-2.174.281-.528.875-1.618,1.643-1.207.555.295.5.782.253,1.262Z" transform="translate(-209.523 -376.633)" fill="#231f20"/>
      <path id="Path_2999" data-name="Path 2999" d="M267.554,393.406l2.4-3.847-.424-.267-2.406,3.85Z" transform="translate(-210.991 -377.41)" fill="#231f20"/>
      <path id="Path_3000" data-name="Path 3000" d="M273.684,397.911l.28-.358-1.4-1.1,1.034-1.322,1.307,1.022.278-.358-1.306-1.02.922-1.182,1.395,1.085.28-.356-1.788-1.4-2.794,3.576Z" transform="translate(-212.063 -378.158)" fill="#231f20"/>
      <path id="Path_3001" data-name="Path 3001" d="M279.81,402.865c-.127.115-.25.237-.369.35l-.008-.008c.117-.187.2-.316.263-.45l1.9-3.444-.549-.607-3.372,3.037.338.373L280.7,399.7c.17-.152.344-.317.51-.474l.007.008a4,4,0,0,0-.394.582l-1.847,3.373.549.612,3.374-3.038-.338-.372Z" transform="translate(-213.549 -379.702)" fill="#231f20"/>
      <path id="Path_3002" data-name="Path 3002" d="M287.046,409.616a1.267,1.267,0,0,0,.679-1.814c-.6-1.138-1.806-.671-2.71-.19-.957.509-2.126,1.184-1.47,2.417a1.148,1.148,0,0,0,.91.633,1.751,1.751,0,0,0,.978-.216c.084-.032.171-.079.257-.111l-.234-.443c-.1.038-.191.08-.289.118-.464.18-.957.3-1.239-.231-.433-.814.786-1.447,1.343-1.715.529-.281,1.629-.851,2.038-.083.3.554-.029.927-.5,1.19Z" transform="translate(-214.717 -381.543)" fill="#231f20"/>
      <rect id="Rectangle_117" data-name="Rectangle 117" width="4.537" height="0.502" transform="translate(71.072 33.145) rotate(-19.012)" fill="#231f20"/>
      <path id="Path_3003" data-name="Path 3003" d="M290.177,424.625l-.226-1.176,2.483.126,0,.013Zm-2.148-1.833.1.545,1.347.079.274,1.409-1.215.6.1.547,4.213-2.116-.129-.655Z" transform="translate(-215.678 -384.993)" fill="#231f20"/>
      <path id="Path_3004" data-name="Path 3004" d="M292.621,434.3c.856.021,1.266-.5,1.236-1.332a1.191,1.191,0,0,0-1.284-1.223,1.015,1.015,0,0,0-1.01.577c-.118.242-.23.648-.319.9-.16.465-.157.744-.845.767a.762.762,0,0,1-.821-.837c-.025-.753.389-.9,1.063-.9l-.018-.505a2.584,2.584,0,0,0-.821.129,1.239,1.239,0,0,0-.678,1.266,1.277,1.277,0,0,0,1.411,1.361c.6-.025.895-.19,1.184-1.058.084-.249.165-.487.246-.731a.6.6,0,0,1,.6-.452c.35-.01.812.052.84.784a.7.7,0,0,1-.8.749Z" transform="translate(-215.902 -386.959)" fill="#231f20"/>
      <path id="Path_3005" data-name="Path 3005" d="M230.559,485.256a.917.917,0,1,0-1.3.1.927.927,0,0,0,1.3-.1" transform="translate(-202.585 -398.609)" fill="#231f20"/>
      <path id="Path_3006" data-name="Path 3006" d="M233.6,489.131a1.372,1.372,0,0,0,2.146,1.676l2.12-2.712-.395-.307-2.01,2.568a.862.862,0,1,1-1.354-1.057l2.01-2.57-.4-.311Z" transform="translate(-203.565 -399.161)" fill="#231f20"/>
      <path id="Path_3007" data-name="Path 3007" d="M242.43,494.882l-1.007-.65,1.818-1.7.011.006Zm-2.811.276.465.3.992-.915,1.2.782-.413,1.292.47.3,1.4-4.5-.559-.362Z" transform="translate(-204.95 -400.32)" fill="#231f20"/>
      <path id="Path_3008" data-name="Path 3008" d="M249.895,492.5a1.131,1.131,0,0,0-1.779-.376,1.19,1.19,0,0,0-.385,1.729,1.013,1.013,0,0,0,1.01.57c.273-.028.678-.137.938-.191.481-.1.719-.249,1.094.329a.762.762,0,0,1-.294,1.137c-.634.411-.972.125-1.317-.453l-.423.276a2.462,2.462,0,0,0,.535.64,1.238,1.238,0,0,0,1.432-.071,1.276,1.276,0,0,0,.44-1.909c-.327-.5-.624-.672-1.519-.471l-.752.164a.6.6,0,0,1-.7-.282.708.708,0,0,1,.238-1.125.694.694,0,0,1,1.054.3Z" transform="translate(-206.685 -400.277)" fill="#231f20"/>
      <path id="Path_3009" data-name="Path 3009" d="M254.448,488.231l.633-.494c.64-.5,1.179-.048,1.844.748.873,1.038.973,1.656.391,2.112l-.634.5Zm3.172,2.705c.968-.755.424-1.807-.231-2.7s-1.519-1.691-2.634-.819l-.982.767,2.792,3.577Z" transform="translate(-208.07 -399.289)" fill="#231f20"/>
      <path id="Path_3010" data-name="Path 3010" d="M263.183,484.052a.916.916,0,1,0-.085,1.3.928.928,0,0,0,.085-1.3" transform="translate(-209.757 -398.609)" fill="#231f20"/>
      <path id="Path_3011" data-name="Path 3011" d="M236.673,399.725c-6.465,2.838-12.843,6.65-16.251,11.792h16.251v5.167H218.027a26.594,26.594,0,0,0-1.306,7.059h-5.56a32.476,32.476,0,0,1,2.936-12.222c4.064-8.988,14.323-14.462,22.576-17.816Z" transform="translate(-198.772 -378.7)" fill="#00a3e6"/>
      <path id="Path_3012" data-name="Path 3012" d="M236.673,399.725c-6.465,2.838-12.843,6.65-16.251,11.792h16.251v5.167H218.027a26.594,26.594,0,0,0-1.306,7.059h-5.56a32.476,32.476,0,0,1,2.936-12.222c4.064-8.988,14.323-14.462,22.576-17.816Z" transform="translate(-198.772 -378.7)" fill="none" stroke="#231f20" stroke-miterlimit="3.864" stroke-width="0.708"/>
      <path id="Path_3013" data-name="Path 3013" d="M263.88,402.689a50.6,50.6,0,0,0-9.179-5.78c-3.541-1.525-8.4.871-8.4,7.41v12.593c0,4.28,3.248,7.493,6.708,7.493h21.419a33.409,33.409,0,0,0-.541-4.759H254.947a3.045,3.045,0,0,1-3.214-2.9V403.991c0-1.688,1.116-1.688,2.054-1.306A42.378,42.378,0,0,1,260.4,407Z" transform="translate(-206.76 -379.309)" fill="#00a3e6"/>
      <path id="Path_3014" data-name="Path 3014" d="M263.88,402.689a50.6,50.6,0,0,0-9.179-5.78c-3.541-1.525-8.4.871-8.4,7.41v12.593c0,4.28,3.248,7.493,6.708,7.493h21.419a33.409,33.409,0,0,0-.541-4.759H254.947a3.045,3.045,0,0,1-3.214-2.9V403.991c0-1.688,1.116-1.688,2.054-1.306A42.378,42.378,0,0,1,260.4,407Z" transform="translate(-206.76 -379.309)" fill="none" stroke="#231f20" stroke-miterlimit="3.864" stroke-width="0.708"/>
      <path id="Path_3015" data-name="Path 3015" d="M206.532,436.814c.761,9.036,4.866,17.532,10.963,24.6a104.386,104.386,0,0,0,19.978,17.956,103.182,103.182,0,0,0,20.055-17.956c6.1-7.067,10.2-15.564,10.961-24.6Z" transform="translate(-197.495 -388.964)" fill="#00a3e6"/>
      <path id="Path_3016" data-name="Path 3016" d="M206.532,436.814c.761,9.036,4.866,17.532,10.963,24.6a104.386,104.386,0,0,0,19.978,17.956,103.182,103.182,0,0,0,20.055-17.956c6.1-7.067,10.2-15.564,10.961-24.6Z" transform="translate(-197.495 -388.964)" fill="none" stroke="#00a3e6" stroke-miterlimit="3.864" stroke-width="0.408"/>
      <path id="Path_3017" data-name="Path 3017" d="M240.777,455.613c0-9.832,2.236-17.8,4.991-17.8s4.993,7.97,4.993,17.8-2.235,17.8-4.993,17.8S240.777,465.444,240.777,455.613Z" transform="translate(-205.26 -388.744)" fill="none" stroke="#fff" stroke-miterlimit="3.864" stroke-width="1.419"/>
      <path id="Path_3018" data-name="Path 3018" d="M249.7,476.342a1.185,1.185,0,1,1,1.186,1.186,1.188,1.188,0,0,1-1.186-1.186" transform="translate(-207.152 -396.499)" fill="#fff"/>
      <path id="Path_3019" data-name="Path 3019" d="M249.7,476.342a1.185,1.185,0,1,1,1.186,1.186A1.188,1.188,0,0,1,249.7,476.342Z" transform="translate(-207.152 -396.499)" fill="none" stroke="#fff" stroke-miterlimit="3.864" stroke-width="1.419"/>
      <path id="Path_3020" data-name="Path 3020" d="M243.588,459.682a2.583,2.583,0,1,1,2.585,2.584,2.585,2.585,0,0,1-2.585-2.584" transform="translate(-205.833 -392.564)" fill="#fff"/>
      <path id="Path_3021" data-name="Path 3021" d="M239.905,460.1c-6.951-6.95-11.007-14.165-9.059-16.116s9.167,2.107,16.117,9.058,11.011,14.168,9.062,16.119S246.858,467.053,239.905,460.1Z" transform="translate(-203.116 -389.849)" fill="none" stroke="#fff" stroke-miterlimit="3.864" stroke-width="1.419"/>
      <path id="Path_3022" data-name="Path 3022" d="M236.881,445.852a1.187,1.187,0,1,1,1.679,0,1.191,1.191,0,0,1-1.679,0" transform="translate(-204.257 -389.612)" fill="#fff"/>
      <path id="Path_3023" data-name="Path 3023" d="M236.881,445.852a1.187,1.187,0,1,1,1.679,0A1.191,1.191,0,0,1,236.881,445.852Z" transform="translate(-204.257 -389.612)" fill="none" stroke="#fff" stroke-miterlimit="3.864" stroke-width="1.419"/>
      <path id="Path_3024" data-name="Path 3024" d="M241.821,463.648c-9.834,0-17.8-2.233-17.8-4.991s7.97-4.989,17.8-4.989,17.8,2.228,17.8,4.989S251.652,463.648,241.821,463.648Z" transform="translate(-201.804 -391.869)" fill="none" stroke="#fff" stroke-miterlimit="3.864" stroke-width="1.419"/>
      <path id="Path_3025" data-name="Path 3025" d="M229.554,464.913a1.186,1.186,0,1,1,1.186-1.187,1.188,1.188,0,0,1-1.186,1.187" transform="translate(-202.461 -393.726)" fill="#fff"/>
      <path id="Path_3026" data-name="Path 3026" d="M229.554,464.913a1.186,1.186,0,1,1,1.186-1.187A1.188,1.188,0,0,1,229.554,464.913Z" transform="translate(-202.461 -393.726)" fill="none" stroke="#fff" stroke-miterlimit="3.864" stroke-width="1.419"/>
      <path id="Path_3027" data-name="Path 3027" d="M246.318,460.345c-6.953,6.95-14.169,11.008-16.119,9.057s2.107-9.166,9.057-16.116,14.17-11.011,16.12-9.061S253.271,453.39,246.318,460.345Z" transform="translate(-202.969 -389.903)" fill="none" stroke="#fff" stroke-miterlimit="3.864" stroke-width="1.419"/>
      <path id="Path_3028" data-name="Path 3028" d="M261.508,451.771a1.186,1.186,0,1,1,0-1.677,1.182,1.182,0,0,1,0,1.677" transform="translate(-209.304 -390.914)" fill="#fff"/>
      <path id="Path_3029" data-name="Path 3029" d="M261.508,451.771a1.186,1.186,0,1,1,0-1.677A1.182,1.182,0,0,1,261.508,451.771Z" transform="translate(-209.304 -390.914)" fill="none" stroke="#fff" stroke-miterlimit="3.864" stroke-width="1.419"/>
    </g>
  </g>
</svg>
