<svg xmlns="http://www.w3.org/2000/svg" width="80.654" height="100.562" viewBox="0 0 80.654 100.562">
  <g id="Group_401" data-name="Group 401" transform="translate(-912.822 -388.12)">
    <path id="Path_3249" data-name="Path 3249" d="M916.374,451.508c-6.9-15.983-2.494-37.467,10.5-48.5,2.639-2.491,7.1-5.1,11.922-7.589,4.775-2.47,9.506-4.628,14.316-7.019,4.826,2.4,9.559,4.548,14.354,7.019,4.842,2.493,9.335,5.105,11.973,7.6,12.982,11.039,17.386,32.515,10.487,48.493-7.069,16.368-21.879,28.371-36.814,36.889C938.163,479.873,923.441,467.874,916.374,451.508Z" fill="#fff" stroke="#231f20" stroke-miterlimit="3.864" stroke-width="0.495"/>
    <path id="Path_3250" data-name="Path 3250" d="M984.281,437.224a35.132,35.132,0,0,0-3.107-17.736c-5.355-11.842-19.8-17.858-28.064-20.886-8.258,3.027-22.632,9.044-27.987,20.886a34.966,34.966,0,0,0-3.091,17.736Z" fill="#f3fa33"/>
    <path id="Path_3251" data-name="Path 3251" d="M916.9,451.281c6.8,15.745,20.932,27.721,36.211,36.459C968.389,479,982.6,467.026,989.4,451.281c6.81-15.769,2.437-36.984-10.349-47.846-2.573-2.431-7-5.016-11.847-7.511-4.794-2.469-9.965-4.84-14.093-6.888-4.128,2.048-9.28,4.418-14.054,6.887-4.825,2.5-9.235,5.079-11.808,7.512C914.461,414.3,910.088,435.512,916.9,451.281Z" fill="none" stroke="#231f20" stroke-miterlimit="3.864" stroke-width="0.286"/>
    <path id="Path_3252" data-name="Path 3252" d="M924.6,419.253c5.082-11.241,17.9-17.38,28.507-21.26,10.6,3.88,23.5,10.009,28.585,21.26,6.969,15.413,2.2,30.9-8,42.455a107.921,107.921,0,0,1-14.028,13.242,77.447,77.447,0,0,1-6.558,4.7,77.95,77.95,0,0,1-6.518-4.7A109.346,109.346,0,0,1,932.6,461.708C922.4,450.152,917.634,434.666,924.6,419.253Z" fill="none" stroke="#231f20" stroke-miterlimit="3.864" stroke-width="0.495"/>
    <path id="Path_3253" data-name="Path 3253" d="M922.1,438.056c.957,8.544,5.01,16.565,10.931,23.274a104.173,104.173,0,0,0,20.08,17.643,102.872,102.872,0,0,0,20.157-17.643c5.922-6.709,9.975-14.73,10.931-23.274Z" fill="none" stroke="#231f20" stroke-miterlimit="3.864" stroke-width="0.286"/>
    <path id="Path_3254" data-name="Path 3254" d="M934.393,466.014l-1.514,1.461-1.033-1.069-.321.31,1.033,1.069-1.053,1.016-1.111-1.15-.32.309,1.454,1.505,3.207-3.1Z" fill="#231f20" fill-rule="evenodd"/>
    <path id="Path_3255" data-name="Path 3255" d="M931.31,462.672l-.352-.419-1.194.574-.9-1.079.758-1.093-.351-.419-2.61,3.826.421.5Zm-2.721-.55.757.9-2.2,1.074-.007-.009Z" fill="#231f20" fill-rule="evenodd"/>
    <path id="Path_3256" data-name="Path 3256" d="M923.227,456.929a1.246,1.246,0,0,0-.51,1.834c.689,1.062,1.827.5,2.669-.047.893-.579,1.979-1.342,1.231-2.493a1.126,1.126,0,0,0-.946-.541,1.717,1.717,0,0,0-.936.3c-.081.038-.16.09-.242.129l.269.413c.091-.044.179-.1.27-.14.441-.215.914-.373,1.234.121.492.758-.646,1.482-1.167,1.792-.494.321-1.523.975-1.988.257-.337-.518-.053-.909.384-1.207Z" fill="#231f20" fill-rule="evenodd"/>
    <path id="Path_3257" data-name="Path 3257" d="M923.037,452.335a1.347,1.347,0,0,0-1.131-2.424l-3.065,1.429.209.448,2.9-1.355a.847.847,0,1,1,.714,1.531l-2.9,1.354.208.446Z" fill="#231f20" fill-rule="evenodd"/>
    <path id="Path_3258" data-name="Path 3258" d="M920.853,443.484l-.428.123.5,1.749-3.857,1.106.136.475,4.286-1.23Z" fill="#231f20" fill-rule="evenodd"/>
    <path id="Path_3259" data-name="Path 3259" d="M916.249,441.192l-.141-1.145,3.983-.489-.061-.489-3.982.489-.141-1.145-.443.054.341,2.779Z" fill="#231f20" fill-rule="evenodd"/>
    <path id="Path_3260" data-name="Path 3260" d="M919.65,435.077l.018-.546-1.271-.371.049-1.409,1.3-.306.019-.546-4.5,1.1-.022.653ZM918,432.848l-.041,1.176-2.349-.67v-.012Z" fill="#231f20" fill-rule="evenodd"/>
    <path id="Path_3261" data-name="Path 3261" d="M920.393,427.053c.23-1.184-.849-1.613-1.911-1.855s-2.217-.273-2.483,1.092l-.233,1.2,4.376.85Zm-4.1.04.151-.777c.152-.781.844-.793,1.85-.633,1.315.207,1.789.6,1.651,1.314l-.15.776Z" fill="#231f20" fill-rule="evenodd"/>
    <path id="Path_3262" data-name="Path 3262" d="M924.148,416.572c.567-1.065-.34-1.789-1.284-2.331s-2.041-.91-2.694.317l-.576,1.081,3.937,2.094Zm-3.928-1.159.372-.7c.373-.7,1.039-.511,1.953-.065,1.2.583,1.536,1.1,1.2,1.74l-.37.7Z" fill="#231f20" fill-rule="evenodd"/>
    <path id="Path_3263" data-name="Path 3263" d="M928.64,410.506l-.337-.292-1.146,1.318-1.243-1.08,1.069-1.23-.337-.292-1.069,1.229-1.112-.968,1.139-1.31-.337-.292-1.462,1.683,3.365,2.925Z" fill="#231f20" fill-rule="evenodd"/>
    <path id="Path_3264" data-name="Path 3264" d="M935.433,401.14a1.246,1.246,0,0,0-1.826-.542c-1.073.671-.531,1.818,0,2.67.564.9,1.307,2,2.471,1.273a1.122,1.122,0,0,0,.557-.936,1.693,1.693,0,0,0-.279-.94c-.037-.083-.087-.163-.125-.245l-.418.262c.043.091.092.18.135.272.209.445.358.919-.142,1.231-.766.479-1.47-.671-1.771-1.2-.313-.5-.948-1.539-.222-1.993.523-.327.909-.035,1.2.407Z" fill="#231f20" fill-rule="evenodd"/>
    <rect id="Rectangle_126" data-name="Rectangle 126" width="0.493" height="4.459" transform="translate(938.347 397.875) rotate(-28.001)" fill="#231f20"/>
    <path id="Path_3265" data-name="Path 3265" d="M946.518,398.887l-.182-.408-1.6.712-.67-1.5,1.488-.662-.182-.408-1.488.663-.6-1.347,1.586-.707-.182-.407-2.036.906,1.813,4.073Z" fill="#231f20" fill-rule="evenodd"/>
    <path id="Path_3266" data-name="Path 3266" d="M951.762,395.913c.06.155.127.313.19.461l-.011.005a5.067,5.067,0,0,0-.319-.4l-2.489-2.953-.75.287,1.6,4.162.461-.177-1.275-3.318c-.081-.211-.169-.426-.256-.635l.011,0a3.592,3.592,0,0,0,.4.568l2.443,2.882.755-.289-1.6-4.162-.46.177Z" fill="#231f20" fill-rule="evenodd"/>
    <path id="Path_3267" data-name="Path 3267" d="M958.833,395.152a1.245,1.245,0,0,0-.634-1.794c-1.174-.475-1.784.638-2.16,1.57-.4.986-.851,2.233.423,2.748a1.128,1.128,0,0,0,1.085-.1,1.716,1.716,0,0,0,.6-.779c.045-.078.08-.167.124-.245l-.457-.185c-.049.089-.092.181-.141.27-.238.431-.534.83-1.08.609-.837-.338-.32-1.585-.072-2.138.221-.545.688-1.671,1.482-1.35.574.232.564.715.377,1.209Z" fill="#231f20" fill-rule="evenodd"/>
    <rect id="Rectangle_127" data-name="Rectangle 127" width="4.458" height="0.493" transform="translate(961.237 399.558) rotate(-66.003)" fill="#231f20"/>
    <path id="Path_3268" data-name="Path 3268" d="M964.988,401.326l.473.273.925-.948,1.22.7-.337,1.287.473.273,1.143-4.488-.567-.328Zm2.744-.413-1.02-.589,1.7-1.76.01.007Z" fill="#231f20" fill-rule="evenodd"/>
    <path id="Path_3269" data-name="Path 3269" d="M974.591,403.467a1.11,1.11,0,0,0-.314-1.759,1.17,1.17,0,0,0-1.717.286,1,1,0,0,0-.147,1.131c.124.239.374.566.519.784.271.4.492.561.1,1.116a.748.748,0,0,1-1.143.151c-.609-.426-.473-.838-.075-1.365l-.4-.284a2.5,2.5,0,0,0-.389.722,1.22,1.22,0,0,0,.593,1.279,1.253,1.253,0,0,0,1.9-.3c.338-.481.382-.813-.129-1.556-.143-.209-.282-.415-.426-.625a.587.587,0,0,1,0-.739.693.693,0,0,1,1.109-.2.683.683,0,0,1,.113,1.073Z" fill="#231f20" fill-rule="evenodd"/>
    <path id="Path_3270" data-name="Path 3270" d="M976.7,409.58c.869.838,1.815.165,2.6-.592s1.436-1.711.437-2.677l-.882-.851-3.1,3.207Zm2.2-3.456.568.548c.573.554.205,1.141-.475,1.9-.891.99-1.48,1.173-2,.67l-.569-.55Z" fill="#231f20" fill-rule="evenodd"/>
    <path id="Path_3271" data-name="Path 3271" d="M981.45,415.45l.379-.236-.926-1.482,1.4-.873.864,1.381.378-.235-.863-1.382,1.251-.78.92,1.472.378-.236-1.181-1.891-3.781,2.363Z" fill="#231f20" fill-rule="evenodd"/>
    <path id="Path_3272" data-name="Path 3272" d="M985.5,425.235l.428-.123-.5-1.748,3.857-1.107-.136-.474-4.285,1.229Z" fill="#231f20" fill-rule="evenodd"/>
    <path id="Path_3273" data-name="Path 3273" d="M986.165,428.429l.066.542,1.315.169.171,1.4-1.231.506.066.543,4.272-1.789-.079-.649Zm1.981,1.942L988,429.2l2.425.295,0,.012Z" fill="#231f20" fill-rule="evenodd"/>
    <path id="Path_3274" data-name="Path 3274" d="M989.063,442.516a1.111,1.111,0,0,0,1.443-1.054,1.171,1.171,0,0,0-1.01-1.418,1,1,0,0,0-1.081.365c-.159.215-.345.583-.476.809-.242.419-.29.688-.96.582a.748.748,0,0,1-.636-.96c.116-.734.547-.793,1.2-.666l.077-.487a2.512,2.512,0,0,0-.819-.035,1.218,1.218,0,0,0-.889,1.094,1.252,1.252,0,0,0,1.1,1.577c.582.093.9-.015,1.343-.8l.376-.656a.586.586,0,0,1,.664-.323.693.693,0,0,1,.662.912.683.683,0,0,1-.915.572Z" fill="#231f20" fill-rule="evenodd"/>
    <path id="Path_3275" data-name="Path 3275" d="M984.907,445.429l-.187.514,1.094.746-.482,1.324-1.327-.109-.186.513,4.618.347.224-.614Zm.883,2.631.4-1.107,2.029,1.365-.005.01Z" fill="#231f20" fill-rule="evenodd"/>
    <path id="Path_3276" data-name="Path 3276" d="M981.356,453.747l.4.2.8-1.635,3.607,1.759.216-.443-4.008-1.954Z" fill="#231f20" fill-rule="evenodd"/>
    <path id="Path_3277" data-name="Path 3277" d="M980.315,457.472a1.349,1.349,0,0,0-1.5,2.219l2.8,1.891.276-.409-2.657-1.792a.847.847,0,1,1,.944-1.4l2.657,1.792.275-.409Z" fill="#231f20" fill-rule="evenodd"/>
    <path id="Path_3278" data-name="Path 3278" d="M974.551,463.175c-.808.9-.1,1.819.682,2.574s1.76,1.377,2.691.343l.819-.91L975.43,462.2Zm3.53,2.076-.528.587c-.533.592-1.133.244-1.911-.409-1.022-.856-1.225-1.438-.74-1.977l.529-.588Z" fill="#231f20" fill-rule="evenodd"/>
    <g id="Group_397" data-name="Group 397">
      <path id="Path_3279" data-name="Path 3279" d="M941.035,475.331a.9.9,0,1,0-1.279.093A.914.914,0,0,0,941.035,475.331Z" fill="#231f20" fill-rule="evenodd"/>
      <path id="Path_3280" data-name="Path 3280" d="M943.142,478.6a1.347,1.347,0,0,0,2.108,1.645l2.082-2.664-.388-.3-1.973,2.524a.847.847,0,1,1-1.331-1.039l1.974-2.524-.39-.3Z" fill="#231f20" fill-rule="evenodd"/>
      <path id="Path_3281" data-name="Path 3281" d="M947.78,483.374l.459.3.973-.9,1.182.766-.406,1.267.458.3,1.377-4.422-.549-.356Zm2.761-.269-.987-.642,1.785-1.668.011.007Z" fill="#231f20" fill-rule="evenodd"/>
      <path id="Path_3282" data-name="Path 3282" d="M956.281,480.8a1.111,1.111,0,0,0-1.748-.367,1.171,1.171,0,0,0-.379,1.7,1,1,0,0,0,.995.559c.267-.024.663-.133.92-.186.473-.1.706-.246,1.074.323a.747.747,0,0,1-.288,1.115c-.623.4-.954.124-1.294-.442l-.415.269a2.544,2.544,0,0,0,.525.631,1.213,1.213,0,0,0,1.406-.071,1.253,1.253,0,0,0,.433-1.876c-.32-.493-.612-.658-1.491-.463l-.739.161a.587.587,0,0,1-.684-.279.692.692,0,0,1,.235-1.1.682.682,0,0,1,1.036.3Z" fill="#231f20" fill-rule="evenodd"/>
      <path id="Path_3283" data-name="Path 3283" d="M962.6,480.242c.951-.743.417-1.774-.225-2.654s-1.494-1.661-2.59-.805l-.965.754,2.744,3.513Zm-3.117-2.658.624-.486c.627-.491,1.156-.044,1.81.734.857,1.02.957,1.63.385,2.076l-.623.487Z" fill="#231f20" fill-rule="evenodd"/>
      <path id="Path_3284" data-name="Path 3284" d="M966.5,474.148a.9.9,0,1,0-.086,1.279A.913.913,0,0,0,966.5,474.148Z" fill="#231f20" fill-rule="evenodd"/>
    </g>
    <path id="Path_3285" data-name="Path 3285" d="M932.889,455.213q1.356,1.881,2.927,3.659a108.027,108.027,0,0,0,14.718,13.747l.036-6.962a104.525,104.525,0,0,1-10.669-10.39,41.209,41.209,0,0,1-3.884-5.138,2.01,2.01,0,0,1,1.559-3.072h12.976v-4.715H936.6C932.079,442.342,928.115,449.708,932.889,455.213Z" fill="#f3fa33" stroke="#000" stroke-miterlimit="3.864" stroke-width="0.398"/>
    <path id="Path_3286" data-name="Path 3286" d="M953.129,467.742a99.415,99.415,0,0,0,8.435-7.4,2.3,2.3,0,0,0-.779-3.724c-1.642-.851-4.3-2.094-4.3-2.094-2.268-1.191-3.4-2.721-3.4-4.927v-1.869c0-2.658,2.321-5.379,6.283-5.379h20.268a36.044,36.044,0,0,1-1.609,4.717l-17.468-.016a2.254,2.254,0,0,0-2.382,1.756,2.59,2.59,0,0,0,1.53,2.207c1.191.566,5.153,2.546,5.153,2.546,4.753,2.433,3.45,7.812.645,10.549a97.62,97.62,0,0,1-12.388,10.4Z" fill="#f3fa33" stroke="#000" stroke-miterlimit="3.864" stroke-width="0.398"/>
    <g id="Group_398" data-name="Group 398">
      <path id="Path_3287" data-name="Path 3287" d="M952.883,440.211s0-2.4-.019-4.766l1.411-1.042-.356,4.462Z" fill="#fff" stroke="#fff" stroke-miterlimit="3.864" stroke-width="0.991"/>
      <path id="Path_3288" data-name="Path 3288" d="M944.324,406.145c-.03-.531,1.786-.733,2.06-.76a1.2,1.2,0,0,0,1.171-.118,1.6,1.6,0,0,1-.918-.192.765.765,0,0,1,.45-.2,47.494,47.494,0,0,1,5.537.114c5.957,0,7.7,1.991,8.032,5,.359,3.237-3.346,6.055-7.644,9.583-3.2,2.623-1.21,5.078,1.122,6.424s4.481,2.759,4.481,4.658c0,3.316-4.386,4.868-5.94,6.215s-2.368,3.031-.7,4.463c.622.534.041.833-.519.45-1.6-1.1-2.152-2.7-1.315-4.842,1.027-2.623,5.3-3.81,5.379-5.579.078-1.687-4.481-2.465-7.409-5.082-3.848-3.439-1.16-7.393,1.948-10.085s7.225-4.138,6.707-6.941-5.05-2.692-7.512-2.692c-.387.56-.906.9-2.33.785a6.167,6.167,0,0,1-1.492-.3l.118-.03a.389.389,0,0,1,.023-.457,1.045,1.045,0,0,0,.123.4c.273-.083.431-.211.393-.377s-.819-.195-1.339-.194a1.824,1.824,0,0,0,.07.33.44.44,0,0,1-.233-.329l-.188,0A.51.51,0,0,1,944.324,406.145Z" fill="#fff" stroke="#fff" stroke-miterlimit="3.864" stroke-width="0.991"/>
      <path id="Path_3289" data-name="Path 3289" d="M956.121,412.394l-.376,2.067-4.135,2.76c-.085-1.744-.152-3.168-.152-3.368,0-.561-.129-1.122-.647-1.235v-12s1.683-3.252,2.849-3.252a1.751,1.751,0,0,1,1.942,2.019C955.473,400.729,956.121,412.394,956.121,412.394Z" fill="#fff" stroke="#fff" stroke-miterlimit="3.864" stroke-width="0.991"/>
      <path id="Path_3290" data-name="Path 3290" d="M954.437,432.36l-.16,2.01-1.413,1.044c-.017-2.114-.05-4.2-.11-4.512-.13-.673.518-6.281-.777-6.394,0,0-.213-4.142-.366-7.267l4.127-2.748-.783,4.294Z" fill="#fff" stroke="#fff" stroke-miterlimit="3.864" stroke-width="0.991"/>
      <path id="Path_3291" data-name="Path 3291" d="M952.675,436.87a6.3,6.3,0,0,0-1.04,1.121l-.859-2.113c1.191-1.475,3.312-2.457,4.263-3.518l.676,2.508C954.562,435.66,953.35,436.285,952.675,436.87Z" fill="#fff" stroke="#fff" stroke-miterlimit="3.864" stroke-width="0.991"/>
      <path id="Path_3292" data-name="Path 3292" d="M953.012,419.573a3.68,3.68,0,0,0-1.662,2.919l-4.776,1.759c-1.26-2.884.977-5.883,3.487-8.056,2.2-1.908,4.912-3.189,6.119-4.771l2.463,3.17A58.567,58.567,0,0,1,953.012,419.573Z" fill="#fff" stroke="#fff" stroke-miterlimit="3.864" stroke-width="0.991"/>
      <path id="Path_3293" data-name="Path 3293" d="M955.724,434.868c-1.153.792-2.374,1.417-3.049,2a6.3,6.3,0,0,0-1.04,1.121" fill="none" stroke="#fff" stroke-miterlimit="3.864" stroke-width="0.991" fill-rule="evenodd"/>
      <path id="Path_3294" data-name="Path 3294" d="M958.651,414.594a58.74,58.74,0,0,1-5.639,4.979,3.68,3.68,0,0,0-1.662,2.919" fill="none" stroke="#fff" stroke-miterlimit="3.864" stroke-width="0.991" fill-rule="evenodd"/>
      <path id="Path_3295" data-name="Path 3295" d="M946.582,424.251c-1.26-2.884.969-5.883,3.479-8.056,2.2-1.908,4.912-3.189,6.119-4.771" fill="none" stroke="#fff" stroke-miterlimit="3.864" stroke-width="0.991" fill-rule="evenodd"/>
      <path id="Path_3296" data-name="Path 3296" d="M950.784,435.878c1.192-1.475,3.3-2.457,4.255-3.518" fill="none" stroke="#fff" stroke-miterlimit="3.864" stroke-width="0.991" fill-rule="evenodd"/>
    </g>
    <g id="Group_400" data-name="Group 400">
      <path id="Path_3297" data-name="Path 3297" d="M952.883,440.211s0-2.4-.019-4.766l1.411-1.042-.356,4.462Z" fill="#924b06" stroke="#000" stroke-miterlimit="3.864" stroke-width="0.398"/>
      <path id="Path_3298" data-name="Path 3298" d="M944.324,406.145c-.03-.531,1.786-.733,2.06-.76a1.2,1.2,0,0,0,1.171-.118,1.6,1.6,0,0,1-.918-.192.765.765,0,0,1,.45-.2,47.494,47.494,0,0,1,5.537.114c5.957,0,7.7,1.991,8.032,5,.359,3.237-3.346,6.055-7.644,9.583-3.2,2.623-1.21,5.078,1.122,6.424s4.481,2.759,4.481,4.658c0,3.316-4.386,4.868-5.94,6.215s-2.368,3.031-.7,4.463c.622.534.041.833-.519.45-1.6-1.1-2.152-2.7-1.315-4.842,1.027-2.623,5.3-3.81,5.379-5.579.078-1.687-4.481-2.465-7.409-5.082-3.848-3.439-1.16-7.393,1.948-10.085s7.225-4.138,6.707-6.941-5.05-2.692-7.512-2.692c-.387.56-.906.9-2.33.785a6.167,6.167,0,0,1-1.492-.3l.118-.03a.389.389,0,0,1,.023-.457,1.045,1.045,0,0,0,.123.4c.273-.083.431-.211.393-.377s-.819-.195-1.339-.194a1.824,1.824,0,0,0,.07.33.44.44,0,0,1-.233-.329l-.188,0A.51.51,0,0,1,944.324,406.145Z" fill="#d2ed9c" stroke="#000" stroke-miterlimit="3.864" stroke-width="0.398"/>
      <g id="Group_399" data-name="Group 399">
        <path id="Path_3299" data-name="Path 3299" d="M956.121,412.394l-.376,2.067-4.135,2.76c-.085-1.744-.152-3.168-.152-3.368,0-.561-.129-1.122-.647-1.235v-12s1.683-3.252,2.849-3.252a1.751,1.751,0,0,1,1.942,2.019C955.473,400.729,956.121,412.394,956.121,412.394Z" fill="#924b06"/>
        <path id="Path_3300" data-name="Path 3300" d="M956.121,412.394l-.376,2.067-4.135,2.76c-.085-1.744-.152-3.168-.152-3.368,0-.561-.129-1.122-.647-1.235v-12s1.683-3.252,2.849-3.252a1.751,1.751,0,0,1,1.942,2.019C955.473,400.729,956.121,412.394,956.121,412.394Z" fill="none" stroke="#000" stroke-miterlimit="3.864" stroke-width="0.398"/>
        <path id="Path_3301" data-name="Path 3301" d="M956.121,412.394l-.376,2.067-4.135,2.76c-.085-1.744-.152-3.168-.152-3.368,0-.561-.129-1.122-.647-1.235v-12s1.683-3.252,2.849-3.252a1.751,1.751,0,0,1,1.942,2.019C955.473,400.729,956.121,412.394,956.121,412.394Z" fill="#924b06"/>
      </g>
      <path id="Path_3302" data-name="Path 3302" d="M954.437,432.36l-.16,2.01-1.413,1.044c-.017-2.114-.05-4.2-.11-4.512-.13-.673.518-6.281-.777-6.394,0,0-.213-4.142-.366-7.267l4.127-2.748-.783,4.294Z" fill="#924b06" stroke="#000" stroke-miterlimit="3.864" stroke-width="0.398"/>
      <path id="Path_3303" data-name="Path 3303" d="M952.675,436.87a6.3,6.3,0,0,0-1.04,1.121l-.859-2.113c1.191-1.475,3.312-2.457,4.263-3.518l.676,2.508C954.562,435.66,953.35,436.285,952.675,436.87Z" fill="#d2ed9c"/>
      <path id="Path_3304" data-name="Path 3304" d="M953.012,419.573a3.68,3.68,0,0,0-1.662,2.919l-4.776,1.759c-1.26-2.884.977-5.883,3.487-8.056,2.2-1.908,4.912-3.189,6.119-4.771l2.463,3.17A58.567,58.567,0,0,1,953.012,419.573Z" fill="#d2ed9c"/>
      <path id="Path_3305" data-name="Path 3305" d="M955.724,434.868c-1.153.792-2.374,1.417-3.049,2a6.3,6.3,0,0,0-1.04,1.121" fill="none" stroke="#231f20" stroke-miterlimit="3.864" stroke-width="0.371" fill-rule="evenodd"/>
      <path id="Path_3306" data-name="Path 3306" d="M958.651,414.594a58.74,58.74,0,0,1-5.639,4.979,3.68,3.68,0,0,0-1.662,2.919" fill="none" stroke="#231f20" stroke-miterlimit="3.864" stroke-width="0.371" fill-rule="evenodd"/>
      <path id="Path_3307" data-name="Path 3307" d="M946.582,424.251c-1.26-2.884.969-5.883,3.479-8.056,2.2-1.908,4.912-3.189,6.119-4.771" fill="none" stroke="#231f20" stroke-miterlimit="3.864" stroke-width="0.371" fill-rule="evenodd"/>
      <path id="Path_3308" data-name="Path 3308" d="M950.784,435.878c1.192-1.475,3.3-2.457,4.255-3.518" fill="none" stroke="#231f20" stroke-miterlimit="3.864" stroke-width="0.371" fill-rule="evenodd"/>
    </g>
  </g>
</svg>
