<?xml version="1.0" encoding="utf-8"?>
<!-- Generator: Adobe Illustrator 16.0.3, SVG Export Plug-In . SVG Version: 6.00 Build 0)  -->
<!DOCTYPE svg PUBLIC "-//W3C//DTD SVG 1.1//EN" "http://www.w3.org/Graphics/SVG/1.1/DTD/svg11.dtd">
<svg version="1.1" id="Capa_1" xmlns="http://www.w3.org/2000/svg" xmlns:xlink="http://www.w3.org/1999/xlink" x="0px" y="0px"
	 width="80.792px" height="100.719px" viewBox="0 0 80.792 100.719" enable-background="new 0 0 80.792 100.719"
	 xml:space="preserve">
<g>
	<path id="Path_3201" fill="#FFFFFF" stroke="#231F20" stroke-width="0.634" stroke-miterlimit="3.864" d="M3.622,63.463
		c-6.9-15.982-2.494-37.466,10.5-48.5c2.639-2.491,7.1-5.1,11.921-7.589c4.776-2.469,9.507-4.627,14.315-7.018
		c4.827,2.4,9.56,4.549,14.354,7.017c4.843,2.494,9.334,5.106,11.974,7.6c12.983,11.038,17.388,32.514,10.485,48.491
		c-7.067,16.368-21.877,28.372-36.813,36.892C25.411,91.83,10.69,79.83,3.622,63.463z"/>
	<path id="Path_3202" fill="none" stroke="#231F20" stroke-width="0.366" stroke-miterlimit="3.864" d="M4.149,63.241
		c6.8,15.745,20.932,27.72,36.209,36.457c15.279-8.737,29.488-20.714,36.288-36.457c6.811-15.768,2.438-36.983-10.35-47.843
		c-2.571-2.433-7-5.017-11.844-7.513c-4.801-2.469-9.966-4.839-14.095-6.887c-4.127,2.048-9.279,4.418-14.053,6.887
		c-4.826,2.5-9.235,5.079-11.808,7.513C1.711,26.254-2.661,47.469,4.149,63.241z"/>
	<path id="Path_3203" fill="none" stroke="#231F20" stroke-width="0.634" stroke-miterlimit="3.864" d="M11.873,31.224
		c5.078-11.235,17.89-17.368,28.483-21.245c10.601,3.877,23.479,10,28.563,21.245c6.963,15.4,2.199,30.877-7.994,42.426
		c-4.27,4.82-8.962,9.249-14.021,13.233c-2.102,1.677-4.288,3.243-6.553,4.692c-2.251-1.451-4.425-3.018-6.514-4.693
		c-5.038-3.992-9.713-8.42-13.973-13.234C9.673,62.102,4.905,46.628,11.873,31.224z"/>
	<path id="Path_3204" fill="none" stroke="#231F20" stroke-width="0.366" stroke-miterlimit="3.864" d="M71.507,49.263
		c0.51-6.077-0.563-12.183-3.109-17.723c-5.35-11.879-19.788-17.913-28.041-20.949c-8.25,3.036-22.612,9.07-27.962,20.949
		c-2.55,5.54-3.617,11.647-3.094,17.723H71.507z"/>
	<path id="Path_3205" fill="#2F5BA7" d="M9.383,49.572c1.176,8.797,4.979,17.033,10.912,23.633
		c5.899,6.738,12.643,12.687,20.063,17.7c7.456-4.997,14.226-10.948,20.14-17.7c5.932-6.6,9.734-14.837,10.91-23.633H9.383z"/>
	<path id="Path_3206" fill="#231F20" d="M20.254,76.473l-1.568,1.412l-1-1.107l-0.332,0.3l1,1.108l-1.09,0.981l-1.073-1.19
		l-0.332,0.299l1.4,1.561l3.323-2.992L20.254,76.473z"/>
	<path id="Path_3207" fill="#231F20" d="M17.954,73.891l-0.352-0.42l-1.2,0.575l-0.908-1.081l0.76-1.1l-0.352-0.42l-2.618,3.837
		l0.422,0.5L17.954,73.891z M15.226,73.338l0.759,0.9l-2.2,1.076l-0.008-0.01L15.226,73.338z"/>
	<path id="Path_3208" fill="#231F20" d="M10.566,68.975c-0.627,0.288-0.902,1.029-0.614,1.656c0.029,0.064,0.064,0.125,0.104,0.184
		c0.691,1.064,1.833,0.5,2.677-0.049c0.9-0.58,1.985-1.346,1.234-2.5c-0.202-0.332-0.56-0.537-0.949-0.541
		c-0.335,0.006-0.662,0.11-0.939,0.299c-0.081,0.039-0.16,0.092-0.243,0.131l0.269,0.414c0.092-0.045,0.18-0.096,0.272-0.142
		c0.442-0.215,0.915-0.374,1.237,0.121c0.493,0.761-0.648,1.487-1.17,1.8c-0.5,0.321-1.526,0.979-1.995,0.258
		c-0.337-0.52-0.052-0.912,0.386-1.211L10.566,68.975z"/>
	<path id="Path_3209" fill="#231F20" d="M10.823,65.357c0.634-0.394,0.828-1.227,0.433-1.86c-0.329-0.528-0.976-0.764-1.567-0.57
		l-3.075,1.433l0.21,0.449l2.912-1.36c0.408-0.232,0.927-0.091,1.159,0.317c0.232,0.408,0.09,0.928-0.318,1.16
		c-0.041,0.022-0.083,0.042-0.126,0.059l-2.912,1.357l0.21,0.447L10.823,65.357z"/>
	<path id="Path_3210" fill="#231F20" d="M8.734,57.632l-0.42,0.152l0.624,1.715l-3.782,1.377l0.17,0.465l4.2-1.528L8.734,57.632z"/>
	<path id="Path_3211" fill="#231F20" d="M4.352,56.839l-0.26-1.127l3.921-0.905l-0.111-0.481L3.98,55.23l-0.26-1.127l-0.436,0.1
		l0.632,2.736L4.352,56.839z"/>
	<path id="Path_3212" fill="#231F20" d="M7.292,51.464l-0.048-0.546l-1.312-0.215l-0.124-1.408l1.253-0.463l-0.048-0.547
		l-4.345,1.643l0.057,0.654L7.292,51.464z M5.374,49.447l0.1,1.177l-2.421-0.38v-0.012L5.374,49.447z"/>
	<path id="Path_3213" fill="#231F20" d="M7.008,44.486c0.042-1.209-1.1-1.464-2.184-1.538c-1.084-0.074-2.24,0.077-2.289,1.473
		l-0.043,1.226l4.47,0.157L7.008,44.486z M2.957,45.168l0.027-0.792c0.027-0.8,0.712-0.917,1.732-0.917
		c1.336,0,1.868,0.315,1.843,1.043l-0.028,0.792L2.957,45.168z"/>
	<path id="Path_3214" fill="#231F20" d="M8.528,35.624c0.355-1.158-0.677-1.7-1.71-2.05c-1.033-0.35-2.183-0.507-2.592,0.828
		l-0.359,1.175l4.276,1.307L8.528,35.624z M4.439,35.235l0.233-0.759c0.233-0.764,0.925-0.7,1.91-0.438
		c1.291,0.344,1.723,0.788,1.51,1.484L7.861,36.28L4.439,35.235z"/>
	<path id="Path_3215" fill="#231F20" d="M10.8,29.592l-0.414-0.167L9.729,31.05l-1.531-0.619l0.612-1.514l-0.414-0.168l-0.612,1.515
		L6.412,29.71l0.653-1.614l-0.414-0.168l-0.839,2.074l4.146,1.675L10.8,29.592z"/>
	
		<rect id="Rectangle_123" x="12.513" y="20.472" transform="matrix(-0.6561 0.7547 -0.7547 -0.6561 38.2695 27.976)" fill="#231F20" width="0.495" height="4.472"/>
	<path id="Path_3216" fill="#231F20" d="M17.688,19.661c0.109,0.126,0.227,0.252,0.337,0.37l-0.009,0.008
		c-0.182-0.118-0.308-0.2-0.438-0.268l-3.359-1.93l-0.609,0.528l2.935,3.376l0.373-0.325l-2.339-2.691
		c-0.149-0.171-0.305-0.342-0.459-0.51l0.009-0.008c0.176,0.152,0.367,0.286,0.569,0.4l3.291,1.878l0.612-0.532l-2.933-3.375
		l-0.374,0.324L17.688,19.661z"/>
	<path id="Path_3217" fill="#231F20" d="M21.693,14.742l-1.222,0.856l0.257,0.366l0.816-0.571c0.412,0.578,0.825,1.314,0.05,1.807
		c-0.748,0.472-1.4-0.521-1.789-1.077c-0.438-0.625-1.071-1.551-0.259-2.1c0.47-0.315,0.88-0.135,1.2,0.311l0.409-0.287
		c-0.329-0.607-1.088-0.833-1.696-0.503c-0.067,0.037-0.131,0.079-0.191,0.127c-1.058,0.742-0.492,1.875,0.106,2.729
		s1.444,1.886,2.533,1.123c0.411-0.256,0.579-0.769,0.4-1.218l0.009-0.007l0.4,0.572l0.313-0.218L21.693,14.742z"/>
	<path id="Path_3218" fill="#231F20" d="M27.354,13.983l-0.224-0.388l-1.517,0.877l-0.826-1.431l1.415-0.816l-0.224-0.387
		l-1.415,0.816l-0.739-1.28l1.507-0.87l-0.224-0.388l-1.936,1.118l2.236,3.873L27.354,13.983z"/>
	<path id="Path_3219" fill="#231F20" d="M31.373,11.033c0.072,0.15,0.153,0.3,0.229,0.445l-0.01,0.005
		c-0.145-0.162-0.245-0.271-0.354-0.372l-2.745-2.734L27.769,8.73l1.96,4.019l0.445-0.217l-1.562-3.2
		c-0.1-0.2-0.207-0.409-0.312-0.612h0.01c0.131,0.191,0.281,0.371,0.446,0.534l2.694,2.666l0.729-0.356l-1.959-4.019l-0.445,0.217
		L31.373,11.033z"/>
	
		<rect id="Rectangle_124" x="33.998" y="6" transform="matrix(-0.9206 0.3906 -0.3906 -0.9206 68.9875 2.4426)" fill="#231F20" width="0.494" height="4.473"/>
	<path id="Path_3220" fill="#231F20" d="M39.876,8.577L39.784,8.14l-1.715,0.364l-0.343-1.615l1.6-0.34l-0.093-0.438l-1.6,0.34
		l-0.307-1.447l1.7-0.362l-0.093-0.438l-2.187,0.465l0.93,4.374L39.876,8.577z"/>
	<path id="Path_3221" fill="#231F20" d="M43.38,5.021l0.682,0.146c0.326,0.069,0.912,0.212,0.764,0.966
		c-0.055,0.421-0.439,0.718-0.86,0.663c-0.054-0.007-0.106-0.02-0.157-0.038l-0.764-0.163L43.38,5.021z M42.953,7.033l0.846,0.179
		c0.391,0.051,0.668,0.41,0.617,0.801c-0.008,0.058-0.022,0.114-0.043,0.168c-0.083,0.376-0.111,0.762-0.086,1.147l0.566,0.12
		l0.021-0.1c-0.117-0.025-0.113-0.225-0.113-0.31c0.024-0.337,0.063-0.664,0.115-0.994c0.055-0.6-0.047-0.809-0.601-0.981V7.051
		c0.495,0.053,0.948-0.283,1.041-0.771c0.244-1-0.29-1.367-1.2-1.562l-1.125-0.24l-0.93,4.374l0.484,0.1L42.953,7.033z"/>
	<path id="Path_3222" fill="#231F20" d="M47.412,11.064l1.818-4.086l-0.453-0.2l-1.818,4.085L47.412,11.064z M48.811,6.346
		l0.365,0.164l1.056-0.451l-0.594-0.265L48.811,6.346z"/>
	<path id="Path_3223" fill="#231F20" d="M49.73,12.132l0.492,0.241l0.859-1.014l1.271,0.62l-0.249,1.311l0.493,0.24l0.829-4.57
		l-0.588-0.287L49.73,12.132z M52.447,11.527l-1.063-0.517l1.574-1.88l0.01,0.005L52.447,11.527z"/>
	<path id="Path_3224" fill="#231F20" d="M60.314,12.966l-0.45-0.315l-0.471,3.012l-0.995,1.421l0.406,0.283l0.994-1.421l2.679-1.466
		l-0.449-0.315l-2.146,1.234L60.314,12.966z"/>
	<path id="Path_3225" fill="#231F20" d="M64.078,21.634l0.366,0.407l1.177-0.618l0.945,1.05l-0.721,1.124l0.365,0.407l2.482-3.927
		l-0.439-0.488L64.078,21.634z M66.823,22.09l-0.79-0.876l2.162-1.154l0.01,0.009L66.823,22.09z"/>
	<path id="Path_3226" fill="#231F20" d="M71.453,24.284l0.369,0.591c0.176,0.283,0.48,0.8-0.166,1.221
		c-0.341,0.252-0.822,0.18-1.074-0.161c-0.031-0.043-0.059-0.09-0.082-0.139l-0.412-0.662L71.453,24.284z M69.708,25.375
		l0.457,0.733c0.236,0.316,0.17,0.764-0.146,0.999c-0.047,0.035-0.099,0.064-0.153,0.087c-0.328,0.202-0.626,0.45-0.885,0.735
		l0.308,0.491l0.088-0.051c-0.064-0.1,0.084-0.236,0.146-0.3c0.258-0.218,0.521-0.416,0.794-0.608
		c0.469-0.377,0.549-0.6,0.288-1.115l0.009-0.007c0.307,0.394,0.863,0.487,1.28,0.214c0.89-0.521,0.78-1.157,0.285-1.95l-0.61-0.975
		l-3.793,2.369l0.264,0.42L69.708,25.375z"/>
	<path id="Path_3227" fill="#231F20" d="M71.947,32.946c0.617,0.034,1.233-0.076,1.801-0.321c0.957-0.367,2.023-0.95,1.547-2.19
		c-0.467-1.219-1.647-0.932-2.605-0.564c-1.152,0.455-2.216,1.029-1.749,2.248c0.115,0.306,0.336,0.561,0.622,0.719l-0.211,0.618
		l0.379,0.123L71.947,32.946z M71.701,32.389c-0.162-0.104-0.284-0.259-0.348-0.441c-0.3-0.7,0.4-1.177,1.336-1.529
		c1.21-0.457,1.9-0.58,2.191,0.187c0.293,0.767-0.299,1.137-1.5,1.612c-0.402,0.167-0.833,0.258-1.27,0.271l0.162-0.509l-0.4-0.128
		L71.701,32.389z"/>
	<path id="Path_3228" fill="#231F20" d="M73.479,35.82c-0.624,0.128-1.026,0.738-0.898,1.363c0.017,0.078,0.04,0.153,0.071,0.227
		c0.2,0.787,0.7,1.208,1.477,1.015l3.291-0.821l-0.119-0.48L74.182,37.9c-0.444,0.154-0.928-0.081-1.081-0.524
		c-0.154-0.444,0.08-0.928,0.523-1.082c0.049-0.017,0.098-0.029,0.148-0.037l3.117-0.777L76.77,35L73.479,35.82z"/>
	
		<rect id="Rectangle_125" x="73.556" y="41.373" transform="matrix(-0.9926 0.1218 -0.1218 -0.9926 156.091 73.6963)" fill="#231F20" width="4.473" height="0.495"/>
	<path id="Path_3229" fill="#231F20" d="M77.85,44.732v1.156h-4.025v0.5h4.025v1.156h0.446v-2.812H77.85z"/>
	<path id="Path_3230" fill="#231F20" d="M73.346,52.23l0.444,0.055l0.213-1.74l1.639,0.2l-0.2,1.621l0.444,0.056l0.199-1.622
		l1.469,0.181l-0.213,1.728l0.445,0.054l0.271-2.219l-4.439-0.545L73.346,52.23z"/>
	<path id="Path_3231" fill="#231F20" d="M75.107,58.182c0.629,0.285,1.371,0.006,1.655-0.624c0.028-0.063,0.052-0.128,0.069-0.195
		c0.351-1.22-0.824-1.714-1.793-1.99c-1.025-0.294-2.318-0.615-2.699,0.709c-0.119,0.37-0.038,0.774,0.213,1.071
		c0.223,0.25,0.515,0.429,0.839,0.514c0.084,0.036,0.175,0.063,0.258,0.1l0.136-0.477c-0.094-0.038-0.189-0.072-0.283-0.111
		c-0.453-0.193-0.884-0.445-0.721-1.013c0.25-0.871,1.548-0.487,2.125-0.3c0.568,0.162,1.74,0.51,1.5,1.336
		c-0.171,0.6-0.654,0.637-1.167,0.5L75.107,58.182z"/>
	<path id="Path_3232" fill="#231F20" d="M75.099,61.041l-0.434,1.072l-3.73-1.508l-0.184,0.459l3.731,1.509l-0.433,1.073
		l0.414,0.166l1.053-2.601L75.099,61.041z"/>
	<path id="Path_3233" fill="#231F20" d="M70.177,64.924c-0.693-0.277-1.48,0.06-1.758,0.752c-0.23,0.574-0.041,1.23,0.457,1.596
		l2.967,1.644l0.24-0.433l-2.812-1.559c-0.427-0.193-0.616-0.697-0.423-1.123c0.193-0.428,0.697-0.617,1.124-0.424
		c0.042,0.02,0.081,0.042,0.12,0.066l2.81,1.559l0.24-0.432L70.177,64.924z"/>
	<path id="Path_3234" fill="#231F20" d="M69.345,71.997l-0.41,0.565c-0.2,0.269-0.564,0.746-1.193,0.299
		c-0.362-0.219-0.478-0.689-0.258-1.052c0.029-0.047,0.063-0.091,0.1-0.131l0.461-0.632L69.345,71.997z M67.681,70.788l-0.508,0.7
		c-0.205,0.337-0.645,0.444-0.98,0.24c-0.051-0.031-0.098-0.067-0.139-0.109c-0.311-0.228-0.651-0.411-1.012-0.544l-0.342,0.468
		l0.083,0.061c0.07-0.101,0.249-0.011,0.327,0.024c0.301,0.158,0.582,0.326,0.863,0.509c0.523,0.291,0.757,0.285,1.141-0.152
		l0.01,0.008c-0.25,0.431-0.128,0.981,0.281,1.266c0.818,0.63,1.365,0.291,1.916-0.465l0.676-0.932l-3.617-2.627l-0.291,0.4
		L67.681,70.788z"/>
	<path id="Path_3235" fill="#231F20" d="M63.328,73.302l-0.352,0.421l0.775,1.079l-0.908,1.083l-1.213-0.558l-0.353,0.42l4.234,1.91
		l0.422-0.5L63.328,73.302z M63.257,76.084l0.76-0.9l1.441,1.981l-0.008,0.01L63.257,76.084z"/>
	<g id="Group_391" transform="translate(700.318 459.688)">
		<path id="Path_3236" fill="#231F20" d="M-672.032-372.478c0.321-0.38,0.273-0.947-0.107-1.269c-0.38-0.32-0.948-0.272-1.269,0.107
			c-0.316,0.374-0.274,0.933,0.093,1.256C-672.933-372.059-672.361-372.101-672.032-372.478z"/>
		<path id="Path_3237" fill="#231F20" d="M-669.918-369.206c-0.384,0.641-0.177,1.471,0.463,1.855
			c0.532,0.319,1.212,0.236,1.651-0.201l2.089-2.674l-0.391-0.3l-1.978,2.532c-0.259,0.391-0.785,0.498-1.176,0.24
			c-0.391-0.259-0.499-0.785-0.24-1.177c0.025-0.038,0.052-0.073,0.083-0.105l1.978-2.532l-0.39-0.305L-669.918-369.206z"/>
		<path id="Path_3238" fill="#231F20" d="M-665.266-364.409l0.459,0.3l0.977-0.899l1.185,0.77l-0.406,1.271l0.46,0.301l1.38-4.437
			l-0.55-0.356L-665.266-364.409z M-662.497-364.679l-0.989-0.643l1.79-1.675l0.01,0.008L-662.497-364.679z"/>
		<path id="Path_3239" fill="#231F20" d="M-656.738-366.988c-0.257-0.56-0.918-0.806-1.477-0.55
			c-0.102,0.047-0.194,0.107-0.277,0.181c-0.563,0.319-0.762,1.034-0.443,1.599c0.02,0.035,0.041,0.068,0.064,0.102
			c0.183,0.379,0.582,0.603,1,0.561c0.27-0.023,0.667-0.134,0.924-0.186c0.476-0.1,0.709-0.247,1.078,0.322
			c0.243,0.336,0.169,0.804-0.166,1.047c-0.039,0.028-0.08,0.053-0.123,0.072c-0.625,0.406-0.957,0.125-1.301-0.442l-0.416,0.269
			c0.139,0.238,0.316,0.452,0.525,0.633c0.438,0.278,1.003,0.25,1.41-0.069c0.62-0.313,0.869-1.069,0.555-1.688
			c-0.033-0.068-0.074-0.133-0.12-0.193c-0.321-0.5-0.614-0.661-1.5-0.465c-0.247,0.055-0.492,0.106-0.739,0.162
			c-0.268,0.08-0.554-0.036-0.688-0.281c-0.256-0.289-0.229-0.731,0.063-0.987c0.051-0.046,0.109-0.083,0.172-0.112
			c0.307-0.223,0.734-0.155,0.957,0.15c0.034,0.046,0.063,0.097,0.084,0.15L-656.738-366.988z"/>
		<path id="Path_3240" fill="#231F20" d="M-650.395-367.549c0.953-0.744,0.418-1.779-0.226-2.66c-0.643-0.883-1.5-1.668-2.6-0.809
			l-0.97,0.756l2.755,3.524L-650.395-367.549z M-653.522-370.213l0.625-0.488c0.63-0.492,1.162-0.045,1.817,0.736
			c0.86,1.023,0.958,1.635,0.386,2.082l-0.625,0.489L-653.522-370.213z"/>
		<path id="Path_3241" fill="#231F20" d="M-646.49-373.663c-0.332-0.371-0.9-0.403-1.271-0.072s-0.402,0.9-0.072,1.271
			c0.326,0.366,0.885,0.403,1.258,0.085C-646.202-372.712-646.164-373.284-646.49-373.663z"/>
	</g>
	<g id="Group_395" transform="translate(690.047 423.45)">
		<path id="Path_3242" fill="none" stroke="#FFFFFF" stroke-width="0.741" stroke-miterlimit="3.864" d="M-652.918-370.309h3.992
			v2.399h1.756v3.67h8.301v11.97c0,0-0.63,2.679-2.719,5.293c-1.978,2.475-5.335,4.891-8.166,4.924
			c-2.656,0.031-5.916-0.959-7.888-3.242c-2.409-2.788-3.26-6.975-3.26-6.975v-21.711h5.428v6.066h2.556V-370.309z"/>
		<path id="Path_3243" fill="#FFFFFF" d="M-634.528-353.259h-5.648c0,5.402-4.38,9.782-9.782,9.782c-5.402,0-9.781-4.38-9.781-9.782
			l0,0h-5.865c-0.016,0.548,0.012,1.096,0.083,1.639c1.156,0.094,2.303,0.271,3.433,0.531c0.169,0.861,0.449,1.696,0.832,2.486
			l-2.63,2.139c0.332,0.846,0.757,1.654,1.266,2.408c1.047-0.498,2.13-0.919,3.238-1.26c0.577,0.661,1.236,1.245,1.963,1.737
			l-1.208,3.167c0.711,0.566,1.482,1.055,2.3,1.452c0.659-0.956,1.385-1.861,2.175-2.712c0.83,0.285,1.692,0.461,2.567,0.523
			l0.575,3.506c0.892,0.055,1.787,0.038,2.676-0.051c0.093-1.156,0.27-2.306,0.529-3.438c0.861-0.168,1.695-0.448,2.484-0.832
			l2.25,2.748c0.801-0.397,1.567-0.859,2.293-1.381c-0.497-1.049-0.918-2.133-1.258-3.242c0.66-0.578,1.244-1.238,1.734-1.965
			l3.321,1.254c0.495-0.746,0.928-1.529,1.295-2.346c-0.954-0.659-1.86-1.387-2.709-2.178c0.284-0.83,0.46-1.693,0.522-2.568
			l3.344-0.537V-353.259z"/>
		<g id="Group_394" transform="translate(0 7.743)">
			<path id="Path_3244" fill="none" d="M-673.619-364.369c4.351-0.684,7.557-6.523,8.015-9.612
				c2.977,5.149,7.328,8.239,16.486,8.239s13.052-3.089,16.027-8.239c0.459,3.091,4.352,8.929,8.015,9.612H-673.619z"/>
			<g>
				<defs>
					<path id="SVGID_1_" d="M-673.619-364.369c4.351-0.684,7.557-6.523,8.015-9.612c2.977,5.149,7.328,8.239,16.486,8.239
						s13.052-3.089,16.027-8.239c0.459,3.091,4.352,8.929,8.015,9.612H-673.619z"/>
				</defs>
				<clipPath id="SVGID_2_">
					<use xlink:href="#SVGID_1_"  overflow="visible"/>
				</clipPath>
				<g id="Group_393" clip-path="url(#SVGID_2_)">
					<g id="Group_392" transform="translate(3.206 -1.145)">
						
							<line id="Line_90" fill="none" stroke="#FFFFFF" stroke-width="0.502" stroke-miterlimit="3.864" x1="-673.619" y1="-362.075" x2="-673.619" y2="-373.982"/>
						
							<line id="Line_91" fill="none" stroke="#FFFFFF" stroke-width="0.502" stroke-miterlimit="3.864" x1="-671.999" y1="-362.075" x2="-671.999" y2="-373.982"/>
						
							<line id="Line_92" fill="none" stroke="#FFFFFF" stroke-width="0.502" stroke-miterlimit="3.864" x1="-670.378" y1="-362.075" x2="-670.378" y2="-373.982"/>
						
							<line id="Line_93" fill="none" stroke="#FFFFFF" stroke-width="0.502" stroke-miterlimit="3.864" x1="-668.758" y1="-362.075" x2="-668.758" y2="-373.982"/>
						
							<line id="Line_94" fill="none" stroke="#FFFFFF" stroke-width="0.502" stroke-miterlimit="3.864" x1="-667.137" y1="-362.075" x2="-667.137" y2="-373.982"/>
						
							<line id="Line_95" fill="none" stroke="#FFFFFF" stroke-width="0.502" stroke-miterlimit="3.864" x1="-665.517" y1="-362.075" x2="-665.517" y2="-373.982"/>
						
							<line id="Line_96" fill="none" stroke="#FFFFFF" stroke-width="0.502" stroke-miterlimit="3.864" x1="-663.896" y1="-362.075" x2="-663.896" y2="-373.982"/>
						
							<line id="Line_97" fill="none" stroke="#FFFFFF" stroke-width="0.502" stroke-miterlimit="3.864" x1="-662.276" y1="-362.075" x2="-662.276" y2="-373.982"/>
						
							<line id="Line_98" fill="none" stroke="#FFFFFF" stroke-width="0.502" stroke-miterlimit="3.864" x1="-660.655" y1="-362.075" x2="-660.655" y2="-373.982"/>
						
							<line id="Line_99" fill="none" stroke="#FFFFFF" stroke-width="0.502" stroke-miterlimit="3.864" x1="-659.035" y1="-362.075" x2="-659.035" y2="-373.982"/>
						
							<line id="Line_100" fill="none" stroke="#FFFFFF" stroke-width="0.502" stroke-miterlimit="3.864" x1="-657.415" y1="-362.075" x2="-657.415" y2="-373.982"/>
						
							<line id="Line_101" fill="none" stroke="#FFFFFF" stroke-width="0.502" stroke-miterlimit="3.864" x1="-655.795" y1="-362.075" x2="-655.795" y2="-373.982"/>
						
							<line id="Line_102" fill="none" stroke="#FFFFFF" stroke-width="0.502" stroke-miterlimit="3.864" x1="-654.173" y1="-362.075" x2="-654.173" y2="-373.982"/>
						
							<line id="Line_103" fill="none" stroke="#FFFFFF" stroke-width="0.502" stroke-miterlimit="3.864" x1="-652.553" y1="-362.075" x2="-652.553" y2="-373.982"/>
						
							<line id="Line_104" fill="none" stroke="#FFFFFF" stroke-width="0.502" stroke-miterlimit="3.864" x1="-650.932" y1="-362.075" x2="-650.932" y2="-373.982"/>
						
							<line id="Line_105" fill="none" stroke="#FFFFFF" stroke-width="0.502" stroke-miterlimit="3.864" x1="-649.311" y1="-362.075" x2="-649.311" y2="-373.982"/>
						
							<line id="Line_106" fill="none" stroke="#FFFFFF" stroke-width="0.502" stroke-miterlimit="3.864" x1="-647.691" y1="-362.075" x2="-647.691" y2="-373.982"/>
						
							<line id="Line_107" fill="none" stroke="#FFFFFF" stroke-width="0.502" stroke-miterlimit="3.864" x1="-646.071" y1="-362.075" x2="-646.071" y2="-373.982"/>
						
							<line id="Line_108" fill="none" stroke="#FFFFFF" stroke-width="0.502" stroke-miterlimit="3.864" x1="-644.45" y1="-362.075" x2="-644.45" y2="-373.982"/>
						
							<line id="Line_109" fill="none" stroke="#FFFFFF" stroke-width="0.502" stroke-miterlimit="3.864" x1="-642.83" y1="-362.075" x2="-642.83" y2="-373.982"/>
						
							<line id="Line_110" fill="none" stroke="#FFFFFF" stroke-width="0.502" stroke-miterlimit="3.864" x1="-641.209" y1="-362.075" x2="-641.209" y2="-373.982"/>
						
							<line id="Line_111" fill="none" stroke="#FFFFFF" stroke-width="0.502" stroke-miterlimit="3.864" x1="-639.589" y1="-362.075" x2="-639.589" y2="-373.982"/>
						
							<line id="Line_112" fill="none" stroke="#FFFFFF" stroke-width="0.502" stroke-miterlimit="3.864" x1="-637.968" y1="-362.075" x2="-637.968" y2="-373.982"/>
						
							<line id="Line_113" fill="none" stroke="#FFFFFF" stroke-width="0.502" stroke-miterlimit="3.864" x1="-636.348" y1="-362.075" x2="-636.348" y2="-373.982"/>
						
							<line id="Line_114" fill="none" stroke="#FFFFFF" stroke-width="0.502" stroke-miterlimit="3.864" x1="-634.728" y1="-362.075" x2="-634.728" y2="-373.982"/>
						
							<line id="Line_115" fill="none" stroke="#FFFFFF" stroke-width="0.502" stroke-miterlimit="3.864" x1="-633.108" y1="-362.075" x2="-633.108" y2="-373.982"/>
						
							<line id="Line_116" fill="none" stroke="#FFFFFF" stroke-width="0.502" stroke-miterlimit="3.864" x1="-631.488" y1="-362.075" x2="-631.488" y2="-373.982"/>
					</g>
				</g>
			</g>
			<path id="Path_3246" fill="none" stroke="#FFFFFF" stroke-width="0.502" stroke-miterlimit="10" d="M-673.619-364.369
				c4.351-0.684,7.557-6.523,8.015-9.612c2.977,5.149,7.328,8.239,16.486,8.239s13.052-3.089,16.027-8.239
				c0.459,3.091,4.352,8.929,8.015,9.612H-673.619z"/>
		</g>
		<path id="Path_3247" fill="#FFFFFF" d="M-647.73-368.227c2.517-2.877,9.351-5.035,12.946-2.877
			c3.596,2.156,10.428,3.235,12.585-0.72c-2.877,5.754-8.63,5.034-13.664,3.237S-643.773-369.666-647.73-368.227z"/>
	</g>
	<path id="Path_3248" fill="#00A3E6" d="M45.24,22.602c6.379,3.095,12.326,7.217,14.807,12.723c0.199,0.448,0.388,0.896,0.563,1.343
		L45.21,36.673L45.24,22.602z M45.24,41.557v4.558h-4.949V14.591l0.069-0.026c8.409,3.195,20.251,8.749,24.644,18.509
		c1.872,4.094,2.865,8.535,2.918,13.037h-5.45c-0.019-1.528-0.17-3.053-0.453-4.555L45.24,41.557z M37.492,46.115h-4.868V17.903
		c1.679-0.833,3.269-1.573,4.868-2.234V46.115z M30.152,19.197c-5.922,3.269-11.6,7.742-14.361,13.877
		c-1.873,4.093-2.861,8.536-2.9,13.037h5.448c0.012-1.527,0.155-3.051,0.425-4.555l11.435,0.007l0.039-4.919l-10.054,0.027
		c0.175-0.45,0.364-0.899,0.566-1.348c1.766-3.92,5.252-7.14,9.4-9.783L30.152,19.197z"/>
	<path fill="#FFFFFF" d="M45.068,22.518c6.379,3.096,12.326,7.217,14.807,12.723c0.199,0.448,0.388,0.896,0.563,1.344l-15.399,0.004
		L45.068,22.518z"/>
</g>
</svg>
