<svg xmlns="http://www.w3.org/2000/svg" width="79.113" height="98.409" viewBox="0 0 79.113 98.409">
  <g id="Group_432" data-name="Group 432" transform="translate(-1399.488 -388.958)">
    <path id="Path_3574" data-name="Path 3574" d="M1465.059,403.425c-2.294-2.146-6-4.514-11.693-7.441-2.659-1.367-5.293-2.636-7.94-3.9-1.872-.891-3.743-1.79-5.633-2.73l-.783-.392-.8.392c-1.833.915-3.659,1.795-5.493,2.671-2.679,1.287-5.349,2.572-8.039,3.963-5.654,2.927-9.356,5.288-11.609,7.4-12.722,10.825-17.274,31.83-10.369,47.816,5.886,13.613,17.792,25.612,35.422,35.661l.876.5.879-.5c17.7-10.089,29.645-22.087,35.5-35.661C1482.283,435.224,1477.74,414.229,1465.059,403.425Z" fill="#fdfbe4"/>
    <path id="Path_3575" data-name="Path 3575" d="M1419.964,412.365l-6.831,8.361-1.241,2.976,6.169-.237,4.122.135a26.55,26.55,0,0,1,4.874.168c1.579.337,5.142,1.311,5.142,1.311l1.075-.269,3.666-10.128a5.494,5.494,0,0,0-4.191-2.97c-2.859-.194-4.886.833-5.413,1.555a2.286,2.286,0,0,0-2.637-1.638C1422.506,411.879,1419.964,412.365,1419.964,412.365Z" fill="#fff"/>
    <g id="Group_418" data-name="Group 418">
      <g id="Group_404" data-name="Group 404">
        <path id="Path_3576" data-name="Path 3576" d="M1423.507,427.1l-.8-.064a4.231,4.231,0,0,1-.8-.1l-.8-.206a5.925,5.925,0,0,1-.769-.272c-.511-.19-1-.4-1.489-.618-.117-.047-.259-.117-.355-.147a2.376,2.376,0,0,0-.363-.115,3.026,3.026,0,0,0-.7-.089,2.576,2.576,0,0,0-1.325.309.913.913,0,0,0-.526.892c.025.091.039.21.065.282l.066.189.06.108a.654.654,0,0,0,.4.308,2.311,2.311,0,0,0,1.38-.207h0l.146.221-.489.258a1.188,1.188,0,0,1-.273.084c-.1.012-.182.068-.291.043a.978.978,0,0,1-.309-.064c-.086-.065-.2-.109-.249-.2a1.039,1.039,0,0,1-.2-.569v-.014l.005-.026a1.4,1.4,0,0,1,.831-.995,2.136,2.136,0,0,1,1.3-.079,2.237,2.237,0,0,1,1.157.661,1.474,1.474,0,0,1,.326,1.387,2.032,2.032,0,0,1-.878,1.1,4.077,4.077,0,0,1-1.212.511,5.1,5.1,0,0,1-2.586-.052,2.84,2.84,0,0,1-1.958-1.909,3.3,3.3,0,0,1-.1-1.38,3.057,3.057,0,0,1,.572-1.307,3.955,3.955,0,0,1,2.32-1.373,5.532,5.532,0,0,1,2.6.126c.768.185,1.585.435,2.321.67a9.482,9.482,0,0,1,1.1.434c.366.13.735.285,1.114.4a5.247,5.247,0,0,0,2.342.042c.764-.176,1.5-.487,2.31-.674a9.7,9.7,0,0,1,2.446-.254,4.2,4.2,0,0,1,2.491.673,1.705,1.705,0,0,1,.66,1.286,2.53,2.53,0,0,1-.367,1.328,1.228,1.228,0,0,1-.606.476,1.43,1.43,0,0,1-.734.009,2.426,2.426,0,0,1-1.108-.646l0,0,.185-.188a1.174,1.174,0,0,0,.239.2,1.192,1.192,0,0,0,.29.131,1.968,1.968,0,0,0,.651.066h.005l-.1.062a1.343,1.343,0,0,0,.21-.924.937.937,0,0,0-.564-.669,1.631,1.631,0,0,0-.936-.118,1.952,1.952,0,0,0-.451.125,1.143,1.143,0,0,0-.382.253,1.462,1.462,0,0,0-.242,1.673,1.623,1.623,0,0,0,.6.652,2.594,2.594,0,0,0,.906.327,1.835,1.835,0,0,0,.488.067,2.092,2.092,0,0,0,.469.012l.481-.048.455-.134a1.5,1.5,0,0,0,.421-.2,1.3,1.3,0,0,0,.378-.254l.33-.31.242-.383a4.1,4.1,0,0,0,.305-.808,2.4,2.4,0,0,0,.033-.937.746.746,0,0,0-.114-.346c-.033-.127-.142-.2-.218-.3a1.684,1.684,0,0,0-.67-.4l-.009,0-.546-.173.182-.46,3.9-9.865,0-.012.031.237a12.735,12.735,0,0,0-2.013-1.806,7.17,7.17,0,0,0-1.14-.649,6.3,6.3,0,0,0-.593-.224c-.2-.036-.392-.136-.592-.159a3.819,3.819,0,0,0-.594-.1c-.034-.006-.136-.013-.114-.018l-.175.013-.35.025a3.559,3.559,0,0,0-.669.079l-.606.133-.611.213c-.2.079-.386.188-.587.272-.188.1-.381.206-.56.324l-.264.187a.4.4,0,0,1-.406.046l0,.011-.029.11-.206-.151c-.145-.107-.245-.2-.365-.3a3.452,3.452,0,0,0-.356-.263,6.613,6.613,0,0,0-.771-.437,2.341,2.341,0,0,0-.408-.152l-.1-.031c.049.005-.059,0-.081,0l-.252-.013a3.355,3.355,0,0,0-.467.022c-.155.012-.3.016-.473.04-.662.071-1.329.158-1.994.26s-1.324.247-1.984.38l-.01,0,.07-.044-6.436,8.189,0,0,.069-.115-1.589,3.381v0l-.245-.342c.353-.116.709-.192,1.065-.277s.711-.161,1.068-.222q1.07-.189,2.146-.293c.358-.044.717-.068,1.076-.09s.717-.067,1.079-.054a4.7,4.7,0,0,1,1.088.111,3.7,3.7,0,0,1,1.108.416l.751.3c-.119.01,0,.18-.121.19-2.8.225-6.477.207-9.23.41l-.391.03.147-.37v0l1.234-3.526.016-.043.054-.073,0,0,6.907-7.8.032-.036.039-.008.011,0c1.313-.325,2.607-.707,3.945-1,.161-.039.349-.065.529-.094a4.9,4.9,0,0,1,.539-.068l.254-.01a1.028,1.028,0,0,1,.171,0l.143.027a3.05,3.05,0,0,1,.555.151,2.43,2.43,0,0,1,.506.257,1.847,1.847,0,0,1,.44.359,2.216,2.216,0,0,1,.347.459,1.08,1.08,0,0,1,.147.574l-.235-.042.013-.006a4.126,4.126,0,0,1,1.065-1.007,7.629,7.629,0,0,1,1.3-.7l.733-.231a4.388,4.388,0,0,1,.711-.152l.346-.059.174-.029c.137-.01.153-.005.236-.007a2.832,2.832,0,0,1,.8.057,4.32,4.32,0,0,1,1.44.574,8.18,8.18,0,0,1,1.209.878,9.829,9.829,0,0,1,1.88,2.212l.081.131-.05.107-.005.011-3.489,10.017-.364-.632.025.005a2.37,2.37,0,0,1,1.193.612,1.9,1.9,0,0,1,.406.561,1.686,1.686,0,0,1,.216.665,3.375,3.375,0,0,1-.034,1.2,3.187,3.187,0,0,1-.211.628,1.933,1.933,0,0,1-.273.549l-.365.5c-.15.143-.314.272-.473.4a1.962,1.962,0,0,1-.525.315,2.133,2.133,0,0,1-.562.225c-.2.047-.39.1-.585.137l-.592.029a4.52,4.52,0,0,1-1.168-.163,3.214,3.214,0,0,1-1.078-.469,2.252,2.252,0,0,1-.785-.949,2.007,2.007,0,0,1,.461-2.287,1.658,1.658,0,0,1,.524-.312,2.282,2.282,0,0,1,.589-.135,2.038,2.038,0,0,1,1.157.212,1.287,1.287,0,0,1,.712.955,1.638,1.638,0,0,1-.3,1.116l-.037.058-.061,0h-.007a1.678,1.678,0,0,1-1.413-.49l.185-.188,0,0c.669.335,1.516.6,1.764.032a1.993,1.993,0,0,0,.257-.963,1.055,1.055,0,0,0-.422-.806,4,4,0,0,0-2.116-.588,12.038,12.038,0,0,0-2.348.129c-.777.11-1.55.316-2.354.447a12.1,12.1,0,0,1-2.422.053,11.839,11.839,0,0,1-2.4-.4c-.785-.209-1.509-.477-2.29-.664a4.72,4.72,0,0,0-2.248-.144,3.2,3.2,0,0,0-1.881,1.073,2.231,2.231,0,0,0-.362,2.053,2.153,2.153,0,0,0,1.465,1.452,4.485,4.485,0,0,0,2.244.094,2.3,2.3,0,0,0,1.721-1.172c.257-.677-.378-1.335-1.085-1.519a1.325,1.325,0,0,0-1.773.761l0-.037v0a.779.779,0,0,0,.146.413c.029.073.1.08.152.128s.137.02.2.039.151-.028.226-.037a.874.874,0,0,0,.229-.07l.447-.236.146.221,0,0a2.655,2.655,0,0,1-.715.485,1.939,1.939,0,0,1-.93.169,1.348,1.348,0,0,1-.914-.545c-.052-.075-.113-.162-.152-.233l-.084-.182a1.984,1.984,0,0,1-.13-.492,1.575,1.575,0,0,1,.228-1.012,1.933,1.933,0,0,1,.751-.622,3.345,3.345,0,0,1,1.715-.233,3.444,3.444,0,0,1,.831.173,4.735,4.735,0,0,1,.748.338c.473.248.946.5,1.426.718a5.533,5.533,0,0,0,.726.318l.747.255a4.079,4.079,0,0,0,.779.168l.79.136Z" fill="#8d1819"/>
      </g>
      <g id="Group_405" data-name="Group 405">
        <path id="Path_3577" data-name="Path 3577" d="M1424.451,426.939s.147-.022.4-.073c.248-.067.608-.136,1.027-.266l.673-.229c.235-.09.5-.145.746-.262l1.572-.7.831-.341a6.463,6.463,0,0,1,.891-.187,3.472,3.472,0,0,1,.858.085,1.953,1.953,0,0,1,.708.346,1.83,1.83,0,0,1,.472.485,2.47,2.47,0,0,1,.233.477,2.41,2.41,0,0,1,.059.35c0,.041.024.073-.014.093a.309.309,0,0,1-.08.029l-.265-.011a.554.554,0,0,1-.087-.025c-.042-.015-.024-.036-.033-.064a2.007,2.007,0,0,0-.032-.24,2.078,2.078,0,0,0-.165-.362,1.365,1.365,0,0,0-.355-.384,1.53,1.53,0,0,0-.557-.293,3.073,3.073,0,0,0-.719-.093,6.574,6.574,0,0,0-.782.138l-.812.3-1.622.663a6.806,6.806,0,0,1-.769.239l-.7.192c-.434.106-.807.155-1.062.207-.256.037-.4.05-.4.05Z" fill="#8d1819"/>
      </g>
      <g id="Group_406" data-name="Group 406">
        <path id="Path_3578" data-name="Path 3578" d="M1429.72,436.548h-11.533v-7.591h.265v7.326h11V429.1h.265Z" fill="#8d1819"/>
      </g>
      <g id="Group_407" data-name="Group 407">
        <path id="Path_3579" data-name="Path 3579" d="M1420.672,436.415h-.318v-4.954a1.367,1.367,0,0,0-.269-.926.825.825,0,0,0-.648-.257h0a1.711,1.711,0,0,0-1.015.328l-.2-.245a2.02,2.02,0,0,1,1.218-.4h0a1.155,1.155,0,0,1,.887.363,1.671,1.671,0,0,1,.348,1.138Z" fill="#8d1819"/>
      </g>
      <g id="Group_408" data-name="Group 408">
        <path id="Path_3580" data-name="Path 3580" d="M1422.656,436.415h-.319v-5.28c0-.832-.342-1.271-.988-1.271a1.243,1.243,0,0,0-1.054.5l-.272-.165a1.556,1.556,0,0,1,1.326-.656c.83,0,1.307.579,1.307,1.589Z" fill="#8d1819"/>
      </g>
      <g id="Group_409" data-name="Group 409">
        <path id="Path_3581" data-name="Path 3581" d="M1424.334,436.415h-.318V430.5c-.083-1.058-.735-1.282-1.266-1.282s-.792.619-.8.625l-.3-.115a1.282,1.282,0,0,1,1.092-.828,1.52,1.52,0,0,1,1.583,1.588Z" fill="#8d1819"/>
      </g>
      <g id="Group_410" data-name="Group 410">
        <path id="Path_3582" data-name="Path 3582" d="M1426.24,436.415h-.319v-6.031a1.153,1.153,0,0,0-1.084-1.268h-.009a1.073,1.073,0,0,0-.858.49l-.273-.164a1.388,1.388,0,0,1,1.131-.644h.011a1.459,1.459,0,0,1,1.4,1.586Z" fill="#8d1819"/>
      </g>
      <g id="Group_411" data-name="Group 411">
        <path id="Path_3583" data-name="Path 3583" d="M1428.145,436.513h-.319v-5.755a1.131,1.131,0,0,0-1.023-1.268h-.007a.656.656,0,0,0-.634.44l-.3-.09a.969.969,0,0,1,.938-.668h.009a1.436,1.436,0,0,1,1.34,1.586Z" fill="#8d1819"/>
      </g>
      <g id="Group_412" data-name="Group 412">
        <path id="Path_3584" data-name="Path 3584" d="M1429.748,431.03h-.32a.969.969,0,0,0-.275-.68.632.632,0,0,0-.442-.182h-.027c-.428.017-.551.237-.556.247l-.285-.142a.913.913,0,0,1,.828-.423.937.937,0,0,1,.7.27A1.278,1.278,0,0,1,1429.748,431.03Z" fill="#8d1819"/>
      </g>
      <g id="Group_413" data-name="Group 413">
        <rect id="Rectangle_131" data-name="Rectangle 131" width="9.373" height="0.318" transform="translate(1419.204 427.839)" fill="#8d1819"/>
      </g>
      <g id="Group_414" data-name="Group 414">
        <path id="Path_3585" data-name="Path 3585" d="M1413.133,420.726a11.109,11.109,0,0,1,2.415-.7,10.213,10.213,0,0,1,1.261-.151c.212-.015.424.012.636.016a5.45,5.45,0,0,1,.651.049c.408.084.791.122,1.218.242a7.274,7.274,0,0,1,1.221.376,8.694,8.694,0,0,1,2.214,1.193h0l-.182.052a7.015,7.015,0,0,0,.606-1.093l.56-1.117,1.121-2.235,2.241-4.469.654.352-2.5,4.332L1424,419.74l-.624,1.083a7.013,7.013,0,0,0-.579,1.107l-.03.093-.152-.04h0a10.443,10.443,0,0,0-1.145-.377c-.384-.114-.769-.225-1.159-.3a11.047,11.047,0,0,0-1.162-.2c-.37-.067-.8-.068-1.2-.105l-.569-.015c-.2,0-.39-.024-.586-.01-.391.013-.78.029-1.169.058a11,11,0,0,0-1.16.129l-.575.087c-.2.033-.361.062-.567.083Z" fill="#8d1819"/>
      </g>
      <g id="Group_415" data-name="Group 415">
        <path id="Path_3586" data-name="Path 3586" d="M1432.031,425.076l-1.1-1.825.167-.44,4.419-9.148.244.105s-3.66,9.272-3.625,9.352c.06.071.388,1.79.388,1.79Z" fill="#8d1819"/>
      </g>
      <g id="Group_416" data-name="Group 416">
        <path id="Path_3587" data-name="Path 3587" d="M1422.66,421.738a13.072,13.072,0,0,1,1.385-.257,15.1,15.1,0,0,1,3.107-.1,12.407,12.407,0,0,1,1.664.257,7.111,7.111,0,0,1,.754.213c.233.09.465.152.661.252a5.88,5.88,0,0,1,.939.5l.344.22-.487.58-.295-.206a5.306,5.306,0,0,0-.816-.489c-.172-.1-.381-.163-.59-.255a6.528,6.528,0,0,0-.684-.229,13.631,13.631,0,0,0-1.552-.321,14.735,14.735,0,0,0-3.006-.079,12.622,12.622,0,0,0-1.363.17Z" fill="#8d1819"/>
      </g>
      <path id="Path_3588" data-name="Path 3588" d="M1422.137,421.713l-1.077,2.065,2.166.026-.024-.088-.425-1.83Z" fill="#8d1819"/>
      <g id="Group_417" data-name="Group 417">
        <path id="Path_3589" data-name="Path 3589" d="M1430.541,424.707l-.237-.056a23.28,23.28,0,0,0-7.158-.838l-.179-.389a24.188,24.188,0,0,1,7.4.969l.236.056Z" fill="#8d1819"/>
      </g>
    </g>
    <path id="Path_3590" data-name="Path 3590" d="M1470.33,436.818a32.023,32.023,0,0,1-2.522,11.657c-4.634,10.761-14.112,20.284-28.169,28.291l-.63.365-.63-.365c-13.969-7.963-23.436-17.485-28.1-28.291a31.75,31.75,0,0,1-2.522-11.657Z" fill="#fff"/>
    <path id="Path_3591" data-name="Path 3591" d="M1417.456,449.726h9.317v3.491h-6.891a51.372,51.372,0,0,0,10.065,9.611l-.08,5.316c-7.911-5.565-14.666-12.468-18.452-20.821q-.513-1.14-.918-2.333a3.127,3.127,0,0,1,2.816-4.184h15.614a1.967,1.967,0,0,1,1.768,2.006,1.779,1.779,0,0,1-1.825,1.836h-12.309S1413.305,444.418,1417.456,449.726Zm14.935.16v14.006s-.55,7.674,6.583,8.822c3.75.181,5.382-1.208,7.92-3.323l-1.451-3.807s-2.356,3.081-5.075,3.081-3.989-2.477-3.989-5.076V450.34a7.969,7.969,0,0,1,.424-2.65,4.011,4.011,0,0,1,2.174-2.591c2.3-.847,4.558,1.188,5.6,1.979a1.648,1.648,0,0,0,2.6-.612c.561-.971.23-2.094-1.4-3.217s-3.626-2.553-6.383-2.323S1432.391,443.708,1432.391,449.886Zm17.241-7.186v21.615s-.057,2.874,3.047.632,8.508-7.128,8.508-7.128L1459.232,455l-5.289,3.909s-.862.747-.862-.747l.067-6.057a.432.432,0,0,1,.417-.431l6.414-.238.575-3.277h-6.869a.431.431,0,0,1-.431-.431v-2.644a.431.431,0,0,1,.431-.431h10.483s3,.082,3-1.955c0-1.518-.805-1.84-1.667-1.84h-14.276S1449.632,440.8,1449.632,442.7Z" fill="#911422"/>
    <path id="Path_3592" data-name="Path 3592" d="M1460.191,424.558a7.178,7.178,0,1,1-7.178-7.178A7.178,7.178,0,0,1,1460.191,424.558Z" fill="#fff"/>
    <g id="Group_421" data-name="Group 421">
      <path id="Path_3593" data-name="Path 3593" d="M1452.436,415.354a9.756,9.756,0,0,0-.212,2.283,7.036,7.036,0,0,0-5.053,3.248c-.244-2.548-.244-7.165-.244-7.165.509-1.158,1.539.031,2.664.085s.7-.022,1.975-.542S1452.744,414.261,1452.436,415.354Zm-2.048-5a1.474,1.474,0,1,0,.781,1.8A1.39,1.39,0,0,0,1450.388,410.355Zm8.5,4.537a1.529,1.529,0,1,0,2.021.256A1.444,1.444,0,0,0,1458.884,414.892Zm5.071,7.006a1.458,1.458,0,1,0,.775,1.773A1.374,1.374,0,0,0,1463.955,421.9Zm-10.469,5.842a1.55,1.55,0,1,0,1.126,1.741A1.471,1.471,0,0,0,1453.486,427.74Zm-11.056-7.625a1.478,1.478,0,1,0,1.819.773A1.4,1.4,0,0,0,1442.43,420.115Zm4.524,5.8a1.553,1.553,0,1,0,1.39,1.577A1.489,1.489,0,0,0,1446.954,425.912Zm15.705-7.458c-.616-.7-1.73.1-3.057-.361s-1.455-1.178-2.293-1.454c-.51-.159-.584.955-.552,1.847a6.929,6.929,0,0,1,3.535,5.478,2.189,2.189,0,0,0,.944-.68C1461.82,422.531,1463.275,419.165,1462.659,418.454Zm3.714,7.744c-.045-1.946-.133-2.742-1.062-2.034a3.282,3.282,0,0,1-2.3,1.017c-.973,0-1.592-.619-2.123,0a14.028,14.028,0,0,0-.214,2.257,2.019,2.019,0,0,1,.615,1.239,1.743,1.743,0,0,1-.084.775,1.376,1.376,0,0,1,.7-.191,1.516,1.516,0,0,1,.478.085,1.245,1.245,0,0,1,.711.764c.009.022.013.05.021.073a4.74,4.74,0,0,1,1.7-.8C1466.682,429.029,1466.417,428.144,1466.373,426.2Zm-6.8,4.1a1.424,1.424,0,1,0-1.485-1.271A1.384,1.384,0,0,0,1459.572,430.293Zm2.634-.446c-.914-.331-1.3.9-2.225,1.145s-1.26-.249-1.9-.382-.85-.066-1.016,1.062a14.564,14.564,0,0,0,.4,3.616,6.986,6.986,0,0,0,2.72-.6c.7-.266,2.057-.232,2.322-.763S1463.121,430.179,1462.206,429.847Zm-7.465,5.66c.27,0,.5-.438.563-.7.144-.625.361-1.4.647-2.234.564-1.656-.448-2.346-1.444-1.617s-1.641.926-2.521.331c-.862-.584-1.765-.4-1.931.551a15.643,15.643,0,0,0,.1,2.866c.021.3.273.8.577.8Zm-5.511-6.5c-.955-.34-.923.446-2.3.446a2.08,2.08,0,0,1-1.553-.675,2.1,2.1,0,0,1-.333-.64,2.882,2.882,0,0,1-.121-.723,2.245,2.245,0,0,1,.711-1.614,7.055,7.055,0,0,0,.021-2.293c-.3-.8-1.008-.265-2.027-.063-1.168.233-1.529-.436-2.187-.924s-1.528-1.062-1.465.754.266,4.172.266,4.172c.148.286,1.985.775,3.386.976a8.634,8.634,0,0,0-.127,1.37,25.69,25.69,0,0,0,.371,3.843.419.419,0,0,0,.393.35l5,.308s.074-1.232.3-2.686S1450.2,429.346,1449.23,429.006Z" fill="#8d1819"/>
      <g id="Group_419" data-name="Group 419">
        <path id="Path_3594" data-name="Path 3594" d="M1460.1,427.048l-.495-.192a6.492,6.492,0,0,0,.44-2.359,6.836,6.836,0,0,0-13.667,0,6.511,6.511,0,0,0,.08,1.02l-.525.083a7.074,7.074,0,0,1-.086-1.1,7.366,7.366,0,0,1,14.729,0A7.013,7.013,0,0,1,1460.1,427.048Z" fill="#8d1819"/>
      </g>
      <g id="Group_420" data-name="Group 420">
        <path id="Path_3595" data-name="Path 3595" d="M1456.355,431.007l-.222-.482a6.825,6.825,0,0,0,1.675-1.1l.353.4A7.334,7.334,0,0,1,1456.355,431.007Z" fill="#8d1819"/>
      </g>
    </g>
    <path id="Path_3596" data-name="Path 3596" d="M1465.059,403.425c-2.294-2.146-6-4.514-11.693-7.441-2.659-1.367-5.293-2.636-7.94-3.9-1.872-.891-3.743-1.79-5.633-2.73l-.783-.392-.8.392c-1.833.915-3.659,1.795-5.493,2.671-2.679,1.287-5.349,2.572-8.039,3.963-5.654,2.927-9.356,5.288-11.609,7.4-12.722,10.825-17.274,31.83-10.369,47.816,5.886,13.613,17.792,25.612,35.422,35.661l.876.5.879-.5c17.7-10.089,29.645-22.087,35.5-35.661C1482.283,435.224,1477.74,414.229,1465.059,403.425Zm9.65,47.538c-5.747,13.322-17.475,25.1-34.843,35l-.862.492-.86-.492c-17.3-9.862-28.988-21.638-34.765-35-6.777-15.689-2.309-36.305,10.177-46.929,2.211-2.078,5.845-4.395,11.393-7.268,2.641-1.364,5.261-2.626,7.89-3.889,1.8-.86,3.593-1.723,5.391-2.621l.78-.385.769.385c1.855.922,3.692,1.8,5.528,2.679,3.139,1.5,5.413,2.6,7.794,3.831,5.575,2.892,9.224,5.2,11.475,7.3C1477.022,414.673,1481.481,435.279,1474.709,450.963Z" fill="#8d1819"/>
    <g id="Group_422" data-name="Group 422">
      <path id="Path_3597" data-name="Path 3597" d="M1439.01,479.559l-.8-.459c-14.788-8.428-24.8-18.505-29.744-29.952-5.811-13.452-1.978-31.125,8.727-40.234,1.9-1.78,5-3.76,9.756-6.224,2.326-1.2,4.671-2.33,6.741-3.323,1.351-.645,2.954-1.415,4.6-2.238l.728-.359.718.36c1.733.861,3.432,1.674,4.719,2.285,2.359,1.132,4.488,2.158,6.659,3.275,4.761,2.449,7.884,4.437,9.83,6.259,10.674,9.093,14.491,26.753,8.686,40.2-4.919,11.4-14.949,21.478-29.813,29.952Zm.005-82.48-.6.3c-1.649.823-3.253,1.594-4.6,2.239-2.067.993-4.411,2.119-6.733,3.32-4.736,2.451-7.817,4.417-9.7,6.184-10.622,9.04-14.423,26.571-8.657,39.918,4.925,11.39,14.892,21.424,29.627,29.822l.667.382.668-.382c14.81-8.443,24.8-18.477,29.694-29.822,5.76-13.341,1.977-30.86-8.614-39.884-1.933-1.807-5.037-3.782-9.775-6.218-2.167-1.114-4.294-2.14-6.65-3.271-1.288-.612-2.988-1.426-4.723-2.288Z" fill="#8d1819"/>
    </g>
    <g id="Group_427" data-name="Group 427">
      <g id="Group_423" data-name="Group 423">
        <path id="Path_3598" data-name="Path 3598" d="M1439.009,478.557a.312.312,0,0,1-.232-.1.32.32,0,0,1,0-.465.356.356,0,0,1,.475,0,.336.336,0,0,1,.088.232.3.3,0,0,1-.1.233A.3.3,0,0,1,1439.009,478.557Z" fill="#8d1819"/>
      </g>
      <g id="Group_424" data-name="Group 424">
        <path id="Path_3599" data-name="Path 3599" d="M1437.217,477.573a.319.319,0,0,1-.122-.454h0a.337.337,0,0,1,.454-.121h0a.352.352,0,0,1,.121.465h0a.348.348,0,0,1-.287.154h0A.288.288,0,0,1,1437.217,477.573Zm-1.626-.962h0a.329.329,0,0,1-.111-.454h0a.327.327,0,0,1,.454-.11h0a.326.326,0,0,1,.111.454h0a.335.335,0,0,1-.288.154h0A.316.316,0,0,1,1435.591,476.611Zm-1.6-.995h0a.326.326,0,0,1-.1-.454h0a.323.323,0,0,1,.454-.1v-.012a.338.338,0,0,1,.1.464h0a.327.327,0,0,1-.276.156h0A.342.342,0,0,1,1433.988,475.616Zm-1.593-1.029a.333.333,0,0,1-.089-.454h0a.315.315,0,0,1,.454-.087h0a.322.322,0,0,1,.1.452h0a.317.317,0,0,1-.277.145h0A.312.312,0,0,1,1432.4,474.587Zm-1.559-1.05a.337.337,0,0,1-.089-.466h0a.335.335,0,0,1,.465-.076h0a.324.324,0,0,1,.088.453h0a.331.331,0,0,1-.276.144h0A.3.3,0,0,1,1430.836,473.537Zm-1.538-1.085a.326.326,0,0,1-.077-.464h0a.325.325,0,0,1,.465-.078h0a.335.335,0,0,1,.066.465h0a.318.318,0,0,1-.266.133h0A.366.366,0,0,1,1429.3,472.452Zm-1.526-1.127a.335.335,0,0,1-.066-.466h0a.323.323,0,0,1,.464-.055h0a.31.31,0,0,1,.066.454h0a.327.327,0,0,1-.265.133h0A.369.369,0,0,1,1427.772,471.325Zm-1.493-1.15a.338.338,0,0,1-.056-.466h0a.329.329,0,0,1,.476-.055h0a.332.332,0,0,1,.045.465h0a.335.335,0,0,1-.255.122h0A.365.365,0,0,1,1426.279,470.175Zm-1.46-1.195h0a.322.322,0,0,1-.044-.464h0a.321.321,0,0,1,.464-.045h0a.322.322,0,0,1,.045.465h0a.351.351,0,0,1-.254.121h0A.294.294,0,0,1,1424.819,468.98Zm-1.437-1.228h0a.333.333,0,0,1-.023-.475h0a.329.329,0,0,1,.464-.023h0a.33.33,0,0,1,.023.465h0a.315.315,0,0,1-.243.111h0A.337.337,0,0,1,1423.382,467.752Zm-1.406-1.272a.322.322,0,0,1-.01-.465h0a.331.331,0,0,1,.464-.021h0a.344.344,0,0,1,.023.475h0a.343.343,0,0,1-.244.1h0A.307.307,0,0,1,1421.976,466.48Zm-1.359-1.305h0a.329.329,0,0,1-.011-.464h0a.343.343,0,0,1,.475-.011h0a.333.333,0,0,1,0,.475h0a.335.335,0,0,1-.232.1h0A.3.3,0,0,1,1420.617,465.175Zm-1.328-1.338h0a.333.333,0,0,1,0-.475h0a.345.345,0,0,1,.476.01h0a.344.344,0,0,1-.011.476h0a.358.358,0,0,1-.233.088h0A.3.3,0,0,1,1419.289,463.837Zm-1.294-1.393h0a.332.332,0,0,1,.022-.465h0a.344.344,0,0,1,.476.022h0a.322.322,0,0,1-.033.464h0a.282.282,0,0,1-.222.089h0A.317.317,0,0,1,1417.995,462.444Zm-1.238-1.427a.332.332,0,0,1,.033-.465h0a.335.335,0,0,1,.475.045h0a.333.333,0,0,1-.044.464h0a.311.311,0,0,1-.21.077h0A.3.3,0,0,1,1416.757,461.017Zm-1.195-1.46a.323.323,0,0,1,.055-.465h0a.333.333,0,0,1,.464.055h0a.331.331,0,0,1-.055.465h0a.363.363,0,0,1-.209.067h0A.329.329,0,0,1,1415.562,459.557Zm-1.15-1.516a.312.312,0,0,1,.078-.453h0a.334.334,0,0,1,.464.067h0a.345.345,0,0,1-.078.464h0a.3.3,0,0,1-.188.066h0A.318.318,0,0,1,1414.412,458.041Zm-1.083-1.536h0a.333.333,0,0,1,.088-.465h0a.338.338,0,0,1,.465.089h0a.339.339,0,0,1-.1.464h0a.355.355,0,0,1-.176.055h0A.343.343,0,0,1,1413.329,456.505Zm-1.03-1.593h0a.323.323,0,0,1,.1-.453h0a.339.339,0,0,1,.466.1h0a.337.337,0,0,1-.111.454h0a.265.265,0,0,1-.177.055h0A.317.317,0,0,1,1412.3,454.912Zm-.973-1.626h0a.337.337,0,0,1,.122-.454h0a.338.338,0,0,1,.454.122h0a.331.331,0,0,1-.122.454h0a.322.322,0,0,1-.167.044h0A.361.361,0,0,1,1411.326,453.286Zm-.9-1.67h0a.318.318,0,0,1,.143-.443h0a.322.322,0,0,1,.442.144h0a.323.323,0,0,1-.144.443h0a.351.351,0,0,1-.154.033h0A.318.318,0,0,1,1410.431,451.616Zm-.83-1.7a.332.332,0,0,1,.155-.443h0a.338.338,0,0,1,.443.166h0a.341.341,0,0,1-.156.442h0a.337.337,0,0,1-.144.023h0A.314.314,0,0,1,1409.6,449.913Zm-.763-1.737a.335.335,0,0,1,.188-.431h0a.334.334,0,0,1,.432.177h0a.327.327,0,0,1-.188.431h0a.215.215,0,0,1-.122.023h0A.34.34,0,0,1,1408.838,448.176Zm-.653-1.791h0a.34.34,0,0,1,.211-.421h0a.34.34,0,0,1,.42.211h0a.321.321,0,0,1-.211.42h0a.315.315,0,0,1-.1.022h0A.342.342,0,0,1,1408.185,446.385Zm-.542-1.825a.323.323,0,0,1,.232-.4h0a.323.323,0,0,1,.41.232h0a.326.326,0,0,1-.233.409h0c-.033,0-.055.011-.088.011h0A.338.338,0,0,1,1407.643,444.56Zm-.431-1.847a.321.321,0,0,1,.254-.387h0a.336.336,0,0,1,.4.255h0a.342.342,0,0,1-.265.4h-.066A.321.321,0,0,1,1407.212,442.713Zm-.331-1.869a.334.334,0,0,1,.276-.376h0a.346.346,0,0,1,.387.277h0a.329.329,0,0,1-.288.375h0c-.01.011-.033.011-.044.011h0A.332.332,0,0,1,1406.881,440.844Zm-.233-1.881a.343.343,0,0,1,.309-.364h0a.326.326,0,0,1,.355.3h0a.334.334,0,0,1-.3.365h-.022A.347.347,0,0,1,1406.648,438.963Zm-.122-1.891a.35.35,0,0,1,.321-.353h0a.325.325,0,0,1,.343.321h0a.319.319,0,0,1-.321.342h-.011A.329.329,0,0,1,1406.526,437.072Zm.3-1.57a.33.33,0,0,1-.321-.332h0a.331.331,0,0,1,.331-.331h0a.335.335,0,0,1,.332.342h0a.331.331,0,0,1-.332.321h-.01Zm.065-1.88a.321.321,0,0,1-.31-.354h0a.336.336,0,0,1,.355-.31h0a.332.332,0,0,1,.3.355h0a.329.329,0,0,1-.332.309h-.011Zm.144-1.869a.332.332,0,0,1-.287-.365h0a.333.333,0,0,1,.365-.3h0a.333.333,0,0,1,.287.365h0a.332.332,0,0,1-.321.3h-.044Zm.243-1.869a.342.342,0,0,1-.276-.376h0a.336.336,0,0,1,.387-.277h0a.343.343,0,0,1,.277.376h0a.334.334,0,0,1-.332.277h-.056Zm.344-1.847a.329.329,0,0,1-.255-.4h0a.329.329,0,0,1,.387-.255h0a.33.33,0,0,1,.254.4h0a.329.329,0,0,1-.321.264h0C1407.666,428.047,1407.643,428.037,1407.622,428.037Zm.42-1.836a.336.336,0,0,1-.233-.41h0a.341.341,0,0,1,.41-.232h0a.326.326,0,0,1,.232.409h0a.32.32,0,0,1-.321.244h0A.273.273,0,0,1,1408.042,426.2Zm.53-1.8a.334.334,0,0,1-.22-.42h0a.328.328,0,0,1,.42-.21h0a.336.336,0,0,1,.221.42v-.011a.354.354,0,0,1-.321.232h0A.311.311,0,0,1,1408.572,424.4Zm.609-1.78a.34.34,0,0,1-.188-.432h0a.336.336,0,0,1,.431-.188h0a.336.336,0,0,1,.188.431h0a.333.333,0,0,1-.31.211h0A.468.468,0,0,1,1409.181,422.618Zm.708-1.747a.322.322,0,0,1-.167-.432h0a.337.337,0,0,1,.443-.166h0a.32.32,0,0,1,.166.431h0a.341.341,0,0,1-.31.2h0A.3.3,0,0,1,1409.889,420.871Zm.807-1.7a.317.317,0,0,1-.144-.442h0a.317.317,0,0,1,.442-.144h0a.332.332,0,0,1,.144.454h0a.336.336,0,0,1-.3.177h0A.246.246,0,0,1,1410.7,419.167Zm.885-1.648a.326.326,0,0,1-.111-.453h0a.328.328,0,0,1,.453-.122h0a.34.34,0,0,1,.122.453h0a.332.332,0,0,1-.287.166h0A.339.339,0,0,1,1411.581,417.519Zm.995-1.6a.326.326,0,0,1-.089-.464h0a.323.323,0,0,1,.454-.078h0a.335.335,0,0,1,.1.454h0a.336.336,0,0,1-.287.143h0A.275.275,0,0,1,1412.576,415.915Zm1.084-1.537a.324.324,0,0,1-.067-.464h0a.335.335,0,0,1,.465-.067h0a.333.333,0,0,1,.066.464h0a.328.328,0,0,1-.265.133h0A.3.3,0,0,1,1413.66,414.378Zm1.172-1.471a.321.321,0,0,1-.033-.464h0a.344.344,0,0,1,.476-.033h0a.33.33,0,0,1,.021.464v.011a.349.349,0,0,1-.243.111h0A.355.355,0,0,1,1414.832,412.907Zm1.272-1.382a.333.333,0,0,1,0-.475h0a.341.341,0,0,1,.465,0h0a.334.334,0,0,1,0,.475h0a.319.319,0,0,1-.233.1h0A.3.3,0,0,1,1416.1,411.525Zm1.36-1.294a.335.335,0,0,1,.034-.476h0a.331.331,0,0,1,.464.033h0a.331.331,0,0,1-.034.465h0a.347.347,0,0,1-.22.088h0A.36.36,0,0,1,1417.464,410.231Zm1.416-1.239a.332.332,0,0,1,.055-.464h0a.331.331,0,0,1,.464.055h0a.322.322,0,0,1-.055.464h0a.326.326,0,0,1-.2.067h0A.353.353,0,0,1,1418.88,408.992Zm1.515-1.117a.325.325,0,0,1,.089-.464h0a.323.323,0,0,1,.453.088h0a.338.338,0,0,1-.088.465h0a.385.385,0,0,1-.188.055h0A.326.326,0,0,1,1420.4,407.875Zm1.571-1.04a.327.327,0,0,1,.11-.453h0a.336.336,0,0,1,.453.111h0a.334.334,0,0,1-.11.453h0a.334.334,0,0,1-.177.056h0A.326.326,0,0,1,1421.966,406.835Zm1.614-.962a.329.329,0,0,1,.122-.453h0a.339.339,0,0,1,.454.122h0a.339.339,0,0,1-.122.453h0a.3.3,0,0,1-.166.044h0A.31.31,0,0,1,1423.58,405.873Zm1.638-.929a.32.32,0,0,1,.132-.443h0a.331.331,0,0,1,.453.133h0a.336.336,0,0,1-.144.454h0a.338.338,0,0,1-.154.033h0A.309.309,0,0,1,1425.218,404.944Zm1.659-.884a.323.323,0,0,1,.143-.443h-.011a.333.333,0,0,1,.453.144h0a.32.32,0,0,1-.144.442h0a.359.359,0,0,1-.154.045h0A.322.322,0,0,1,1426.877,404.06Zm1.669-.852a.332.332,0,0,1,.155-.442h0a.324.324,0,0,1,.443.143h0a.331.331,0,0,1-.156.442h0a.29.29,0,0,1-.144.034h0A.335.335,0,0,1,1428.546,403.208Zm1.693-.841a.316.316,0,0,1,.143-.441h0a.326.326,0,0,1,.442.143h0a.342.342,0,0,1-.143.453h0a.347.347,0,0,1-.144.033h0A.313.313,0,0,1,1430.239,402.367Zm1.68-.829a.332.332,0,0,1,.155-.442h0a.331.331,0,0,1,.443.154h0a.323.323,0,0,1-.155.442h0a.3.3,0,0,1-.144.034h0A.325.325,0,0,1,1431.919,401.538Zm1.693-.819a.336.336,0,0,1,.165-.442h0v.011h0a.314.314,0,0,1,.432.155h0a.327.327,0,0,1-.156.442h0a.3.3,0,0,1-.143.034h0A.336.336,0,0,1,1433.612,400.719Zm1.7-.807a.332.332,0,0,1,.154-.443h0a.333.333,0,0,1,.443.156h0a.331.331,0,0,1-.155.442h0a.346.346,0,0,1-.144.033h0A.327.327,0,0,1,1435.315,399.912Zm1.691-.818a.329.329,0,0,1,.145-.443h0v-.011h0a.347.347,0,0,1,.453.156h0a.33.33,0,0,1-.155.441h0a.326.326,0,0,1-.144.034h0A.338.338,0,0,1,1437.006,399.094Z" fill="#8d1819"/>
      </g>
      <g id="Group_425" data-name="Group 425">
        <path id="Path_3600" data-name="Path 3600" d="M1439.019,398.43a.34.34,0,0,1-.242-.1.358.358,0,0,1-.089-.233.334.334,0,0,1,.089-.232.337.337,0,0,1,.574.232.338.338,0,0,1-.332.332Z" fill="#8d1819"/>
      </g>
      <g id="Group_426" data-name="Group 426">
        <path id="Path_3601" data-name="Path 3601" d="M1440.391,477.44a.328.328,0,0,1,.122-.454h0a.322.322,0,0,1,.453.123h0a.342.342,0,0,1-.121.453h0a.465.465,0,0,1-.167.044h0A.358.358,0,0,1,1440.391,477.44Zm1.615-.962a.335.335,0,0,1,.11-.453h0a.337.337,0,0,1,.464.111h0a.334.334,0,0,1-.11.453h0a.379.379,0,0,1-.177.055h0A.358.358,0,0,1,1442.006,476.478Zm1.6-.984a.326.326,0,0,1,.11-.454h0a.326.326,0,0,1,.454.1h0a.322.322,0,0,1-.1.453h0a.358.358,0,0,1-.177.055h0A.348.348,0,0,1,1443.61,475.494Zm1.592-1.018a.314.314,0,0,1,.088-.453h0a.327.327,0,0,1,.465.088h0a.34.34,0,0,1-.1.465h0a.365.365,0,0,1-.177.055h0A.315.315,0,0,1,1445.2,474.476Zm1.559-1.05a.325.325,0,0,1,.089-.454h0a.336.336,0,0,1,.464.078h0a.345.345,0,0,1-.088.464h0a.308.308,0,0,1-.188.055h0A.321.321,0,0,1,1446.761,473.426Zm1.549-1.073a.331.331,0,0,1,.066-.464h0a.322.322,0,0,1,.464.076h0a.327.327,0,0,1-.076.466h0a.3.3,0,0,1-.188.055h0A.327.327,0,0,1,1448.31,472.353Zm1.515-1.117a.334.334,0,0,1,.066-.464h0a.334.334,0,0,1,.465.066h0a.333.333,0,0,1-.066.464h0a.327.327,0,0,1-.2.066h0A.327.327,0,0,1,1449.825,471.236Zm1.493-1.139a.333.333,0,0,1,.055-.465h0a.314.314,0,0,1,.465.056h0a.333.333,0,0,1-.056.464h0a.361.361,0,0,1-.209.067h0A.328.328,0,0,1,1451.318,470.1Zm1.471-1.184a.329.329,0,0,1,.034-.464h0a.334.334,0,0,1,.475.044h0a.334.334,0,0,1-.044.464h0a.328.328,0,0,1-.211.078h0A.327.327,0,0,1,1452.789,468.913Zm1.438-1.216a.33.33,0,0,1,.022-.464h0a.333.333,0,0,1,.475.032h0a.344.344,0,0,1-.033.466h0a.338.338,0,0,1-.221.076h0A.3.3,0,0,1,1454.227,467.7Zm1.4-1.25a.334.334,0,0,1,.011-.476h0a.345.345,0,0,1,.475.023h0a.33.33,0,0,1-.022.464h0a.309.309,0,0,1-.232.089h0A.3.3,0,0,1,1455.632,466.447Zm1.359-1.293a.334.334,0,0,1,.011-.465v-.012a.331.331,0,0,1,.465.012h0a.333.333,0,0,1,0,.475h0v-.01h0a.342.342,0,0,1-.232.1h0A.352.352,0,0,1,1456.991,465.154Zm1.339-1.328a.334.334,0,0,1-.011-.476h0a.321.321,0,0,1,.464,0h0a.321.321,0,0,1,.011.465h0a.337.337,0,0,1-.232.1h0A.359.359,0,0,1,1458.33,463.826Zm1.283-1.371a.331.331,0,0,1-.022-.465h0a.334.334,0,0,1,.475-.033h0a.344.344,0,0,1,.022.476h0a.359.359,0,0,1-.254.11h0A.349.349,0,0,1,1459.613,462.455Zm1.249-1.4a.346.346,0,0,1-.033-.476h0a.33.33,0,0,1,.465-.032h0a.33.33,0,0,1,.044.464h0a.349.349,0,0,1-.254.121h0A.407.407,0,0,1,1460.862,461.05Zm1.206-1.46a.322.322,0,0,1-.055-.464h0a.33.33,0,0,1,.464-.055h0a.331.331,0,0,1,.055.464h0a.326.326,0,0,1-.264.133h0A.288.288,0,0,1,1462.068,459.59Zm1.15-1.482a.326.326,0,0,1-.077-.464h0a.327.327,0,0,1,.465-.078h0a.347.347,0,0,1,.076.465h0a.348.348,0,0,1-.276.132h0A.374.374,0,0,1,1463.218,458.108Zm1.095-1.538a.337.337,0,0,1-.1-.464h0a.338.338,0,0,1,.464-.089h0a.329.329,0,0,1,.089.465h0a.351.351,0,0,1-.277.145h0A.362.362,0,0,1,1464.313,456.57Zm1.028-1.57a.326.326,0,0,1-.1-.454h0a.327.327,0,0,1,.454-.11h0a.327.327,0,0,1,.1.454h.011a.322.322,0,0,1-.288.154h0A.344.344,0,0,1,1465.341,455Zm.973-1.615a.335.335,0,0,1-.12-.453h0a.334.334,0,0,1,.453-.121h0a.334.334,0,0,1,.121.453h0a.332.332,0,0,1-.287.166h0A.314.314,0,0,1,1466.314,453.385Zm.908-1.648a.332.332,0,0,1-.144-.442h0a.324.324,0,0,1,.443-.143h0a.331.331,0,0,1,.154.442h-.011a.3.3,0,0,1-.287.177h0A.374.374,0,0,1,1467.222,451.737Zm.84-1.68a.337.337,0,0,1-.165-.443h0a.334.334,0,0,1,.441-.165h0a.333.333,0,0,1,.167.441h0a.33.33,0,0,1-.31.188h0A.614.614,0,0,1,1468.062,450.057Zm.764-1.725a.326.326,0,0,1-.188-.432h0a.325.325,0,0,1,.431-.177h0a.336.336,0,0,1,.188.432h0a.342.342,0,0,1-.309.2h0A.228.228,0,0,1,1468.826,448.332Zm.663-1.76a.336.336,0,0,1-.221-.42h0a.339.339,0,0,1,.421-.209h0a.32.32,0,0,1,.209.42h0a.317.317,0,0,1-.309.232h0A.3.3,0,0,1,1469.489,446.572Zm.553-1.8a.316.316,0,0,1-.233-.4h0a.323.323,0,0,1,.4-.244h0a.331.331,0,0,1,.232.41h0a.324.324,0,0,1-.321.244h0A.175.175,0,0,1,1470.042,444.77Zm.442-1.824a.326.326,0,0,1-.254-.388h0a.327.327,0,0,1,.387-.265h0a.343.343,0,0,1,.266.4h0a.342.342,0,0,1-.333.265h0C1470.529,442.956,1470.506,442.946,1470.484,442.946Zm.343-1.847a.336.336,0,0,1-.277-.377h0a.336.336,0,0,1,.377-.287h0a.334.334,0,0,1,.277.375h0a.336.336,0,0,1-.333.289h-.044Zm.244-1.87a.327.327,0,0,1-.3-.365h0a.323.323,0,0,1,.354-.3h0a.343.343,0,0,1,.31.365h0a.347.347,0,0,1-.343.3h-.022Zm.144-1.88a.332.332,0,0,1-.321-.343h0a.319.319,0,0,1,.342-.32h0a.347.347,0,0,1,.321.342h0a.34.34,0,0,1-.342.321Zm-.3-2.212h0a.333.333,0,0,1,.333-.332h0a.334.334,0,0,1,.332.332h0a.333.333,0,0,1-.332.332h0A.326.326,0,0,1,1470.915,435.137Zm-.076-1.858h0a.334.334,0,0,1,.309-.354h0a.327.327,0,0,1,.354.31h0a.334.334,0,0,1-.31.354h-.011A.338.338,0,0,1,1470.839,433.279Zm-.167-1.857h.011a.331.331,0,0,1,.289-.377h0a.333.333,0,0,1,.364.3h0a.334.334,0,0,1-.288.365H1471A.336.336,0,0,1,1470.672,431.422Zm-.253-1.847a.329.329,0,0,1,.276-.388h0a.326.326,0,0,1,.376.276h0a.325.325,0,0,1-.266.376h0c-.022,0-.044.012-.067.012h0A.33.33,0,0,1,1470.419,429.575Zm-.355-1.836a.348.348,0,0,1,.254-.4h0a.348.348,0,0,1,.4.255h0a.346.346,0,0,1-.255.4h-.066A.333.333,0,0,1,1470.064,427.739Zm-.442-1.815h0a.339.339,0,0,1,.232-.409h0a.334.334,0,0,1,.409.232h0a.334.334,0,0,1-.232.409h0a.257.257,0,0,1-.089.012h0A.332.332,0,0,1,1469.622,425.924Zm-.531-1.78a.321.321,0,0,1,.21-.42h0a.321.321,0,0,1,.409.21h.011a.34.34,0,0,1-.22.42h0a.346.346,0,0,1-.1.01h0A.321.321,0,0,1,1469.091,424.144Zm-.63-1.758a.327.327,0,0,1,.187-.432h0a.329.329,0,0,1,.431.188h0a.339.339,0,0,1-.188.432h0a.56.56,0,0,1-.121.021h0A.322.322,0,0,1,1468.461,422.386Zm-.72-1.726a.32.32,0,0,1,.167-.431h0a.309.309,0,0,1,.43.165h0a.324.324,0,0,1-.165.432h0a.294.294,0,0,1-.133.033h0A.337.337,0,0,1,1467.741,420.66Zm-.807-1.681h-.01a.342.342,0,0,1,.143-.442h0a.335.335,0,0,1,.454.143h0a.338.338,0,0,1-.144.443h0a.417.417,0,0,1-.155.044h0A.313.313,0,0,1,1466.934,418.979Zm-.907-1.626a.327.327,0,0,1,.111-.454h0a.337.337,0,0,1,.453.111h0a.339.339,0,0,1-.11.465h0a.461.461,0,0,1-.177.044h0A.3.3,0,0,1,1466.027,417.353Zm-.995-1.57h-.011a.345.345,0,0,1,.088-.465h0a.346.346,0,0,1,.465.089h0a.333.333,0,0,1-.089.464h0a.362.362,0,0,1-.188.055h0A.327.327,0,0,1,1465.032,415.783Zm-1.095-1.516a.332.332,0,0,1,.055-.464h0a.349.349,0,0,1,.476.067h0a.334.334,0,0,1-.066.464h0a.332.332,0,0,1-.2.066h0A.327.327,0,0,1,1463.937,414.267Zm-1.183-1.427a.334.334,0,0,1,.033-.475h0a.321.321,0,0,1,.464.034h0a.32.32,0,0,1-.033.464h0a.311.311,0,0,1-.221.089h0A.356.356,0,0,1,1462.754,412.84Zm-1.272-1.359a.322.322,0,0,1,0-.465h0a.321.321,0,0,1,.465,0h0v-.011h0a.334.334,0,0,1,0,.476h0a.321.321,0,0,1-.232.1h0A.319.319,0,0,1,1461.482,411.481Zm-1.361-1.261h-.01a.332.332,0,0,1-.034-.465h0a.336.336,0,0,1,.475-.045h0a.346.346,0,0,1,.034.477h0a.339.339,0,0,1-.254.11h0A.3.3,0,0,1,1460.121,410.22Zm-1.426-1.206a.334.334,0,0,1-.066-.465h0a.347.347,0,0,1,.475-.055h0a.332.332,0,0,1,.055.465h0a.35.35,0,0,1-.266.122h0A.333.333,0,0,1,1458.695,409.014Zm-1.516-1.083h0a.347.347,0,0,1-.088-.465h0a.334.334,0,0,1,.464-.088h0a.334.334,0,0,1,.089.464h0a.343.343,0,0,1-.277.144h0A.378.378,0,0,1,1457.179,407.931Zm-1.57-1.007a.351.351,0,0,1-.11-.464h0a.348.348,0,0,1,.464-.111h-.01a.342.342,0,0,1,.11.465h0a.322.322,0,0,1-.288.154h0A.314.314,0,0,1,1455.609,406.924Zm-1.615-.951a.344.344,0,0,1-.122-.453h0a.32.32,0,0,1,.454-.122h0a.324.324,0,0,1,.122.442h0a.318.318,0,0,1-.287.177h0A.47.47,0,0,1,1453.994,405.973Zm-1.636-.907h0a.33.33,0,0,1-.133-.453h0a.329.329,0,0,1,.454-.133h0a.33.33,0,0,1,.132.443h0a.326.326,0,0,1-.3.176h0A.352.352,0,0,1,1452.358,405.066Zm-1.659-.873a.336.336,0,0,1-.145-.454h0a.344.344,0,0,1,.454-.144h0a.34.34,0,0,1,.133.454h0a.331.331,0,0,1-.287.176h0A.367.367,0,0,1,1450.7,404.193Zm-1.671-.853a.347.347,0,0,1-.154-.453h0a.338.338,0,0,1,.443-.144h0a.335.335,0,0,1,.154.443h0a.325.325,0,0,1-.3.188h0A.3.3,0,0,1,1449.028,403.34Zm-1.691-.84a.333.333,0,0,1-.156-.443h0a.322.322,0,0,1,.443-.143h0a.323.323,0,0,1,.155.442h0a.335.335,0,0,1-.3.178h0A.341.341,0,0,1,1447.337,402.5Zm-1.692-.819h0a.328.328,0,0,1-.155-.441h0a.332.332,0,0,1,.442-.156h0a.333.333,0,0,1,.155.443h0a.326.326,0,0,1-.3.188h0A.325.325,0,0,1,1445.645,401.681Zm-1.693-.818v.012a.326.326,0,0,1-.154-.443h0a.325.325,0,0,1,.441-.165h0a.33.33,0,0,1,.156.441h0a.325.325,0,0,1-.3.188h0A.308.308,0,0,1,1443.952,400.863Zm-1.7-.807a.333.333,0,0,1-.155-.443h0a.331.331,0,0,1,.442-.154h0a.331.331,0,0,1,.156.442h0a.325.325,0,0,1-.3.188h0A.339.339,0,0,1,1442.249,400.056Zm-1.691-.819a.346.346,0,0,1-.156-.453h0a.327.327,0,0,1,.443-.144h0a.332.332,0,0,1,.154.443h0a.347.347,0,0,1-.3.188h0A.322.322,0,0,1,1440.558,399.237Z" fill="#8d1819"/>
      </g>
    </g>
    <g id="Group_428" data-name="Group 428">
      <path id="Path_3602" data-name="Path 3602" d="M1459.823,410.441c-1.847-1.725-4.811-3.616-9.323-5.939-2.09-1.073-4.181-2.079-6.326-3.108-1.3-.619-2.854-1.36-4.468-2.167l-.221-.111-.155-.077-.31-.155-.465.232-.232.111c-1.515.752-3,1.471-4.368,2.123-2.367,1.128-4.336,2.09-6.393,3.152-4.512,2.334-7.454,4.214-9.257,5.906-10.164,8.638-13.8,25.415-8.284,38.178,4.7,10.861,14.19,20.427,28.225,28.423l.763.443.774-.443c14.1-8.04,23.612-17.607,28.28-28.423C1473.57,435.823,1469.954,419.068,1459.823,410.441Zm7.985,38.034c-4.634,10.761-14.112,20.284-28.169,28.291l-.63.365-.63-.365c-13.969-7.963-23.436-17.485-28.1-28.291a31.75,31.75,0,0,1-2.522-11.657c-.011-.309-.022-.619-.022-.929-.055-9.633,3.8-19.365,10.761-25.282,1.781-1.67,4.7-3.539,9.191-5.862,2.057-1.061,4.037-2.012,6.392-3.152,1.372-.652,2.854-1.36,4.369-2.123l.11-.055.465-.222.465.233.088.044c1.626.807,3.174,1.548,4.49,2.179,2.135,1.017,4.214,2.024,6.3,3.1,4.5,2.312,7.443,4.192,9.279,5.906,6.924,5.895,10.772,15.617,10.706,25.238a8.7,8.7,0,0,1-.022.929A32.023,32.023,0,0,1,1467.808,448.475Z" fill="#8d1819"/>
    </g>
    <g id="Group_429" data-name="Group 429">
      <path id="Path_3603" data-name="Path 3603" d="M1405.333,441.144l.066.479-3.542.481-.332-2.45.424-.059.268,1.974,1.084-.148-.235-1.736.424-.058.236,1.736Z" fill="#8d1819"/>
      <path id="Path_3604" data-name="Path 3604" d="M1403.976,438.42l1.06.315.028.5-3.643-1.139-.031-.547,3.494-1.494.03.527-1.019.411Zm-.5-1.232-1.54.616v.009l1.6.482Z" fill="#8d1819"/>
      <path id="Path_3605" data-name="Path 3605" d="M1402.471,433.065a.971.971,0,0,0-.376.147.883.883,0,0,0-.237.244.971.971,0,0,0-.121.288,1.587,1.587,0,0,0-.039.3,1.076,1.076,0,0,0,.344.85,1.52,1.52,0,0,0,1.037.364,2.753,2.753,0,0,0,.6-.043,1.344,1.344,0,0,0,.474-.187.963.963,0,0,0,.323-.358,1.274,1.274,0,0,0,.13-.549,1.161,1.161,0,0,0-.031-.287.894.894,0,0,0-.138-.3,1.027,1.027,0,0,0-.3-.276,1.444,1.444,0,0,0-.484-.189l.015-.468a1.791,1.791,0,0,1,.753.295,1.345,1.345,0,0,1,.415.464,1.545,1.545,0,0,1,.162.466,1.958,1.958,0,0,1,.027.382,1.661,1.661,0,0,1-.128.6,1.472,1.472,0,0,1-.352.5,1.571,1.571,0,0,1-.6.339,2.539,2.539,0,0,1-.867.105,2.378,2.378,0,0,1-.753-.139,1.707,1.707,0,0,1-.579-.35,1.464,1.464,0,0,1-.364-.538,1.894,1.894,0,0,1,0-1.293,1.349,1.349,0,0,1,.272-.44,1.277,1.277,0,0,1,.386-.279,1.294,1.294,0,0,1,.444-.117Z" fill="#8d1819"/>
      <path id="Path_3606" data-name="Path 3606" d="M1401.861,428.673l2.3.293a1.487,1.487,0,0,1,.508.152,1.162,1.162,0,0,1,.393.321,1.246,1.246,0,0,1,.232.486,1.75,1.75,0,0,1,.024.637,1.67,1.67,0,0,1-.178.592,1.156,1.156,0,0,1-.336.392,1.182,1.182,0,0,1-.439.2,1.454,1.454,0,0,1-.494.02l-2.365-.3.061-.48,2.231.284a1.292,1.292,0,0,0,.48-.017.771.771,0,0,0,.329-.167.812.812,0,0,0,.2-.265,1.181,1.181,0,0,0,.092-.324,1.25,1.25,0,0,0,0-.352.807.807,0,0,0-.12-.317.775.775,0,0,0-.274-.25,1.251,1.251,0,0,0-.457-.139l-2.241-.285Z" fill="#8d1819"/>
      <path id="Path_3607" data-name="Path 3607" d="M1405.257,427.671l.378-1.773.418.09-.478,2.243-3.495-.745.1-.472Z" fill="#8d1819"/>
      <path id="Path_3608" data-name="Path 3608" d="M1402.549,425.265l.783-2.794.412.116-.327,1.164,3.028.849-.129.465-3.029-.849-.327,1.165Z" fill="#8d1819"/>
      <path id="Path_3609" data-name="Path 3609" d="M1405.978,422.588l.854.7-.167.469-2.913-2.468.183-.516,3.8-.016-.177.5-1.1-.017Zm.02-1.33-1.658-.032,0,.009,1.287,1.068Z" fill="#8d1819"/>
      <path id="Path_3610" data-name="Path 3610" d="M1404.736,418.692l.615-1.311a1.556,1.556,0,0,1,.378-.513,1.312,1.312,0,0,1,.524-.279,1.653,1.653,0,0,1,.628-.035,2.252,2.252,0,0,1,.681.205,2.768,2.768,0,0,1,.551.343,1.9,1.9,0,0,1,.428.482,1.3,1.3,0,0,1,.192.616,1.454,1.454,0,0,1-.156.718l-.607,1.293Zm3.066.906.4-.847a.9.9,0,0,0-.009-.84,1.667,1.667,0,0,0-.813-.689,1.544,1.544,0,0,0-1.032-.171.957.957,0,0,0-.647.564l-.383.816Z" fill="#8d1819"/>
      <path id="Path_3611" data-name="Path 3611" d="M1407.383,413.566l.806-1.2a1.531,1.531,0,0,1,.45-.45,1.307,1.307,0,0,1,.561-.2,1.628,1.628,0,0,1,.624.058,2.3,2.3,0,0,1,.643.305,2.79,2.79,0,0,1,.494.422,1.915,1.915,0,0,1,.351.54,1.32,1.32,0,0,1,.1.638,1.463,1.463,0,0,1-.261.686l-.794,1.188Zm2.895,1.357.521-.779a.9.9,0,0,0,.117-.832,1.67,1.67,0,0,0-.7-.8,1.554,1.554,0,0,0-1-.325.963.963,0,0,0-.725.461l-.5.748Z" fill="#8d1819"/>
      <path id="Path_3612" data-name="Path 3612" d="M1414.171,410.479l-1.7,2.016-2.732-2.3,1.68-1.989.326.276-1.367,1.62.837.706,1.261-1.494.328.276-1.262,1.495.913.77,1.39-1.647Z" fill="#8d1819"/>
      <path id="Path_3613" data-name="Path 3613" d="M1416.035,405.334a.968.968,0,0,0-.366-.169.848.848,0,0,0-.34,0,.954.954,0,0,0-.291.112,1.578,1.578,0,0,0-.243.177,1.077,1.077,0,0,0-.376.836,1.526,1.526,0,0,0,.454,1,2.677,2.677,0,0,0,.445.4,1.331,1.331,0,0,0,.463.213.963.963,0,0,0,.482-.014,1.255,1.255,0,0,0,.486-.287,1.1,1.1,0,0,0,.186-.22.921.921,0,0,0,.121-.306,1.065,1.065,0,0,0-.006-.4,1.45,1.45,0,0,0-.2-.48l.347-.313a1.789,1.789,0,0,1,.307.748,1.347,1.347,0,0,1-.047.621,1.557,1.557,0,0,1-.224.438,1.991,1.991,0,0,1-.257.285,1.7,1.7,0,0,1-.523.323,1.466,1.466,0,0,1-.606.092,1.563,1.563,0,0,1-.663-.2,2.536,2.536,0,0,1-.675-.554,2.4,2.4,0,0,1-.42-.639,1.689,1.689,0,0,1-.147-.66,1.462,1.462,0,0,1,.137-.636,1.894,1.894,0,0,1,.936-.892,1.365,1.365,0,0,1,.505-.107,1.282,1.282,0,0,1,.468.085,1.261,1.261,0,0,1,.393.24Z" fill="#8d1819"/>
      <path id="Path_3614" data-name="Path 3614" d="M1419.136,406.165l-.393.279-2.075-2.908.393-.281Z" fill="#8d1819"/>
      <path id="Path_3615" data-name="Path 3615" d="M1422.213,404.184l-2.239,1.4-1.889-3.034,2.21-1.376.227.363-1.8,1.121.579.93,1.66-1.034.227.364-1.66,1.033.631,1.014,1.829-1.139Z" fill="#8d1819"/>
      <path id="Path_3616" data-name="Path 3616" d="M1423.241,399.525l.411-.226,1.725,3.129-.475.262-2.985-1.65-.009,0,1.4,2.529-.41.225-1.726-3.129.5-.276,2.958,1.664.008,0Z" fill="#8d1819"/>
      <path id="Path_3617" data-name="Path 3617" d="M1427.306,398.63a.971.971,0,0,0-.309-.258.835.835,0,0,0-.329-.089.929.929,0,0,0-.31.031,1.659,1.659,0,0,0-.28.109,1.079,1.079,0,0,0-.579.712,1.521,1.521,0,0,0,.181,1.083,2.653,2.653,0,0,0,.326.5,1.346,1.346,0,0,0,.392.325.96.96,0,0,0,.47.111,1.247,1.247,0,0,0,.542-.152,1.105,1.105,0,0,0,.238-.165.883.883,0,0,0,.194-.265,1.02,1.02,0,0,0,.1-.391,1.5,1.5,0,0,0-.068-.516l.417-.211a1.8,1.8,0,0,1,.1.8,1.344,1.344,0,0,1-.205.589,1.6,1.6,0,0,1-.331.366,2.175,2.175,0,0,1-.32.208,1.68,1.68,0,0,1-.589.176,1.446,1.446,0,0,1-.609-.066,1.593,1.593,0,0,1-.589-.366,2.52,2.52,0,0,1-.508-.709,2.335,2.335,0,0,1-.242-.726,1.686,1.686,0,0,1,.027-.675,1.461,1.461,0,0,1,.3-.579,1.714,1.714,0,0,1,.557-.435,1.768,1.768,0,0,1,.576-.187,1.334,1.334,0,0,1,.516.028,1.261,1.261,0,0,1,.43.2,1.286,1.286,0,0,1,.317.333Z" fill="#8d1819"/>
      <path id="Path_3618" data-name="Path 3618" d="M1430.072,400.051l-.433.213-1.578-3.206.433-.213Z" fill="#8d1819"/>
      <path id="Path_3619" data-name="Path 3619" d="M1431.028,398.428l.116,1.1-.448.216-.343-3.8.493-.239,2.718,2.656-.475.229-.77-.783Zm.948-.933-1.158-1.187-.01,0,.168,1.665Z" fill="#8d1819"/>
      <path id="Path_3620" data-name="Path 3620" d="M1435.054,394.87a.757.757,0,0,0-.222-.275.629.629,0,0,0-.281-.122.887.887,0,0,0-.3,0,1.385,1.385,0,0,0-.3.094,1.528,1.528,0,0,0-.24.135.914.914,0,0,0-.2.19.56.56,0,0,0-.108.259.581.581,0,0,0,.059.322.379.379,0,0,0,.232.232.7.7,0,0,0,.339.008l1.026-.2a1.171,1.171,0,0,1,.672.05.887.887,0,0,1,.46.489,1.008,1.008,0,0,1,.1.518.9.9,0,0,1-.165.442,1.55,1.55,0,0,1-.336.346,2.4,2.4,0,0,1-.819.392,1.538,1.538,0,0,1-.309.048,1.162,1.162,0,0,1-.229-.011,1.423,1.423,0,0,1-.2-.048.948.948,0,0,1-.429-.252,1.5,1.5,0,0,1-.273-.425l.412-.186a.853.853,0,0,0,.239.324.691.691,0,0,0,.315.145,1,1,0,0,0,.346,0,1.575,1.575,0,0,0,.342-.107,2.027,2.027,0,0,0,.273-.15,1.192,1.192,0,0,0,.236-.2.609.609,0,0,0,.137-.267.481.481,0,0,0-.039-.312.654.654,0,0,0-.133-.2.411.411,0,0,0-.178-.1.781.781,0,0,0-.256-.018,3.2,3.2,0,0,0-.387.056l-.736.146a2.014,2.014,0,0,1-.253.028.943.943,0,0,1-.277-.03.748.748,0,0,1-.284-.146.789.789,0,0,1-.226-.308,1.2,1.2,0,0,1-.1-.406.987.987,0,0,1,.308-.8,1.536,1.536,0,0,1,.464-.307,1.9,1.9,0,0,1,.7-.19,1.033,1.033,0,0,1,.505.09.979.979,0,0,1,.322.248,1.8,1.8,0,0,1,.209.321Z" fill="#8d1819"/>
      <path id="Path_3621" data-name="Path 3621" d="M1445.269,394.78l1.3.626a1.531,1.531,0,0,1,.509.383,1.294,1.294,0,0,1,.276.526,1.674,1.674,0,0,1,.03.627,2.283,2.283,0,0,1-.211.681,2.724,2.724,0,0,1-.349.547,1.888,1.888,0,0,1-.485.425,1.307,1.307,0,0,1-.616.186,1.475,1.475,0,0,1-.717-.162l-1.288-.618Zm-.932,3.058.843.4a.9.9,0,0,0,.84,0,1.656,1.656,0,0,0,.7-.806,1.548,1.548,0,0,0,.18-1.032.959.959,0,0,0-.559-.651l-.812-.39Z" fill="#8d1819"/>
      <path id="Path_3622" data-name="Path 3622" d="M1449.528,400.817l-2.367-1.162,1.575-3.208,2.336,1.148-.189.383-1.9-.934-.482.983,1.755.861-.188.385-1.756-.862-.526,1.073,1.934.949Z" fill="#8d1819"/>
      <path id="Path_3623" data-name="Path 3623" d="M1455.052,403.241l1.57.9-.213.371-1.989-1.143,1.78-3.1.419.24Z" fill="#8d1819"/>
      <path id="Path_3624" data-name="Path 3624" d="M1457.973,404.263l-.882.665-.416-.273,3.084-2.251.458.3-.879,3.7-.44-.289.274-1.064Zm1.289.332.421-1.6-.009-.005-1.341,1Z" fill="#8d1819"/>
      <path id="Path_3625" data-name="Path 3625" d="M1465.07,411.788l-1.772-1.952,2.647-2.4,1.749,1.928-.318.288-1.423-1.57-.811.735,1.313,1.448-.317.288-1.314-1.449-.885.8,1.449,1.6Z" fill="#8d1819"/>
      <path id="Path_3626" data-name="Path 3626" d="M1468.451,410.3l.844,1.178a1.527,1.527,0,0,1,.263.58,1.3,1.3,0,0,1-.012.594,1.666,1.666,0,0,1-.275.564,2.278,2.278,0,0,1-.511.5,2.739,2.739,0,0,1-.57.313,1.886,1.886,0,0,1-.628.139,1.33,1.33,0,0,1-.632-.132,1.474,1.474,0,0,1-.551-.487l-.831-1.161Zm-2.287,2.235.546.76a.9.9,0,0,0,.737.4,1.662,1.662,0,0,0,1-.372,1.566,1.566,0,0,0,.654-.818.963.963,0,0,0-.177-.841l-.525-.733Z" fill="#8d1819"/>
      <path id="Path_3627" data-name="Path 3627" d="M1472.14,416.1l-2.021,1.136a1.525,1.525,0,0,1-.5.181,1.193,1.193,0,0,1-.508-.023,1.227,1.227,0,0,1-.475-.253,1.713,1.713,0,0,1-.4-.5,1.67,1.67,0,0,1-.211-.582,1.156,1.156,0,0,1,.037-.514,1.191,1.191,0,0,1,.235-.42,1.437,1.437,0,0,1,.384-.311l2.078-1.169.237.422-1.961,1.1a1.278,1.278,0,0,0-.374.3.772.772,0,0,0-.166.329.822.822,0,0,0,0,.332,1.11,1.11,0,0,0,.12.315,1.247,1.247,0,0,0,.212.28.8.8,0,0,0,.285.182.78.78,0,0,0,.369.038,1.224,1.224,0,0,0,.45-.161l1.969-1.108Z" fill="#8d1819"/>
      <path id="Path_3628" data-name="Path 3628" d="M1472.707,419.949a.97.97,0,0,0,.278-.294.846.846,0,0,0,.11-.32.977.977,0,0,0-.013-.312,1.545,1.545,0,0,0-.092-.287,1.079,1.079,0,0,0-.674-.622,1.525,1.525,0,0,0-1.093.114,2.622,2.622,0,0,0-.522.3,1.32,1.32,0,0,0-.349.37.943.943,0,0,0-.14.462,1.267,1.267,0,0,0,.117.551,1.108,1.108,0,0,0,.151.247.9.9,0,0,0,.251.211,1.011,1.011,0,0,0,.384.123,1.44,1.44,0,0,0,.52-.034l.186.428a1.788,1.788,0,0,1-.807.054,1.321,1.321,0,0,1-.574-.242,1.56,1.56,0,0,1-.345-.352,2.114,2.114,0,0,1-.188-.333,1.674,1.674,0,0,1-.14-.6,1.456,1.456,0,0,1,.1-.6,1.587,1.587,0,0,1,.4-.564,2.54,2.54,0,0,1,.74-.465,2.369,2.369,0,0,1,.739-.2,1.694,1.694,0,0,1,.673.069,1.48,1.48,0,0,1,.56.333,1.749,1.749,0,0,1,.4.584,1.769,1.769,0,0,1,.151.585,1.362,1.362,0,0,1-.06.514,1.287,1.287,0,0,1-.58.713Z" fill="#8d1819"/>
      <path id="Path_3629" data-name="Path 3629" d="M1472.009,422.27l-1.1-.033-.155-.473,3.814.171.169.521-3,2.337-.163-.5.879-.658Zm.8,1.065,1.332-.989,0-.009-1.673-.057Z" fill="#8d1819"/>
      <path id="Path_3630" data-name="Path 3630" d="M1474.845,427.109a.979.979,0,0,0,.326-.239.827.827,0,0,0,.166-.3.9.9,0,0,0,.043-.309,1.48,1.48,0,0,0-.037-.3,1.078,1.078,0,0,0-.55-.733,1.513,1.513,0,0,0-1.095-.087,2.671,2.671,0,0,0-.567.194,1.332,1.332,0,0,0-.412.3.965.965,0,0,0-.22.429,1.248,1.248,0,0,0,.015.564,1.07,1.07,0,0,0,.1.27.868.868,0,0,0,.209.252,1.023,1.023,0,0,0,.355.192,1.47,1.47,0,0,0,.518.06l.1.456a1.792,1.792,0,0,1-.8-.094,1.333,1.333,0,0,1-.521-.342,1.583,1.583,0,0,1-.276-.409,2.185,2.185,0,0,1-.124-.361,1.682,1.682,0,0,1-.029-.615,1.476,1.476,0,0,1,.212-.575,1.582,1.582,0,0,1,.5-.481,2.5,2.5,0,0,1,.812-.323,2.4,2.4,0,0,1,.763-.059,1.688,1.688,0,0,1,.649.191,1.46,1.46,0,0,1,.489.428,1.907,1.907,0,0,1,.329,1.25,1.354,1.354,0,0,1-.152.495,1.268,1.268,0,0,1-.3.368,1.294,1.294,0,0,1-.4.227Z" fill="#8d1819"/>
      <path id="Path_3631" data-name="Path 3631" d="M1472.707,429.424l-.076-.477,3.527-.57.077.477Z" fill="#8d1819"/>
      <path id="Path_3632" data-name="Path 3632" d="M1474.307,433.466a1.915,1.915,0,0,1-.634-.237,1.5,1.5,0,0,1-.505-.5,1.994,1.994,0,0,1-.148-1.621,1.515,1.515,0,0,1,.408-.584,1.9,1.9,0,0,1,.581-.347,2.4,2.4,0,0,1,.628-.148,2.358,2.358,0,0,1,.645.035,1.974,1.974,0,0,1,.634.237,1.471,1.471,0,0,1,.5.5,1.984,1.984,0,0,1,.148,1.621,1.5,1.5,0,0,1-.407.585,1.92,1.92,0,0,1-.581.348,2.441,2.441,0,0,1-.628.146A2.394,2.394,0,0,1,1474.307,433.466Zm1.175-.6a1.334,1.334,0,0,0,.436-.287,1.11,1.11,0,0,0,.264-.418,1.221,1.221,0,0,0,.06-.528,1.244,1.244,0,0,0-.154-.509,1.117,1.117,0,0,0-.337-.364,1.4,1.4,0,0,0-.482-.2,1.911,1.911,0,0,0-.587-.032,1.941,1.941,0,0,0-.572.137,1.36,1.36,0,0,0-.439.287,1.11,1.11,0,0,0-.264.419,1.217,1.217,0,0,0-.06.528,1.23,1.23,0,0,0,.154.508,1.09,1.09,0,0,0,.338.364,1.363,1.363,0,0,0,.483.2,1.9,1.9,0,0,0,.585.033A1.932,1.932,0,0,0,1475.482,432.864Z" fill="#8d1819"/>
      <path id="Path_3633" data-name="Path 3633" d="M1476.74,436.732l0,.468-3.573-.026,0-.543,2.9-1.8v-.01l-2.887-.022,0-.467,3.573.027,0,.572-2.9,1.765v.01Z" fill="#8d1819"/>
    </g>
    <g id="Group_430" data-name="Group 430">
      <path id="Path_3634" data-name="Path 3634" d="M1405.427,452.65l-.171-.357,1.893-.9-.3-.622.266-.126a2.341,2.341,0,0,0,.176.279.675.675,0,0,0,.162.155.461.461,0,0,0,.21.067.956.956,0,0,0,.3-.028l.125.261Z" fill="#911422"/>
      <path id="Path_3635" data-name="Path 3635" d="M1408.59,452.53l.977,1.794-.284.154a4.017,4.017,0,0,0-.477-.087,4.946,4.946,0,0,0-.662-.039,5.259,5.259,0,0,0-.815.066,4.856,4.856,0,0,0-.883.221l-.194-.358a3.351,3.351,0,0,1,.631-.173,5.6,5.6,0,0,1,.732-.083,6.267,6.267,0,0,1,.752.009,5.122,5.122,0,0,1,.683.1l-.777-1.429Z" fill="#911422"/>
      <path id="Path_3636" data-name="Path 3636" d="M1408.16,457.744l-.151-.237,3.236-.832.149.235Z" fill="#911422"/>
      <path id="Path_3637" data-name="Path 3637" d="M1411.813,461.3a1.717,1.717,0,0,1-.483.161.968.968,0,0,1-.484-.036.959.959,0,0,1-.592-.815.944.944,0,0,1,.115-.469,1.835,1.835,0,0,1,.3-.41,3.039,3.039,0,0,1,.394-.341,3.1,3.1,0,0,1,.446-.27,1.792,1.792,0,0,1,.483-.16.934.934,0,0,1,.481.033.957.957,0,0,1,.593.816.959.959,0,0,1-.114.47,1.687,1.687,0,0,1-.3.41,3.178,3.178,0,0,1-.4.339A3.235,3.235,0,0,1,1411.813,461.3Zm.831-1.23a.5.5,0,0,0-.547-.752,2.573,2.573,0,0,0-1.418,1.032.5.5,0,0,0,.547.75,2.583,2.583,0,0,0,1.418-1.03Z" fill="#911422"/>
      <path id="Path_3638" data-name="Path 3638" d="M1412.686,461.9a.934.934,0,0,1,.382-.636,1.231,1.231,0,0,1,.341-.193.948.948,0,0,1,.369-.061.872.872,0,0,1,.359.1,1.115,1.115,0,0,1,.548.779.887.887,0,0,1-.073.465,1.46,1.46,0,0,1-.252.378,3.171,3.171,0,0,1-.334.309,3.567,3.567,0,0,1-.369.254,2.351,2.351,0,0,1-.507.228,1.181,1.181,0,0,1-.58.045.84.84,0,0,1-.513-.328.993.993,0,0,1-.2-.373.721.721,0,0,1-.013-.34.8.8,0,0,1,.11-.273.823.823,0,0,1,.17-.193l.232.289a.527.527,0,0,0-.186.336.481.481,0,0,0,.12.357.533.533,0,0,0,.5.2,2.055,2.055,0,0,0,.806-.338v-.012a.56.56,0,0,1-.371-.051.888.888,0,0,1-.327-.258A.905.905,0,0,1,1412.686,461.9Zm.645.646a.5.5,0,0,0,.191.082.523.523,0,0,0,.251-.015.864.864,0,0,0,.3-.168.685.685,0,0,0,.26-.4.549.549,0,0,0-.139-.461.523.523,0,0,0-.4-.211.717.717,0,0,0-.475.177.879.879,0,0,0-.224.249.458.458,0,0,0-.062.235.53.53,0,0,0,.048.206.932.932,0,0,0,.114.179A.676.676,0,0,0,1413.331,462.543Z" fill="#911422"/>
      <path id="Path_3639" data-name="Path 3639" d="M1414.242,465.842l-.187-.21,3.058-1.346.185.206Z" fill="#911422"/>
      <path id="Path_3640" data-name="Path 3640" d="M1416.694,465.62a1.248,1.248,0,0,1,.475-.3.824.824,0,0,1,.42-.031.924.924,0,0,1,.33.137,1.446,1.446,0,0,1,.247.208,1.028,1.028,0,0,1,.2.3.889.889,0,0,1,.077.333.84.84,0,0,1-.284.642.919.919,0,0,1-.285.188.791.791,0,0,1-.3.059,1.455,1.455,0,0,1-.306-.033,3.534,3.534,0,0,1-.369-.107l-.333-.107a1.2,1.2,0,0,0-.476-.071.63.63,0,0,0-.286.092l1.106,1.165-.252.24-1.393-1.466a1.4,1.4,0,0,1,.646-.347,1.456,1.456,0,0,1,.682.042l.434.128.022.006c.1.033.191.056.256.07a.838.838,0,0,0,.2.021.532.532,0,0,0,.2-.042.665.665,0,0,0,.2-.136.617.617,0,0,0,.115-.154.5.5,0,0,0,.054-.19.51.51,0,0,0-.034-.219.7.7,0,0,0-.151-.229.585.585,0,0,0-.272-.176.453.453,0,0,0-.261,0,.812.812,0,0,0-.214.1,2.28,2.28,0,0,0-.185.139l-.006.005Z" fill="#911422"/>
      <path id="Path_3641" data-name="Path 3641" d="M1419.269,469.622a1.741,1.741,0,0,1-.45.239.956.956,0,0,1-.482.047.854.854,0,0,1-.46-.251.843.843,0,0,1-.261-.454.944.944,0,0,1,.036-.482,1.8,1.8,0,0,1,.229-.455,3.03,3.03,0,0,1,.332-.4,2.919,2.919,0,0,1,.394-.341,1.815,1.815,0,0,1,.449-.239.93.93,0,0,1,.481-.048.957.957,0,0,1,.721.7.97.97,0,0,1-.035.483,1.749,1.749,0,0,1-.228.455,3.278,3.278,0,0,1-.334.4A3.188,3.188,0,0,1,1419.269,469.622Zm.612-1.351a.5.5,0,0,0-.664-.651,2.586,2.586,0,0,0-1.225,1.254.5.5,0,0,0,.664.649,2.57,2.57,0,0,0,1.225-1.252Z" fill="#911422"/>
      <path id="Path_3642" data-name="Path 3642" d="M1421.244,471.438a1.7,1.7,0,0,1-.439.255.96.96,0,0,1-.481.063.85.85,0,0,1-.469-.235.841.841,0,0,1-.276-.444.944.944,0,0,1,.019-.483,1.8,1.8,0,0,1,.213-.462,3.129,3.129,0,0,1,.317-.413,2.987,2.987,0,0,1,.383-.354,1.811,1.811,0,0,1,.44-.256.962.962,0,0,1,.479-.064.959.959,0,0,1,.745.68.969.969,0,0,1-.017.484,1.781,1.781,0,0,1-.214.463,3.327,3.327,0,0,1-.319.411A3.129,3.129,0,0,1,1421.244,471.438Zm.566-1.372a.5.5,0,0,0-.686-.626,2.58,2.58,0,0,0-1.18,1.295.5.5,0,0,0,.686.627,2.042,2.042,0,0,0,.7-.545A1.99,1.99,0,0,0,1421.81,470.066Z" fill="#911422"/>
      <path id="Path_3643" data-name="Path 3643" d="M1423.862,472.349a.531.531,0,0,1-.191.074.559.559,0,0,1-.159.009,1.339,1.339,0,0,1-.146-.026.821.821,0,0,1,.087.268.688.688,0,0,1-.007.237.726.726,0,0,1-.07.195.846.846,0,0,1-.109.161,1.073,1.073,0,0,1-.272.229.871.871,0,0,1-.333.108.854.854,0,0,1-.375-.047,1.19,1.19,0,0,1-.386-.23,1.409,1.409,0,0,1-.237-.271,1.02,1.02,0,0,1-.156-.363.756.756,0,0,1-.011-.249.746.746,0,0,1,.055-.208.958.958,0,0,1,.083-.149c.029-.04.062-.081.1-.124a.73.73,0,0,1,.387-.252.824.824,0,0,1,.46.03.618.618,0,0,1-.081-.359.608.608,0,0,1,.151-.338.892.892,0,0,1,.207-.175.828.828,0,0,1,.283-.1.749.749,0,0,1,.344.026,1.062,1.062,0,0,1,.374.217,1.162,1.162,0,0,1,.268.317.812.812,0,0,1,.1.322.705.705,0,0,1-.035.292.734.734,0,0,1-.134.239A.759.759,0,0,1,1423.862,472.349Zm-1.464-.313a.531.531,0,0,0-.37.19.7.7,0,0,0-.106.169.555.555,0,0,0-.048.21.472.472,0,0,0,.054.237.786.786,0,0,0,.2.241.9.9,0,0,0,.182.121.512.512,0,0,0,.2.056.42.42,0,0,0,.216-.043.642.642,0,0,0,.219-.175.531.531,0,0,0,.148-.439.664.664,0,0,0-.242-.4A.6.6,0,0,0,1422.4,472.036Zm1.029.069a.449.449,0,0,0,.331-.164.468.468,0,0,0,.078-.133.4.4,0,0,0,.022-.167.468.468,0,0,0-.06-.192.7.7,0,0,0-.172-.2.623.623,0,0,0-.208-.122.378.378,0,0,0-.189-.015.431.431,0,0,0-.156.063.518.518,0,0,0-.121.107.4.4,0,0,0-.1.348.554.554,0,0,0,.194.332A.536.536,0,0,0,1423.427,472.105Z" fill="#911422"/>
      <path id="Path_3644" data-name="Path 3644" d="M1427.6,476.073a.714.714,0,0,1-.255.087.69.69,0,0,1-.271-.015.726.726,0,0,1-.247-.12.67.67,0,0,1-.27-.458.648.648,0,0,1,.013-.266.739.739,0,0,1,.12-.249.716.716,0,0,1,.205-.183.7.7,0,0,1,.254-.091.662.662,0,0,1,.269.014.7.7,0,0,1,.247.12.7.7,0,0,1,.258.731.668.668,0,0,1-.12.247A.694.694,0,0,1,1427.6,476.073Z" fill="#911422"/>
      <path id="Path_3645" data-name="Path 3645" d="M1433.977,478.24l-1.142,1.718a1.371,1.371,0,0,1-.322.343,1.038,1.038,0,0,1-.41.186,1.125,1.125,0,0,1-.479-.007,1.528,1.528,0,0,1-.517-.233,1.48,1.48,0,0,1-.4-.376,1.02,1.02,0,0,1-.162-.849,1.251,1.251,0,0,1,.18-.4l1.173-1.764.357.238-1.107,1.664a1.134,1.134,0,0,0-.176.388.682.682,0,0,0,0,.328.7.7,0,0,0,.134.262.992.992,0,0,0,.222.2,1.083,1.083,0,0,0,.281.136.74.74,0,0,0,.3.03.679.679,0,0,0,.307-.119,1.088,1.088,0,0,0,.291-.309l1.112-1.673Z" fill="#911422"/>
      <path id="Path_3646" data-name="Path 3646" d="M1435.528,481.7l-.766.616-.377-.23L1437.06,480l.415.254-.674,3.31-.4-.245.215-.953Zm1.153.259.329-1.437-.008-.005-1.163.928Z" fill="#911422"/>
      <path id="Path_3647" data-name="Path 3647" d="M1441.744,481.014a.683.683,0,0,0-.16-.269.6.6,0,0,0-.232-.143.764.764,0,0,0-.269-.034,1.136,1.136,0,0,0-.275.044,1.457,1.457,0,0,0-.228.088.807.807,0,0,0-.2.143.488.488,0,0,0-.128.214.513.513,0,0,0,.011.291.342.342,0,0,0,.175.234.62.62,0,0,0,.3.049l.929-.051a1.034,1.034,0,0,1,.584.127.79.79,0,0,1,.345.488.9.9,0,0,1,.019.469.8.8,0,0,1-.2.368,1.386,1.386,0,0,1-.338.262,1.935,1.935,0,0,1-.409.168,2.058,2.058,0,0,1-.361.075,1.371,1.371,0,0,1-.277,0,1.121,1.121,0,0,1-.2-.039,1.449,1.449,0,0,1-.17-.066.879.879,0,0,1-.346-.275,1.352,1.352,0,0,1-.187-.41l.387-.111a.732.732,0,0,0,.169.315.613.613,0,0,0,.26.167.887.887,0,0,0,.3.041,1.321,1.321,0,0,0,.314-.052,1.774,1.774,0,0,0,.26-.1,1.056,1.056,0,0,0,.233-.15.539.539,0,0,0,.153-.217.425.425,0,0,0,0-.28.573.573,0,0,0-.09-.2.366.366,0,0,0-.145-.11.678.678,0,0,0-.223-.048,2.674,2.674,0,0,0-.347,0l-.667.037a1.9,1.9,0,0,1-.225-.007.883.883,0,0,1-.241-.062.65.65,0,0,1-.232-.164.692.692,0,0,1-.159-.3,1.053,1.053,0,0,1-.041-.37.9.9,0,0,1,.1-.359.926.926,0,0,1,.269-.305,1.385,1.385,0,0,1,.447-.212,1.7,1.7,0,0,1,.643-.08.927.927,0,0,1,.432.142.864.864,0,0,1,.253.259,1.543,1.543,0,0,1,.143.308Z" fill="#911422"/>
      <path id="Path_3648" data-name="Path 3648" d="M1443.513,478.694l1.088-.688a1.355,1.355,0,0,1,.529-.2,1.154,1.154,0,0,1,.526.041,1.491,1.491,0,0,1,.487.273,2.013,2.013,0,0,1,.412.48,2.444,2.444,0,0,1,.249.52,1.647,1.647,0,0,1,.09.566,1.167,1.167,0,0,1-.15.553,1.287,1.287,0,0,1-.46.463l-1.073.68Zm1.864,2.145.7-.445a.8.8,0,0,0,.4-.634,1.487,1.487,0,0,0-.279-.9,1.386,1.386,0,0,0-.692-.623.856.856,0,0,0-.756.114l-.676.428Z" fill="#911422"/>
      <path id="Path_3649" data-name="Path 3649" d="M1450.76,475.885a.714.714,0,0,1,.01.269.688.688,0,0,1-.095.254.665.665,0,0,1-.186.2.673.673,0,0,1-.517.125.636.636,0,0,1-.251-.091.678.678,0,0,1-.2-.187.71.71,0,0,1-.116-.249.665.665,0,0,1-.013-.27.648.648,0,0,1,.092-.253.707.707,0,0,1,.708-.329.7.7,0,0,1,.253.094.708.708,0,0,1,.317.435Z" fill="#911422"/>
      <path id="Path_3650" data-name="Path 3650" d="M1456,473.35l-.389.321-1.413-.443.141,1.489-.38.312-.148-1.88-1.717-.492.4-.327,1.325.408-.143-1.38.377-.308.152,1.778Z" fill="#911422"/>
      <path id="Path_3651" data-name="Path 3651" d="M1455.949,469.381l.343-.3,1.174,2.991-.325.286-2.824-1.531.341-.3,2.349,1.357.006-.005Z" fill="#911422"/>
      <path id="Path_3652" data-name="Path 3652" d="M1459.062,470.612l-.3.279-2.058-2.208.3-.277Z" fill="#911422"/>
      <path id="Path_3653" data-name="Path 3653" d="M1460.061,469.659l-.293.283-2.1-2.169.294-.283Z" fill="#911422"/>
      <path id="Path_3654" data-name="Path 3654" d="M1461.582,466.729l-.712.745-.273-.263.711-.743Z" fill="#911422"/>
      <path id="Path_3655" data-name="Path 3655" d="M1463.993,465.529l-.27.306-2.261-2,.27-.306Z" fill="#911422"/>
      <path id="Path_3656" data-name="Path 3656" d="M1466.135,462.982l-.321.39-1.472-.165.424,1.435-.314.379-.505-1.818-1.779-.156.326-.395,1.378.146-.4-1.325.31-.376.49,1.717Z" fill="#911422"/>
      <path id="Path_3657" data-name="Path 3657" d="M1467.09,460.077l-.607.832-.306-.223.607-.831Z" fill="#911422"/>
      <path id="Path_3658" data-name="Path 3658" d="M1470.422,456.8l-1.509-.947-.159-.1c-.209-.135-.368-.236-.474-.3l-.005.007,1.695,2.066-.214.342-2.594-.625,0,.006q.156.1.472.292c.1.061.159.1.166.1l1.509.947-.209.334-2.557-1.6.311-.494,2.618.625.005-.007-1.706-2.082.309-.491,2.556,1.6Z" fill="#911422"/>
      <path id="Path_3659" data-name="Path 3659" d="M1472.257,453.493l-1.573-.84-.164-.093-.494-.269-.005.008,1.835,1.943-.19.355-2.631-.443,0,.008.491.258.173.088,1.571.839-.185.348-2.663-1.422.276-.515,2.656.442,0-.008-1.846-1.958.273-.511,2.662,1.421Z" fill="#911422"/>
      <path id="Path_3660" data-name="Path 3660" d="M1470.885,449.3l.188-.418,2.3,2.244-.178.4-3.2-.237.187-.414,2.7.272,0-.007Z" fill="#911422"/>
      <path id="Path_3661" data-name="Path 3661" d="M1474.223,449.076l-.147.381-2.816-1.084.146-.38Z" fill="#911422"/>
      <path id="Path_3662" data-name="Path 3662" d="M1474.695,447.749l-.132.386-2.857-.972.132-.385Z" fill="#911422"/>
      <path id="Path_3663" data-name="Path 3663" d="M1475.116,446.4l-.117.391-2.892-.862.116-.39Z" fill="#911422"/>
    </g>
    <g id="Group_431" data-name="Group 431">
      <path id="Path_3664" data-name="Path 3664" d="M1438.986,392.517h.272v.806h.807v.273h-.807v.806h-.272V393.6h-.81v-.273h.81Z" fill="#911422"/>
    </g>
    <path id="Path_3665" data-name="Path 3665" d="M1404.77,445.555l-.836,1.62h1.8Z" fill="#960d16"/>
    <rect id="Rectangle_132" data-name="Rectangle 132" width="1.573" height="1.572" transform="translate(1473.548 440.713)" fill="#911422"/>
    <path id="Path_3666" data-name="Path 3666" d="M1470.5,435.889v.929h-62.907v-.929h30.967V399.039h.929v36.851Z" fill="#911422"/>
    <path id="Path_3667" data-name="Path 3667" d="M1432.1,423.04" fill="#8d1819"/>
  </g>
</svg>
