<svg xmlns="http://www.w3.org/2000/svg" width="80.791" height="100.72" viewBox="0 0 80.791 100.72">
  <g id="Group_374" data-name="Group 374" transform="translate(-514.005 -375.398)">
    <path id="Path_3142" data-name="Path 3142" d="M517.627,438.862c-6.9-15.982-2.494-37.467,10.5-48.5,2.638-2.492,7.1-5.1,11.92-7.59,4.776-2.469,9.507-4.627,14.316-7.017,4.827,2.4,9.559,4.548,14.355,7.017,4.842,2.494,9.333,5.105,11.972,7.6,12.983,11.038,17.386,32.514,10.487,48.492-7.07,16.368-21.878,28.372-36.814,36.891C539.415,467.227,524.694,455.228,517.627,438.862Z" transform="translate(0)" fill="#fff" stroke="#231f20" stroke-miterlimit="3.864" stroke-width="0.635"/>
    <path id="Path_3143" data-name="Path 3143" d="M518.311,438.8c6.8,15.741,20.927,27.714,36.2,36.45,15.275-8.735,29.482-20.709,36.279-36.45,6.808-15.765,2.436-36.975-10.346-47.833-2.572-2.431-7-5.015-11.844-7.509-4.792-2.469-9.962-4.839-14.089-6.886-4.127,2.047-9.277,4.417-14.05,6.884-4.824,2.5-9.233,5.079-11.8,7.511C515.875,401.823,511.5,423.034,518.311,438.8Z" transform="translate(-0.15 -0.167)" fill="none" stroke="#231f20" stroke-miterlimit="3.864" stroke-width="0.366"/>
    <path id="Path_3144" data-name="Path 3144" d="M528.139,409.213c5.057-11.193,17.815-17.305,28.364-21.167,10.55,3.863,23.38,9.966,28.441,21.167,6.935,15.346,2.19,30.763-7.959,42.268a107.646,107.646,0,0,1-13.957,13.184,77.36,77.36,0,0,1-6.526,4.675,77.565,77.565,0,0,1-6.486-4.676A108.888,108.888,0,0,1,536.1,451.481C525.95,439.976,521.2,424.559,528.139,409.213Z" transform="translate(-2.14 -2.511)" fill="none" stroke="#231f20" stroke-miterlimit="3.864" stroke-width="0.635"/>
    <path id="Path_3145" data-name="Path 3145" d="M587.738,427a36.676,36.676,0,0,0-3.172-16.876c-5.326-12.075-19.7-18.207-27.91-21.294-8.213,3.086-22.508,9.219-27.832,21.294A36.512,36.512,0,0,0,525.662,427Z" transform="translate(-2.292 -2.671)" fill="#ff1c07"/>
    <path id="Path_3146" data-name="Path 3146" d="M525.762,438.233c.76,9.052,4.865,17.561,10.957,24.639a104.465,104.465,0,0,0,19.968,17.987,103.165,103.165,0,0,0,20.044-17.987c6.092-7.078,10.2-15.587,10.958-24.639Z" transform="translate(-2.324 -14.716)" fill="none" stroke="#231f20" stroke-miterlimit="3.864" stroke-width="0.366"/>
    <path id="Path_3147" data-name="Path 3147" d="M538.369,472.94l-1.594,1.436-1.013-1.126-.338.3,1.013,1.126-1.107,1-1.091-1.212-.338.3,1.428,1.585,3.378-3.041Z" transform="translate(-4.302 -21.385)" fill="#231f20" fill-rule="evenodd"/>
    <path id="Path_3148" data-name="Path 3148" d="M535.756,469.44l-.358-.427-1.217.586-.924-1.1.773-1.116-.357-.427-2.66,3.9.429.512Zm-2.772-.561.771.919-2.238,1.095-.008-.01Z" transform="translate(-3.665 -20.083)" fill="#231f20" fill-rule="evenodd"/>
    <path id="Path_3149" data-name="Path 3149" d="M527.614,463.973a1.268,1.268,0,0,0-.52,1.868c.7,1.083,1.863.511,2.721-.048.91-.59,2.017-1.367,1.254-2.541a1.146,1.146,0,0,0-.964-.552,1.745,1.745,0,0,0-.953.3c-.083.039-.165.092-.247.131l.273.422c.094-.045.184-.1.277-.142.45-.22.93-.38,1.258.123.5.773-.66,1.512-1.192,1.829-.5.326-1.551.992-2.026.261-.345-.528-.053-.927.393-1.231Z" transform="translate(-2.549 -19.137)" fill="#231f20" fill-rule="evenodd"/>
    <path id="Path_3150" data-name="Path 3150" d="M527.309,459.615a1.374,1.374,0,0,0-1.238-2.429L523,458.751l.228.449,2.911-1.483a.864.864,0,1,1,.782,1.534l-2.911,1.482.228.448Z" transform="translate(-1.759 -17.894)" fill="#231f20" fill-rule="evenodd"/>
    <path id="Path_3151" data-name="Path 3151" d="M524.785,451.026l-.422.17.694,1.72-3.793,1.532.189.467,4.215-1.7Z" transform="translate(-1.405 -16.569)" fill="#231f20" fill-rule="evenodd"/>
    <path id="Path_3152" data-name="Path 3152" d="M519.92,450.174l-.324-1.13,3.934-1.128-.14-.484-3.932,1.128-.324-1.13-.437.126.787,2.744Z" transform="translate(-0.881 -15.766)" fill="#231f20" fill-rule="evenodd"/>
    <path id="Path_3153" data-name="Path 3153" d="M522.577,443.574l-.087-.551-1.345-.125-.225-1.418,1.238-.559-.088-.551-4.289,1.974.105.658Zm-2.087-1.909.189,1.185-2.482-.214,0-.012Z" transform="translate(-0.694 -14.217)" fill="#231f20" fill-rule="evenodd"/>
    <path id="Path_3154" data-name="Path 3154" d="M521.654,435.777c-.064-1.229-1.238-1.385-2.348-1.363s-2.261.276-2.187,1.693l.065,1.247,4.539-.238Zm-4.041,1.05-.043-.805c-.042-.811.64-.993,1.673-1.083,1.353-.119,1.919.154,1.958.893l.043.8Z" transform="translate(-0.558 -12.903)" fill="#231f20" fill-rule="evenodd"/>
    <path id="Path_3155" data-name="Path 3155" d="M522.36,425.325c.236-1.207-.865-1.644-1.946-1.891s-2.261-.279-2.532,1.114l-.238,1.225,4.461.868Zm-4.175.041.154-.791c.154-.8.861-.809,1.885-.647,1.342.212,1.825.615,1.685,1.341l-.154.791Z" transform="translate(-0.666 -10.462)" fill="#231f20" fill-rule="evenodd"/>
    <path id="Path_3156" data-name="Path 3156" d="M524.275,418.12l-.435-.133-.521,1.7-1.6-.491.485-1.588-.435-.132-.486,1.588-1.437-.44.516-1.692-.434-.133-.665,2.173,4.347,1.329Z" transform="translate(-0.996 -9.033)" fill="#231f20" fill-rule="evenodd"/>
    <path id="Path_3157" data-name="Path 3157" d="M525.894,407.455a1.272,1.272,0,0,0-1.91.352c-.664,1.107.359,1.9,1.237,2.426.929.559,2.114,1.214,2.834.014a1.148,1.148,0,0,0,.072-1.109,1.741,1.741,0,0,0-.688-.725c-.072-.057-.155-.107-.226-.164l-.259.43c.081.064.166.122.248.185.4.309.75.671.441,1.185-.474.789-1.647.071-2.164-.269-.514-.309-1.573-.959-1.124-1.708.325-.54.809-.453,1.279-.185Z" transform="translate(-1.917 -6.916)" fill="#231f20" fill-rule="evenodd"/>
    <rect id="Rectangle_119" data-name="Rectangle 119" width="0.503" height="4.545" transform="translate(524.543 397.495) rotate(-52.008)" fill="#231f20"/>
    <path id="Path_3158" data-name="Path 3158" d="M534.872,401.363l-.328-.315-1.236,1.282-1.209-1.166,1.154-1.195-.327-.315-1.154,1.194-1.082-1.044,1.23-1.273-.327-.315-1.579,1.635,3.269,3.158Z" transform="translate(-3.446 -4.948)" fill="#231f20" fill-rule="evenodd"/>
    <path id="Path_3159" data-name="Path 3159" d="M538.837,396.9c.1.133.217.268.323.393l-.01.008c-.178-.13-.3-.218-.43-.294l-3.309-2.137-.645.5,2.8,3.582.4-.31-2.231-2.856c-.141-.182-.291-.364-.438-.542l.01-.008a3.62,3.62,0,0,0,.555.435l3.242,2.082.649-.507-2.8-3.582-.4.31Z" transform="translate(-4.494 -3.658)" fill="#231f20" fill-rule="evenodd"/>
    <path id="Path_3160" data-name="Path 3160" d="M543.524,391.118a1.27,1.27,0,0,0-1.86-.552c-1.094.684-.543,1.854,0,2.723.575.919,1.332,2.039,2.52,1.3a1.143,1.143,0,0,0,.567-.954,1.728,1.728,0,0,0-.283-.959c-.038-.084-.09-.166-.127-.25l-.427.267c.045.092.095.183.138.277.212.454.365.937-.145,1.256-.781.489-1.5-.685-1.806-1.222-.318-.508-.967-1.568-.227-2.032.536-.333.929-.037,1.224.415Z" transform="translate(-5.869 -2.982)" fill="#231f20" fill-rule="evenodd"/>
    <rect id="Rectangle_120" data-name="Rectangle 120" width="0.503" height="4.546" transform="translate(539.202 385.62) rotate(-27.998)" fill="#231f20"/>
    <path id="Path_3161" data-name="Path 3161" d="M551.595,390.4l.5-.244-.274-1.323,1.291-.629.9,1.019.5-.244-3.142-3.525-.6.292Zm1.216-2.554-1.08.525-.521-2.436.011-.006Z" transform="translate(-8.013 -1.982)" fill="#231f20" fill-rule="evenodd"/>
    <path id="Path_3162" data-name="Path 3162" d="M558.35,383.617a1.132,1.132,0,0,0-1.691-.678,1.193,1.193,0,0,0-.68,1.638,1.016,1.016,0,0,0,.9.738c.274.022.692-.017.958-.025.493-.018.752-.122,1.021.515a.762.762,0,0,1-.487,1.069c-.7.3-.98-.045-1.221-.673l-.463.2a2.549,2.549,0,0,0,.414.726,1.238,1.238,0,0,0,1.425.178,1.277,1.277,0,0,0,.767-1.806c-.235-.552-.5-.77-1.416-.73l-.771.031a.6.6,0,0,1-.637-.4.706.706,0,0,1,.43-1.065.7.7,0,0,1,.989.482Z" transform="translate(-9.134 -1.438)" fill="#231f20" fill-rule="evenodd"/>
    <path id="Path_3163" data-name="Path 3163" d="M564.517,383.631a2.283,2.283,0,0,0,.063,1.095.911.911,0,0,0,.826.5c.634.056,1.09-.16,1.174-1.114l.3-3.411-.5-.044-.3,3.375c-.035.405-.123.787-.63.742s-.492-.432-.457-.837l.023-.266Z" transform="translate(-11.019 -1.003)" fill="#231f20" fill-rule="evenodd"/>
    <path id="Path_3164" data-name="Path 3164" d="M569.352,385.143c-.224.781.185,1.308.978,1.535a1.172,1.172,0,0,0,1.643-.783l.952-3.315-.485-.138-.9,3.14a.864.864,0,1,1-1.655-.474l.9-3.141-.484-.138Z" transform="translate(-12.092 -1.241)" fill="#231f20" fill-rule="evenodd"/>
    <path id="Path_3165" data-name="Path 3165" d="M576.994,384.937l.648.288c.31.138.863.4.555,1.123a.779.779,0,0,1-1.143.407l-.725-.323Zm-.851,1.91.8.357a.727.727,0,0,1,.367,1.085,4.156,4.156,0,0,0-.328,1.122l.537.239.041-.095c-.11-.049-.062-.247-.044-.331.094-.33.2-.647.323-.964.18-.584.124-.814-.392-1.1l.006-.012a.973.973,0,0,0,1.2-.547c.454-.945,0-1.419-.869-1.806l-1.068-.475-1.849,4.152.458.2Z" transform="translate(-13.324 -1.75)" fill="#231f20" fill-rule="evenodd"/>
    <path id="Path_3166" data-name="Path 3166" d="M581.332,391.4l2.133-4.014-.443-.236-2.135,4.013Zm1.749-4.685.36.191,1.1-.383-.583-.31Z" transform="translate(-14.645 -2.136)" fill="#231f20" fill-rule="evenodd"/>
    <path id="Path_3167" data-name="Path 3167" d="M585.486,394.012c1.043.651,1.844-.22,2.464-1.141s1.07-2.011-.131-2.763l-1.06-.661L584.35,393.3Zm1.459-3.913.683.427c.688.43.446,1.093-.072,1.991-.678,1.178-1.226,1.485-1.854,1.093l-.683-.427Z" transform="translate(-15.416 -2.797)" fill="#231f20" fill-rule="evenodd"/>
    <rect id="Rectangle_121" data-name="Rectangle 121" width="4.546" height="0.503" transform="matrix(0.574, -0.819, 0.819, 0.574, 573.319, 393.431)" fill="#231f20"/>
    <path id="Path_3168" data-name="Path 3168" d="M597.221,398.952a1.27,1.27,0,0,0,.018-1.941c-.959-.863-1.931-.01-2.616.75-.727.807-1.595,1.844-.554,2.78a1.147,1.147,0,0,0,1.075.283,1.745,1.745,0,0,0,.843-.538c.071-.059.135-.131.2-.19l-.373-.337c-.079.068-.152.141-.23.209-.378.329-.8.609-1.247.208-.684-.617.245-1.631.676-2.074.4-.446,1.243-1.362,1.891-.777.469.422.291.882-.06,1.29Z" transform="translate(-17.45 -4.601)" fill="#231f20" fill-rule="evenodd"/>
    <path id="Path_3169" data-name="Path 3169" d="M597.241,403.734l.359.427,1.217-.586.923,1.1-.773,1.115.359.428,2.66-3.9-.429-.511Zm2.773.561-.772-.919,2.24-1.1.006.01Z" transform="translate(-18.488 -5.737)" fill="#231f20" fill-rule="evenodd"/>
    <path id="Path_3170" data-name="Path 3170" d="M605.575,409.288a1.132,1.132,0,0,0,.405-1.775,1.192,1.192,0,0,0-1.724-.415,1.012,1.012,0,0,0-.587,1c.02.274.124.68.173.942.1.484.238.723-.348,1.089a.763.763,0,0,1-1.133-.314c-.4-.644-.109-.976.475-1.312l-.267-.426a2.551,2.551,0,0,0-.653.523,1.24,1.24,0,0,0,.047,1.436,1.278,1.278,0,0,0,1.9.475c.508-.318.683-.612.5-1.513-.052-.254-.1-.5-.151-.756a.6.6,0,0,1,.3-.692.708.708,0,0,1,1.12.259.7.7,0,0,1-.322,1.051Z" transform="translate(-19.4 -6.853)" fill="#231f20" fill-rule="evenodd"/>
    <path id="Path_3171" data-name="Path 3171" d="M610.183,416.715l-.181-.528-2.186,2.195-1.668.575.164.475,1.668-.574,3.079.395-.183-.528-2.5-.267Z" transform="translate(-20.307 -8.896)" fill="#231f20" fill-rule="evenodd"/>
    <path id="Path_3172" data-name="Path 3172" d="M612.235,428.2l.064.518c.086.606.041,1.081-.686,1.17-.776.1-.924-.307-1.014-.992l-.06-.488Zm-4.06.5,1.912-.236.037.3a3.459,3.459,0,0,0,.275,1.151,1.226,1.226,0,0,0,1.288.489,1.279,1.279,0,0,0,.917-.485,1.556,1.556,0,0,0,.166-1.089l-.146-1.185-4.51.554Z" transform="translate(-20.709 -11.412)" fill="#231f20" fill-rule="evenodd"/>
    <path id="Path_3173" data-name="Path 3173" d="M610.867,434.487c-1.259-.054-2.484.039-2.554,1.365s1.139,1.553,2.4,1.626c1.041.06,2.271-.04,2.342-1.365C613.121,434.763,611.907,434.542,610.867,434.487Zm-.142,2.468c-1.312-.074-2-.244-1.958-1.08s.746-.932,2.06-.869c1.011.047,1.812.283,1.771,1.058C612.556,436.863,611.735,437.014,610.724,436.956Z" transform="translate(-20.749 -12.918)" fill="#231f20" fill-rule="evenodd"/>
    <path id="Path_3174" data-name="Path 3174" d="M607.576,443.427l.449.071.291-1.831,4.04.639.079-.5-4.488-.711Z" transform="translate(-20.599 -14.368)" fill="#231f20" fill-rule="evenodd"/>
    <path id="Path_3175" data-name="Path 3175" d="M606.68,447.342l4.369,1.253.138-.484-4.369-1.252Zm4.946.738-.111.39.6,1,.182-.634Z" transform="translate(-20.416 -15.637)" fill="#231f20" fill-rule="evenodd"/>
    <path id="Path_3176" data-name="Path 3176" d="M609.574,451.818l-.4,1.1-3.844-1.4-.173.473L609,453.4l-.4,1.1.427.155.977-2.683Z" transform="translate(-20.105 -16.669)" fill="#231f20" fill-rule="evenodd"/>
    <rect id="Rectangle_122" data-name="Rectangle 122" width="0.503" height="4.546" transform="matrix(0.438, -0.899, 0.899, 0.438, 583.491, 438.849)" fill="#231f20"/>
    <path id="Path_3177" data-name="Path 3177" d="M602.877,463.492a1.272,1.272,0,0,0,1.909-.353c.664-1.106-.36-1.9-1.237-2.425-.93-.559-2.113-1.214-2.834-.014a1.145,1.145,0,0,0-.072,1.108,1.734,1.734,0,0,0,.688.726c.072.057.155.107.226.164l.26-.431c-.082-.063-.169-.121-.251-.185-.393-.307-.75-.669-.441-1.183.475-.79,1.647-.071,2.165.269.516.308,1.574.959,1.124,1.706-.324.54-.81.454-1.278.186Z" transform="translate(-19.16 -18.548)" fill="#231f20" fill-rule="evenodd"/>
    <path id="Path_3178" data-name="Path 3178" d="M598.256,464.371l-.329.451.865,1.039-.846,1.162-1.268-.48-.328.451,4.429,1.637.392-.539Zm.126,2.826.706-.971,1.6,1.907-.006.01Z" transform="translate(-18.306 -19.512)" fill="#231f20" fill-rule="evenodd"/>
    <path id="Path_3179" data-name="Path 3179" d="M595.352,473.775a1.132,1.132,0,0,0,1.814-.162,1.194,1.194,0,0,0-.138-1.769,1.017,1.017,0,0,0-1.135-.25c-.254.1-.609.329-.843.457-.43.24-.614.45-1.143.006a.763.763,0,0,1-.051-1.175c.485-.58.894-.4,1.393.046l.324-.385a2.543,2.543,0,0,0-.7-.46,1.242,1.242,0,0,0-1.351.489,1.278,1.278,0,0,0,.137,1.958c.46.385.793.46,1.592.006.225-.127.447-.249.672-.376a.6.6,0,0,1,.75.067.707.707,0,0,1,.1,1.145.7.7,0,0,1-1.1.019Z" transform="translate(-17.353 -20.756)" fill="#231f20" fill-rule="evenodd"/>
    <g id="Group_371" data-name="Group 371" transform="translate(540.493 460.85)">
      <path id="Path_3180" data-name="Path 3180" d="M549.79,486.679a.918.918,0,1,0-1.3.1A.931.931,0,0,0,549.79,486.679Z" transform="translate(-548.177 -485.15)" fill="#231f20" fill-rule="evenodd"/>
      <path id="Path_3181" data-name="Path 3181" d="M552.832,490.555a1.374,1.374,0,0,0,2.149,1.678l2.123-2.717-.4-.31-2.012,2.574a.863.863,0,1,1-1.356-1.059l2.012-2.574-.4-.31Z" transform="translate(-549.07 -485.699)" fill="#231f20" fill-rule="evenodd"/>
      <path id="Path_3182" data-name="Path 3182" d="M558.847,496.581l.468.3.993-.916,1.2.782-.414,1.293.468.3,1.4-4.509-.559-.364Zm2.816-.275-1.007-.654,1.821-1.7.011.006Z" transform="translate(-550.357 -486.85)" fill="#231f20" fill-rule="evenodd"/>
      <path id="Path_3183" data-name="Path 3183" d="M569.128,493.915a1.131,1.131,0,0,0-1.783-.375,1.193,1.193,0,0,0-.386,1.732,1.015,1.015,0,0,0,1.015.571c.272-.025.677-.137.937-.19.483-.1.719-.251,1.1.329a.763.763,0,0,1-.3,1.138c-.635.412-.974.125-1.319-.452l-.421.275a2.484,2.484,0,0,0,.533.643,1.24,1.24,0,0,0,1.435-.072,1.279,1.279,0,0,0,.442-1.913c-.328-.5-.624-.671-1.521-.472l-.754.164a.6.6,0,0,1-.7-.285.705.705,0,0,1,.239-1.122.7.7,0,0,1,1.058.3Z" transform="translate(-551.969 -486.807)" fill="#231f20" fill-rule="evenodd"/>
      <path id="Path_3184" data-name="Path 3184" d="M576.855,492.361c.97-.758.426-1.81-.228-2.706s-1.524-1.694-2.641-.82L573,489.6l2.8,3.582Zm-3.177-2.71.635-.5c.64-.5,1.18-.045,1.848.749.873,1.041.975,1.661.391,2.117l-.635.5Z" transform="translate(-553.248 -485.825)" fill="#231f20" fill-rule="evenodd"/>
      <path id="Path_3185" data-name="Path 3185" d="M582.417,485.472a.919.919,0,1,0-.087,1.3A.932.932,0,0,0,582.417,485.472Z" transform="translate(-554.841 -485.15)" fill="#231f20" fill-rule="evenodd"/>
    </g>
    <g id="Group_372" data-name="Group 372" transform="translate(533.202 384.876)">
      <path id="Path_3186" data-name="Path 3186" d="M539.029,420.124l4.44-14.356,4.538,14.272" transform="translate(-539.023 -391.007)" fill="none" stroke="#fff" stroke-miterlimit="3.864" stroke-width="1.269" fill-rule="evenodd"/>
      <path id="Path_3187" data-name="Path 3187" d="M590.338,420.124l-4.44-14.356-4.538,14.272" transform="translate(-547.67 -391.007)" fill="none" stroke="#fff" stroke-miterlimit="3.864" stroke-width="1.269" fill-rule="evenodd"/>
      <path id="Path_3188" data-name="Path 3188" d="M566.4,403.563l1.419,1.94a3.544,3.544,0,0,0-1.2,2.223c0,.648-.648,16.67-.648,17.6s.042,7.04-.885,9.169c-.926-2.129-.926-8.242-.926-9.169s-.648-16.948-.648-17.6a3.548,3.548,0,0,0-1.2-2.223l1.419-1.94Z" transform="translate(-543.777 -390.557)" fill="none" stroke="#fff" stroke-miterlimit="3.864" stroke-width="1.269"/>
      <path id="Path_3189" data-name="Path 3189" d="M556.5,399.032a1.847,1.847,0,0,0-1.284.492c-.34.339-.574.577-.945.947a1.564,1.564,0,0,1-1.2.5h-1.883a2.126,2.126,0,0,0-1.464.63c-.372.372-1.128,1.266-1.5,1.544a2.372,2.372,0,0,1-1.314.552c-.463,0-2.332-.011-2.332-.011,0-.733-.333-1.517-1.095-1.517a1.156,1.156,0,0,0-1.2,1.128c0,1.06.785,1.268,1.712,1.268l2.767,0a2.985,2.985,0,0,0,1.822-.571c.555-.462.959-.821,1.315-1.163a2.39,2.39,0,0,1,1.366-.55h1.747a2.724,2.724,0,0,0,1.693-.523c.3-.259.539-.481.771-.679a1.6,1.6,0,0,1,1.152-.391h8.8a1.6,1.6,0,0,1,1.152.391c.232.2.466.42.771.679a2.723,2.723,0,0,0,1.693.523h1.747a2.39,2.39,0,0,1,1.366.55c.356.342.759.7,1.314,1.163a2.989,2.989,0,0,0,1.823.571l2.767,0c.926,0,1.712-.208,1.712-1.268a1.156,1.156,0,0,0-1.2-1.128c-.762,0-1.095.784-1.095,1.517,0,0-1.869.011-2.332.011a2.372,2.372,0,0,1-1.314-.552c-.37-.278-1.126-1.172-1.5-1.544a2.129,2.129,0,0,0-1.465-.63h-1.884a1.567,1.567,0,0,1-1.2-.5c-.37-.37-.6-.608-.943-.947a1.85,1.85,0,0,0-1.285-.492Z" transform="translate(-539.687 -389.631)" fill="#fff" stroke="#fff" stroke-miterlimit="3.864" stroke-width="1.269"/>
      <line id="Line_84" data-name="Line 84" y1="14.263" transform="translate(4.446 14.854)" fill="none" stroke="#fff" stroke-miterlimit="3.864" stroke-width="1.269"/>
      <path id="Path_3190" data-name="Path 3190" d="M563.955,390.125a1.491,1.491,0,0,1-1.112-1.482c.01-.906,1.19-1.424,1.839-1.424s1.9.333,1.866,1.424a2.254,2.254,0,0,1-.926,1.482,13.607,13.607,0,0,1,.742,4.167,17.522,17.522,0,0,1-.834,4.167l1.2,1.2h2.685v.927h-9.446v-.834h2.592l1.482-1.389C563.676,396.793,563.955,390.125,563.955,390.125Z" transform="translate(-543.301 -387.218)" fill="#fff" stroke="#fff" stroke-miterlimit="3.864" stroke-width="1.269"/>
      <path id="Path_3191" data-name="Path 3191" d="M548,423.809c0,2.408-1.936,3.7-4.437,3.7s-4.544-1.3-4.544-3.7Z" transform="translate(-539.022 -394.692)" fill="#fff" stroke="#fff" stroke-miterlimit="3.864" stroke-width="1.269" fill-rule="evenodd"/>
      <line id="Line_85" data-name="Line 85" y1="30.571" transform="translate(21.301 13.364)" fill="none" stroke="#fff" stroke-miterlimit="3.864" stroke-width="1.269"/>
      <line id="Line_86" data-name="Line 86" y1="14.263" transform="translate(38.228 14.854)" fill="none" stroke="#fff" stroke-miterlimit="3.864" stroke-width="1.269"/>
      <path id="Path_3192" data-name="Path 3192" d="M581.363,423.809c0,2.408,1.937,3.7,4.437,3.7s4.544-1.3,4.544-3.7Z" transform="translate(-547.671 -394.692)" fill="#fff" stroke="#fff" stroke-miterlimit="3.864" stroke-width="1.269" fill-rule="evenodd"/>
    </g>
    <g id="Group_373" data-name="Group 373" transform="translate(533.202 384.876)">
      <path id="Path_3193" data-name="Path 3193" d="M539.029,420.124l4.44-14.356,4.538,14.272" transform="translate(-539.023 -391.007)" fill="none" stroke="#231f20" stroke-miterlimit="3.864" stroke-width="0.485" fill-rule="evenodd"/>
      <path id="Path_3194" data-name="Path 3194" d="M590.338,420.124l-4.44-14.356-4.538,14.272" transform="translate(-547.67 -391.007)" fill="none" stroke="#231f20" stroke-miterlimit="3.864" stroke-width="0.485" fill-rule="evenodd"/>
      <path id="Path_3195" data-name="Path 3195" d="M566.4,403.563l1.419,1.94a3.544,3.544,0,0,0-1.2,2.223c0,.648-.648,16.67-.648,17.6s.042,7.04-.885,9.169c-.926-2.129-.926-8.242-.926-9.169s-.648-16.948-.648-17.6a3.548,3.548,0,0,0-1.2-2.223l1.419-1.94Z" transform="translate(-543.777 -390.557)" fill="#fff" stroke="#231f20" stroke-miterlimit="3.864" stroke-width="0.485"/>
      <path id="Path_3196" data-name="Path 3196" d="M556.5,399.032a1.847,1.847,0,0,0-1.284.492c-.34.339-.574.577-.945.947a1.564,1.564,0,0,1-1.2.5h-1.883a2.126,2.126,0,0,0-1.464.63c-.372.372-1.128,1.266-1.5,1.544a2.372,2.372,0,0,1-1.314.552c-.463,0-2.332-.011-2.332-.011,0-.733-.333-1.517-1.095-1.517a1.156,1.156,0,0,0-1.2,1.128c0,1.06.785,1.268,1.712,1.268l2.767,0a2.985,2.985,0,0,0,1.822-.571c.555-.462.959-.821,1.315-1.163a2.39,2.39,0,0,1,1.366-.55h1.747a2.724,2.724,0,0,0,1.693-.523c.3-.259.539-.481.771-.679a1.6,1.6,0,0,1,1.152-.391h8.8a1.6,1.6,0,0,1,1.152.391c.232.2.466.42.771.679a2.723,2.723,0,0,0,1.693.523h1.747a2.39,2.39,0,0,1,1.366.55c.356.342.759.7,1.314,1.163a2.989,2.989,0,0,0,1.823.571l2.767,0c.926,0,1.712-.208,1.712-1.268a1.156,1.156,0,0,0-1.2-1.128c-.762,0-1.095.784-1.095,1.517,0,0-1.869.011-2.332.011a2.372,2.372,0,0,1-1.314-.552c-.37-.278-1.126-1.172-1.5-1.544a2.129,2.129,0,0,0-1.465-.63h-1.884a1.567,1.567,0,0,1-1.2-.5c-.37-.37-.6-.608-.943-.947a1.85,1.85,0,0,0-1.285-.492Z" transform="translate(-539.687 -389.631)" fill="#fff" stroke="#231f20" stroke-miterlimit="3.864" stroke-width="0.485"/>
      <line id="Line_87" data-name="Line 87" y1="14.263" transform="translate(4.446 14.854)" fill="none" stroke="#231f20" stroke-miterlimit="3.864" stroke-width="0.485"/>
      <path id="Path_3197" data-name="Path 3197" d="M563.955,390.125a1.491,1.491,0,0,1-1.112-1.482c.01-.906,1.19-1.424,1.839-1.424s1.9.333,1.866,1.424a2.254,2.254,0,0,1-.926,1.482,13.607,13.607,0,0,1,.742,4.167,17.522,17.522,0,0,1-.834,4.167l1.2,1.2h2.685v.927h-9.446v-.834h2.592l1.482-1.389C563.676,396.793,563.955,390.125,563.955,390.125Z" transform="translate(-543.301 -387.218)" fill="#fff" stroke="#231f20" stroke-miterlimit="3.864" stroke-width="0.485"/>
      <path id="Path_3198" data-name="Path 3198" d="M548,423.809c0,2.408-1.936,3.7-4.437,3.7s-4.544-1.3-4.544-3.7Z" transform="translate(-539.022 -394.692)" fill="#fff" stroke="#231f20" stroke-miterlimit="3.864" stroke-width="0.485" fill-rule="evenodd"/>
      <line id="Line_88" data-name="Line 88" y1="30.571" transform="translate(21.301 13.364)" fill="none" stroke="#231f20" stroke-miterlimit="3.864" stroke-width="0.485"/>
      <line id="Line_89" data-name="Line 89" y1="14.263" transform="translate(38.228 14.854)" fill="none" stroke="#231f20" stroke-miterlimit="3.864" stroke-width="0.485"/>
      <path id="Path_3199" data-name="Path 3199" d="M581.363,423.809c0,2.408,1.937,3.7,4.437,3.7s4.544-1.3,4.544-3.7Z" transform="translate(-547.671 -394.692)" fill="#fff" stroke="#231f20" stroke-miterlimit="3.864" stroke-width="0.485" fill-rule="evenodd"/>
    </g>
    <path id="Path_3200" data-name="Path 3200" d="M576.413,443.839c4.589,0,7.222,4.057,4.88,9.2s-8.984,8.581-12.991,10.5v5.779c-1.493,1.422-3.145,2.811-4.7,4.128V443.839ZM568.3,448.78h5.671c2.634,0,3.216,2.437,1.261,4.257a23.839,23.839,0,0,1-6.932,4.441Zm-17.535,14.831s2.762,2.5,4.016,3.6c1.359,1.191,1.955-.109,1.955-1.8V443.848h4.757V471.91c0,3.274-.712,3.913-1.532,4.477a3.04,3.04,0,0,1-3.289-.379c-1.977-1.526-3.972-3.216-5.908-4.983Zm-1.962-2.176c-1.175-1.239-2.292-2.474-3.318-3.675a41.145,41.145,0,0,1-4.565-6.479c-.431-1.549-.186-2.558,1.891-2.558h5.933V443.8h-8.374c-5.132,0-6.355,6.187-4.451,9.623a46.163,46.163,0,0,0,5.535,8.015c2.15,2.519,4.671,5.182,7.348,7.745Z" transform="translate(-4.226 -15.853)" fill="#ff1c07" stroke="#231f20" stroke-miterlimit="3.864" stroke-width="0.507" fill-rule="evenodd"/>
  </g>
</svg>
