<svg xmlns="http://www.w3.org/2000/svg" xmlns:xlink="http://www.w3.org/1999/xlink" width="80.866" height="100.803" viewBox="0 0 80.866 100.803">
  <defs>
    <radialGradient id="radial-gradient" cx="2.944" cy="36.673" r="0.484" gradientTransform="translate(-0.707 -5.301) scale(1.25 1.151)" gradientUnits="objectBoundingBox">
      <stop offset="0" stop-color="#7b56a4"/>
      <stop offset="0.143" stop-color="#7e5aa6"/>
      <stop offset="0.297" stop-color="#8867ad"/>
      <stop offset="0.458" stop-color="#997db9"/>
      <stop offset="0.622" stop-color="#b19bc9"/>
      <stop offset="0.79" stop-color="#cfc2de"/>
      <stop offset="0.958" stop-color="#f4f1f7"/>
      <stop offset="1" stop-color="#fff"/>
    </radialGradient>
    <radialGradient id="radial-gradient-2" cx="4.365" cy="26.915" r="0.453" gradientTransform="translate(-1.045 0) scale(1.249 1)" gradientUnits="objectBoundingBox">
      <stop offset="0" stop-color="#fff"/>
      <stop offset="1" stop-color="#7b56a4"/>
    </radialGradient>
  </defs>
  <g id="Group_333" data-name="Group 333" transform="translate(-35.125 -373.939)">
    <path id="Path_2932" data-name="Path 2932" d="M39.468,437.381c6.8,15.74,20.927,27.714,36.2,36.448,15.275-8.734,29.48-20.708,36.28-36.448,6.808-15.765,2.435-36.976-10.345-47.832-2.575-2.432-7-5.016-11.847-7.51-4.79-2.47-9.96-4.839-14.089-6.886-4.124,2.047-9.276,4.416-14.05,6.884-4.824,2.494-9.234,5.08-11.805,7.512C37.033,400.406,32.659,421.616,39.468,437.381Z" transform="translate(-0.15 -0.167)" fill="none" stroke="#231f20" stroke-miterlimit="3.864" stroke-width="0.41"/>
    <path id="Path_2933" data-name="Path 2933" d="M61.2,381.355c-4.815,2.489-9.282,5.1-11.919,7.588-12.994,11.034-17.4,32.518-10.5,48.5,7.07,16.365,21.792,28.364,36.737,36.889,14.935-8.52,29.748-20.522,36.815-36.889,6.9-15.976,2.494-37.454-10.488-48.494-2.639-2.5-7.13-5.105-11.973-7.6-4.794-2.473-9.527-4.62-14.354-7.02-4.809,2.39-9.541,4.546-14.316,7.02" transform="translate(0 0)" fill="none"/>
    <path id="Path_2934" data-name="Path 2934" d="M38.784,437.443c-6.9-15.982-2.493-37.467,10.5-48.5,2.638-2.49,7.1-5.1,11.92-7.588,4.777-2.471,9.506-4.629,14.317-7.019,4.827,2.4,9.558,4.548,14.356,7.019,4.841,2.5,9.332,5.1,11.97,7.6,12.983,11.04,17.387,32.516,10.488,48.492-7.07,16.368-21.878,28.373-36.814,36.891C60.574,465.81,45.853,453.811,38.784,437.443Z" transform="translate(0 0)" fill="url(#radial-gradient)"/>
    <path id="Path_2935" data-name="Path 2935" d="M47.706,436.938c-5.54-12.829-2-30.072,8.425-38.933,2.12-2,5.7-4.091,9.568-6.09,3.836-1.983,7.632-3.713,11.494-5.633,3.874,1.927,7.671,3.65,11.52,5.633,3.887,2,7.492,4.1,9.609,6.1,10.422,8.861,13.957,26.1,8.419,38.922-5.676,13.137-17.56,22.774-29.548,29.608C65.2,459.706,53.38,450.072,47.706,436.938Z" transform="translate(-1.953 -2.44)" fill="url(#radial-gradient-2)"/>
    <path id="Path_2936" data-name="Path 2936" d="M38.784,437.443c-6.9-15.982-2.493-37.467,10.5-48.5,2.638-2.49,7.1-5.1,11.92-7.588,4.777-2.471,9.506-4.629,14.317-7.019,4.827,2.4,9.558,4.548,14.356,7.019,4.841,2.5,9.332,5.1,11.97,7.6,12.983,11.04,17.387,32.516,10.488,48.492-7.07,16.368-21.878,28.373-36.814,36.891C60.574,465.81,45.853,453.811,38.784,437.443Z" transform="translate(0 0)" fill="none" stroke="#231f20" stroke-miterlimit="3.864" stroke-width="0.709"/>
    <path id="Path_2937" data-name="Path 2937" d="M49.3,407.795c5.059-11.193,17.815-17.3,28.364-21.165,10.551,3.862,23.38,9.965,28.44,21.165,6.936,15.346,2.19,30.763-7.958,42.268a107.683,107.683,0,0,1-13.957,13.187,77.08,77.08,0,0,1-6.526,4.672,77.44,77.44,0,0,1-6.485-4.672,108.952,108.952,0,0,1-13.919-13.187C47.106,438.558,42.362,423.141,49.3,407.795Z" transform="translate(-2.14 -2.511)" fill="none" stroke="#231f20" stroke-miterlimit="3.864" stroke-width="0.709"/>
    <path id="Path_2938" data-name="Path 2938" d="M47.049,438.092c.968,8.674,4.991,16.809,10.856,23.623A104.38,104.38,0,0,0,77.87,479.7a103.2,103.2,0,0,0,20.044-17.986c5.863-6.814,9.885-14.95,10.855-23.623Z" transform="translate(-2.35 -14.977)" fill="none" stroke="#231f20" stroke-miterlimit="3.864" stroke-width="0.41"/>
    <path id="Path_2939" data-name="Path 2939" d="M46.607,451.935l-1.989.8-.567-1.405-.423.17.568,1.4-1.383.561-.611-1.512-.422.169.8,1.977,4.213-1.7Z" transform="translate(-1.274 -16.934)" fill="#231f20"/>
    <path id="Path_2940" data-name="Path 2940" d="M42.4,443.99l.271,1.171-2.492-.042,0-.01Zm2.217,1.76-.127-.544-1.35-.031-.323-1.4,1.2-.646-.126-.543-4.143,2.268.151.653Z" transform="translate(-0.859 -15.016)" fill="#231f20"/>
    <path id="Path_2941" data-name="Path 2941" d="M39.617,435.2a1.271,1.271,0,0,0-1.335,1.408c.111,1.285,1.405,1.324,2.425,1.235,1.081-.095,2.423-.26,2.3-1.655a1.149,1.149,0,0,0-.594-.941,1.758,1.758,0,0,0-.984-.183c-.092,0-.188,0-.28,0l.045.5c.105.006.206,0,.31.006.5.018,1,.1,1.052.7.081.915-1.291,1.026-1.908,1.054-.6.052-1.837.149-1.913-.719-.053-.628.389-.844.925-.9Z" transform="translate(-0.558 -13.356)" fill="#231f20"/>
    <path id="Path_2942" data-name="Path 2942" d="M41.754,428.981c.805.1,1.264-.389,1.362-1.206s-.224-1.4-1.03-1.5l-3.423-.421-.06.5,3.242.4c.356.04.92.17.821.97a.784.784,0,0,1-1.031.739l-3.242-.4-.06.5Z" transform="translate(-0.57 -11.334)" fill="#231f20"/>
    <path id="Path_2943" data-name="Path 2943" d="M44.915,418.637l-.434-.133-.544,1.772-3.91-1.194-.148.479,4.347,1.329Z" transform="translate(-0.886 -9.712)" fill="#231f20"/>
    <path id="Path_2944" data-name="Path 2944" d="M42.568,412.63l.443-1.094L46.8,413.07l.189-.467L43.2,411.072l.441-1.09-.421-.171-1.071,2.647Z" transform="translate(-1.349 -7.805)" fill="#231f20"/>
    <path id="Path_2945" data-name="Path 2945" d="M49.742,404.806l-.706.972-1.605-1.907.006-.011Zm.124,2.826.329-.449-.866-1.041.846-1.162,1.271.48.327-.452-4.43-1.638-.392.54Z" transform="translate(-2.33 -6.393)" fill="#231f20"/>
    <path id="Path_2946" data-name="Path 2946" d="M52.77,397.524l.579-.56c.585-.564,1.168-.169,1.915.553.979.941,1.142,1.549.613,2.063l-.583.56Zm3.442,2.363c.885-.854.233-1.843-.51-2.667s-1.691-1.526-2.714-.54l-.9.868,3.158,3.268Z" transform="translate(-3.647 -4.814)" fill="#231f20"/>
    <path id="Path_2947" data-name="Path 2947" d="M65.168,388.289l.7-.4c.7-.406,1.175.121,1.724,1,.721,1.151.735,1.781.093,2.151l-.7.4Zm2.769,3.124c1.065-.614.672-1.732.148-2.71s-1.272-1.888-2.5-1.179l-1.083.625,2.273,3.935Z" transform="translate(-6.381 -2.642)" fill="#231f20"/>
    <path id="Path_2948" data-name="Path 2948" d="M76.422,387.108l-.185-.414-1.628.722-.684-1.532,1.517-.675-.182-.416-1.52.676-.61-1.374,1.615-.72-.184-.415-2.076.926,1.847,4.151Z" transform="translate(-8.138 -1.762)" fill="#231f20"/>
    <path id="Path_2949" data-name="Path 2949" d="M88.007,383.814l.788-2.049,1.624.625-.785,2.049.469.18,1.629-4.245-.469-.18-.68,1.77-1.625-.621.68-1.772-.468-.179-1.63,4.243Z" transform="translate(-11.457 -1.033)" fill="#231f20"/>
    <path id="Path_2950" data-name="Path 2950" d="M95.966,385.784a1.374,1.374,0,0,0,2.491,1.11l1.4-3.15-.459-.2-1.329,2.981a.862.862,0,1,1-1.571-.7l1.326-2.985-.459-.2Z" transform="translate(-13.283 -1.695)" fill="#231f20"/>
    <path id="Path_2951" data-name="Path 2951" d="M105.311,390.647a6.031,6.031,0,0,0-.438.53l-.011-.007a3.756,3.756,0,0,0,.251-.631l1-3.516-.772-.446-2.274,3.938.436.25,1.867-3.233c.1-.166.187-.345.285-.514l.009.006c-.078.241-.12.393-.162.549l-1.058,3.736.52.3,2.679-2.736c.125-.132.246-.259.426-.461l.011.006c-.085.173-.191.329-.289.5l-1.872,3.243.436.251,2.274-3.936-.769-.442Z" transform="translate(-14.898 -2.5)" fill="#231f20"/>
    <path id="Path_2952" data-name="Path 2952" d="M113.8,395.681l-.948-.739,1.962-1.536.01.007Zm-2.83.027.438.344,1.07-.827,1.13.885-.523,1.251.439.342,1.79-4.369-.525-.409Z" transform="translate(-16.623 -3.797)" fill="#231f20"/>
    <path id="Path_2953" data-name="Path 2953" d="M119.7,402.323c-.126.115-.253.236-.37.352l-.008-.01c.118-.186.2-.316.263-.449l1.9-3.451-.547-.6-3.378,3.04.336.372,2.694-2.421c.173-.156.344-.32.511-.478l.008.01a3.6,3.6,0,0,0-.394.586l-1.852,3.378.551.614,3.376-3.042-.333-.375Z" transform="translate(-18.318 -5.249)" fill="#231f20"/>
    <rect id="Rectangle_116" data-name="Rectangle 116" width="4.546" height="0.503" transform="translate(103.532 401.262) rotate(-31.998)" fill="#231f20"/>
    <path id="Path_2954" data-name="Path 2954" d="M129.726,412.57l.289.751c.293.759-.3,1.144-1.257,1.546-1.25.533-1.872.449-2.137-.244l-.288-.751Zm-3.518,2.247c.439,1.147,1.6.934,2.652.573s2.066-.964,1.556-2.289l-.446-1.166-4.243,1.632Z" transform="translate(-19.985 -8.275)" fill="#231f20"/>
    <path id="Path_2955" data-name="Path 2955" d="M130.448,423.4l-.232-1.177,2.49.128,0,.013Zm-2.155-1.833.105.547,1.35.078.273,1.406-1.216.6.106.547,4.219-2.123-.127-.652Z" transform="translate(-20.509 -10.39)" fill="#231f20"/>
    <path id="Path_2956" data-name="Path 2956" d="M133.694,430.431l.026.805c.029.811-.659.983-1.693,1.052-1.353.1-1.915-.187-1.94-.926l-.029-.8Zm-4.061.977c.043,1.229,1.214,1.408,2.323,1.407s2.265-.237,2.216-1.654l-.044-1.248-4.542.158Z" transform="translate(-20.773 -12.225)" fill="#231f20"/>
    <path id="Path_2957" data-name="Path 2957" d="M128.923,440.849l.449.071.279-1.761,1.656.262-.26,1.64.452.072.258-1.641,1.485.234-.275,1.75.447.072.354-2.247-4.488-.709Z" transform="translate(-20.638 -14.134)" fill="#231f20"/>
    <path id="Path_2958" data-name="Path 2958" d="M130.127,449.557a1.134,1.134,0,0,0,1.623-.832,1.191,1.191,0,0,0-.79-1.588,1.011,1.011,0,0,0-1.146.2c-.2.192-.442.531-.61.735-.311.385-.4.649-1.059.437a.764.764,0,0,1-.487-1.07c.233-.719.676-.71,1.309-.48l.157-.48a2.741,2.741,0,0,0-.822-.165,1.238,1.238,0,0,0-1.067.963,1.274,1.274,0,0,0,.859,1.762c.57.184.908.13,1.478-.59.162-.2.321-.4.481-.6a.6.6,0,0,1,.721-.218.708.708,0,0,1,.522,1.025.7.7,0,0,1-1.011.428Z" transform="translate(-20.273 -15.836)" fill="#231f20"/>
    <g id="Group_332" data-name="Group 332" transform="translate(61.651 459.432)">
      <path id="Path_2959" data-name="Path 2959" d="M70.948,485.258a.918.918,0,1,0-1.3.1.93.93,0,0,0,1.3-.1" transform="translate(-69.336 -483.731)" fill="#231f20"/>
      <path id="Path_2960" data-name="Path 2960" d="M73.989,489.136a1.373,1.373,0,0,0,2.149,1.679l2.125-2.717-.4-.31-2.009,2.573A.864.864,0,1,1,74.5,489.3l2.012-2.574-.4-.308Z" transform="translate(-70.228 -484.28)" fill="#231f20"/>
      <path id="Path_2961" data-name="Path 2961" d="M82.822,494.886l-1.008-.654,1.822-1.7.009.006Zm-2.816.275.465.3.995-.915,1.206.781-.413,1.294.467.3,1.4-4.51-.561-.364Z" transform="translate(-71.515 -485.431)" fill="#231f20"/>
      <path id="Path_2962" data-name="Path 2962" d="M90.285,492.5a1.133,1.133,0,0,0-1.782-.374,1.192,1.192,0,0,0-.386,1.732,1.011,1.011,0,0,0,1.013.569c.273-.025.676-.136.938-.189.481-.1.719-.249,1.1.329a.763.763,0,0,1-.3,1.139c-.634.412-.972.125-1.317-.454l-.423.274a2.539,2.539,0,0,0,.534.645A1.24,1.24,0,0,0,91.1,496.1a1.277,1.277,0,0,0,.443-1.911c-.329-.505-.625-.673-1.522-.474-.255.057-.5.107-.754.166a.6.6,0,0,1-.7-.284.706.706,0,0,1,.24-1.124.694.694,0,0,1,1.055.3Z" transform="translate(-73.126 -485.388)" fill="#231f20"/>
      <path id="Path_2963" data-name="Path 2963" d="M94.835,488.233l.634-.495c.64-.5,1.182-.045,1.846.748.875,1.041.975,1.66.392,2.118l-.633.5Zm3.177,2.708c.97-.755.425-1.806-.231-2.7s-1.523-1.693-2.639-.82l-.986.768,2.8,3.583Z" transform="translate(-74.405 -484.406)" fill="#231f20"/>
      <path id="Path_2964" data-name="Path 2964" d="M103.575,484.052a.919.919,0,1,0-.087,1.305.934.934,0,0,0,.087-1.305" transform="translate(-75.999 -483.731)" fill="#231f20"/>
    </g>
    <path id="Path_2965" data-name="Path 2965" d="M78.6,387.408c-8.42,3.088-23.077,9.219-28.535,21.294A36.114,36.114,0,0,0,46.9,426.723H78.651Z" transform="translate(-2.294 -2.67)" fill="none" stroke="#231f20" stroke-miterlimit="3.864" stroke-width="0.354"/>
    <path id="Path_2966" data-name="Path 2966" d="M86.819,426.721h31.728a36.308,36.308,0,0,0-3.171-18.019c-5.461-12.072-20.193-18.207-28.613-21.294Z" transform="translate(-12.026 -2.67)" fill="#7b56a4"/>
    <path id="Path_2967" data-name="Path 2967" d="M86.819,426.721h31.728a36.308,36.308,0,0,0-3.171-18.019c-5.461-12.072-20.193-18.207-28.613-21.294Z" transform="translate(-12.026 -2.67)" fill="none" stroke="#231f20" stroke-miterlimit="3.864" stroke-width="0.354"/>
    <path id="Path_2968" data-name="Path 2968" d="M62.43,410.657H72.8V396.118c1.881-.927,3.746-1.745,5.518-2.464l-.029,30.838H72.837v-8.386H62.43v8.386H57v-15.54a27.7,27.7,0,0,1,5.423-6.178Z" transform="translate(-4.826 -4.368)" fill="#fff"/>
    <path id="Path_2969" data-name="Path 2969" d="M62.43,410.657H72.8V396.118c1.881-.927,3.746-1.745,5.518-2.464l-.029,30.838H72.837v-8.386H62.43v8.386H57v-15.54a27.7,27.7,0,0,1,5.423-6.178Z" transform="translate(-4.826 -4.368)" fill="none" stroke="#231f20" stroke-miterlimit="3.864" stroke-width="0.709"/>
    <path id="Path_2970" data-name="Path 2970" d="M89.222,443.486a1.339,1.339,0,0,0-.046.841l-.235.329a.538.538,0,0,1-.093.565.524.524,0,0,1-.469.232,1.807,1.807,0,0,1-.142,1.362c-.656,1.128-1.03.656-1.6.518a2.768,2.768,0,0,1-.516-.139,2.783,2.783,0,0,0,.187,1.736c.236.28,1.645,1.549,1.645,1.549s2.723.139,3.569.75a16.85,16.85,0,0,1,3.237,4.693,4.7,4.7,0,0,0,1.221,2.014c-.518,1.455-2.862,4.693-4.6,5.117-.469-.329-1.221-.893-1.221-.893l-1.69,2.815L71.23,466.634s-1.381-3.9-1.882-5.027-2.129-1.384-2.758-2.768-.751-6.034.123-7.291a6,6,0,0,1,4.895-2.138c1.879.124,5.394-1.634,5.394-1.634s2.775-2.545,2.9-3.55c-.454-.036-.612-1.934-.108-2.186-.374-.5-.424-1.966.329-2.216a5.9,5.9,0,0,1-.029-3.791,1.94,1.94,0,0,1,1.175-1.08,2.637,2.637,0,0,1,2.433-2.247,3.916,3.916,0,0,1,1.976.469,2.761,2.761,0,0,1,3.228.454A12.18,12.18,0,0,0,90.93,435.2v1.005H90.3s.125,1.007.125,1.634-.249,1.256,0,1.76l-.125.629s-.608-.174-.466.625.374,2.161.374,2.161l-.233.467a.749.749,0,0,1-.707.045c-.327-.187-.747.236-.889-.28Z" transform="translate(-6.974 -13.253)" fill="#b4a212"/>
    <path id="Path_2971" data-name="Path 2971" d="M89.222,443.486a1.339,1.339,0,0,0-.046.841l-.235.329a.538.538,0,0,1-.093.565.524.524,0,0,1-.469.232,1.807,1.807,0,0,1-.142,1.362c-.656,1.128-1.03.656-1.6.518a2.768,2.768,0,0,1-.516-.139,2.783,2.783,0,0,0,.187,1.736c.236.28,1.645,1.549,1.645,1.549s2.723.139,3.569.75a16.85,16.85,0,0,1,3.237,4.693,4.7,4.7,0,0,0,1.221,2.014c-.518,1.455-2.862,4.693-4.6,5.117-.469-.329-1.221-.893-1.221-.893l-1.69,2.815L71.23,466.634s-1.381-3.9-1.882-5.027-2.129-1.384-2.758-2.768-.751-6.034.123-7.291a6,6,0,0,1,4.895-2.138c1.879.124,5.394-1.634,5.394-1.634s2.775-2.545,2.9-3.55c-.454-.036-.612-1.934-.108-2.186-.374-.5-.424-1.966.329-2.216a5.9,5.9,0,0,1-.029-3.791,1.94,1.94,0,0,1,1.175-1.08,2.637,2.637,0,0,1,2.433-2.247,3.916,3.916,0,0,1,1.976.469,2.761,2.761,0,0,1,3.228.454A12.18,12.18,0,0,0,90.93,435.2v1.005H90.3s.125,1.007.125,1.634-.249,1.256,0,1.76l-.125.629s-.608-.174-.466.625.374,2.161.374,2.161l-.233.467a.749.749,0,0,1-.707.045c-.327-.187-.747.236-.889-.28Z" transform="translate(-6.974 -13.253)" fill="none" stroke="#231f20" stroke-miterlimit="3.864" stroke-width="0.646"/>
    <path id="Path_2972" data-name="Path 2972" d="M92.6,464.044l-2.1.249m5.035-1.929-4.448.84m5.874-2.519c-.587,0-2.349.168-2.349.168" transform="translate(-12.137 -19.003)" fill="none" stroke="#231f20" stroke-miterlimit="3.864" stroke-width="0.646"/>
    <path id="Path_2973" data-name="Path 2973" d="M67.833,477.366a1.573,1.573,0,0,1,.337,1.929c2.266-.336,6.629-1.091,8.055-.839s4.446.753,5.452,1.511l1.764.082c.754-.922,3.271-1.507,5.2-.922a31.739,31.739,0,0,0,8.475.587,1.8,1.8,0,0,1,.672-1.93c.364-.259-9.459-2.732-18.36-2.8-5.459-.043-11.816,2.16-11.595,2.383" transform="translate(-7.373 -22.173)" fill="#907156"/>
    <path id="Path_2974" data-name="Path 2974" d="M67.833,477.366a1.573,1.573,0,0,1,.337,1.929c2.266-.336,6.629-1.091,8.055-.839s4.446.753,5.452,1.511l1.764.082c.754-.922,3.271-1.507,5.2-.922a31.739,31.739,0,0,0,8.475.587,1.8,1.8,0,0,1,.672-1.93c.364-.259-9.459-2.732-18.36-2.8C73.969,474.94,67.611,477.142,67.833,477.366Z" transform="translate(-7.373 -22.173)" fill="none" stroke="#231f20" stroke-miterlimit="3.864" stroke-width="0.646"/>
    <line id="Line_81" data-name="Line 81" y1="1.176" x2="0.503" transform="translate(83.043 447.391)" fill="none" stroke="#231f20" stroke-miterlimit="3.864" stroke-width="0.646"/>
    <path id="Path_2975" data-name="Path 2975" d="M67.348,456.746c.251-.419.921-.753,1.344-.419a3.3,3.3,0,0,1,.586,2.349m0,1.931c0,1.342-.507,3.019-1.512,3.019s-1.09-1.6-1.09-2.1m4.529,3.27c.838.254,1.681,1.847,2.937,2.266a4.829,4.829,0,0,0,2.183.252" transform="translate(-6.898 -18.121)" fill="none" stroke="#231f20" stroke-miterlimit="3.864" stroke-width="0.432"/>
    <path id="Path_2976" data-name="Path 2976" d="M89.317,440.206a2.082,2.082,0,0,1,1.408-.279c.329.142.421.422.937.562,0,.283-.09.279-.374.564s-.516.75-1.642-.187a1.445,1.445,0,0,0,1.359-.143m-7.883,3.987c.42.187.89-.939.842-1.453.516-.048.844-1.548.751-2.158.14.752.421.7.515.939s-.185,1.128.564,1.032a2.71,2.71,0,0,0,.422,1.974M81.477,450.3c.422.048,1.736-.33,1.923-.281s.751.423.939.376m3.332.232a1.243,1.243,0,0,1,1.178.142m.374-3.143a3.863,3.863,0,0,1-2.02-1.361m-1.69.89c0,.75.566,1.175.469,1.972m-1.691-1.5c0,.422.331.75.284,1.079m2.58-6.616c0,.326.374.61.374,1.031M84.762,441c.047-.419.141-1.313.612-1.313a1.24,1.24,0,0,1,1.175.751m.233.281c.094.189.281.143.516-.1s-.189-.606-.094-.8.8-.139.8-.608c.326-.1.427-.7.377-1.077s-.28-.7-.563-.7c.232-.331-.424-.517-.376-.894s.749-.141.7-.891c.563.516,1.782.142,1.878-.327a3.448,3.448,0,0,0,1.406.656,1.113,1.113,0,0,0,.754-.422,1.758,1.758,0,0,0,.89.939.989.989,0,0,1,.376.233M88.1,435.513a.752.752,0,0,0-.987-.138m-4.082,3.988a1.733,1.733,0,0,1,1.033-1.315m.422-2.629a3.657,3.657,0,0,1,1.409-.091m-2.957,7.084c.235-.326.423-.61.7-.656m-.284-1.551a2,2,0,0,1,.611-.326m8.027,5.255a1.991,1.991,0,0,1-1.267-.049m.8.8c-.28.093-.425-.044-.61-.141" transform="translate(-10.203 -13.538)" fill="none" stroke="#231f20" stroke-miterlimit="3.864" stroke-width="0.432"/>
    <path id="Path_2977" data-name="Path 2977" d="M79.331,467.726S88.865,457.3,90,455.656c1.632-1.634,7.151-7.541,7.151-7.541l8.658-5.156v.753l-3.889,2.263,4.514-1.883-3.387,2.387,2.509-.38-2.258,1.011,1.506-.128-.5.755-1.254.127,1,.5-.625.5h-1.006l-.253.756,1.259-.252-.254,1.006-2.258.252-1,.754,1.881-.248-.249.75-1.883.379.877.251-.752.754H98.9l.754.505-.628.375-2.758,1.007.247.5,1.885-.5L97.02,456.16l.754.251-3.14.879.881.627-.752.632-1.506.251.378.626-1.508.378-1.754.754.751.505-.878.879-3.387.124,1.253.377-.627.755a4.5,4.5,0,0,0-3.765,1.257c-1.5,1.634-2.757,2.767-2.757,2.767a6.1,6.1,0,0,0-1.632.5" transform="translate(-9.944 -15.399)" fill="#faa61a"/>
    <path id="Path_2978" data-name="Path 2978" d="M79.331,467.726S88.865,457.3,90,455.656c1.632-1.634,7.151-7.541,7.151-7.541l8.658-5.156v.753l-3.889,2.263,4.514-1.883-3.387,2.387,2.509-.38-2.258,1.011,1.506-.128-.5.755-1.254.127,1,.5-.625.5h-1.006l-.253.756,1.259-.252-.254,1.006-2.258.252-1,.754,1.881-.248-.249.75-1.883.379.877.251-.752.754H98.9l.754.505-.628.375-2.758,1.007.247.5,1.885-.5L97.02,456.16l.754.251-3.14.879.881.627-.752.632-1.506.251.378.626-1.508.378-1.754.754.751.505-.878.879-3.387.124,1.253.377-.627.755a4.5,4.5,0,0,0-3.765,1.257c-1.5,1.634-2.757,2.767-2.757,2.767A6.1,6.1,0,0,0,79.331,467.726Z" transform="translate(-9.944 -15.399)" fill="none" stroke="#231f20" stroke-miterlimit="3.864" stroke-width="0.646"/>
    <path id="Path_2979" data-name="Path 2979" d="M67.664,476.515l7.026-5.908c1.628,1.007,3.013.5,3.89.5s3.262-.12,4.139,1.009a5.85,5.85,0,0,1,4.514-.63,4.092,4.092,0,0,0,4.144-.379l6.4,5.785c-2.887,1.135-5.774.5-7.9-.123s-5.645-.126-7.151,1.006c-2.636-1.512-7.157-2.266-8.909-1.761s-4.514,1.758-6.146.5" transform="translate(-7.337 -21.243)" fill="#fff"/>
    <path id="Path_2980" data-name="Path 2980" d="M67.664,476.515l7.026-5.908c1.628,1.007,3.013.5,3.89.5s3.262-.12,4.139,1.009a5.85,5.85,0,0,1,4.514-.63,4.092,4.092,0,0,0,4.144-.379l6.4,5.785c-2.887,1.135-5.774.5-7.9-.123s-5.645-.126-7.151,1.006c-2.636-1.512-7.157-2.266-8.909-1.761S69.3,477.772,67.664,476.515Z" transform="translate(-7.337 -21.243)" fill="none" stroke="#231f20" stroke-miterlimit="3.864" stroke-width="0.646"/>
    <line id="Line_82" data-name="Line 82" y2="5.756" transform="translate(75.38 450.744)" fill="none" stroke="#231f20" stroke-miterlimit="3.864" stroke-width="0.432"/>
  </g>
</svg>
