<svg xmlns="http://www.w3.org/2000/svg" xmlns:xlink="http://www.w3.org/1999/xlink" width="80.869" height="100.804" viewBox="0 0 80.869 100.804">
  <defs>
    <clipPath id="clip-path">
      <path id="Path_3087" data-name="Path 3087" d="M406.048,426.723h31.729A35.495,35.495,0,0,0,434.6,408.7c-5.457-12.072-20.191-18.206-28.612-21.294Z" transform="translate(-405.992 -387.409)" fill="none"/>
    </clipPath>
    <clipPath id="clip-path-2">
      <path id="Path_3089" data-name="Path 3089" d="M428.318,419.29c-1.611,1.872-4,2.393-4.782,1.093a49.379,49.379,0,0,1-5.042,4.367c-1.924,1.507-3.224.884-3.739,0l-6.811,5.273,30.343-.065A35.68,35.68,0,0,0,435,413.7c-.282-.621-.589-1.226-.917-1.82-2.125,2.8-4.84,6.329-5.768,7.408" transform="translate(-407.944 -411.882)" fill="none"/>
    </clipPath>
    <clipPath id="clip-path-4">
      <path id="Path_3094" data-name="Path 3094" d="M416.047,419.846v10.967s1.141-4.573,1.5-5.561,1.875-6.757,5.148-8.369c0,0-6.393,2.807-6.648,2.963" transform="translate(-416.047 -416.883)" fill="none"/>
    </clipPath>
    <clipPath id="clip-path-6">
      <path id="Path_3099" data-name="Path 3099" d="M417.226,399.9c-1.246.105-1.246,1.819-1.246,2.445v14.085c1.455-.779,5.456-2.132,7.638-3.377,0-.21-1.819-6.029-2.339-7.333-.83-2.076-3.4-5.82-4.042-5.82h-.011" transform="translate(-415.98 -399.897)" fill="none"/>
    </clipPath>
    <clipPath id="clip-path-8">
      <path id="Path_3106" data-name="Path 3106" d="M423.1,415.645a1.342,1.342,0,0,0,1.295,1.248c.833,0,1.146-.987,1.2-1.4a1.526,1.526,0,0,0-1.248-1.351c-.729,0-1.246,1.038-1.246,1.506" transform="translate(-423.099 -414.139)" fill="none"/>
    </clipPath>
    <clipPath id="clip-path-10">
      <path id="Path_3112" data-name="Path 3112" d="M407.944,414.961v16.41s1.4-6.793,1.767-9.7,1.767-6.811,2.908-6.811Z" transform="translate(-407.944 -414.855)" fill="none"/>
    </clipPath>
    <clipPath id="clip-path-12">
      <path id="Path_3118" data-name="Path 3118" d="M407.929,399.888c0,.884-.05,11.643-.05,11.643h4.78a18.16,18.16,0,0,0-.155-8.679c-.875-2.663-2.544-4.68-3.327-4.783a.692.692,0,0,0-.105-.008c-.716,0-1.143.985-1.143,1.828" transform="translate(-407.879 -398.06)" fill="none"/>
    </clipPath>
    <clipPath id="clip-path-14">
      <path id="Path_3123" data-name="Path 3123" d="M415.3,396.16c-.414.413-.426,1.851-.218,2.84l1.019.1c.311.207-.123.229.968.02s1.093-1.145,1.143-1.923-.52-1.87-1.4-1.87-1.092.413-1.511.832" transform="translate(-414.947 -395.328)" fill="none"/>
    </clipPath>
    <clipPath id="clip-path-16">
      <path id="Path_3128" data-name="Path 3128" d="M408.072,394.882c.106,1.611.78,2.184,1.3,2.236a2.052,2.052,0,0,0,2.183-2.133c.1-1.921-.937-2.336-1.557-2.336a1.9,1.9,0,0,0-1.926,2.233" transform="translate(-408.065 -392.649)" fill="none"/>
    </clipPath>
  </defs>
  <g id="Group_370" data-name="Group 370" transform="translate(-354.353 -373.939)">
    <path id="Path_3030" data-name="Path 3030" d="M358.012,437.446c-6.9-15.981-2.492-37.468,10.5-48.5,2.638-2.49,7.106-5.1,11.92-7.588,4.775-2.471,9.506-4.628,14.317-7.019,4.827,2.4,9.559,4.548,14.356,7.019,4.841,2.492,9.334,5.1,11.97,7.6,12.983,11.041,17.387,32.516,10.488,48.494-7.069,16.368-21.88,28.372-36.814,36.889-14.946-8.521-29.668-20.522-36.737-36.889" transform="translate(0 0)" fill="#fec00f"/>
    <path id="Path_3031" data-name="Path 3031" d="M358.012,437.446c-6.9-15.981-2.492-37.468,10.5-48.5,2.638-2.49,7.106-5.1,11.92-7.588,4.775-2.471,9.506-4.628,14.317-7.019,4.827,2.4,9.559,4.548,14.356,7.019,4.841,2.492,9.334,5.1,11.97,7.6,12.983,11.041,17.387,32.516,10.488,48.494-7.069,16.368-21.88,28.372-36.814,36.889C379.8,465.814,365.081,453.813,358.012,437.446Z" transform="translate(0 0)" fill="none" stroke="#231f20" stroke-miterlimit="3.864" stroke-width="0.709"/>
    <path id="Path_3032" data-name="Path 3032" d="M366.139,426.8a35.642,35.642,0,0,1,3.15-18.1c5.46-12.072,20.124-18.2,28.544-21.283V426.73Z" transform="translate(-2.292 -2.673)" fill="#f47b20"/>
    <path id="Path_3033" data-name="Path 3033" d="M366.139,426.8a35.642,35.642,0,0,1,3.15-18.1c5.46-12.072,20.124-18.2,28.544-21.283V426.73Z" transform="translate(-2.292 -2.673)" fill="none" stroke="#231f20" stroke-miterlimit="1" stroke-width="0.353"/>
    <path id="Path_3034" data-name="Path 3034" d="M358.7,437.385c6.8,15.739,20.926,27.712,36.2,36.446,15.275-8.734,29.482-20.707,36.278-36.446,6.809-15.767,2.435-36.976-10.348-47.836-2.57-2.431-7-5.015-11.842-7.51-4.79-2.469-9.96-4.839-14.088-6.886-4.126,2.047-9.277,4.417-14.05,6.885-4.827,2.5-9.235,5.08-11.8,7.51C356.259,400.409,351.887,421.617,358.7,437.385Z" transform="translate(-0.15 -0.167)" fill="none" stroke="#231f20" stroke-miterlimit="3.864" stroke-width="0.41"/>
    <path id="Path_3035" data-name="Path 3035" d="M368.524,407.8c5.059-11.192,17.816-17.3,28.365-21.167,10.552,3.863,23.38,9.967,28.44,21.167,6.936,15.347,2.19,30.762-7.958,42.268a107.5,107.5,0,0,1-13.959,13.185,76.324,76.324,0,0,1-6.523,4.674,77.5,77.5,0,0,1-6.488-4.674,108.874,108.874,0,0,1-13.917-13.185C366.334,438.558,361.59,423.144,368.524,407.8Z" transform="translate(-2.14 -2.511)" fill="none" stroke="#231f20" stroke-miterlimit="3.864" stroke-width="0.709"/>
    <path id="Path_3036" data-name="Path 3036" d="M366.306,438.341c1.007,8.6,5.013,16.667,10.833,23.428A104.416,104.416,0,0,0,397.1,479.756a103.264,103.264,0,0,0,20.042-17.986c5.82-6.761,9.825-14.829,10.835-23.428Z" transform="translate(-2.356 -15.028)" fill="#ffca6c"/>
    <path id="Path_3037" data-name="Path 3037" d="M366.306,438.341c1.007,8.6,5.013,16.667,10.833,23.428A104.416,104.416,0,0,0,397.1,479.756a103.264,103.264,0,0,0,20.042-17.986c5.82-6.761,9.825-14.829,10.835-23.428Z" transform="translate(-2.356 -15.028)" fill="none" stroke="#231f20" stroke-miterlimit="3.864" stroke-width="0.41"/>
    <path id="Path_3038" data-name="Path 3038" d="M380.476,473.363l-1.543,1.492-1.054-1.091-.327.316,1.055,1.091-1.072,1.035-1.133-1.171-.327.315,1.482,1.536,3.267-3.159Z" transform="translate(-4.696 -21.791)" fill="#231f20"/>
    <path id="Path_3039" data-name="Path 3039" d="M374.918,469.317l.77.917-2.239,1.1-.008-.009Zm2.772.56-.357-.429-1.219.59-.922-1.1.772-1.113-.357-.427-2.659,3.9.427.512Z" transform="translate(-4.007 -20.491)" fill="#231f20"/>
    <path id="Path_3040" data-name="Path 3040" d="M369.363,464.719a1.27,1.27,0,0,0-.421,1.895c.759,1.045,1.888.414,2.717-.19.877-.638,1.94-1.471,1.118-2.6a1.145,1.145,0,0,0-.991-.5,1.721,1.721,0,0,0-.936.351c-.081.045-.159.1-.242.145l.3.407c.092-.053.179-.106.269-.158.438-.242.91-.428,1.26.058.543.743-.577,1.544-1.091,1.886-.486.355-1.5,1.073-2.012.367-.37-.508-.1-.921.329-1.247Z" transform="translate(-2.84 -19.586)" fill="#231f20"/>
    <path id="Path_3041" data-name="Path 3041" d="M368.9,460.233a1.373,1.373,0,0,0-1.362-2.361l-2.99,1.724.251.436,2.83-1.638a.864.864,0,1,1,.863,1.492l-2.83,1.634.251.436Z" transform="translate(-1.997 -18.351)" fill="#231f20"/>
    <path id="Path_3042" data-name="Path 3042" d="M366.028,451.635l-.421.179.728,1.705-3.768,1.6.2.464,4.186-1.777Z" transform="translate(-1.592 -17.015)" fill="#231f20"/>
    <path id="Path_3043" data-name="Path 3043" d="M361.017,450.917l-.364-1.12,3.893-1.264-.157-.48L360.5,449.32l-.36-1.119-.434.14.881,2.717Z" transform="translate(-1.008 -16.216)" fill="#231f20"/>
    <path id="Path_3044" data-name="Path 3044" d="M361.261,442.328l.228,1.179L359,443.38l0-.013Zm2.15,1.835-.105-.547-1.348-.076-.277-1.412,1.22-.6-.106-.547-4.22,2.121.126.656Z" transform="translate(-0.777 -14.662)" fill="#231f20"/>
    <path id="Path_3045" data-name="Path 3045" d="M358.163,437.541l-.068-.8c-.072-.808.6-1.014,1.632-1.143,1.348-.164,1.924.091,1.989.826l.068.8Zm4-1.191c-.1-1.225-1.284-1.341-2.39-1.282-1.122.064-2.252.356-2.128,1.77l.109,1.243,4.527-.394Z" transform="translate(-0.585 -13.357)" fill="#231f20"/>
    <path id="Path_3046" data-name="Path 3046" d="M358.3,425.924l.123-.795c.128-.8.832-.838,1.864-.715,1.346.166,1.845.551,1.729,1.282l-.125.8Zm4.17-.187c.193-1.215-.921-1.613-2.013-1.821s-2.269-.2-2.489,1.2l-.2,1.231,4.49.713Z" transform="translate(-0.613 -10.886)" fill="#231f20"/>
    <path id="Path_3047" data-name="Path 3047" d="M364.142,418.355l-.436-.135-.52,1.7-1.606-.489.488-1.588-.437-.134-.484,1.59-1.438-.441.518-1.693-.436-.131-.665,2.173,4.348,1.328Z" transform="translate(-0.889 -9.397)" fill="#231f20"/>
    <path id="Path_3048" data-name="Path 3048" d="M365.312,407.576a1.271,1.271,0,0,0-1.887.451c-.607,1.143.455,1.878,1.362,2.359.956.507,2.172,1.1,2.83-.136a1.14,1.14,0,0,0,.014-1.112,1.782,1.782,0,0,0-.726-.688c-.076-.053-.157-.1-.232-.152l-.237.442c.084.06.172.116.259.173.41.286.783.633.5,1.159-.435.815-1.642.161-2.178-.154-.527-.28-1.621-.875-1.212-1.644.3-.557.789-.5,1.268-.252Z" transform="translate(-1.731 -7.264)" fill="#231f20"/>
    <path id="Path_3049" data-name="Path 3049" d="M370.483,405.737l-3.676-2.67-.3.409,3.677,2.672Z" transform="translate(-2.398 -6.32)" fill="#231f20"/>
    <path id="Path_3050" data-name="Path 3050" d="M374.174,400.983l-.344-.3-1.167,1.343-1.268-1.1,1.089-1.253-.343-.3-1.089,1.255-1.135-.986,1.161-1.338-.343-.3-1.491,1.714,3.43,2.982Z" transform="translate(-2.956 -5.214)" fill="#231f20"/>
    <path id="Path_3051" data-name="Path 3051" d="M378.049,396.351c.111.127.231.257.345.376l-.012.008c-.184-.12-.31-.2-.442-.272l-3.418-1.959-.62.536,2.984,3.43.379-.331-2.376-2.735c-.151-.173-.311-.347-.467-.518l.009-.006a3.716,3.716,0,0,0,.578.405l3.345,1.908.622-.54L376,393.221l-.381.33Z" transform="translate(-4.219 -3.858)" fill="#231f20"/>
    <path id="Path_3052" data-name="Path 3052" d="M382.834,390.38a1.271,1.271,0,0,0-1.86-.551c-1.1.685-.542,1.856,0,2.725.575.92,1.334,2.041,2.517,1.3a1.137,1.137,0,0,0,.568-.956,1.7,1.7,0,0,0-.283-.957c-.037-.085-.088-.168-.126-.251l-.426.266c.043.094.093.183.134.279.216.455.367.938-.142,1.255-.781.488-1.5-.685-1.809-1.221-.317-.509-.964-1.57-.225-2.033.534-.333.93-.034,1.225.414Z" transform="translate(-5.632 -3.121)" fill="#231f20"/>
    <path id="Path_3053" data-name="Path 3053" d="M388.067,391.057l-2.272-3.936-.436.251,2.274,3.938Z" transform="translate(-6.73 -2.612)" fill="#231f20"/>
    <path id="Path_3054" data-name="Path 3054" d="M392.186,386.921l-1.079.527-.518-2.436.009-.006Zm-1.216,2.555.5-.245-.275-1.32,1.292-.63.9,1.019.5-.243-3.144-3.524-.6.294Z" transform="translate(-7.791 -2.083)" fill="#231f20"/>
    <path id="Path_3055" data-name="Path 3055" d="M397.772,382.607a1.13,1.13,0,0,0-1.689-.678,1.191,1.191,0,0,0-.681,1.637,1.01,1.01,0,0,0,.9.738,9.533,9.533,0,0,0,.956-.024c.492-.019.753-.123,1.023.514a.762.762,0,0,1-.489,1.07c-.7.3-.976-.045-1.221-.672l-.461.195a2.5,2.5,0,0,0,.414.727,1.242,1.242,0,0,0,1.424.177,1.277,1.277,0,0,0,.767-1.806c-.236-.554-.5-.771-1.417-.729-.258.01-.509.018-.766.029a.6.6,0,0,1-.64-.4.706.706,0,0,1,.431-1.065.7.7,0,0,1,.988.482Z" transform="translate(-8.922 -1.52)" fill="#231f20"/>
    <path id="Path_3056" data-name="Path 3056" d="M407.439,383.833l.04-.453-1.777-.155.147-1.673,1.653.145.04-.453-1.653-.144.129-1.5,1.764.153.04-.45-2.263-.2-.4,4.528Z" transform="translate(-11.087 -0.975)" fill="#231f20"/>
    <path id="Path_3057" data-name="Path 3057" d="M413.84,382.957a1.274,1.274,0,0,0-.711-1.809c-1.212-.44-1.794.715-2.145,1.677-.372,1.021-.788,2.306.528,2.787a1.146,1.146,0,0,0,1.1-.141,1.737,1.737,0,0,0,.578-.813c.043-.082.076-.173.119-.253l-.471-.173c-.046.092-.088.186-.136.281-.227.446-.512.863-1.078.656-.865-.314-.383-1.6-.149-2.176.207-.563.644-1.726,1.462-1.428.592.217.6.708.427,1.219Z" transform="translate(-12.294 -1.372)" fill="#231f20"/>
    <path id="Path_3058" data-name="Path 3058" d="M418.859,386.12c-.54,1.2-.947,1.781-1.708,1.439s-.6-1.03-.072-2.234c.405-.927.914-1.59,1.621-1.276.73.328.579,1.148.16,2.071m-2.254-1.019c-.5,1.157-.855,2.336.361,2.876s1.856-.508,2.373-1.658c.432-.949.779-2.134-.431-2.674-1.237-.551-1.878.5-2.3,1.455" transform="translate(-13.514 -1.871)" fill="#231f20"/>
    <path id="Path_3059" data-name="Path 3059" d="M423.788,390.414c-.084.147-.167.3-.245.446l-.011-.007a4.309,4.309,0,0,0,.111-.508l.746-3.869-.709-.408L421.407,390l.436.252,1.811-3.138c.116-.2.229-.408.337-.61l.011.006a3.383,3.383,0,0,0-.193.68l-.718,3.784.714.41,2.272-3.934-.436-.251Z" transform="translate(-14.689 -2.397)" fill="#231f20"/>
    <path id="Path_3060" data-name="Path 3060" d="M430.7,389.687l.333.232,1.14-.243-.541-.38Zm-.36,2.923c-.759,1.075-1.266,1.569-1.95,1.087s-.4-1.124.353-2.208c.575-.829,1.2-1.386,1.835-.941.656.46.347,1.236-.237,2.063m-2.02-1.43c-.711,1.041-1.28,2.129-.193,2.891s1.92-.142,2.647-1.172c.6-.849,1.171-1.947.084-2.71-1.106-.773-1.937.139-2.537.991" transform="translate(-16.036 -3.056)" fill="#231f20"/>
    <path id="Path_3061" data-name="Path 3061" d="M434.315,397.474a6.253,6.253,0,0,0-.524.446l-.01-.007a3.714,3.714,0,0,0,.357-.578l1.6-3.289-.687-.575-2.918,3.484.384.324,2.4-2.861c.123-.149.243-.309.368-.455l.007.006c-.116.227-.186.366-.255.512l-1.689,3.495.458.387,3.115-2.231c.145-.105.287-.208.5-.378l.011.008c-.114.155-.245.293-.369.441l-2.409,2.866.385.326,2.922-3.482-.676-.567Z" transform="translate(-17.072 -3.909)" fill="#231f20"/>
    <path id="Path_3062" data-name="Path 3062" d="M438.209,402.761l3.375-3.042-.335-.375-3.379,3.044Z" transform="translate(-18.537 -5.503)" fill="#231f20"/>
    <path id="Path_3063" data-name="Path 3063" d="M444.421,405.543a1.273,1.273,0,0,0,.386-1.9c-.779-1.033-1.895-.38-2.711.236-.867.656-1.917,1.506-1.073,2.624a1.143,1.143,0,0,0,1,.483,1.743,1.743,0,0,0,.929-.367c.08-.047.158-.105.239-.149l-.3-.4c-.089.049-.175.107-.266.161-.433.25-.9.444-1.265-.035-.551-.737.555-1.553,1.064-1.907.479-.36,1.478-1.1,2-.4.376.5.116.92-.31,1.254Z" transform="translate(-19.118 -6.331)" fill="#231f20"/>
    <path id="Path_3064" data-name="Path 3064" d="M445.858,411.542l-.525-1.081,2.434-.52.006.01Zm-2.554-1.216.243.5,1.323-.274.63,1.291-1.019.9.244.5,3.525-3.141-.294-.6Z" transform="translate(-19.647 -7.739)" fill="#231f20"/>
    <path id="Path_3065" data-name="Path 3065" d="M449.936,417.359a1.132,1.132,0,0,0,.793-1.638,1.192,1.192,0,0,0-1.588-.793,1.007,1.007,0,0,0-.8.843,9.264,9.264,0,0,0-.041.958c-.017.493.066.758-.587.983a.764.764,0,0,1-1.034-.56c-.247-.715.114-.976.759-1.171l-.162-.477a2.536,2.536,0,0,0-.754.364,1.242,1.242,0,0,0-.279,1.409,1.277,1.277,0,0,0,1.751.89c.565-.193.8-.442.823-1.359.01-.259.017-.512.025-.773a.6.6,0,0,1,.443-.606.706.706,0,0,1,1.032.5.7.7,0,0,1-.55.955Z" transform="translate(-20.228 -8.914)" fill="#231f20"/>
    <path id="Path_3066" data-name="Path 3066" d="M452.916,425.071l-.068-.556-2.594,1.692-1.749.215.06.5,1.751-.216,2.929,1.027-.068-.552-2.392-.783Z" transform="translate(-20.709 -11.04)" fill="#231f20"/>
    <path id="Path_3067" data-name="Path 3067" d="M451.929,438a1.131,1.131,0,0,0,1.393-1.174,1.192,1.192,0,0,0-1.128-1.369,1.011,1.011,0,0,0-1.072.446,9.451,9.451,0,0,0-.427.858c-.216.442-.249.719-.937.661a.763.763,0,0,1-.714-.931c.067-.755.5-.844,1.166-.763l.047-.5a2.563,2.563,0,0,0-.837.025,1.245,1.245,0,0,0-.828,1.175,1.281,1.281,0,0,0,1.236,1.526c.6.053.913-.079,1.308-.907.109-.235.224-.462.337-.7a.6.6,0,0,1,.651-.373.709.709,0,0,1,.741.879.7.7,0,0,1-.893.648Z" transform="translate(-20.726 -13.388)" fill="#231f20"/>
    <path id="Path_3068" data-name="Path 3068" d="M449.957,444.016c-1.292-.256-1.951-.52-1.792-1.344s.872-.816,2.161-.573c.995.186,1.755.533,1.607,1.3-.154.783-.985.819-1.977.621m.482-2.425c-1.239-.23-2.467-.307-2.719.995s.911,1.7,2.148,1.945c1.022.2,2.255.278,2.508-1.026.258-1.327-.916-1.716-1.937-1.914" transform="translate(-20.542 -14.767)" fill="#231f20"/>
    <path id="Path_3069" data-name="Path 3069" d="M448.667,451.008a1.272,1.272,0,0,0,1.809-.707c.442-1.215-.715-1.8-1.677-2.146-1.019-.372-2.305-.788-2.786.53a1.139,1.139,0,0,0,.141,1.1,1.748,1.748,0,0,0,.813.582c.081.042.173.075.256.117l.171-.473c-.093-.045-.189-.087-.279-.131-.45-.228-.864-.516-.66-1.081.316-.867,1.6-.384,2.176-.151.563.207,1.724.645,1.428,1.464-.215.592-.707.6-1.218.425Z" transform="translate(-20.184 -16.161)" fill="#231f20"/>
    <rect id="Rectangle_118" data-name="Rectangle 118" width="0.502" height="4.544" transform="translate(424.464 436.258) rotate(-66.986)" fill="#231f20"/>
    <path id="Path_3070" data-name="Path 3070" d="M443.317,458.8l.582-1.05,1.822,1.7,0,.009Zm-.469-2.791-.272.485.984.928-.7,1.257-1.319-.323-.269.488,4.595,1.085.325-.582Z" transform="translate(-19.233 -17.978)" fill="#231f20"/>
    <path id="Path_3071" data-name="Path 3071" d="M438.342,463.59l.375.253,1.038-1.537,3.391,2.288.284-.416-3.769-2.543Z" transform="translate(-18.634 -19.203)" fill="#231f20"/>
    <path id="Path_3072" data-name="Path 3072" d="M435.008,467.854l.348.293,1.145-1.364,1.288,1.078-1.068,1.272.347.293,1.068-1.27,1.151.968-1.138,1.354.349.29,1.462-1.74-3.481-2.923Z" transform="translate(-17.692 -20.211)" fill="#231f20"/>
    <path id="Path_3073" data-name="Path 3073" d="M433.8,474.47a1.132,1.132,0,0,0,1.818-.1,1.193,1.193,0,0,0-.076-1.773,1.014,1.014,0,0,0-1.124-.29,9.2,9.2,0,0,0-.859.43c-.44.222-.629.425-1.143-.038a.761.761,0,0,1-.01-1.175c.505-.561.906-.374,1.391.095l.338-.374a2.514,2.514,0,0,0-.685-.481,1.228,1.228,0,0,0-1.364.442,1.275,1.275,0,0,0,.065,1.959c.449.4.779.489,1.593.062l.684-.352a.6.6,0,0,1,.746.093.7.7,0,0,1,.062,1.147.7.7,0,0,1-1.1-.022Z" transform="translate(-16.943 -21.215)" fill="#231f20"/>
    <path id="Path_3074" data-name="Path 3074" d="M390.175,485.261a.917.917,0,1,0-1.3.1.929.929,0,0,0,1.3-.1" transform="translate(-7.43 -24.3)" fill="#231f20"/>
    <path id="Path_3075" data-name="Path 3075" d="M393.218,489.139a1.372,1.372,0,0,0,2.147,1.677l2.124-2.714-.4-.311-2.012,2.575a.864.864,0,1,1-1.356-1.061l2.012-2.573-.4-.31Z" transform="translate(-8.411 -24.848)" fill="#231f20"/>
    <path id="Path_3076" data-name="Path 3076" d="M402.049,494.889l-1.008-.652,1.822-1.7.011.006Zm-2.814.274.466.3.991-.917,1.206.781-.413,1.3.468.3,1.4-4.508-.561-.365Z" transform="translate(-9.796 -25.999)" fill="#231f20"/>
    <path id="Path_3077" data-name="Path 3077" d="M409.514,492.5a1.136,1.136,0,0,0-1.785-.376,1.2,1.2,0,0,0-.385,1.734,1.012,1.012,0,0,0,1.012.571c.276-.024.678-.14.94-.191.482-.1.719-.249,1.1.328a.764.764,0,0,1-.294,1.139c-.637.411-.972.127-1.319-.453l-.423.275a2.5,2.5,0,0,0,.535.643,1.236,1.236,0,0,0,1.434-.072,1.28,1.28,0,0,0,.442-1.914c-.329-.5-.625-.671-1.52-.47-.251.054-.5.107-.754.162a.592.592,0,0,1-.7-.284.7.7,0,0,1,.238-1.121.694.694,0,0,1,1.056.3Z" transform="translate(-11.532 -25.956)" fill="#231f20"/>
    <path id="Path_3078" data-name="Path 3078" d="M414.064,488.235l.636-.494c.638-.5,1.178-.047,1.845.749.874,1.038.973,1.658.392,2.113l-.633.5Zm3.177,2.71c.968-.758.423-1.81-.232-2.706s-1.522-1.695-2.64-.821l-.984.77,2.8,3.581Z" transform="translate(-12.917 -24.974)" fill="#231f20"/>
    <path id="Path_3079" data-name="Path 3079" d="M422.8,484.055a.919.919,0,1,0-.088,1.3.935.935,0,0,0,.088-1.3" transform="translate(-14.602 -24.299)" fill="#231f20"/>
    <path id="Path_3080" data-name="Path 3080" d="M406.048,426.724h31.729A35.525,35.525,0,0,0,434.6,408.7c-5.457-12.072-20.191-18.207-28.612-21.294Z" transform="translate(-12.026 -2.67)" fill="#e1f4fd"/>
    <g id="Group_337" data-name="Group 337" transform="translate(393.966 384.739)">
      <g id="Group_336" data-name="Group 336" clip-path="url(#clip-path)">
        <path id="Path_3081" data-name="Path 3081" d="M426.888,409.237v20.116h.674" transform="translate(-410.26 -391.868)" fill="none" stroke="#231f20" stroke-miterlimit="3.864" stroke-width="0.609"/>
        <path id="Path_3082" data-name="Path 3082" d="M422.925,405.046a3.057,3.057,0,1,1,3.057,3.058,3.058,3.058,0,0,1-3.057-3.058" transform="translate(-409.451 -390.387)" fill="#54b948"/>
        <path id="Path_3083" data-name="Path 3083" d="M422.925,405.046a3.057,3.057,0,1,1,3.057,3.058A3.058,3.058,0,0,1,422.925,405.046Z" transform="translate(-409.451 -390.387)" fill="none" stroke="#231f20" stroke-miterlimit="3.864" stroke-width="0.531"/>
        <path id="Path_3084" data-name="Path 3084" d="M425.487,405.7a1.02,1.02,0,1,1,1.019,1.021,1.018,1.018,0,0,1-1.019-1.021" transform="translate(-409.974 -390.937)" fill="#907156"/>
        <path id="Path_3085" data-name="Path 3085" d="M425.487,405.7a1.02,1.02,0,1,1,1.019,1.021A1.018,1.018,0,0,1,425.487,405.7Z" transform="translate(-409.974 -390.937)" fill="none" stroke="#231f20" stroke-miterlimit="3.864" stroke-width="0.304"/>
        <path id="Path_3086" data-name="Path 3086" d="M407.944,429.075l6.811-5.273c.518.882,1.818,1.507,3.739,0a49.24,49.24,0,0,0,5.043-4.367c.78,1.3,3.169.78,4.782-1.093s8.566-11.1,8.566-11.1c6.929,5.811,6.624,21.759,6.624,21.759Z" transform="translate(-406.391 -391.46)" fill="#ed1c24"/>
      </g>
    </g>
    <g id="Group_339" data-name="Group 339" transform="translate(395.519 403.516)">
      <g id="Group_338" data-name="Group 338" clip-path="url(#clip-path-2)">
        <path id="Path_3088" data-name="Path 3088" d="M443.322,428.32h-36.79m36.79-.863h-36.79m36.79-.863h-36.79m36.79-.863h-36.79m36.79-.859h-36.79m36.79-.866h-36.79m36.79-.863h-36.79m36.79-.862h-36.79m36.79-.861h-36.79m36.79-.865h-36.79m36.79-.862h-36.79m36.79-.861h-36.79m36.79-.865h-36.79m36.79-.863h-36.79m36.79-.859h-36.79m36.79-.863h-36.79m36.79-.865h-36.79m36.79-.863h-36.79m36.79-.861h-36.79m36.79-.864h-36.79m36.79-.863h-36.79m1.426,17.806V406.857m.863,22.016V406.857m.863,22.016V406.857m.863,22.016V406.857m.861,22.016V406.857m.863,22.016V406.857m.863,22.016V406.857M414,428.873V406.857m.865,22.016V406.857m.862,22.016V406.857m.863,22.016V406.857m.861,22.016V406.857m.864,22.016V406.857m.86,22.016V406.857m.865,22.016V406.857m.861,22.016V406.857m.861,22.016V406.857m.864,22.016V406.857m.864,22.016V406.857m.86,22.016V406.857m.863,22.016V406.857m.862,22.016V406.857m.862,22.016V406.857m.865,22.016V406.857m.862,22.016V406.857m.863,22.016V406.857m.861,22.016V406.857m.864,22.016V406.857m.863,22.016V406.857m.863,22.016V406.857m.862,22.016V406.857m.863,22.016V406.857m.861,22.016V406.857m.865,22.016V406.857m.86,22.016V406.857m.863,22.016V406.857" transform="translate(-407.656 -410.856)" fill="none" stroke="#231f20" stroke-miterlimit="3.864" stroke-width="0.152"/>
      </g>
    </g>
    <g id="Group_341" data-name="Group 341" transform="translate(393.966 384.739)">
      <g id="Group_340" data-name="Group 340" clip-path="url(#clip-path)">
        <path id="Path_3090" data-name="Path 3090" d="M407.944,429.075l6.811-5.273c.518.882,1.818,1.507,3.739,0a49.24,49.24,0,0,0,5.043-4.367c.78,1.3,3.169.78,4.782-1.093s8.566-11.1,8.566-11.1c6.929,5.811,6.624,21.759,6.624,21.759Z" transform="translate(-406.391 -391.46)" fill="none" stroke="#231f20" stroke-miterlimit="3.864" stroke-width="0.531"/>
        <line id="Line_83" data-name="Line 83" y2="15.23" transform="translate(19.64 22.154)" fill="none" stroke="#231f20" stroke-miterlimit="3.864" stroke-width="0.609"/>
        <path id="Path_3091" data-name="Path 3091" d="M416.041,419.846v10.967s1.146-4.575,1.509-5.561,1.872-6.757,5.144-8.369c0,0-6.393,2.807-6.653,2.963" transform="translate(-408.045 -393.429)" fill="#ab218e"/>
      </g>
    </g>
    <g id="Group_343" data-name="Group 343" transform="translate(402.514 407.441)">
      <g id="Group_342" data-name="Group 342" clip-path="url(#clip-path-4)">
        <path id="Path_3093" data-name="Path 3093" d="M416.054,431.657l-1.12.306-.2-12.537s5.5-3.059,6.113-3.362,1.631.61,1.631.61l-1.528,2.04-1.22.95c.466-.883.361-1.142.1-1.194a5.717,5.717,0,0,0-2.6,2.285,28.886,28.886,0,0,0-.936,8.734Z" transform="translate(-415.778 -416.703)" fill="#231f20"/>
      </g>
    </g>
    <g id="Group_345" data-name="Group 345" transform="translate(393.966 384.739)">
      <g id="Group_344" data-name="Group 344" clip-path="url(#clip-path)">
        <path id="Path_3095" data-name="Path 3095" d="M416.041,419.846v10.967s1.146-4.575,1.509-5.561,1.872-6.757,5.144-8.369C422.694,416.883,416.3,419.69,416.041,419.846Z" transform="translate(-408.045 -393.429)" fill="none" stroke="#231f20" stroke-miterlimit="3.864" stroke-width="0.531"/>
        <path id="Path_3096" data-name="Path 3096" d="M417.226,399.9c.625-.051,3.217,3.732,4.054,5.822.52,1.3,2.339,7.123,2.339,7.33-2.185,1.246-6.185,2.6-7.638,3.38V402.342c0-.624,0-2.339,1.246-2.445" transform="translate(-408.032 -389.96)" fill="#ffca6c"/>
      </g>
    </g>
    <g id="Group_347" data-name="Group 347" transform="translate(402.448 394.211)">
      <g id="Group_346" data-name="Group 346" clip-path="url(#clip-path-6)">
        <path id="Path_3098" data-name="Path 3098" d="M414.956,417.027l-.612-17.63,3.772-1.123-.134,2.123c-.832-.52-1.455-.729-1.713.367a2.409,2.409,0,0,0,.625,2.131c-.419.517-.419,3.169-.471,3.742a9.863,9.863,0,0,0,3.171-.729.637.637,0,0,1,.728.259,11.6,11.6,0,0,0-1.769,1.508c-.571.676-1.871,2.184-2.34,7.328.055.313.313.52,1.093.1s3.067-1.09,3.792-1.349Z" transform="translate(-415.646 -399.565)" fill="#231f20"/>
      </g>
    </g>
    <g id="Group_349" data-name="Group 349" transform="translate(393.966 384.739)">
      <g id="Group_348" data-name="Group 348" clip-path="url(#clip-path)">
        <path id="Path_3100" data-name="Path 3100" d="M417.226,399.9c.625-.051,3.217,3.732,4.054,5.822.52,1.3,2.339,7.123,2.339,7.33-2.185,1.246-6.185,2.6-7.638,3.38V402.342C415.98,401.719,415.98,400,417.226,399.9Z" transform="translate(-408.032 -389.96)" fill="none" stroke="#231f20" stroke-miterlimit="3.864" stroke-width="0.531"/>
        <path id="Path_3101" data-name="Path 3101" d="M422.751,416.637a2.053,2.053,0,0,1,1.769.831,9.563,9.563,0,0,0,.985.883L428,414.66s-2.959,7.537-2.959,8.422.777,7.017.777,7.017l-2.388-4.68-1.456,4.99s-.054-11.849-.054-12.422a1.423,1.423,0,0,1,.832-1.35" transform="translate(-409.245 -392.975)" fill="#231f20"/>
        <path id="Path_3102" data-name="Path 3102" d="M422.751,416.637a2.053,2.053,0,0,1,1.769.831,9.563,9.563,0,0,0,.985.883L428,414.66s-2.959,7.537-2.959,8.422.777,7.017.777,7.017l-2.388-4.68-1.456,4.99s-.054-11.849-.054-12.422A1.423,1.423,0,0,1,422.751,416.637Z" transform="translate(-409.245 -392.975)" fill="none" stroke="#231f20" stroke-miterlimit="3.864" stroke-width="0.304"/>
        <path id="Path_3103" data-name="Path 3103" d="M424.345,414.139a1.525,1.525,0,0,1,1.248,1.351c-.053.414-.366,1.4-1.2,1.4a1.342,1.342,0,0,1-1.295-1.248c0-.468.517-1.506,1.246-1.506" transform="translate(-409.486 -392.869)" fill="#c1a99d"/>
      </g>
    </g>
    <g id="Group_351" data-name="Group 351" transform="translate(408.068 405.385)">
      <g id="Group_350" data-name="Group 350" clip-path="url(#clip-path-8)">
        <path id="Path_3105" data-name="Path 3105" d="M424.906,414.322c-.52-.155-.52.469-.469.989s-.259,1.091.365.99l-.072,1.139-2.958-.918.613-3.259Z" transform="translate(-422.828 -413.96)" fill="#231f20"/>
      </g>
    </g>
    <g id="Group_353" data-name="Group 353" transform="translate(393.966 384.739)">
      <g id="Group_352" data-name="Group 352" clip-path="url(#clip-path)">
        <path id="Path_3107" data-name="Path 3107" d="M424.345,414.139a1.525,1.525,0,0,1,1.248,1.351c-.053.414-.366,1.4-1.2,1.4a1.342,1.342,0,0,1-1.295-1.248C423.1,415.177,423.616,414.139,424.345,414.139Z" transform="translate(-409.486 -392.869)" fill="none" stroke="#231f20" stroke-miterlimit="3.864" stroke-width="0.531"/>
        <path id="Path_3108" data-name="Path 3108" d="M407.944,414.961v16.407s1.4-6.791,1.767-9.7,1.767-6.811,2.91-6.811Z" transform="translate(-406.391 -393.015)" fill="#231f20"/>
      </g>
    </g>
    <g id="Group_355" data-name="Group 355" transform="translate(396.223 405.841)">
      <g id="Group_354" data-name="Group 354" clip-path="url(#clip-path-10)">
        <path id="Path_3110" data-name="Path 3110" d="M408.192,414.927h1.825c-1.428,2.036-2.444,5.3-1.834,6.827-1.02.512-.512,5.81.3,5.5a24.252,24.252,0,0,1-.712,4.384l-2.138-.918.4-15.8Z" transform="translate(-407.473 -414.869)" fill="#231f20"/>
        <path id="Path_3111" data-name="Path 3111" d="M408.192,414.927h1.825c-1.428,2.036-2.444,5.3-1.834,6.827-1.02.512-.512,5.81.3,5.5a24.252,24.252,0,0,1-.712,4.384l-2.138-.918.4-15.8Z" transform="translate(-407.473 -414.869)" fill="none" stroke="#231f20" stroke-miterlimit="3.864" stroke-width="0.304"/>
      </g>
    </g>
    <g id="Group_357" data-name="Group 357" transform="translate(393.966 384.739)">
      <g id="Group_356" data-name="Group 356" clip-path="url(#clip-path)">
        <path id="Path_3113" data-name="Path 3113" d="M407.944,414.961v16.407s1.4-6.791,1.767-9.7,1.767-6.811,2.91-6.811Z" transform="translate(-406.391 -393.015)" fill="none" stroke="#231f20" stroke-miterlimit="3.864" stroke-width="0.531"/>
        <path id="Path_3114" data-name="Path 3114" d="M407.879,411.531h4.78a18.182,18.182,0,0,0-.154-8.682c-.874-2.66-2.548-4.677-3.329-4.78s-1.248.935-1.248,1.82-.05,11.643-.05,11.643" transform="translate(-406.377 -389.585)" fill="#0059a0"/>
      </g>
    </g>
    <g id="Group_359" data-name="Group 359" transform="translate(396.166 392.797)">
      <g id="Group_358" data-name="Group 358" clip-path="url(#clip-path-12)">
        <path id="Path_3116" data-name="Path 3116" d="M406.146,411.669l.307-12.127,1.333-.557a2.032,2.032,0,0,0,1.245,2.184c-.361,1.038-.154,1.038,0,1.194s.573-.053.779-.415c-1.3,3.43-1.453,7.745-1.038,7.847.575.146.832-2.491,1.038-3.637a9.228,9.228,0,0,1,.833-2.755c-.155,1.144-.467,3.275-.622,4.419s-.366,2.806-.883,2.912-.575-.055-.832-.419a1.54,1.54,0,0,0-.016,1.356Z" transform="translate(-407.525 -398.249)" fill="#231f20"/>
        <path id="Path_3117" data-name="Path 3117" d="M406.146,411.669l.307-12.127,1.333-.557a2.032,2.032,0,0,0,1.245,2.184c-.361,1.038-.154,1.038,0,1.194s.573-.053.779-.415c-1.3,3.43-1.453,7.745-1.038,7.847.575.146.832-2.491,1.038-3.637a9.228,9.228,0,0,1,.833-2.755c-.155,1.144-.467,3.275-.622,4.419s-.366,2.806-.883,2.912-.575-.055-.832-.419a1.54,1.54,0,0,0-.016,1.356Z" transform="translate(-407.525 -398.249)" fill="none" stroke="#231f20" stroke-miterlimit="3.864" stroke-width="0.304"/>
      </g>
    </g>
    <g id="Group_361" data-name="Group 361" transform="translate(393.966 384.739)">
      <g id="Group_360" data-name="Group 360" clip-path="url(#clip-path)">
        <path id="Path_3119" data-name="Path 3119" d="M407.879,411.531h4.78a18.182,18.182,0,0,0-.154-8.682c-.874-2.66-2.548-4.677-3.329-4.78s-1.248.935-1.248,1.82S407.879,411.531,407.879,411.531Z" transform="translate(-406.377 -389.585)" fill="none" stroke="#231f20" stroke-miterlimit="3.864" stroke-width="0.531"/>
        <path id="Path_3120" data-name="Path 3120" d="M416.806,395.327c.883,0,1.456,1.09,1.4,1.871s-.051,1.716-1.143,1.922-.656.187-.968-.02l-1.019-.1c-.208-.986-.2-2.425.218-2.838s.625-.832,1.509-.832" transform="translate(-407.821 -389.026)" fill="#c1a99d"/>
      </g>
    </g>
    <g id="Group_363" data-name="Group 363" transform="translate(401.7 390.707)">
      <g id="Group_362" data-name="Group 362" clip-path="url(#clip-path-14)">
        <path id="Path_3122" data-name="Path 3122" d="M415.619,393.408l-1.529,3.67,1.428,2.956,1.63-1.463c-.724-.1-.517-1.247-.517-1.661s-.156-1.976.73-1.767Z" transform="translate(-414.772 -394.936)" fill="#231f20"/>
      </g>
    </g>
    <g id="Group_365" data-name="Group 365" transform="translate(393.966 384.739)">
      <g id="Group_364" data-name="Group 364" clip-path="url(#clip-path)">
        <path id="Path_3124" data-name="Path 3124" d="M416.806,395.327c.883,0,1.456,1.09,1.4,1.871s-.051,1.716-1.143,1.922-.656.187-.968-.02l-1.019-.1c-.208-.986-.2-2.425.218-2.838S415.923,395.327,416.806,395.327Z" transform="translate(-407.821 -389.026)" fill="none" stroke="#231f20" stroke-miterlimit="3.864" stroke-width="0.531"/>
        <path id="Path_3125" data-name="Path 3125" d="M410,392.649a1.9,1.9,0,0,0-1.923,2.234c.1,1.613.777,2.183,1.3,2.234a2.048,2.048,0,0,0,2.181-2.129c.107-1.925-.934-2.339-1.557-2.339" transform="translate(-406.415 -388.479)" fill="#c1a99d"/>
      </g>
    </g>
    <g id="Group_367" data-name="Group 367" transform="translate(396.331 388.908)">
      <g id="Group_366" data-name="Group 366" clip-path="url(#clip-path-16)">
        <path id="Path_3127" data-name="Path 3127" d="M409.215,392.715c.727.154.937,1.3.831,2.078a1.624,1.624,0,0,1-.623,1.245c-.26.211-.313.73.209.73a3.762,3.762,0,0,0,1.453-.676l-.933,1.861-2.854-.917v-4.077Z" transform="translate(-407.909 -392.662)" fill="#231f20"/>
      </g>
    </g>
    <g id="Group_369" data-name="Group 369" transform="translate(393.966 384.739)">
      <g id="Group_368" data-name="Group 368" clip-path="url(#clip-path)">
        <path id="Path_3129" data-name="Path 3129" d="M410,392.649a1.9,1.9,0,0,0-1.923,2.234c.1,1.613.777,2.183,1.3,2.234a2.048,2.048,0,0,0,2.181-2.129C411.659,393.064,410.619,392.649,410,392.649Z" transform="translate(-406.415 -388.479)" fill="none" stroke="#231f20" stroke-miterlimit="3.864" stroke-width="0.531"/>
        <path id="Path_3130" data-name="Path 3130" d="M422.785,418.082c.438-.571,2.394.988,2.756,1.249l1.145-1.4c-.156.937-.416,1.665-.727,1.768a7.9,7.9,0,0,1-1.51.052,22.488,22.488,0,0,0,.209,3.95,6.508,6.508,0,0,1-1.874-.105c-.1-.882-.673-2.546.886-3.067a2.269,2.269,0,0,1-.886-2.443" transform="translate(-409.384 -393.642)" fill="#00aeef"/>
        <path id="Path_3131" data-name="Path 3131" d="M422.647,425.439a.841.841,0,0,1,.833,1.2c-.31.933-.986,3.275-.986,3.275s-.208-4.471.153-4.471" transform="translate(-409.351 -395.177)" fill="#fff200"/>
        <path id="Path_3132" data-name="Path 3132" d="M420.029,408.456A20.348,20.348,0,0,1,418,410.9c0-.261.1-1.718.1-1.718.623-.207,1.923-.727,1.923-.727" transform="translate(-408.445 -391.708)" fill="#ffca6c"/>
        <path id="Path_3133" data-name="Path 3133" d="M426.893,410.812a3.058,3.058,0,1,1,3.057,3.056,3.06,3.06,0,0,1-3.057-3.056" transform="translate(-410.261 -391.564)" fill="#907156"/>
        <path id="Path_3134" data-name="Path 3134" d="M426.893,410.812a3.058,3.058,0,1,1,3.057,3.056A3.06,3.06,0,0,1,426.893,410.812Z" transform="translate(-410.261 -391.564)" fill="none" stroke="#231f20" stroke-miterlimit="3.864" stroke-width="0.531"/>
        <path id="Path_3135" data-name="Path 3135" d="M429.456,411.463a1.019,1.019,0,1,1,1.018,1.018,1.022,1.022,0,0,1-1.018-1.018" transform="translate(-410.785 -392.113)" fill="#54b948"/>
        <path id="Path_3136" data-name="Path 3136" d="M429.456,411.463a1.019,1.019,0,1,1,1.018,1.018A1.022,1.022,0,0,1,429.456,411.463Z" transform="translate(-410.785 -392.113)" fill="none" stroke="#231f20" stroke-miterlimit="3.864" stroke-width="0.304"/>
      </g>
    </g>
    <path id="Path_3138" data-name="Path 3138" d="M406.048,426.724h31.729A35.525,35.525,0,0,0,434.6,408.7c-5.457-12.072-20.191-18.207-28.612-21.294Z" transform="translate(-12.026 -2.67)" fill="none" stroke="#231f20" stroke-miterlimit="1" stroke-width="0.353"/>
    <path id="Path_3139" data-name="Path 3139" d="M416.933,468.746c-2.443,2.525-5.151,5.081-7.938,7.453v-7.443l.01-.01Zm-17.773,0-.015,3.219c.429.364.858.727,1.29,1.082,1.175,1.176,2.684.777,3.976-.255.947-.783,1.889-1.595,2.814-2.422v7.3c-1.034.873-1.854,1.494-2.811,2.19a3.809,3.809,0,0,1-4.478-.127c-1.915-1.447-3.842-3.031-5.717-4.684l.015-6.3Zm-11.519,0c1.437,1.494,2.973,3,4.561,4.473v-4.473Z" transform="translate(-7.496 -21.238)" fill="#f47b20"/>
    <path id="Path_3140" data-name="Path 3140" d="M406.536,463.374c2.066-1.932,3.547-3.38,5.312-5.311,1.442-1.347.817-2.742-.391-3.281a13.784,13.784,0,0,1-1.912-.981,5.827,5.827,0,0,1-3.06-5.5,5.746,5.746,0,0,1,5.75-5.855c3.219,0,14.772.017,14.772.017a35.851,35.851,0,0,1-1.556,4.9H412.876a1.357,1.357,0,0,0-1.418,1.322,1.55,1.55,0,0,0,.87,1.512c.766.435,2.579,1.552,3.755,2.189,3.364,1.829,2.979,5.769.428,8.807-.656.72-1.341,1.451-2.048,2.182Zm-14.775,0,.04-20.93h13v4.915h-8.082v6.332h7.727v4.256h-7.727l-.025,5.427Zm-2.027,0V460.1c-1.214-1.238-2.367-2.474-3.429-3.676a41.166,41.166,0,0,1-4.715-6.475c-.449-1.554-.193-2.56,1.953-2.56h6.13v-4.926H381.02c-5.3,0-6.565,6.187-4.6,9.625a46.257,46.257,0,0,0,5.719,8.012c.948,1.073,1.961,2.172,3.03,3.278Z" transform="translate(-5.101 -15.219)" fill="#f47b20"/>
    <path id="Path_3141" data-name="Path 3141" d="M389.731,460.1c-1.211-1.238-2.367-2.474-3.424-3.673a41.2,41.2,0,0,1-4.72-6.48c-.444-1.549-.191-2.558,1.954-2.558h6.13v-4.926H381.02c-5.3,0-6.566,6.187-4.6,9.625a46.217,46.217,0,0,0,5.72,8.012c2.222,2.519,4.826,5.184,7.591,7.747Zm2.069-17.654h12.995v4.911h-8.079v6.336h7.727v4.258h-7.727l-.041,8.643c.429.364.858.727,1.29,1.082,1.175,1.176,2.684.773,3.976-.259.947-.779,1.889-1.589,2.814-2.418v7.3c-1.034.874-1.854,1.494-2.811,2.191a3.807,3.807,0,0,1-4.478-.128c-1.917-1.445-3.842-3.029-5.717-4.685Zm24.71,18.749a111.937,111.937,0,0,1-9.989,9.633v-7.44c2.072-1.936,3.558-3.387,5.327-5.325,1.443-1.346.817-2.741-.393-3.28a14.043,14.043,0,0,1-1.91-.983,5.821,5.821,0,0,1-3.059-5.5,5.743,5.743,0,0,1,5.748-5.855c3.221,0,14.77.017,14.77.017a35.47,35.47,0,0,1-1.554,4.9H412.874a1.357,1.357,0,0,0-1.419,1.322,1.546,1.546,0,0,0,.872,1.51c.765.437,2.579,1.555,3.755,2.191C419.448,454.214,419.064,458.156,416.511,461.193Z" transform="translate(-5.101 -15.866)" fill="none" stroke="#231f20" stroke-miterlimit="3.864" stroke-width="0.709"/>
  </g>
</svg>
