<?xml version="1.0" encoding="utf-8"?>
<!-- Generator: Adobe Illustrator 16.0.3, SVG Export Plug-In . SVG Version: 6.00 Build 0)  -->
<!DOCTYPE svg PUBLIC "-//W3C//DTD SVG 1.0//EN" "http://www.w3.org/TR/2001/REC-SVG-20010904/DTD/svg10.dtd">
<svg version="1.0" id="Capa_1" xmlns="http://www.w3.org/2000/svg" xmlns:xlink="http://www.w3.org/1999/xlink" x="0px" y="0px"
	 width="73.657px" height="75.156px" viewBox="0 0 73.657 75.156" enable-background="new 0 0 73.657 75.156" xml:space="preserve">
<path fill="#FFFFFF" stroke="#293340" stroke-width="2" d="M33.401,42.37"/>
<g>
	<defs>
		<path id="Path_3825" d="M36.797,74.156l-0.648-0.372c-13.056-7.44-21.872-16.329-26.231-26.411
			c-5.113-11.841-1.742-27.401,7.678-35.416c2.62-2.19,5.51-4.033,8.6-5.485c1.993-1.03,3.97-1.982,5.954-2.934
			c1.358-0.649,2.711-1.3,4.067-1.979l0.589-0.29l0.579,0.29c1.399,0.7,2.784,1.363,4.171,2.022c1.96,0.939,3.911,1.88,5.88,2.891
			c3.113,1.454,6.024,3.307,8.659,5.512c9.391,8,12.755,23.552,7.646,35.389C59.403,57.426,50.554,66.313,37.45,73.784
			L36.797,74.156z"/>
	</defs>
	<defs>
		<path id="Path_3825_1_" d="M36.797,74.156l-0.648-0.372c-13.056-7.44-21.872-16.329-26.231-26.411
			c-5.113-11.841-1.742-27.401,7.678-35.416c2.62-2.19,5.51-4.033,8.6-5.485c1.993-1.03,3.97-1.982,5.954-2.934
			c1.358-0.649,2.711-1.3,4.067-1.979l0.589-0.29l0.579,0.29c1.399,0.7,2.784,1.363,4.171,2.022c1.96,0.939,3.911,1.88,5.88,2.891
			c3.113,1.454,6.024,3.307,8.659,5.512c9.391,8,12.755,23.552,7.646,35.389C59.403,57.426,50.554,66.313,37.45,73.784
			L36.797,74.156z"/>
	</defs>
	<clipPath id="Path_3825_2_">
		<use xlink:href="#Path_3825"  overflow="visible"/>
	</clipPath>
	<clipPath id="Path_3825_3_" clip-path="url(#Path_3825_2_)">
		<use xlink:href="#Path_3825_1_"  overflow="visible"/>
	</clipPath>
	
		<rect x="22.119" y="18.397" clip-path="url(#Path_3825_3_)" fill="#0077FF" stroke="#313131" stroke-width="2" width="37.667" height="42.333"/>
	<use xlink:href="#Path_3825"  overflow="visible" fill="none" stroke="#313131" stroke-width="2" stroke-miterlimit="10"/>
	<use xlink:href="#Path_3825_1_"  overflow="visible" fill="none" stroke="#313131" stroke-width="2" stroke-miterlimit="10"/>
</g>
<rect x="18.506" y="13.911" fill="#FFFFFF" stroke="#293340" stroke-width="2" width="37.667" height="42.333"/>
<line fill="none" stroke="#293340" stroke-width="2" x1="32.454" y1="28.828" x2="50.788" y2="28.828"/>
<line fill="none" stroke="#293340" stroke-width="2" x1="22.111" y1="19.328" x2="41.621" y2="19.328"/>
<line fill="none" stroke="#293340" stroke-width="2" x1="32.454" y1="38.453" x2="50.788" y2="38.453"/>
<line fill="none" stroke="#293340" stroke-width="2" x1="32.454" y1="48.578" x2="50.788" y2="48.578"/>
<rect x="23.111" y="35.745" fill="#FFFFFF" stroke="#0077FF" width="6.271" height="5.416"/>
<circle fill="#FFFFFF" stroke="#0077FF" cx="26.247" cy="28.828" r="3.333"/>
<polygon fill="#FFFFFF" stroke="#0077FF" points="26.247,44.495 22.914,50.078 29.382,50.078 "/>
</svg>
