<svg xmlns="http://www.w3.org/2000/svg" width="73.657" height="75.155" viewBox="0 0 73.657 75.155">
  <g id="Group_654" data-name="Group 654" transform="translate(886.756 5013.396)">
    <path id="Path_3825" data-name="Path 3825" d="M1188.308,773.887l-.648-.372c-13.056-7.441-21.873-16.329-26.232-26.412-5.113-11.84-1.742-27.4,7.678-35.415a39.772,39.772,0,0,1,8.6-5.485c1.992-1.03,3.97-1.982,5.953-2.934,1.359-.649,2.711-1.3,4.068-1.979l.589-.29.579.29c1.4.7,2.785,1.363,4.171,2.022,1.96.939,3.911,1.88,5.88,2.891a39.594,39.594,0,0,1,8.659,5.512c9.391,8,12.755,23.552,7.646,35.388-4.337,10.053-13.186,18.94-26.29,26.412Z" transform="translate(-2044.755 -5713.279)" fill="#fff" stroke="#293340" stroke-width="2"/>
    <g id="Group_107" data-name="Group 107" transform="translate(-880.118 -4996.468)">
      <g id="Rectangle_54" data-name="Rectangle 54" transform="translate(18.234 31.931)" fill="#fff" stroke="#293340" stroke-width="2">
        <rect width="11.221" height="5.024" stroke="none"/>
        <rect x="1" y="1" width="9.221" height="3.024" fill="none"/>
      </g>
      <g id="Rectangle_53" data-name="Rectangle 53" transform="translate(0 0)" fill="#fff" stroke="#293340" stroke-width="2">
        <rect width="47.689" height="33.29" rx="3" stroke="none"/>
        <rect x="1" y="1" width="45.689" height="31.29" rx="2" fill="none"/>
      </g>
      <rect id="Rectangle_57" data-name="Rectangle 57" width="44.735" height="8.057" rx="1" transform="translate(1.477 1.455)" fill="#07f"/>
      <line id="Line_20" data-name="Line 20" x2="24.967" transform="translate(10.737 36.522)" fill="none" stroke="#293340" stroke-linecap="round" stroke-width="2"/>
      <path id="Path_1671" data-name="Path 1671" d="M1167.226,720.07l-.181-.1c-3.65-1.947-6.115-4.272-7.333-6.91a7.992,7.992,0,0,1,2.146-9.266,11.225,11.225,0,0,1,2.4-1.435c.557-.269,1.11-.518,1.664-.768.38-.17.758-.34,1.137-.518l.165-.076.162.076c.391.182.779.356,1.166.529.548.246,1.094.492,1.644.756a11.169,11.169,0,0,1,2.421,1.442,7.991,7.991,0,0,1,2.138,9.259c-1.212,2.63-3.686,4.955-7.35,6.91Z" transform="translate(-1143.199 -689.699)" fill="#07f" stroke="#293340" stroke-width="2"/>
      <g id="Group_262" data-name="Group 262" transform="translate(18.222 14.365)">
        <g id="Group_260" data-name="Group 260">
          <path id="Path_2495" data-name="Path 2495" d="M-932.814-117.163l-5.791-12.1-5.791,12.1" transform="translate(944.395 129.265)" fill="none" stroke="#fff" stroke-linecap="round" stroke-linejoin="round" stroke-width="2"/>
          <line id="Line_80" data-name="Line 80" x2="7.205" transform="translate(2.188 7.529)" fill="none" stroke="#fff" stroke-linecap="round" stroke-linejoin="round" stroke-width="2"/>
        </g>
      </g>
    </g>
    <g id="Group_653" data-name="Group 653" transform="translate(-196 -116)">
      <g id="Group_279" data-name="Group 279" transform="translate(-645.885 -4855.071)">
        <g id="Group_110" data-name="Group 110" transform="translate(0 0)">
          <path id="Path_1678" data-name="Path 1678" d="M471.043,1129.177a21.877,21.877,0,0,1-6.752.232,11.811,11.811,0,0,1-5.161-3c-.536-.6-3.729-3.832-3.365-4.881a8.191,8.191,0,0,1,1.917-2.422l-7.306-7.448-.222-.928s.908-1.473,1.393-1.7a1.669,1.669,0,0,1,2.341.262c1.049,1.09,3.794,3.714,3.794,3.714s1.332-3.007,2.947-2.381a1.12,1.12,0,0,1,.605,0s1.251-1.756,2.038-1.938,2.18.828,2.22.868a2.456,2.456,0,0,1,2.24-1.332c1.292.182,3.048,2.058,3.451,2.4a56.252,56.252,0,0,1,4.3,4.622c.646.949,2.644,4.541,2.341,7.367S471.835,1128.925,471.043,1129.177Z" transform="translate(-450.082 -1108.112)" fill="#fff" stroke="#293340" stroke-width="2"/>
          <g id="Group_108" data-name="Group 108">
            <path id="Path_1673" data-name="Path 1673" d="M918.963,116.758l-7.936-7.936c-.875-.875-1.894-1.021-3.029.114s-.99,2.154-.115,3.029l11.757,11.757" transform="translate(-907.187 -107.72)" fill="rgba(0,0,0,0)" stroke="#293340" stroke-linecap="round" stroke-miterlimit="10" stroke-width="2"/>
            <path id="Path_1674" data-name="Path 1674" d="M938.85,112.424,936,109.571c-1.206-1.207-2.263-1.7-3.434-.73a2.749,2.749,0,0,0-1.078,1.627" transform="translate(-920.084 -107.828)" fill="rgba(0,0,0,0)" stroke="#293340" stroke-linecap="round" stroke-miterlimit="10" stroke-width="2"/>
            <path id="Path_1676" data-name="Path 1676" d="M921.1,131.172a6.815,6.815,0,0,0-1.095.9c-.788.788-.757,2,.237,3.238a35.5,35.5,0,0,0,2.49,2.854,8.127,8.127,0,0,0,5.076,2.873,28.426,28.426,0,0,0,6.627.015" transform="translate(-913.698 -119.954)" fill="rgba(0,0,0,0)" stroke="#293340" stroke-linecap="round" stroke-miterlimit="10" stroke-width="2"/>
            <path id="Path_1677" data-name="Path 1677" d="M930.791,115.925l-2.645-2.646c-1.206-1.206-2.617-1.963-3.86-.72a5.082,5.082,0,0,0-1.295,1.844" transform="translate(-915.576 -109.736)" fill="rgba(0,0,0,0)" stroke="#293340" stroke-linecap="round" stroke-miterlimit="10" stroke-width="2"/>
          </g>
        </g>
      </g>
    </g>
  </g>
</svg>
