<?xml version="1.0" encoding="utf-8"?>
<!-- Generator: Adobe Illustrator 16.0.3, SVG Export Plug-In . SVG Version: 6.00 Build 0)  -->
<!DOCTYPE svg PUBLIC "-//W3C//DTD SVG 1.0//EN" "http://www.w3.org/TR/2001/REC-SVG-20010904/DTD/svg10.dtd">
<svg version="1.0" id="Capa_1" xmlns="http://www.w3.org/2000/svg" xmlns:xlink="http://www.w3.org/1999/xlink" x="0px" y="0px"
	 width="73.657px" height="75.156px" viewBox="0 0 73.657 75.156" enable-background="new 0 0 73.657 75.156" xml:space="preserve">
<g>
	<g>
		<defs>
			<path id="SVGID_1_" d="M37.668,74.021L37.02,73.65c-13.056-7.441-21.873-16.33-26.232-26.412
				c-5.113-11.84-1.742-27.4,7.678-35.416c2.62-2.19,5.51-4.033,8.6-5.485c1.992-1.03,3.97-1.982,5.953-2.934
				c1.359-0.649,2.711-1.3,4.068-1.979l0.589-0.29l0.578,0.29c1.399,0.7,2.785,1.363,4.172,2.022c1.96,0.939,3.91,1.88,5.88,2.891
				c3.112,1.454,6.024,3.307,8.659,5.512c9.391,8,12.755,23.552,7.646,35.389c-4.337,10.053-13.187,18.938-26.29,26.412
				L37.668,74.021z"/>
		</defs>
		<clipPath id="SVGID_2_">
			<use xlink:href="#SVGID_1_"  overflow="visible"/>
		</clipPath>
	</g>
	<g>
		<path id="Path_3825" fill="none" stroke="#293340" stroke-width="2" d="M37.668,74.021L37.02,73.65
			c-13.056-7.441-21.873-16.33-26.232-26.412c-5.113-11.84-1.742-27.4,7.678-35.416c2.62-2.19,5.51-4.033,8.6-5.485
			c1.992-1.03,3.97-1.982,5.953-2.934c1.359-0.649,2.711-1.3,4.068-1.979l0.589-0.29l0.578,0.29c1.399,0.7,2.785,1.363,4.172,2.022
			c1.96,0.939,3.91,1.88,5.88,2.891c3.112,1.454,6.024,3.307,8.659,5.512c9.391,8,12.755,23.552,7.646,35.389
			c-4.337,10.053-13.187,18.938-26.29,26.412L37.668,74.021z"/>
	</g>
</g>
<polygon fill="#0077FF" stroke="#293340" stroke-width="2" points="37.7,16.244 12.704,30.161 37.7,44.078 62.454,30.161 "/>
<polyline fill="none" stroke="#293340" stroke-width="2" points="37.329,30.161 54.974,35.05 54.974,42.578 "/>
<polygon fill="#0077FF" stroke="#293340" stroke-width="2" points="54.974,46.266 51.786,54.078 58.163,54.078 "/>
<circle fill="#0077FF" stroke="#293340" stroke-width="2" cx="54.974" cy="43.48" r="3.188"/>
<path fill="none" stroke="#293340" stroke-width="2" d="M20.82,34.745V46.07c0,0,12.839,10.199,28.509,1.884"/>
</svg>
