<?xml version="1.0" encoding="utf-8"?>
<!-- Generator: Adobe Illustrator 16.0.3, SVG Export Plug-In . SVG Version: 6.00 Build 0)  -->
<!DOCTYPE svg PUBLIC "-//W3C//DTD SVG 1.1//EN" "http://www.w3.org/Graphics/SVG/1.1/DTD/svg11.dtd">
<svg version="1.1" id="Capa_1" xmlns="http://www.w3.org/2000/svg" xmlns:xlink="http://www.w3.org/1999/xlink" x="0px" y="0px"
	 width="72.049px" height="74.25px" viewBox="0 0 72.049 74.25" enable-background="new 0 0 72.049 74.25" xml:space="preserve">
<g id="Group_740" transform="translate(-853 -1333.875)">
	<path id="Path_3871" fill="#FFFFFF" d="M889.919,1407l-0.664-0.367c-13.371-7.352-22.4-16.131-26.865-26.092
		c-5.237-11.699-1.784-27.064,7.863-34.984c2.692-2.17,5.649-3.99,8.8-5.418c2.04-1.016,4.066-1.957,6.1-2.898
		c1.392-0.643,2.776-1.285,4.166-1.955l0.6-0.287l0.594,0.287c1.434,0.688,2.854,1.346,4.271,2c2.008,0.928,4.006,1.855,6.021,2.855
		c3.176,1.428,6.156,3.258,8.867,5.445c9.618,7.9,13.063,23.266,7.83,34.957c-4.439,9.932-13.5,18.709-26.924,26.092L889.919,1407z"
		/>
	<path id="Subtraction_6" fill="#293340" d="M889.917,1408.125L889.917,1408.125l-1.146-0.635
		c-12.47-6.854-21.261-14.988-26.128-24.174h2.279c4.776,8.453,13.125,16,24.815,22.424l0.184,0.102l0.184-0.102
		c13.23-7.275,22.146-15.898,26.494-25.623c5.059-11.299,1.74-26.139-7.553-33.775l-0.035-0.031c-2.645-2.123-5.549-3.9-8.644-5.289
		c-1.935-0.959-3.86-1.857-6-2.846c-1.062-0.486-2.661-1.223-4.285-2l-0.164-0.08l-0.168,0.082
		c-1.505,0.725-2.958,1.398-4.179,1.959c-1.863,0.863-3.975,1.842-6.068,2.887c-0.6,0.299-1.183,0.6-1.722,0.879l-2.412-0.975
		c0.974-0.537,2.064-1.105,3.239-1.693c2.087-1.041,4.215-2.027,6.092-2.9l0.031-0.014c1.13-0.521,2.624-1.213,4.152-1.949
		l1.042-0.494l1.023,0.494c1.537,0.738,3.082,1.451,4.255,1.99c2.026,0.938,4.015,1.861,6.049,2.869
		c3.252,1.465,6.304,3.34,9.076,5.582c5.015,4.297,8.463,10.135,9.808,16.6c1.531,6.525,0.932,13.369-1.716,19.526
		c-4.53,10.132-13.733,19.066-27.354,26.558l-1.148,0.635V1408.125z"/>
	<path id="Path_3872" fill="#FFFFFF" stroke="#293340" stroke-width="2" stroke-linecap="round" stroke-linejoin="round" d="
		M908.547,1366.332"/>
	<g id="Group_739" transform="matrix(0.966, -0.259, 0.259, 0.966, -321.56, 272.793)">
		<path id="Rectangle_48" fill="#FFFFFF" stroke="#293340" stroke-width="2" stroke-linecap="round" stroke-linejoin="round" d="
			M878.386,1359.67l31.469,0c3.747-0.001,6.784,3.036,6.785,6.782l-0.001,17.611c0,3.748-3.036,6.784-6.782,6.784l-31.469,0.002
			c-3.746-0.001-6.783-3.038-6.783-6.783l0-17.613C871.604,1362.706,874.64,1359.671,878.386,1359.67z"/>
		<path id="Rectangle_276" fill="#0077FF" d="M904.782,1365.591l3.036,0.001c1.656,0,3,1.342,2.999,3l0,0.536
			c0.002,1.656-1.341,3-3,2.999l-3.035,0.001c-1.658,0-3-1.342-3.001-3l0-0.536C901.781,1366.935,903.125,1365.591,904.782,1365.591
			z"/>
	</g>
	<g id="Group_738" transform="translate(104.773 -164.131)">
		<path id="Path_1651" fill="#FFFFFF" stroke="#293340" stroke-width="2" stroke-linecap="round" stroke-linejoin="round" d="
			M778.127,1518.08"/>
		<path id="Path_1657" fill="none" stroke="#293340" stroke-width="2" stroke-linecap="round" d="M763.938,1506.131
			c5.425,0,9.822,4.396,9.822,9.822l0,0v9.094c0,5.426-4.397,9.823-9.822,9.823c-5.424,0-9.822-4.397-9.822-9.823v-9.094
			C754.116,1510.527,758.514,1506.131,763.938,1506.131z"/>
		<path id="Rectangle_48-2" fill="#FFFFFF" stroke="#293340" stroke-width="2" stroke-linecap="round" stroke-linejoin="round" d="
			M756.01,1523.252h16.434c3.747,0,6.783,3.037,6.783,6.783v7.204c0,3.745-3.037,6.78-6.783,6.78H756.01
			c-3.747,0-6.783-3.035-6.783-6.78v-7.204C749.227,1526.289,752.264,1523.252,756.01,1523.252z"/>
		<path id="Path_1653" fill="#0077FF" stroke="#293340" stroke-width="2" stroke-linecap="round" stroke-linejoin="round" d="
			M765.816,1532.768c-0.232-0.195-0.489-0.357-0.764-0.486c-0.174-0.09-0.346-0.172-0.519-0.256
			c-0.122-0.057-0.244-0.115-0.368-0.178l-0.051-0.023l-0.052,0.023c-0.12,0.061-0.239,0.117-0.359,0.174
			c-0.175,0.084-0.349,0.168-0.525,0.26c-0.272,0.129-0.527,0.291-0.758,0.484c-0.851,0.799-1.12,2.042-0.677,3.121
			c0.422,0.879,1.096,1.609,1.937,2.102v2.787c0,0.24,0.193,0.433,0.431,0.433c0.238,0,0.432-0.191,0.432-0.433v-2.785
			c0.844-0.489,1.522-1.223,1.946-2.102C766.933,1534.81,766.665,1533.568,765.816,1532.768z"/>
		<g id="Group_92" transform="translate(755.997 1524.196)">
			<path id="Path_1654" fill="#293340" d="M2.123,3.651L2.174,5.11H1.508l0.056-1.459l-1.25,0.783l-0.315-0.609l1.281-0.65
				L0.005,2.519l0.313-0.588l1.245,0.766l-0.05-1.448h0.66L2.122,2.702l1.24-0.771l0.325,0.588l-1.29,0.662l1.29,0.65l-0.33,0.6
				L2.123,3.651z"/>
			<path id="Path_1655" fill="#293340" d="M8.741,3.651L8.792,5.11H8.126l0.056-1.459l-1.25,0.783L6.617,3.825l1.281-0.65
				L6.623,2.519l0.315-0.588l1.245,0.766L8.132,1.249h0.661L8.742,2.702l1.24-0.771l0.325,0.588L9.016,3.181l1.291,0.65l-0.33,0.6
				L8.741,3.651z"/>
			<path id="Path_1656" fill="#293340" d="M15.358,3.651l0.051,1.459h-0.665L14.8,3.651l-1.25,0.783l-0.315-0.609l1.28-0.65
				L13.24,2.519l0.315-0.588L14.8,2.696l-0.051-1.447h0.66l-0.051,1.453l1.24-0.771l0.325,0.588l-1.29,0.662l1.29,0.65l-0.33,0.6
				L15.358,3.651z"/>
		</g>
	</g>
	<g id="Group_737" transform="translate(7.006 7.33)">
		<path id="Rectangle_48-3" fill="#FFFFFF" stroke="#293340" stroke-width="2" stroke-linecap="round" stroke-linejoin="round" d="
			M878.386,1359.67h31.47c3.746,0,6.783,3.037,6.783,6.783v17.613c0,3.746-3.037,6.781-6.783,6.781h-31.47
			c-3.747,0-6.783-3.035-6.783-6.781v-17.613C871.603,1362.707,874.64,1359.67,878.386,1359.67z"/>
		<rect id="Rectangle_276-2" x="872.581" y="1367.592" fill="#0077FF" width="43.032" height="6.535"/>
	</g>
</g>
</svg>
