<svg xmlns="http://www.w3.org/2000/svg" xmlns:xlink="http://www.w3.org/1999/xlink" width="60.677" height="75.155" viewBox="0 0 60.677 75.155">
  <defs>
    <clipPath id="clip-path">
      <rect id="Rectangle_44" data-name="Rectangle 44" width="38.916" height="44.946" rx="7" fill="none" stroke="#293340" stroke-linejoin="round" stroke-width="2"/>
    </clipPath>
  </defs>
  <g id="icon_calendario_academico" transform="translate(894.545 5168.396)">
    <path id="Path_3826" data-name="Path 3826" d="M1188.308,773.887l-.648-.372c-13.056-7.441-21.873-16.329-26.232-26.412-5.113-11.84-1.742-27.4,7.678-35.415a39.772,39.772,0,0,1,8.6-5.485c1.992-1.03,3.97-1.982,5.953-2.934,1.359-.649,2.711-1.3,4.068-1.979l.589-.29.579.29c1.4.7,2.785,1.363,4.171,2.022,1.96.939,3.911,1.88,5.88,2.891a39.594,39.594,0,0,1,8.659,5.512c9.391,8,12.755,23.552,7.646,35.388-4.337,10.053-13.186,18.94-26.29,26.412Z" transform="translate(-2052.545 -5868.279)" fill="#fff" stroke="#293340" stroke-width="2"/>
    <g id="Group_94" data-name="Group 94" transform="translate(-883.996 -5157.54)">
      <g id="Group_90" data-name="Group 90">
        <g id="Mask_Group_1" data-name="Mask Group 1" transform="translate(0 3.583)" clip-path="url(#clip-path)">
          <path id="Path_2493" data-name="Path 2493" d="M0,0H39.267V14.183H0Z" fill="#07f"/>
        </g>
        <g id="Path_1660" data-name="Path 1660" transform="translate(0.046 3.583)" fill="none">
          <path d="M5.89,0H33.027a5.89,5.89,0,0,1,5.89,5.89V39.056a5.89,5.89,0,0,1-5.89,5.89H5.89A5.89,5.89,0,0,1,0,39.056V5.89A5.89,5.89,0,0,1,5.89,0Z" stroke="none"/>
          <path d="M 5.889656066894531 2 C 3.744888305664062 2 1.999996185302734 3.744880676269531 1.999996185302734 5.889629364013672 L 1.999996185302734 39.05607223510742 C 1.999996185302734 41.20082092285156 3.744888305664062 42.94570159912109 5.889656066894531 42.94570159912109 L 33.02677917480469 42.94570159912109 C 35.17154693603516 42.94570159912109 36.91643905639648 41.20082092285156 36.91643905639648 39.05607223510742 L 36.91643905639648 5.889629364013672 C 36.91643905639648 3.744880676269531 35.17154693603516 2 33.02677917480469 2 L 5.889656066894531 2 M 5.889656066894531 0 L 33.02677917480469 0 C 36.27954864501953 0 38.91643905639648 2.636878967285156 38.91643905639648 5.889629364013672 L 38.91643905639648 39.05607223510742 C 38.91643905639648 42.30882263183594 36.27954864501953 44.94570159912109 33.02677917480469 44.94570159912109 L 5.889656066894531 44.94570159912109 C 2.636886596679688 44.94570159912109 -3.814697265625e-06 42.30882263183594 -3.814697265625e-06 39.05607223510742 L -3.814697265625e-06 5.889629364013672 C -3.814697265625e-06 2.636878967285156 2.636886596679688 0 5.889656066894531 0 Z" stroke="none" fill="#293340"/>
        </g>
        <g id="Rectangle_240" data-name="Rectangle 240" transform="translate(16.824)" fill="#ececec" stroke="#293340" stroke-linejoin="round" stroke-width="2">
          <rect width="6.698" height="9.707" rx="3.349" stroke="none"/>
          <rect x="1" y="1" width="4.698" height="7.707" rx="2.349" fill="none"/>
        </g>
        <g id="Rectangle_241" data-name="Rectangle 241" transform="translate(6.824)" fill="#ececec" stroke="#293340" stroke-linejoin="round" stroke-width="2">
          <rect width="6.698" height="9.707" rx="3.349" stroke="none"/>
          <rect x="1" y="1" width="4.698" height="7.707" rx="2.349" fill="none"/>
        </g>
        <g id="Rectangle_242" data-name="Rectangle 242" transform="translate(26.824)" fill="#ececec" stroke="#293340" stroke-linejoin="round" stroke-width="2">
          <rect width="6.698" height="9.707" rx="3.349" stroke="none"/>
          <rect x="1" y="1" width="4.698" height="7.707" rx="2.349" fill="none"/>
        </g>
      </g>
    </g>
    <g id="Group_305" data-name="Group 305" transform="translate(-884.568 -5170.803)">
      <line id="Line_21" data-name="Line 21" x2="16.037" transform="translate(12.488 37.326)" fill="none" stroke="#293340" stroke-linecap="round" stroke-width="2"/>
    </g>
    <g id="Group_658" data-name="Group 658" transform="translate(-884.568 -5163.803)">
      <line id="Line_21-2" data-name="Line 21" x2="16.037" transform="translate(12.488 37.326)" fill="none" stroke="#293340" stroke-linecap="round" stroke-width="2"/>
      <line id="Line_127" data-name="Line 127" x2="16.037" transform="translate(12.488 43.326)" fill="none" stroke="#293340" stroke-linecap="round" stroke-width="2"/>
    </g>
    <path id="Path_3827" data-name="Path 3827" d="M-1193.806,2168.67c-.554-.15-6.966,0-6.966,0s-3.937.593-4.037,4.492,0,6.738,0,6.738h.372l10.631-10.931Z" transform="translate(346.726 -7290.917)" fill="#07f"/>
  </g>
</svg>
