<?xml version="1.0" encoding="utf-8"?>
<!-- Generator: Adobe Illustrator 16.0.3, SVG Export Plug-In . SVG Version: 6.00 Build 0)  -->
<!DOCTYPE svg PUBLIC "-//W3C//DTD SVG 1.0//EN" "http://www.w3.org/TR/2001/REC-SVG-20010904/DTD/svg10.dtd">
<svg version="1.0" id="Capa_1" xmlns="http://www.w3.org/2000/svg" xmlns:xlink="http://www.w3.org/1999/xlink" x="0px" y="0px"
	 width="73.657px" height="75.156px" viewBox="0 0 73.657 75.156" enable-background="new 0 0 73.657 75.156" xml:space="preserve">
<g>
	<defs>
		<path id="Path_3825" d="M37.309,74.004l-0.648-0.372C23.605,66.191,14.788,57.303,10.429,47.22
			c-5.113-11.84-1.742-27.4,7.678-35.415c2.62-2.19,5.51-4.033,8.6-5.485c1.992-1.03,3.97-1.982,5.953-2.934
			c1.359-0.649,2.711-1.3,4.068-1.979l0.589-0.29l0.579,0.29c1.399,0.7,2.784,1.363,4.171,2.022c1.96,0.939,3.911,1.88,5.88,2.891
			c3.113,1.454,6.024,3.307,8.659,5.512c9.391,8,12.755,23.552,7.646,35.388C59.915,57.273,51.066,66.16,37.961,73.632
			L37.309,74.004z"/>
	</defs>
	<use xlink:href="#Path_3825"  overflow="visible" fill="#FFFFFF"/>
	<clipPath id="Path_3825_1_">
		<use xlink:href="#Path_3825"  overflow="visible"/>
	</clipPath>
	<use xlink:href="#Path_3825"  overflow="visible" fill="none" stroke="#293340" stroke-width="2" stroke-miterlimit="10"/>
</g>
<path fill="#FFFFFF" stroke="#293340" stroke-width="2" d="M33.401,42.37"/>
<path fill-rule="evenodd" clip-rule="evenodd" fill="#0077FF" d="M39.049,10.057c0.085-0.02,0.16,0.012,0.237,0.034
	c4.447,1.262,8.898,2.521,13.349,3.784c0.451,0.128,0.902,0.256,1.324,0.478c0.853,0.448,1.548,1.066,2.047,1.888
	c0.522,0.86,0.812,1.793,0.809,2.81c-0.004,1.021,0,2.042,0,3.062c0,9.953,0,19.908,0.003,29.859
	c0.001,1.373-0.416,2.589-1.321,3.623c-0.709,0.811-1.6,1.329-2.634,1.624c-4.49,1.275-8.983,2.554-13.476,3.835
	c-0.094,0.025-0.185,0.073-0.284,0.033c0.23-0.129,0.465-0.259,0.693-0.395c0.364-0.215,0.645-0.529,0.939-0.826
	c0.249-0.247,0.467-0.512,0.654-0.811c0.132-0.213,0.242-0.438,0.349-0.664c0.308-0.646,0.467-1.331,0.473-2.042
	c0.015-1.967,0.005-3.938,0.005-5.907c0-0.09-0.007-0.179-0.008-0.27c0-10.188,0-20.378,0.001-30.568
	c0-0.259-0.004-0.519-0.005-0.778c-0.01-1.42,0.043-2.841-0.031-4.262c-0.033-0.637-0.22-1.226-0.465-1.79
	c-0.452-1.033-1.179-1.842-2.159-2.418C39.383,10.258,39.188,10.203,39.049,10.057z"/>
<path fill-rule="evenodd" clip-rule="evenodd" fill="#293340" d="M39.049,10.057c0.139,0.146,0.334,0.202,0.5,0.299
	c0.98,0.577,1.707,1.386,2.159,2.418c0.245,0.564,0.432,1.153,0.465,1.79c0.074,1.421,0.021,2.842,0.031,4.262
	c-1.682,0.605-3.362,1.209-5.041,1.815c-2.923,1.055-5.846,2.115-8.77,3.164c-0.676,0.243-1.251,0.636-1.698,1.18
	c-0.394,0.477-0.643,1.045-0.758,1.664c-0.05,0.274-0.061,0.551-0.062,0.828c-0.002,5.524-0.006,11.047-0.008,16.571
	c0,0.441-0.047,0.874-0.173,1.299c-0.125,0.425-0.36,0.787-0.61,1.146c-0.359,0.514-0.847,0.86-1.388,1.148
	c-1.332,0.712-2.66,1.43-3.99,2.146c-0.317,0.171-0.65,0.284-1.007,0.344c-1.225,0.205-2.734-0.582-3.061-2.162
	c-0.042-0.203-0.054-0.406-0.054-0.612c-0.007-7.779-0.019-15.56-0.017-23.338c0-2.15,0.967-3.739,2.853-4.783
	c1.061-0.588,2.104-1.21,3.158-1.813c2.196-1.255,4.394-2.507,6.592-3.762c0.911-0.52,1.818-1.05,2.733-1.563
	c1.175-0.658,2.322-1.369,3.52-1.982c0.87-0.446,1.808-0.594,2.779-0.522c0.474,0.036,0.933,0.145,1.389,0.286
	c0.117,0.037,0.206,0.14,0.34,0.134C38.962,10.053,39.002,10.064,39.049,10.057L39.049,10.057z"/>
<path fill-rule="evenodd" clip-rule="evenodd" fill="#293340" d="M42.208,50.172c0.001,0.091,0.008,0.18,0.008,0.27
	c0,1.97,0.01,3.94-0.005,5.907c-0.006,0.711-0.165,1.396-0.473,2.042c-0.106,0.226-0.217,0.451-0.349,0.664
	c-0.188,0.299-0.405,0.563-0.654,0.811c-0.295,0.297-0.575,0.611-0.939,0.826c-0.229,0.136-0.463,0.266-0.693,0.395
	c-0.218,0.156-0.479,0.186-0.726,0.262c-0.943,0.284-1.901,0.304-2.859,0.062c-0.503-0.129-0.974-0.341-1.427-0.598
	c-2.571-1.463-5.145-2.924-7.718-4.383c-0.644-0.365-1.298-0.717-1.93-1.102c-0.903-0.552-1.374-1.368-1.352-2.435
	c0.02-1.041,0.509-1.823,1.404-2.349c0.441-0.259,0.928-0.356,1.439-0.356c5.308,0,10.615-0.002,15.924-0.004
	C41.975,50.184,42.09,50.177,42.208,50.172z"/>
</svg>
