<?xml version="1.0" encoding="utf-8"?>
<!-- Generator: Adobe Illustrator 16.0.3, SVG Export Plug-In . SVG Version: 6.00 Build 0)  -->
<!DOCTYPE svg PUBLIC "-//W3C//DTD SVG 1.1//EN" "http://www.w3.org/Graphics/SVG/1.1/DTD/svg11.dtd">
<svg version="1.1" id="Capa_1" xmlns="http://www.w3.org/2000/svg" xmlns:xlink="http://www.w3.org/1999/xlink" x="0px" y="0px"
	 width="73.657px" height="75.156px" viewBox="0 0 73.657 75.156" enable-background="new 0 0 73.657 75.156" xml:space="preserve">
<g>
	<g>
		<g>
			<path id="SVGID_2_" fill="#FFFFFF" d="M37.668,74.021L37.02,73.65c-13.056-7.441-21.873-16.33-26.232-26.412
				c-5.113-11.84-1.742-27.4,7.678-35.416c2.62-2.19,5.51-4.033,8.6-5.485c1.992-1.03,3.97-1.982,5.953-2.934
				c1.359-0.649,2.711-1.3,4.068-1.979l0.589-0.29l0.578,0.29c1.397,0.7,2.785,1.363,4.172,2.022c1.96,0.939,3.91,1.88,5.88,2.891
				c3.112,1.454,6.024,3.307,8.659,5.512c9.391,8,12.755,23.552,7.646,35.389c-4.337,10.053-13.187,18.938-26.29,26.412
				L37.668,74.021z"/>
		</g>
		<g>
			<defs>
				<path id="SVGID_6_" d="M37.668,74.021L37.02,73.65c-13.056-7.441-21.873-16.33-26.232-26.412
					c-5.113-11.84-1.742-27.4,7.678-35.416c2.62-2.19,5.51-4.033,8.6-5.485c1.992-1.03,3.97-1.982,5.953-2.934
					c1.359-0.649,2.711-1.3,4.068-1.979l0.589-0.29l0.578,0.29c1.397,0.7,2.785,1.363,4.172,2.022c1.96,0.939,3.91,1.88,5.88,2.891
					c3.112,1.454,6.024,3.307,8.659,5.512c9.391,8,12.755,23.552,7.646,35.389c-4.337,10.053-13.187,18.938-26.29,26.412
					L37.668,74.021z"/>
			</defs>
			<clipPath id="SVGID_7_">
				<use xlink:href="#SVGID_6_"  overflow="visible"/>
			</clipPath>
			<g clip-path="url(#SVGID_7_)">
				<g>
					<path id="SVGID_1_" fill="#FFFFFF" stroke="#313131" stroke-width="2" stroke-miterlimit="10" d="M37.668,74.021L37.02,73.65
						c-13.056-7.441-21.873-16.33-26.232-26.412c-5.113-11.84-1.742-27.4,7.678-35.416c2.62-2.19,5.51-4.033,8.6-5.485
						c1.992-1.03,3.97-1.982,5.953-2.934c1.359-0.649,2.711-1.3,4.068-1.979l0.589-0.29l0.578,0.29
						c1.397,0.7,2.785,1.363,4.172,2.022c1.96,0.939,3.91,1.88,5.88,2.891c3.112,1.454,6.024,3.307,8.659,5.512
						c9.391,8,12.755,23.552,7.646,35.389c-4.337,10.053-13.187,18.938-26.29,26.412L37.668,74.021z"/>
				</g>
			</g>
		</g>
		<g>
			<path id="SVGID_3_" fill="none" stroke="#313131" stroke-miterlimit="10" d="M37.668,74.021L37.02,73.65
				c-13.056-7.441-21.873-16.33-26.232-26.412c-5.113-11.84-1.742-27.4,7.678-35.416c2.62-2.19,5.51-4.033,8.6-5.485
				c1.992-1.03,3.97-1.982,5.953-2.934c1.359-0.649,2.711-1.3,4.068-1.979l0.589-0.29l0.578,0.29c1.397,0.7,2.785,1.363,4.172,2.022
				c1.96,0.939,3.91,1.88,5.88,2.891c3.112,1.454,6.024,3.307,8.659,5.512c9.391,8,12.755,23.552,7.646,35.389
				c-4.337,10.053-13.187,18.938-26.29,26.412L37.668,74.021z"/>
		</g>
	</g>
	<g>
		<g>
			<path id="SVGID_4_" fill="#FFFFFF" d="M37.668,74.021L37.02,73.65c-13.056-7.441-21.873-16.33-26.232-26.412
				c-5.113-11.84-1.742-27.4,7.678-35.416c2.62-2.19,5.51-4.033,8.6-5.485c1.992-1.03,3.97-1.982,5.953-2.934
				c1.359-0.649,2.711-1.3,4.068-1.979l0.589-0.29l0.578,0.29c1.397,0.7,2.785,1.363,4.172,2.022c1.96,0.939,3.91,1.88,5.88,2.891
				c3.112,1.454,6.024,3.307,8.659,5.512c9.391,8,12.755,23.552,7.646,35.389c-4.337,10.053-13.187,18.938-26.29,26.412
				L37.668,74.021z"/>
		</g>
		<g>
			<path id="SVGID_5_" fill="none" stroke="#313131" stroke-miterlimit="10" d="M37.668,74.021L37.02,73.65
				c-13.056-7.441-21.873-16.33-26.232-26.412c-5.113-11.84-1.742-27.4,7.678-35.416c2.62-2.19,5.51-4.033,8.6-5.485
				c1.992-1.03,3.97-1.982,5.953-2.934c1.359-0.649,2.711-1.3,4.068-1.979l0.589-0.29l0.578,0.29c1.397,0.7,2.785,1.363,4.172,2.022
				c1.96,0.939,3.91,1.88,5.88,2.891c3.112,1.454,6.024,3.307,8.659,5.512c9.391,8,12.755,23.552,7.646,35.389
				c-4.337,10.053-13.187,18.938-26.29,26.412L37.668,74.021z"/>
		</g>
	</g>
	<g>
		<path id="Path_3825" fill="#FFFFFF" stroke="#313131" stroke-width="2" stroke-miterlimit="10" d="M37.668,74.021L37.02,73.65
			c-13.056-7.441-21.873-16.33-26.232-26.412c-5.113-11.84-1.742-27.4,7.678-35.416c2.62-2.19,5.51-4.033,8.6-5.485
			c1.992-1.03,3.97-1.982,5.953-2.934c1.359-0.649,2.711-1.3,4.068-1.979l0.589-0.29l0.578,0.29c1.397,0.7,2.785,1.363,4.172,2.022
			c1.96,0.939,3.91,1.88,5.88,2.891c3.112,1.454,6.024,3.307,8.659,5.512c9.391,8,12.755,23.552,7.646,35.389
			c-4.337,10.053-13.187,18.938-26.29,26.412L37.668,74.021z"/>
	</g>
</g>
<g>
	<path fill="#FFFFFF" d="M98.403-34.615c0-1.56,1.275-2.835,2.835-2.835h17.227c1.56,0,2.835,1.275,2.835,2.835v23.014
		c0,1.56-1.275,2.835-2.835,2.835h-17.227c-1.56,0-2.835-1.275-2.835-2.835V-34.615z"/>
	<path fill="none" stroke="#293340" stroke-width="2" d="M98.403-34.615c0-1.56,1.275-2.835,2.835-2.835h17.227
		c1.56,0,2.835,1.275,2.835,2.835v23.014c0,1.56-1.275,2.835-2.835,2.835h-17.227c-1.56,0-2.835-1.275-2.835-2.835V-34.615z"/>
</g>
<path fill="none" stroke="#313131" stroke-width="2" d="M50.31,48.621"/>
<path fill="none" stroke="#313131" stroke-width="2" d="M41.95,48.621"/>
<path fill="none" stroke="#0077FF" stroke-width="2" d="M42.51,48.622"/>
<path fill="none" stroke="#0077FF" stroke-width="2" d="M15.688,48.622"/>
<path fill="none" stroke="#0077FF" d="M20.522,51.186"/>
<path fill="none" stroke="#0077FF" d="M20.522,46.059"/>
<path fill="none" stroke="#0077FF" d="M17.958,48.539"/>
<path fill="none" stroke="#0077FF" d="M23.086,48.539"/>
<g>
	<path fill="#FFFFFF" stroke="#FFFFFF" stroke-width="2" d="M14.989,35.244c11.789,7.936,21.959,0.924,21.959,0.924L36.86,24.235"/>
	<polygon fill="#0077FF" stroke="#FFFFFF" stroke-width="2" points="25.264,6.463 1.938,21.063 26.635,33.204 49.729,18.612 	"/>
	<polygon fill="#0077FF" stroke="#313131" stroke-width="2" points="25.622,8.698 6.195,20.856 26.762,30.969 45.999,18.816 	"/>
	<polyline fill="none" stroke="#313131" stroke-width="2" points="25.896,19.847 40.215,23.034 40.526,29.061 	"/>
	<polygon fill="#0077FF" stroke="#313131" stroke-width="2" points="40.676,32.007 38.445,38.392 43.545,38.13 	"/>
	<circle fill="#0077FF" stroke="#313131" stroke-width="2" cx="40.563" cy="29.783" r="2.554"/>
	<path fill="none" stroke="#313131" stroke-width="2" d="M12.876,24.191l0.464,9.063c0,0,10.69,7.632,22.886,0.337"/>
</g>
<g>
	<g>
		<path id="Path_3825_7_" fill="#FFFFFF" d="M142.411,131.4l-0.646-0.372c-13.057-7.44-21.873-16.329-26.232-26.412
			c-5.113-11.84-1.742-27.399,7.678-35.415c2.619-2.189,5.51-4.033,8.6-5.484c1.992-1.03,3.971-1.982,5.953-2.935
			c1.359-0.649,2.711-1.3,4.068-1.979l0.588-0.29l0.58,0.29c1.398,0.7,2.783,1.362,4.17,2.022c1.961,0.938,3.912,1.879,5.881,2.891
			c3.113,1.453,6.023,3.307,8.658,5.512c9.391,8,12.756,23.552,7.646,35.388c-4.338,10.054-13.188,18.94-26.291,26.412
			L142.411,131.4z"/>
	</g>
	<g>
		<path id="Path_3825_6_" fill="none" stroke="#293340" stroke-width="2" stroke-miterlimit="10" d="M142.411,131.4l-0.646-0.372
			c-13.057-7.44-21.873-16.329-26.232-26.412c-5.113-11.84-1.742-27.399,7.678-35.415c2.619-2.189,5.51-4.033,8.6-5.484
			c1.992-1.03,3.971-1.982,5.953-2.935c1.359-0.649,2.711-1.3,4.068-1.979l0.588-0.29l0.58,0.29c1.398,0.7,2.783,1.362,4.17,2.022
			c1.961,0.938,3.912,1.879,5.881,2.891c3.113,1.453,6.023,3.307,8.658,5.512c9.391,8,12.756,23.552,7.646,35.388
			c-4.338,10.054-13.188,18.94-26.291,26.412L142.411,131.4z"/>
	</g>
</g>
<path fill="#FFFFFF" stroke="#293340" stroke-width="2" d="M138.502,99.767"/>
<g>
	<path fill="#FFFFFF" d="M24.036,54.573c0,0,18.324-4.556,31.72-0.892c2.059-1.498,8.353-5.769,0.798-11.065
		c-0.47-0.164-17.997,5.077-31.795,1.685C24.758,44.301,26.852,48.439,24.036,54.573z"/>
	<polygon fill="#FFFFFF" points="42.797,52.497 44.101,58.641 41.267,56.957 39.275,59.598 37.791,52.642 	"/>
	<path fill="none" stroke="#293340" stroke-width="2" d="M23.383,43.498c0,0,14.915,4.804,33.537-1.312"/>
	<path fill="none" stroke="#293340" stroke-width="2" d="M56.211,54.064c0,0-14.916-4.807-33.535,1.312"/>
	<path fill="none" stroke="#293340" stroke-width="2" d="M56.212,42.089c0,0,8.499,6.167-0.677,12.095"/>
	
		<ellipse transform="matrix(0.1641 -0.9864 0.9864 0.1641 -30.1722 63.5193)" fill="#0066FF" stroke="#293340" stroke-width="2" cx="22.395" cy="49.563" rx="6.146" ry="3.273"/>
	<path fill="none" stroke="#293340" stroke-width="2" d="M42.792,45.065c0,0,4.836,3.322,0.465,7.217"/>
	<path fill="none" stroke="#293340" stroke-width="2" d="M42.971,52.277l1.523,7.024l-3.209-2.104l-2.102,3.281l-1.735-8.102
		c4.271-3.805-0.451-7.049-0.451-7.049"/>
</g>
<g>
	<g>
		<polygon fill="#0066FF" stroke="#FFFFFF" stroke-width="2" points="53.137,30.176 53.137,38.527 56.897,35.447 60.654,38.527 
			60.654,30.176 		"/>
		<g>
			<g>
				<path fill="#0066FF" stroke="#FFFFFF" stroke-width="2" d="M54.012,17.475c0,0,2.979-5.056,5.496,0"/>
				<path fill="#0066FF" stroke="#FFFFFF" stroke-width="2" d="M59.508,17.032c0,0,5.739-1.503,3.887,3.825"/>
				<path fill="#0066FF" stroke="#FFFFFF" stroke-width="2" d="M63.385,20.583c0,0,5.137,2.929,0,5.408"/>
				<path fill="#0066FF" stroke="#FFFFFF" stroke-width="2" d="M50.408,20.856c0,0-1.529-5.647,3.886-3.825"/>
				<path fill="#0066FF" stroke="#FFFFFF" stroke-width="2" d="M50.209,25.992c0,0-5.138-2.928,0-5.408"/>
				<path fill="#0066FF" stroke="#FFFFFF" stroke-width="2" d="M63.48,25.992c0,0,1.527,5.646-3.886,3.823"/>
				<path fill="#0066FF" stroke="#FFFFFF" stroke-width="2" d="M54.012,29.897c0,0-5.736,1.506-3.882-3.818"/>
				<path fill="#0066FF" stroke="#FFFFFF" stroke-width="2" d="M59.508,30.176c0,0-2.976,5.057-5.496,0"/>
			</g>
			<polygon fill="#0066FF" stroke="#FFFFFF" stroke-width="2" points="51.23,18.379 56.762,16.354 62.365,18.109 64.243,23.288 
				62.083,28.46 56.762,31.039 50.959,28.593 48.732,23.288 			"/>
		</g>
	</g>
	<g>
		<polygon fill="#0066FF" stroke="#293340" stroke-width="2" points="53.767,29.112 53.767,36.507 56.798,33.78 59.829,36.507 
			59.829,29.112 		"/>
		<g>
			<g>
				<path fill="#0066FF" stroke="#293340" stroke-width="2" d="M54.567,18.506c0,0,2.444-4.221,4.516,0"/>
				<path fill="#0066FF" stroke="#293340" stroke-width="2" d="M59.083,18.137c0,0,4.711-1.255,3.191,3.194"/>
				<path fill="#0066FF" stroke="#293340" stroke-width="2" d="M62.266,21.104c0,0,4.22,2.445,0,4.513"/>
				<path fill="#0066FF" stroke="#293340" stroke-width="2" d="M51.604,21.331c0,0-1.255-4.713,3.192-3.194"/>
				<path fill="#0066FF" stroke="#293340" stroke-width="2" d="M51.441,25.617c0,0-4.221-2.445,0-4.513"/>
				<path fill="#0066FF" stroke="#293340" stroke-width="2" d="M62.342,25.617c0,0,1.256,4.715-3.191,3.194"/>
				<path fill="#0066FF" stroke="#293340" stroke-width="2" d="M54.567,28.88c0,0-4.714,1.254-3.192-3.191"/>
				<path fill="#0066FF" stroke="#293340" stroke-width="2" d="M59.083,29.112c0,0-2.448,4.222-4.516,0"/>
			</g>
			<polygon fill="#0066FF" stroke="#293340" points="52.283,19.263 56.825,17.57 61.424,19.036 62.97,23.362 61.195,27.677 
				56.825,29.831 52.058,27.788 50.227,23.362 			"/>
		</g>
	</g>
</g>
</svg>
