<?xml version="1.0" encoding="utf-8"?>
<!-- Generator: Adobe Illustrator 16.0.3, SVG Export Plug-In . SVG Version: 6.00 Build 0)  -->
<!DOCTYPE svg PUBLIC "-//W3C//DTD SVG 1.1//EN" "http://www.w3.org/Graphics/SVG/1.1/DTD/svg11.dtd">
<svg version="1.1" id="Capa_1" xmlns="http://www.w3.org/2000/svg" xmlns:xlink="http://www.w3.org/1999/xlink" x="0px" y="0px"
	 width="73.657px" height="75.156px" viewBox="0 0 73.657 75.156" enable-background="new 0 0 73.657 75.156" xml:space="preserve">
<g>
	<g>
		<g>
			<path id="SVGID_2_" fill="#FFFFFF" d="M37.668,74.021L37.02,73.65c-13.056-7.441-21.873-16.33-26.232-26.412
				c-5.113-11.84-1.742-27.4,7.678-35.416c2.62-2.19,5.51-4.033,8.6-5.485c1.992-1.03,3.97-1.982,5.953-2.934
				c1.359-0.649,2.711-1.3,4.068-1.979l0.589-0.29l0.578,0.29c1.396,0.7,2.785,1.363,4.172,2.022c1.96,0.939,3.91,1.88,5.88,2.891
				c3.112,1.454,6.024,3.307,8.659,5.512c9.391,8,12.755,23.552,7.646,35.389c-4.337,10.053-13.187,18.938-26.29,26.412
				L37.668,74.021z"/>
		</g>
		<g>
			<g>
				<defs>
					<path id="SVGID_6_" d="M37.668,74.021L37.02,73.65c-13.056-7.441-21.873-16.33-26.232-26.412
						c-5.113-11.84-1.742-27.4,7.678-35.416c2.62-2.19,5.51-4.033,8.6-5.485c1.992-1.03,3.97-1.982,5.953-2.934
						c1.359-0.649,2.711-1.3,4.068-1.979l0.589-0.29l0.578,0.29c1.396,0.7,2.785,1.363,4.172,2.022c1.96,0.939,3.91,1.88,5.88,2.891
						c3.112,1.454,6.024,3.307,8.659,5.512c9.391,8,12.755,23.552,7.646,35.389c-4.337,10.053-13.187,18.938-26.29,26.412
						L37.668,74.021z"/>
				</defs>
				<clipPath id="SVGID_7_">
					<use xlink:href="#SVGID_6_"  overflow="visible"/>
				</clipPath>
				<g clip-path="url(#SVGID_7_)">
					<g>
						<path id="SVGID_1_" fill="#FFFFFF" stroke="#313131" stroke-width="2" stroke-miterlimit="10" d="M37.668,74.021L37.02,73.65
							c-13.056-7.441-21.873-16.33-26.232-26.412c-5.113-11.84-1.742-27.4,7.678-35.416c2.62-2.19,5.51-4.033,8.6-5.485
							c1.992-1.03,3.97-1.982,5.953-2.934c1.359-0.649,2.711-1.3,4.068-1.979l0.589-0.29l0.578,0.29
							c1.396,0.7,2.785,1.363,4.172,2.022c1.96,0.939,3.91,1.88,5.88,2.891c3.112,1.454,6.024,3.307,8.659,5.512
							c9.391,8,12.755,23.552,7.646,35.389c-4.337,10.053-13.187,18.938-26.29,26.412L37.668,74.021z"/>
					</g>
				</g>
			</g>
		</g>
		<g>
			<path id="SVGID_3_" fill="none" stroke="#313131" stroke-miterlimit="10" d="M37.668,74.021L37.02,73.65
				c-13.056-7.441-21.873-16.33-26.232-26.412c-5.113-11.84-1.742-27.4,7.678-35.416c2.62-2.19,5.51-4.033,8.6-5.485
				c1.992-1.03,3.97-1.982,5.953-2.934c1.359-0.649,2.711-1.3,4.068-1.979l0.589-0.29l0.578,0.29c1.396,0.7,2.785,1.363,4.172,2.022
				c1.96,0.939,3.91,1.88,5.88,2.891c3.112,1.454,6.024,3.307,8.659,5.512c9.391,8,12.755,23.552,7.646,35.389
				c-4.337,10.053-13.187,18.938-26.29,26.412L37.668,74.021z"/>
		</g>
	</g>
	<g>
		<g>
			<path id="SVGID_4_" fill="#FFFFFF" d="M37.668,74.021L37.02,73.65c-13.056-7.441-21.873-16.33-26.232-26.412
				c-5.113-11.84-1.742-27.4,7.678-35.416c2.62-2.19,5.51-4.033,8.6-5.485c1.992-1.03,3.97-1.982,5.953-2.934
				c1.359-0.649,2.711-1.3,4.068-1.979l0.589-0.29l0.578,0.29c1.396,0.7,2.785,1.363,4.172,2.022c1.96,0.939,3.91,1.88,5.88,2.891
				c3.112,1.454,6.024,3.307,8.659,5.512c9.391,8,12.755,23.552,7.646,35.389c-4.337,10.053-13.187,18.938-26.29,26.412
				L37.668,74.021z"/>
		</g>
		<g>
			<path id="SVGID_5_" fill="none" stroke="#313131" stroke-miterlimit="10" d="M37.668,74.021L37.02,73.65
				c-13.056-7.441-21.873-16.33-26.232-26.412c-5.113-11.84-1.742-27.4,7.678-35.416c2.62-2.19,5.51-4.033,8.6-5.485
				c1.992-1.03,3.97-1.982,5.953-2.934c1.359-0.649,2.711-1.3,4.068-1.979l0.589-0.29l0.578,0.29c1.396,0.7,2.785,1.363,4.172,2.022
				c1.96,0.939,3.91,1.88,5.88,2.891c3.112,1.454,6.024,3.307,8.659,5.512c9.391,8,12.755,23.552,7.646,35.389
				c-4.337,10.053-13.187,18.938-26.29,26.412L37.668,74.021z"/>
		</g>
	</g>
	<g>
		<path id="Path_3825" fill="#FFFFFF" stroke="#313131" stroke-width="2" stroke-miterlimit="10" d="M37.668,74.021L37.02,73.65
			c-13.056-7.441-21.873-16.33-26.232-26.412c-5.113-11.84-1.742-27.4,7.678-35.416c2.62-2.19,5.51-4.033,8.6-5.485
			c1.992-1.03,3.97-1.982,5.953-2.934c1.359-0.649,2.711-1.3,4.068-1.979l0.589-0.29l0.578,0.29c1.396,0.7,2.785,1.363,4.172,2.022
			c1.96,0.939,3.91,1.88,5.88,2.891c3.112,1.454,6.024,3.307,8.659,5.512c9.391,8,12.755,23.552,7.646,35.389
			c-4.337,10.053-13.187,18.938-26.29,26.412L37.668,74.021z"/>
	</g>
</g>
<line fill="none" stroke="#0077FF" stroke-width="2" x1="41.95" y1="48.621" x2="50.31" y2="48.621"/>
<line fill="none" stroke="#0077FF" stroke-width="2" x1="15.688" y1="48.622" x2="42.51" y2="48.622"/>
<circle fill="#FFFFFF" stroke="#0077FF" stroke-width="2" cx="37.676" cy="48.621" r="4.834"/>
<circle fill="#FFFFFF" stroke="#313131" stroke-width="2" cx="55.144" cy="48.621" r="4.834"/>
<circle fill="#FFFFFF" stroke="#0077FF" stroke-width="2" cx="20.522" cy="48.621" r="4.834"/>
<g>
	<line fill="none" x1="33.726" y1="21.766" x2="41.676" y2="21.766"/>
	<line fill="none" stroke="#FFFFFF" stroke-width="2" x1="33.726" y1="21.766" x2="41.676" y2="21.766"/>
</g>
<g>
	<g>
		<defs>
			<path id="SVGID_8_" d="M25.033,4.945h25.371c3.937,0,7.127,2.577,7.127,5.754v25.438c0,3.179-3.19,5.754-7.127,5.754H25.033
				c-3.937,0-7.127-2.575-7.127-5.754V10.699C17.906,7.521,21.097,4.945,25.033,4.945z"/>
		</defs>
		<clipPath id="SVGID_9_">
			<use xlink:href="#SVGID_8_"  overflow="visible"/>
		</clipPath>
		<g id="Mask_Group_1_1_" transform="translate(0 3.583)" clip-path="url(#SVGID_9_)">
			<path id="Path_2493_1_" fill="#0077FF" stroke="#FFFFFF" stroke-miterlimit="10" d="M17.906,1.362h39.983v11.659H17.906V1.362z"
				/>
		</g>
		<use xlink:href="#SVGID_8_"  overflow="visible" fill="none" stroke="#FFFFFF" stroke-miterlimit="10"/>
	</g>
	<g id="Path_1660_1_" transform="translate(0.046 3.583)">
		<path fill="#FFFFFF" stroke="#FFFFFF" stroke-miterlimit="10" d="M23.904,1.362h27.632c3.313,0,5.997,2.168,5.997,4.842v27.263
			c0,2.673-2.685,4.841-5.997,4.841H23.904c-3.313,0-5.997-2.168-5.997-4.841V6.204C17.907,3.53,20.591,1.362,23.904,1.362z"/>
		<path fill="#FFFFFF" stroke="#FFFFFF" stroke-miterlimit="10" d="M23.904,3.006c-2.184,0-3.961,1.435-3.961,3.197v27.264
			c0,1.763,1.777,3.196,3.961,3.196h27.632c2.183,0,3.96-1.434,3.96-3.196V6.203c0-1.763-1.777-3.197-3.96-3.197H23.904
			 M23.904,1.362h27.632c3.313,0,5.997,2.167,5.997,4.841v27.264c0,2.673-2.685,4.841-5.997,4.841H23.904
			c-3.313,0-5.997-2.168-5.997-4.841V6.203C17.907,3.529,20.591,1.362,23.904,1.362z"/>
	</g>
	<g id="Rectangle_240_1_" transform="translate(16.824)">
		<path fill="#ECECEC" stroke="#FFFFFF" stroke-miterlimit="10" d="M20.603,2L20.603,2c1.884,0,3.411,1.232,3.411,2.753v2.473
			c0,1.521-1.527,2.753-3.411,2.753l0,0c-1.883,0-3.41-1.232-3.41-2.753V4.753C17.193,3.232,18.72,2,20.603,2z"/>
		<path fill="none" stroke="#FFFFFF" stroke-width="2" stroke-linejoin="round" d="M20.603,2.822L20.603,2.822
			c1.321,0,2.392,0.865,2.392,1.931v2.473c0,1.067-1.07,1.932-2.392,1.932l0,0c-1.322,0-2.391-0.865-2.391-1.932V4.753
			C18.212,3.687,19.281,2.822,20.603,2.822z"/>
	</g>
	<g id="Rectangle_241_1_" transform="translate(6.824)">
		<path fill="#ECECEC" stroke="#FFFFFF" stroke-miterlimit="10" d="M20.421,2L20.421,2c1.883,0,3.41,1.232,3.41,2.753v2.473
			c0,1.521-1.527,2.753-3.41,2.753l0,0c-1.884,0-3.41-1.232-3.41-2.753V4.753C17.011,3.232,18.537,2,20.421,2z"/>
		<path fill="none" stroke="#FFFFFF" stroke-width="2" stroke-linejoin="round" d="M20.421,2.822L20.421,2.822
			c1.321,0,2.391,0.865,2.391,1.931v2.473c0,1.067-1.07,1.932-2.391,1.932l0,0c-1.322,0-2.392-0.865-2.392-1.932V4.753
			C18.03,3.687,19.099,2.822,20.421,2.822z"/>
	</g>
	<g id="Rectangle_242_1_" transform="translate(26.824)">
		<path fill="#ECECEC" stroke="#FFFFFF" stroke-miterlimit="10" d="M20.786,2L20.786,2c1.884,0,3.409,1.232,3.409,2.753v2.473
			c0,1.521-1.525,2.753-3.409,2.753l0,0c-1.884,0-3.41-1.232-3.41-2.753V4.753C17.376,3.232,18.902,2,20.786,2z"/>
		<path fill="none" stroke="#FFFFFF" stroke-width="2" stroke-linejoin="round" d="M20.786,2.822L20.786,2.822
			c1.32,0,2.392,0.865,2.392,1.931v2.473c0,1.067-1.071,1.932-2.392,1.932l0,0c-1.322,0-2.392-0.865-2.392-1.932V4.753
			C18.394,3.687,19.464,2.822,20.786,2.822z"/>
	</g>
	<g id="Group_305_1_" transform="translate(-884.568 -5170.803)">
		
			<line id="Line_21_1_" fill="none" stroke="#FFFFFF" stroke-width="2" stroke-linecap="round" x1="914.607" y1="5192.582" x2="930.937" y2="5192.582"/>
	</g>
	<g id="Group_658_1_" transform="translate(-884.568 -5163.803)">
		
			<line id="Line_21-2_1_" fill="none" stroke="#FFFFFF" stroke-width="2" stroke-linecap="round" x1="914.607" y1="5191.338" x2="930.937" y2="5191.338"/>
		
			<line id="Line_127_1_" fill="none" stroke="#FFFFFF" stroke-width="2" stroke-linecap="round" x1="914.607" y1="5196.268" x2="930.937" y2="5196.268"/>
	</g>
	<path id="Path_3827_1_" fill="#FFFFFF" stroke="#FFFFFF" stroke-miterlimit="10" d="M55.495,31.009c-0.565-0.122-7.093,0-7.093,0
		s-4.009,0.489-4.11,3.693c-0.103,3.208,0,5.538,0,5.538h0.378l10.825-8.984V31.009z"/>
</g>
<g>
	<defs>
		<path id="SVGID_10_" d="M25.205,5.254h24.896c3.862,0,6.994,2.503,6.994,5.589V35.55c0,3.087-3.132,5.588-6.994,5.588H25.205
			c-3.863,0-6.994-2.501-6.994-5.588V10.843C18.21,7.757,21.342,5.254,25.205,5.254z"/>
	</defs>
	<clipPath id="SVGID_11_">
		<use xlink:href="#SVGID_10_"  overflow="visible"/>
	</clipPath>
	<g id="Mask_Group_1" transform="translate(0 3.583)" clip-path="url(#SVGID_11_)">
		<path id="Path_2493" fill="#0077FF" d="M18.21,1.671h39.235v11.324H18.21V1.671z"/>
	</g>
</g>
<g id="Path_1660" transform="translate(0.046 3.583)">
	<path fill="none" d="M24.095,1.671H51.21c3.251,0,5.886,2.106,5.886,4.703v26.481c0,2.596-2.635,4.701-5.886,4.701H24.095
		c-3.25,0-5.885-2.105-5.885-4.701V6.374C18.21,3.777,20.845,1.671,24.095,1.671z"/>
	<path fill="#293340" d="M24.095,3.268c-2.143,0-3.886,1.393-3.886,3.105v26.481c0,1.712,1.744,3.104,3.886,3.104H51.21
		c2.143,0,3.887-1.393,3.887-3.104V6.373c0-1.712-1.744-3.105-3.887-3.105H24.095 M24.095,1.671H51.21
		c3.25,0,5.885,2.105,5.885,4.702v26.481c0,2.596-2.635,4.701-5.885,4.701H24.095c-3.25,0-5.885-2.105-5.885-4.701V6.373
		C18.21,3.776,20.845,1.671,24.095,1.671z"/>
</g>
<g id="Rectangle_240" transform="translate(16.824)">
	<path fill="#ECECEC" d="M20.543,2.394L20.543,2.394c1.849,0,3.347,1.197,3.347,2.674v2.402c0,1.477-1.498,2.674-3.347,2.674l0,0
		c-1.848,0-3.346-1.197-3.346-2.674V5.067C17.197,3.59,18.695,2.394,20.543,2.394z"/>
	<path fill="none" stroke="#293340" stroke-width="2" stroke-linejoin="round" d="M20.543,3.192L20.543,3.192
		c1.297,0,2.347,0.84,2.347,1.875v2.402c0,1.036-1.05,1.876-2.347,1.876l0,0c-1.296,0-2.346-0.84-2.346-1.876V5.067
		C18.197,4.032,19.246,3.192,20.543,3.192z"/>
</g>
<g id="Rectangle_241" transform="translate(6.824)">
	<path fill="#ECECEC" d="M20.551,2.394L20.551,2.394c1.848,0,3.346,1.197,3.346,2.674v2.402c0,1.477-1.498,2.674-3.346,2.674l0,0
		c-1.848,0-3.346-1.197-3.346-2.674V5.067C17.205,3.59,18.703,2.394,20.551,2.394z"/>
	<path fill="none" stroke="#293340" stroke-width="2" stroke-linejoin="round" d="M20.551,3.192L20.551,3.192
		c1.297,0,2.347,0.84,2.347,1.875v2.402c0,1.036-1.05,1.876-2.347,1.876l0,0c-1.297,0-2.347-0.84-2.347-1.876V5.067
		C18.204,4.032,19.254,3.192,20.551,3.192z"/>
</g>
<g id="Rectangle_242" transform="translate(26.824)">
	<path fill="#ECECEC" d="M20.535,2.394L20.535,2.394c1.849,0,3.346,1.197,3.346,2.674v2.402c0,1.477-1.497,2.674-3.346,2.674l0,0
		c-1.848,0-3.346-1.197-3.346-2.674V5.067C17.189,3.59,18.687,2.394,20.535,2.394z"/>
	<path fill="none" stroke="#293340" stroke-width="2" stroke-linejoin="round" d="M20.535,3.192L20.535,3.192
		c1.297,0,2.347,0.84,2.347,1.875v2.402c0,1.036-1.05,1.876-2.347,1.876l0,0c-1.297,0-2.347-0.84-2.347-1.876V5.067
		C18.188,4.032,19.238,3.192,20.535,3.192z"/>
</g>
<g id="Group_305" transform="translate(-884.568 -5170.803)">
	
		<line id="Line_21" fill="none" stroke="#293340" stroke-width="2" stroke-linecap="round" x1="914.685" y1="5192.408" x2="930.709" y2="5192.408"/>
</g>
<g id="Group_658" transform="translate(-884.568 -5163.803)">
	
		<line id="Line_21-2" fill="none" stroke="#293340" stroke-width="2" stroke-linecap="round" x1="914.685" y1="5190.998" x2="930.709" y2="5190.998"/>
	
		<line id="Line_127" fill="none" stroke="#293340" stroke-width="2" stroke-linecap="round" x1="914.685" y1="5195.788" x2="930.709" y2="5195.788"/>
</g>
<line fill="none" stroke="#313131" x1="21.11" y1="49.078" x2="18.214" y2="46.183"/>
<line fill="none" stroke="#313131" x1="21.11" y1="49.078" x2="17.891" y2="49.078"/>
<line fill="none" stroke="#313131" x1="35.888" y1="47.965" x2="37.751" y2="49.85"/>
<line fill="none" stroke="#313131" x1="37.276" y1="50.135" x2="45.117" y2="43.33"/>
</svg>
