<?xml version="1.0" encoding="utf-8"?>
<!-- Generator: Adobe Illustrator 16.0.3, SVG Export Plug-In . SVG Version: 6.00 Build 0)  -->
<!DOCTYPE svg PUBLIC "-//W3C//DTD SVG 1.1//EN" "http://www.w3.org/Graphics/SVG/1.1/DTD/svg11.dtd">
<svg version="1.1" id="Capa_1" xmlns="http://www.w3.org/2000/svg" xmlns:xlink="http://www.w3.org/1999/xlink" x="0px" y="0px"
	 width="73.657px" height="75.156px" viewBox="0 0 73.657 75.156" enable-background="new 0 0 73.657 75.156" xml:space="preserve">
<g>
	<g>
		<g>
			<path id="SVGID_2_" fill="#FFFFFF" d="M37.668,74.021L37.02,73.65c-13.056-7.441-21.873-16.33-26.232-26.412
				c-5.113-11.84-1.742-27.4,7.678-35.416c2.62-2.19,5.51-4.033,8.6-5.485c1.992-1.03,3.97-1.982,5.953-2.934
				c1.359-0.649,2.711-1.3,4.068-1.979l0.589-0.29l0.578,0.29c1.397,0.7,2.785,1.363,4.172,2.022c1.96,0.939,3.91,1.88,5.88,2.891
				c3.112,1.454,6.024,3.307,8.659,5.512c9.391,8,12.755,23.552,7.646,35.389c-4.337,10.053-13.187,18.938-26.29,26.412
				L37.668,74.021z"/>
		</g>
		<g>
			<defs>
				<path id="SVGID_6_" d="M37.668,74.021L37.02,73.65c-13.056-7.441-21.873-16.33-26.232-26.412
					c-5.113-11.84-1.742-27.4,7.678-35.416c2.62-2.19,5.51-4.033,8.6-5.485c1.992-1.03,3.97-1.982,5.953-2.934
					c1.359-0.649,2.711-1.3,4.068-1.979l0.589-0.29l0.578,0.29c1.397,0.7,2.785,1.363,4.172,2.022c1.96,0.939,3.91,1.88,5.88,2.891
					c3.112,1.454,6.024,3.307,8.659,5.512c9.391,8,12.755,23.552,7.646,35.389c-4.337,10.053-13.187,18.938-26.29,26.412
					L37.668,74.021z"/>
			</defs>
			<clipPath id="SVGID_7_">
				<use xlink:href="#SVGID_6_"  overflow="visible"/>
			</clipPath>
			<g clip-path="url(#SVGID_7_)">
				<g>
					<path id="SVGID_1_" fill="#FFFFFF" stroke="#313131" stroke-width="2" stroke-miterlimit="10" d="M37.668,74.021L37.02,73.65
						c-13.056-7.441-21.873-16.33-26.232-26.412c-5.113-11.84-1.742-27.4,7.678-35.416c2.62-2.19,5.51-4.033,8.6-5.485
						c1.992-1.03,3.97-1.982,5.953-2.934c1.359-0.649,2.711-1.3,4.068-1.979l0.589-0.29l0.578,0.29
						c1.397,0.7,2.785,1.363,4.172,2.022c1.96,0.939,3.91,1.88,5.88,2.891c3.112,1.454,6.024,3.307,8.659,5.512
						c9.391,8,12.755,23.552,7.646,35.389c-4.337,10.053-13.187,18.938-26.29,26.412L37.668,74.021z"/>
				</g>
			</g>
		</g>
		<g>
			<path id="SVGID_3_" fill="none" stroke="#313131" stroke-miterlimit="10" d="M37.668,74.021L37.02,73.65
				c-13.056-7.441-21.873-16.33-26.232-26.412c-5.113-11.84-1.742-27.4,7.678-35.416c2.62-2.19,5.51-4.033,8.6-5.485
				c1.992-1.03,3.97-1.982,5.953-2.934c1.359-0.649,2.711-1.3,4.068-1.979l0.589-0.29l0.578,0.29c1.397,0.7,2.785,1.363,4.172,2.022
				c1.96,0.939,3.91,1.88,5.88,2.891c3.112,1.454,6.024,3.307,8.659,5.512c9.391,8,12.755,23.552,7.646,35.389
				c-4.337,10.053-13.187,18.938-26.29,26.412L37.668,74.021z"/>
		</g>
	</g>
	<g>
		<g>
			<path id="SVGID_4_" fill="#FFFFFF" d="M37.668,74.021L37.02,73.65c-13.056-7.441-21.873-16.33-26.232-26.412
				c-5.113-11.84-1.742-27.4,7.678-35.416c2.62-2.19,5.51-4.033,8.6-5.485c1.992-1.03,3.97-1.982,5.953-2.934
				c1.359-0.649,2.711-1.3,4.068-1.979l0.589-0.29l0.578,0.29c1.397,0.7,2.785,1.363,4.172,2.022c1.96,0.939,3.91,1.88,5.88,2.891
				c3.112,1.454,6.024,3.307,8.659,5.512c9.391,8,12.755,23.552,7.646,35.389c-4.337,10.053-13.187,18.938-26.29,26.412
				L37.668,74.021z"/>
		</g>
		<g>
			<path id="SVGID_5_" fill="none" stroke="#313131" stroke-miterlimit="10" d="M37.668,74.021L37.02,73.65
				c-13.056-7.441-21.873-16.33-26.232-26.412c-5.113-11.84-1.742-27.4,7.678-35.416c2.62-2.19,5.51-4.033,8.6-5.485
				c1.992-1.03,3.97-1.982,5.953-2.934c1.359-0.649,2.711-1.3,4.068-1.979l0.589-0.29l0.578,0.29c1.397,0.7,2.785,1.363,4.172,2.022
				c1.96,0.939,3.91,1.88,5.88,2.891c3.112,1.454,6.024,3.307,8.659,5.512c9.391,8,12.755,23.552,7.646,35.389
				c-4.337,10.053-13.187,18.938-26.29,26.412L37.668,74.021z"/>
		</g>
	</g>
	<g>
		<path id="Path_3825" fill="#FFFFFF" stroke="#313131" stroke-width="2" stroke-miterlimit="10" d="M37.668,74.021L37.02,73.65
			c-13.056-7.441-21.873-16.33-26.232-26.412c-5.113-11.84-1.742-27.4,7.678-35.416c2.62-2.19,5.51-4.033,8.6-5.485
			c1.992-1.03,3.97-1.982,5.953-2.934c1.359-0.649,2.711-1.3,4.068-1.979l0.589-0.29l0.578,0.29c1.397,0.7,2.785,1.363,4.172,2.022
			c1.96,0.939,3.91,1.88,5.88,2.891c3.112,1.454,6.024,3.307,8.659,5.512c9.391,8,12.755,23.552,7.646,35.389
			c-4.337,10.053-13.187,18.938-26.29,26.412L37.668,74.021z"/>
	</g>
</g>
<line fill="none" stroke="#313131" stroke-width="2" x1="41.95" y1="48.621" x2="50.31" y2="48.621"/>
<line fill="none" stroke="#0077FF" stroke-width="2" x1="15.688" y1="48.622" x2="42.51" y2="48.622"/>
<circle fill="#FFFFFF" stroke="#0077FF" stroke-width="2" cx="37.676" cy="48.621" r="4.834"/>
<circle fill="#FFFFFF" stroke="#313131" stroke-width="2" cx="55.144" cy="48.621" r="4.834"/>
<circle fill="#FFFFFF" stroke="#0077FF" stroke-width="2" cx="20.522" cy="48.621" r="4.834"/>
<g>
	<line fill="none" x1="33.726" y1="21.766" x2="41.676" y2="21.766"/>
	<line fill="none" stroke="#FFFFFF" stroke-width="2" x1="33.726" y1="21.766" x2="41.676" y2="21.766"/>
</g>
<line fill="none" stroke="#0077FF" x1="20.522" y1="46.059" x2="20.522" y2="51.186"/>
<line fill="none" stroke="#0077FF" x1="23.086" y1="48.539" x2="17.958" y2="48.539"/>
<circle fill="#0077FF" stroke="#0077FF" stroke-width="2" cx="37.702" cy="48.539" r="1.237"/>
<rect x="34.093" y="6.502" fill="#FFFFFF" stroke="#FFFFFF" stroke-width="2" width="20.75" height="18.877"/>
<rect x="22.296" y="7.865" fill="#FFFFFF" stroke="#313131" stroke-width="2" width="31" height="29.713"/>
<g>
	<g>
		<polygon fill="#0077FF" stroke="#FFFFFF" points="23.988,13.416 23.988,19.798 26.605,17.443 29.221,19.798 29.221,13.416 		"/>
		<g>
			<g>
				<path fill="#0077FF" stroke="#FFFFFF" d="M24.678,4.261c0,0,2.111-3.643,3.897,0"/>
				<path fill="#0077FF" stroke="#FFFFFF" d="M28.575,3.942c0,0,4.069-1.083,2.756,2.756"/>
				<path fill="#0077FF" stroke="#FFFFFF" d="M31.324,6.501c0,0,3.643,2.111,0,3.897"/>
				<path fill="#0077FF" stroke="#FFFFFF" d="M22.121,6.698c0,0-1.083-4.069,2.756-2.756"/>
				<path fill="#0077FF" stroke="#FFFFFF" d="M21.98,10.399c0,0-3.643-2.11,0-3.897"/>
				<path fill="#0077FF" stroke="#FFFFFF" d="M31.391,10.399c0,0,1.083,4.069-2.756,2.756"/>
				<path fill="#0077FF" stroke="#FFFFFF" d="M24.678,13.214c0,0-4.068,1.084-2.755-2.754"/>
				<path fill="#0077FF" stroke="#FFFFFF" d="M28.575,13.416c0,0-2.111,3.644-3.897,0"/>
			</g>
			<polygon fill="#0077FF" stroke="#FFFFFF" points="22.706,4.913 26.627,3.452 30.599,4.719 31.931,8.451 30.401,12.178 
				26.627,14.037 22.511,12.273 20.933,8.451 			"/>
		</g>
	</g>
	<g>
		<polygon fill="#0077FF" stroke="#293340" points="24.321,12.923 24.321,18.398 26.565,16.378 28.809,18.398 28.809,12.923 		"/>
		<g>
			<g>
				<path fill="#0077FF" stroke="#293340" d="M24.912,5.07c0,0,1.811-3.125,3.343,0"/>
				<path fill="#0077FF" stroke="#293340" d="M28.255,4.797c0,0,3.49-0.93,2.364,2.365"/>
				<path fill="#0077FF" stroke="#293340" d="M30.613,6.993c0,0,3.125,1.812,0,3.343"/>
				<path fill="#0077FF" stroke="#293340" d="M22.718,7.162c0,0-0.929-3.491,2.364-2.365"/>
				<path fill="#0077FF" stroke="#293340" d="M22.597,10.335c0,0-3.125-1.811,0-3.343"/>
				<path fill="#0077FF" stroke="#293340" d="M30.67,10.335c0,0,0.929,3.49-2.364,2.364"/>
				<path fill="#0077FF" stroke="#293340" d="M24.912,12.751c0,0-3.49,0.929-2.364-2.364"/>
				<path fill="#0077FF" stroke="#293340" d="M28.255,12.923c0,0-1.811,3.125-3.343,0"/>
			</g>
			<polygon fill="#0077FF" stroke="#293340" points="23.22,5.63 26.584,4.376 29.991,5.463 31.134,8.666 29.821,11.861 
				26.584,13.455 23.054,11.942 21.699,8.666 			"/>
		</g>
	</g>
</g>
<line fill="none" stroke="#313131" stroke-width="2" x1="33.726" y1="14.226" x2="49.329" y2="14.226"/>
<line fill="none" stroke="#313131" stroke-width="2" x1="33.726" y1="19.799" x2="49.329" y2="19.799"/>
<line fill="none" stroke="#313131" stroke-width="2" x1="26.626" y1="25.379" x2="49.329" y2="25.379"/>
<line fill="none" stroke="#313131" stroke-width="2" x1="26.626" y1="30.412" x2="49.329" y2="30.412"/>
</svg>
