<?xml version="1.0" encoding="utf-8"?>
<!-- Generator: Adobe Illustrator 16.0.3, SVG Export Plug-In . SVG Version: 6.00 Build 0)  -->
<!DOCTYPE svg PUBLIC "-//W3C//DTD SVG 1.1//EN" "http://www.w3.org/Graphics/SVG/1.1/DTD/svg11.dtd">
<svg version="1.1" id="Capa_1" xmlns="http://www.w3.org/2000/svg" xmlns:xlink="http://www.w3.org/1999/xlink" x="0px" y="0px"
	 width="73.657px" height="75.156px" viewBox="0 0 73.657 75.156" enable-background="new 0 0 73.657 75.156" xml:space="preserve">
<g>
	<g>
		<path id="Path_3825" fill="#FFFFFF" d="M37.309,74.004l-0.648-0.372c-13.056-7.44-21.873-16.329-26.232-26.412
			c-5.113-11.84-1.742-27.4,7.678-35.415c2.62-2.19,5.51-4.033,8.6-5.485c1.992-1.03,3.97-1.982,5.953-2.934
			c1.359-0.649,2.711-1.3,4.068-1.979l0.589-0.29l0.579,0.29c1.399,0.7,2.784,1.363,4.171,2.022c1.96,0.939,3.911,1.88,5.88,2.891
			c3.113,1.454,6.024,3.307,8.659,5.512c9.391,8,12.755,23.552,7.646,35.388c-4.338,10.054-13.188,18.94-26.291,26.412
			L37.309,74.004z"/>
	</g>
	<g>
		<path id="Path_3825_1_" fill="none" stroke="#293340" stroke-width="2" stroke-miterlimit="10" d="M37.309,74.004l-0.648-0.372
			c-13.056-7.44-21.873-16.329-26.232-26.412c-5.113-11.84-1.742-27.4,7.678-35.415c2.62-2.19,5.51-4.033,8.6-5.485
			c1.992-1.03,3.97-1.982,5.953-2.934c1.359-0.649,2.711-1.3,4.068-1.979l0.589-0.29l0.579,0.29c1.399,0.7,2.784,1.363,4.171,2.022
			c1.96,0.939,3.911,1.88,5.88,2.891c3.113,1.454,6.024,3.307,8.659,5.512c9.391,8,12.755,23.552,7.646,35.388
			c-4.338,10.054-13.188,18.94-26.291,26.412L37.309,74.004z"/>
	</g>
</g>
<path fill="#FFFFFF" stroke="#293340" stroke-width="2" d="M33.401,42.37"/>
<rect x="25.626" y="36.472" fill="none" width="23.283" height="13.199"/>
<path fill="#FFFFFF" stroke="#293340" stroke-width="2" d="M57.83,56.006c0,6.795-5.599,12.304-12.504,12.304H29
	c-6.906,0-12.504-5.509-12.504-12.304V17.113c0-6.795,5.598-12.304,12.504-12.304h16.326c6.905,0,12.504,5.509,12.504,12.304V56.006
	z"/>
<path fill="#0066FF" d="M25.657,25.237c-1.842,0-3.334-1.493-3.334-3.333l0,0c0-1.841,1.492-3.333,3.334-3.333h4.011
	c1.841,0,3.334,1.493,3.334,3.333l0,0c0,1.841-1.493,3.333-3.334,3.333H25.657z"/>
<circle fill="#0066FF" cx="27.662" cy="15.857" r="3.464"/>
<line fill="none" stroke="#293340" stroke-width="2" x1="36.829" y1="15.857" x2="50.648" y2="15.857"/>
<line fill="none" stroke="#293340" stroke-width="2" x1="36.829" y1="21.879" x2="50.648" y2="21.879"/>
<line fill="none" stroke="#293340" stroke-width="2" x1="22.198" y1="31.029" x2="47.663" y2="31.029"/>
<line fill="none" stroke="#293340" stroke-width="2" x1="22.198" y1="36.56" x2="50.648" y2="36.56"/>
<line fill="none" stroke="#293340" stroke-width="2" x1="22.198" y1="42.37" x2="50.648" y2="42.37"/>
<line fill="none" stroke="#293340" stroke-width="2" x1="22.198" y1="47.703" x2="50.648" y2="47.703"/>
<line fill="none" stroke="#293340" stroke-width="2" x1="22.198" y1="58.412" x2="38.571" y2="58.412"/>
<g>
	
		<rect x="52.067" y="13.263" transform="matrix(0.7071 0.7071 -0.7071 0.7071 36.2088 -30.6875)" fill="#FFFFFF" width="6.166" height="30.21"/>
	<path fill="#FFFFFF" stroke="#293340" stroke-width="2" d="M70.22,13.296c-1.203-1.204-3.156-1.204-4.36,0l-23.57,23.57
		c-0.452,0.453-0.734,1.01-0.848,1.594l-4.102,7.715l7.717-4.1c0.584-0.113,1.141-0.396,1.593-0.848l23.57-23.571
		C71.425,16.453,71.424,14.5,70.22,13.296z"/>
	<path fill="#0077FF" d="M68.99,17.945c-0.801,0.801-2.216,0.686-3.159-0.258l0,0c-0.943-0.944-1.06-2.358-0.258-3.16l1.146-1.147
		c0.802-0.801,2.216-0.686,3.16,0.258l0,0c0.943,0.943,1.059,2.358,0.258,3.159L68.99,17.945z"/>
	<line fill="none" stroke="#293340" stroke-width="2" x1="64.046" y1="15.111" x2="68.407" y2="19.471"/>
	<line fill="none" stroke="#293340" stroke-width="2" x1="46.65" y1="41.229" x2="42.29" y2="36.867"/>
</g>
<circle fill="#0077FF" cx="57.83" cy="60.164" r="8.917"/>
<line fill="none" stroke="#FFFFFF" stroke-width="2" x1="53.531" y1="61.373" x2="56.789" y2="63.732"/>
<line fill="none" stroke="#FFFFFF" stroke-width="2" x1="55.879" y1="64.229" x2="62.129" y2="56.1"/>
</svg>
