<svg xmlns="http://www.w3.org/2000/svg" width="69.602" height="78.97" viewBox="0 0 69.602 78.97">
  <g id="uasd_virtual" transform="translate(-3760.091 -2849.884)">
    <g id="Group_275" data-name="Group 275" transform="translate(3761.14 2851)">
      <path id="Path_2505" data-name="Path 2505" d="M1189.844,777.7l-.682-.391c-13.742-7.831-23.022-17.184-27.61-27.794-5.382-12.46-1.833-28.832,8.081-37.268,1.756-1.65,4.643-3.49,9.048-5.772,2.1-1.084,4.179-2.086,6.266-3.088,1.43-.683,2.853-1.369,4.282-2.082l.62-.305.61.305c1.473.733,2.931,1.434,4.39,2.128,2.063.988,4.116,1.978,6.188,3.043,4.437,2.282,7.326,4.127,9.114,5.8,9.884,8.42,13.425,24.785,8.047,37.24-4.564,10.579-13.878,19.931-27.671,27.794Z" transform="translate(-1159.045 -701)" fill="#fff" stroke="#293340" stroke-width="2"/>
      <g id="Group_279" data-name="Group 279" transform="translate(39.767 48.178)">
        <g id="Group_110" data-name="Group 110" transform="translate(0 0)">
          <path id="Path_1678" data-name="Path 1678" d="M471.043,1129.177a21.877,21.877,0,0,1-6.752.232,11.811,11.811,0,0,1-5.161-3c-.536-.6-3.729-3.832-3.365-4.881a8.191,8.191,0,0,1,1.917-2.422l-7.306-7.448-.222-.928s.908-1.473,1.393-1.7a1.669,1.669,0,0,1,2.341.262c1.049,1.09,3.794,3.714,3.794,3.714s1.332-3.007,2.947-2.381a1.12,1.12,0,0,1,.605,0s1.251-1.756,2.038-1.938,2.18.828,2.22.868a2.456,2.456,0,0,1,2.24-1.332c1.292.182,3.048,2.058,3.451,2.4a56.252,56.252,0,0,1,4.3,4.622c.646.949,2.644,4.541,2.341,7.367S471.835,1128.925,471.043,1129.177Z" transform="translate(-450.082 -1108.112)" fill="#fff" stroke="#293340" stroke-width="2"/>
          <g id="Group_108" data-name="Group 108">
            <path id="Path_1673" data-name="Path 1673" d="M918.963,116.758l-7.936-7.936c-.875-.875-1.894-1.021-3.029.114s-.99,2.154-.115,3.029l11.757,11.757" transform="translate(-907.187 -107.72)" fill="rgba(0,0,0,0)" stroke="#293340" stroke-linecap="round" stroke-miterlimit="10" stroke-width="2"/>
            <path id="Path_1674" data-name="Path 1674" d="M938.85,112.424,936,109.571c-1.206-1.207-2.263-1.7-3.434-.73a2.749,2.749,0,0,0-1.078,1.627" transform="translate(-920.084 -107.828)" fill="rgba(0,0,0,0)" stroke="#293340" stroke-linecap="round" stroke-miterlimit="10" stroke-width="2"/>
            <path id="Path_1676" data-name="Path 1676" d="M921.1,131.172a6.815,6.815,0,0,0-1.095.9c-.788.788-.757,2,.237,3.238a35.5,35.5,0,0,0,2.49,2.854,8.127,8.127,0,0,0,5.076,2.873,28.426,28.426,0,0,0,6.627.015" transform="translate(-913.698 -119.954)" fill="rgba(0,0,0,0)" stroke="#293340" stroke-linecap="round" stroke-miterlimit="10" stroke-width="2"/>
            <path id="Path_1677" data-name="Path 1677" d="M930.791,115.925l-2.645-2.646c-1.206-1.206-2.617-1.963-3.86-.72a5.082,5.082,0,0,0-1.295,1.844" transform="translate(-915.576 -109.736)" fill="rgba(0,0,0,0)" stroke="#293340" stroke-linecap="round" stroke-miterlimit="10" stroke-width="2"/>
          </g>
        </g>
      </g>
    </g>
    <g id="Group_276" data-name="Group 276" transform="translate(3774.949 2870.951)">
      <g id="Group_277" data-name="Group 277" transform="translate(0)">
        <path id="Path_2506" data-name="Path 2506" d="M4103.083,3168.2s-3.937,17.766,2.761,17.766c5.088,0,8.736-8.493,7.616-14.344s-6.331-12.074-16.117-11.9-17.494,8.152-17.324,18.937,11.549,21.485,26.155,13.825" transform="translate(-4080.017 -3159.723)" fill="none" stroke="#293340" stroke-linecap="round" stroke-linejoin="round" stroke-width="2"/>
        <path id="Path_2507" data-name="Path 2507" d="M4106.858,3182.625c-.653,2.211-3.78,7.386-7.538,7.386s-5.68-4.135-5.275-8.994,3.729-8.844,7.436-8.844a8.835,8.835,0,0,1,1.531.138,5.3,5.3,0,0,1,2.42.981,4.835,4.835,0,0,1,1.5,2.072,5.088,5.088,0,0,1,.324,1.683l-.181,2.5Z" transform="translate(-4084.95 -3164.117)" fill="#07f" stroke="#293340" stroke-linejoin="round" stroke-width="2"/>
      </g>
    </g>
  </g>
</svg>
